<svg viewBox="0 0 22.0919 29" fill="none" xmlns="http://www.w3.org/2000/svg">
<path d="M9.98528 28.5607C10.5711 29.1464 11.5208 29.1464 12.1066 28.5607L21.6525 19.0147C22.2383 18.4289 22.2383 17.4792 21.6525 16.8934C21.0668 16.3076 20.117 16.3076 19.5312 16.8934L11.0459 25.3787L2.56066 16.8934C1.97487 16.3076 1.02513 16.3076 0.43934 16.8934C-0.146446 17.4792 -0.146446 18.4289 0.43934 19.0147L9.98528 28.5607ZM12.5459 1.5C12.5459 0.671574 11.8744 -3.62117e-08 11.0459 0C10.2175 3.62117e-08 9.54594 0.671574 9.54594 1.5L11.0459 1.5L12.5459 1.5ZM11.0459 27.5L12.5459 27.5L12.5459 1.5L11.0459 1.5L9.54594 1.5L9.54594 27.5L11.0459 27.5Z" fill="#fff"/>
</svg>
