<svg preserveAspectRatio="none" width="100%" height="100%" overflow="visible" style="display: block;" viewBox="0 0 33.8545 38" fill="none" xmlns="http://www.w3.org/2000/svg">
<g id="Layer_1" clip-path="url(#clip0_1079_3278)">
<path id="Vector" d="M33.423 30.005C31.1078 28.0943 28.7822 26.194 26.4458 24.309C25.9305 23.7849 25.0212 23.6391 24.4728 24.1929C23.8819 24.8118 23.3469 25.4832 22.75 26.0962C24.589 27.7722 26.5783 29.2704 28.4929 30.8572C29.7048 31.8436 30.8833 32.8702 32.109 33.8398C32.6891 33.1034 33.3902 32.4365 33.7927 31.5769C33.9193 31.0468 33.8847 30.3721 33.4234 30.005H33.423Z" fill="var(--fill-0, #0054AC)"/>
<path id="Vector_2" d="M11.4202 12.0462C12.0412 11.7404 12.6426 11.3986 13.2562 11.078C13.6706 10.8537 14.1394 10.5915 14.2689 10.1009C14.4756 9.67013 14.2086 9.23941 14.0277 8.85705C12.6515 6.16933 11.2724 3.48459 9.93085 0.78199C9.67022 0.164552 8.89985 -0.124454 8.2788 0.0503627C7.45445 0.392186 6.63569 0.798728 5.86719 1.23242C6.1025 1.86176 6.45213 2.44015 6.7459 3.04234C8.30747 6.04175 9.86755 9.04265 11.4198 12.0465L11.4202 12.0462Z" fill="var(--fill-0, #0054AC)"/>
<path id="Vector_3" d="M21.8024 27.348C21.5597 27.7575 21.3307 28.206 20.9085 28.4608C20.3432 28.8462 19.552 28.8491 18.9898 28.4564C18.215 27.9431 17.5384 27.297 16.8586 26.6691C13.4461 23.316 10.495 19.4656 8.2971 15.2104C7.80562 14.0299 8.95576 13.0152 9.96851 12.6492C9.47703 11.5936 8.939 10.5592 8.40694 9.52332C7.07919 7.04017 5.83857 4.5124 4.50748 2.03223C2.43208 3.5695 0.578226 5.67288 0.10201 8.28398C-0.262878 10.2475 0.417005 12.1883 1.09987 14.0012C3.15739 19.0769 6.34085 23.6154 9.90559 27.7441C12.6519 30.8279 15.6604 33.728 19.1212 36.0044C20.7822 37.0778 22.6528 38.0839 24.6921 37.9951C27.0859 37.8325 29.3314 36.64 31.0196 34.9715C29.8274 33.9519 28.6243 32.9447 27.402 31.9646C25.5057 30.4604 23.682 28.8703 21.8024 27.348Z" fill="var(--fill-0, #0054AC)"/>
</g>
<defs>
<clipPath id="clip0_1079_3278">
<rect width="33.8545" height="38" fill="white"/>
</clipPath>
</defs>
</svg>
