<svg viewBox="0 0 434 434" fill="none" xmlns="http://www.w3.org/2000/svg">
<path d="M397.056 37.6594L396.694 37.287C372.787 13.3775 340.931 0.143228 306.957 0H306.384C271.894 0 239.847 12.9574 216.151 36.4754L180.773 71.8718C156.399 96.0583 146.865 126.06 151.666 163.557C155.826 196.051 172.127 218.509 195.327 242.179C210.3 258.956 231.497 290.591 206.684 315.245L171.335 350.613C160.131 361.727 144.594 367.857 127.635 367.857H127.339C110.934 367.79 95.5691 361.422 84.0788 349.925C72.4549 338.2 66.0799 322.645 66.1467 306.155C66.2135 289.636 72.6362 274.215 84.2315 262.709L136.081 211.529L137.331 210.287L144.67 203.04L137.408 195.716L136.167 194.465L106.544 164.607L105.313 163.366L98.0886 156.09L90.7974 163.299L89.5568 164.531L37.7358 215.749C13.5432 239.754 0.144162 271.751 0.00101031 305.887C-0.132598 340.033 12.9896 372.154 36.9628 396.341L37.335 396.713C61.2318 420.623 93.0974 433.866 127.063 434H127.635C162.125 434 194.172 421.043 217.859 397.525L253.236 362.128C277.61 337.942 287.144 307.94 282.344 270.443C278.183 237.949 261.892 215.491 238.683 191.83C223.7 175.053 202.503 143.419 227.326 118.765L262.675 83.3969C273.879 72.2824 289.416 66.1522 306.374 66.1522H306.67C323.075 66.2191 338.44 72.588 349.931 84.0749C361.555 95.8005 367.93 111.355 367.863 127.845C367.796 144.364 361.373 159.795 349.778 171.291L297.928 222.471L296.678 223.713L289.339 230.96L296.602 238.274L297.843 239.525L327.465 269.383L328.697 270.625L335.921 277.901L343.212 270.691L344.453 269.46L396.274 218.241C420.466 194.265 433.865 162.268 433.999 128.132C434.133 93.9862 421.01 61.865 397.037 37.6785L397.056 37.6594Z" fill="#0054AC" fill-opacity="0.05"/>
</svg>
