<svg width="91" height="91" viewBox="0 0 91 91" fill="none" xmlns="http://www.w3.org/2000/svg">
<g clip-path="url(#clip0_681_897)">
<path d="M69.8443 57.968L71.3396 56.4931L71.5941 56.2384L82.2095 45.7441C87.162 40.8312 89.9086 34.2842 89.9404 27.2916C89.9723 20.2989 87.2786 13.7201 82.3686 8.76474L82.2944 8.69046C77.4055 3.79879 70.873 1.08237 63.9162 1.05054H63.7995C56.7367 1.05054 50.1724 3.70329 45.3259 8.52069L38.0829 15.768C33.088 20.7233 31.1367 26.8671 32.1229 34.5389C32.9713 41.192 36.3118 45.7865 41.0628 50.6358C44.1276 54.0737 48.465 60.5465 43.3853 65.5973L36.1422 72.8446C33.8515 75.1154 30.6701 76.3781 27.1917 76.3781H27.1281C23.7663 76.3675 20.6273 75.0623 18.273 72.7067C15.8976 70.3086 14.5826 67.1253 14.6038 63.7404C14.6144 60.3555 15.9294 57.204 18.3049 54.8483L28.9203 44.3647L29.1748 44.11L30.6807 42.6245" stroke="#1ABD76" stroke-width="2" stroke-linecap="round" stroke-linejoin="round"/>
<path d="M21.1453 33.0322L19.65 34.5071L19.3955 34.7618L8.78002 45.2561C3.82757 50.1689 1.08092 56.7159 1.04911 63.7086C1.01729 70.7012 3.71092 77.2801 8.62095 82.2354L8.69519 82.3097C13.584 87.2014 20.1166 89.9178 27.0733 89.9496H27.19C34.2528 89.9496 40.8172 87.2969 45.6636 82.4795L52.9067 75.2321C57.9016 70.2768 59.8529 64.133 58.8666 56.4613C58.0182 49.8082 54.6777 45.2136 49.9267 40.3644C46.862 36.9264 42.514 30.4537 47.6043 25.4029L54.8474 18.1555C57.138 15.8848 60.3195 14.6221 63.7979 14.6221H63.8615C67.2232 14.6327 70.3622 15.9378 72.7165 18.2935C75.092 20.6916 76.407 23.8749 76.3858 27.2598C76.3752 30.6447 75.0602 33.8068 72.6847 36.1518L62.0693 46.6355L61.8148 46.8901L60.3089 48.3757" stroke="#0054AC" stroke-width="2" stroke-linecap="round" stroke-linejoin="round"/>
</g>
<defs>
<clipPath id="clip0_681_897">
<rect width="91" height="91" fill="white"/>
</clipPath>
</defs>
</svg>
