<svg width="714" height="1122" viewBox="0 0 714 1122" preserveAspectRatio="none" fill="none" xmlns="http://www.w3.org/2000/svg">
<g filter="url(#filter0_dd_609_606)">
<path d="M630 147.406C630 163.649 642.928 176.942 659.165 177.394L685.777 178.135C688.165 178.201 688.999 181.404 687.151 183.41L637.936 236.834C632.833 242.373 630 249.629 630 257.161V1057C630 1073.57 616.569 1087 600 1087H60C43.4315 1087 30 1073.57 30 1057V55C30 38.4315 43.4315 25 60 25H600C616.569 25 630 38.4315 630 55V147.406Z" fill="url(#paint0_linear_609_606)"/>
</g>
<defs>
<filter id="filter0_dd_609_606" x="0" y="0" width="718.156" height="1122" filterUnits="userSpaceOnUse" color-interpolation-filters="sRGB">
<feFlood flood-opacity="0" result="BackgroundImageFix"/>
<feColorMatrix in="SourceAlpha" type="matrix" values="0 0 0 0 0 0 0 0 0 0 0 0 0 0 0 0 0 0 127 0" result="hardAlpha"/>
<feOffset dy="5"/>
<feGaussianBlur stdDeviation="15"/>
<feComposite in2="hardAlpha" operator="out"/>
<feColorMatrix type="matrix" values="0 0 0 0 0 0 0 0 0 0 0 0 0 0 0 0 0 0 0.1 0"/>
<feBlend mode="normal" in2="BackgroundImageFix" result="effect1_dropShadow_609_606"/>
<feColorMatrix in="SourceAlpha" type="matrix" values="0 0 0 0 0 0 0 0 0 0 0 0 0 0 0 0 0 0 127 0" result="hardAlpha"/>
<feOffset/>
<feGaussianBlur stdDeviation="2"/>
<feComposite in2="hardAlpha" operator="out"/>
<feColorMatrix type="matrix" values="0 0 0 0 0 0 0 0 0 0 0 0 0 0 0 0 0 0 0.1 0"/>
<feBlend mode="normal" in2="effect1_dropShadow_609_606" result="effect2_dropShadow_609_606"/>
<feBlend mode="normal" in="SourceGraphic" in2="effect2_dropShadow_609_606" result="shape"/>
</filter>
<linearGradient id="paint0_linear_609_606" x1="353.591" y1="25" x2="353.591" y2="1087" gradientUnits="userSpaceOnUse">
<stop stop-color="white"/>
<stop offset="1" stop-color="#E9E9E9"/>
</linearGradient>
</defs>
</svg>
