<svg width="139" height="139" viewBox="0 0 139 139" fill="none" xmlns="http://www.w3.org/2000/svg">
<circle cx="69.5" cy="69.5" r="69.5" fill="url(#paint0_linear_372_5709)"/>
<g clip-path="url(#clip0_372_5709)">
<path d="M45.6052 47.7559C46.6822 47.7559 47.5581 46.8854 47.5581 45.8151V41.2493C47.5581 41.2493 47.5581 41.2478 47.5581 41.2472C47.5581 41.2467 47.5581 41.2456 47.5581 41.2451V36.9409C47.5581 35.8705 46.6822 35 45.6052 35C44.5283 35 43.6523 35.8705 43.6523 36.9409V45.8151C43.6523 46.8854 44.5283 47.7559 45.6052 47.7559Z" fill="white"/>
<path d="M69.5 47.7559C70.577 47.7559 71.4529 46.8854 71.4529 45.8151V36.9409C71.4529 35.8705 70.577 35 69.5 35C68.423 35 67.5471 35.8705 67.5471 36.9409V41.2462C67.5471 41.2462 67.5471 41.2467 67.5471 41.2472C67.5471 41.2478 67.5471 41.2478 67.5471 41.2483V45.8151C67.5471 46.8854 68.423 47.7559 69.5 47.7559Z" fill="white"/>
<path d="M105.201 42.1772H97.2201V45.815C97.2201 47.9111 95.5041 49.616 93.3956 49.616C91.2871 49.616 89.5711 47.9111 89.5711 45.815V42.1772H73.325V45.815C73.325 47.9111 71.6096 49.616 69.5005 49.616C67.3915 49.616 65.676 47.9111 65.676 45.815V42.1772H49.43V45.815C49.43 47.9111 47.7145 49.616 45.6055 49.616C43.4965 49.616 41.781 47.9111 41.781 45.815V42.1772H33.7994C32.5315 42.1772 31.5 43.2024 31.5 44.4625V54.2157H107.5V44.4625C107.5 43.2024 106.468 42.1772 105.201 42.1772H105.201Z" fill="white"/>
<path d="M31.5 98.7146C31.5 99.9747 32.5315 101 33.7994 101H105.201C106.469 101 107.501 99.9747 107.501 98.7146V56.0757H31.5V98.7146ZM93.5325 61.6054H101.542V69.5661H93.5325V61.6054ZM93.5325 74.786H101.542V82.7466H93.5325V74.786ZM93.5325 87.9665H101.542V95.9272H93.5325V87.9665ZM79.3511 61.6054H87.361V69.5661H79.3511V61.6054ZM79.3511 74.786H87.361V82.7466H79.3511V74.786ZM79.3511 87.9665H87.361V95.9272H79.3511V87.9665ZM65.1696 61.6054H73.1796V69.5661H65.1696V61.6054ZM65.1696 74.786H73.1796V82.7466H65.1696V74.786ZM65.1696 87.9665H73.1796V95.9272H65.1696V87.9665ZM50.9888 74.786H58.9987V82.7466H50.9888V74.786ZM50.9888 87.9665H58.9987V95.9272H50.9888V87.9665ZM36.8073 74.786H44.8173V82.7466H36.8073V74.786ZM36.8073 87.9665H44.8173V95.9272H36.8073V87.9665Z" fill="white"/>
<path d="M93.3982 47.7559C94.4752 47.7559 95.3511 46.8854 95.3511 45.8151V41.2493C95.3511 41.2493 95.3511 41.2478 95.3511 41.2472C95.3511 41.2467 95.3511 41.2456 95.3511 41.2451V36.9409C95.3511 35.8705 94.4752 35 93.3982 35C92.3212 35 91.4453 35.8705 91.4453 36.9409V45.8151C91.4453 46.8854 92.3212 47.7559 93.3982 47.7559Z" fill="white"/>
</g>
<defs>
<linearGradient id="paint0_linear_372_5709" x1="69.5" y1="0" x2="69.5" y2="139" gradientUnits="userSpaceOnUse">
<stop stop-color="#0054AC"/>
<stop offset="1" stop-color="#98CBFF"/>
</linearGradient>
<clipPath id="clip0_372_5709">
<rect width="76" height="66" fill="white" transform="translate(31.5 35)"/>
</clipPath>
</defs>
</svg>
