<svg width="139" height="139" viewBox="0 0 139 139" fill="none" xmlns="http://www.w3.org/2000/svg">
<circle cx="69.5" cy="69.5" r="69.5" fill="url(#paint0_linear_372_5701)"/>
<g clip-path="url(#clip0_372_5701)">
<path d="M47.0989 47.5285C46.6804 47.5285 46.2457 47.3674 45.9238 47.0293C45.312 46.3851 45.3442 45.3706 45.9881 44.7587C52.6046 38.4622 61.2815 35 70.4254 35C76.8164 35 83.0787 36.7231 88.5521 39.976C89.3087 40.4269 89.5663 41.4253 89.1155 42.1821C88.6648 42.939 87.6828 43.1966 86.9101 42.7457C81.9518 39.7827 76.253 38.2207 70.4415 38.2207C62.1348 38.2207 54.2466 41.377 48.2258 47.0937C47.9199 47.3835 47.5175 47.5285 47.115 47.5285H47.0989Z" fill="white"/>
<path d="M82.9648 45.0325L94.121 46.2886L89.6456 35.9824L82.9648 45.0325Z" fill="white"/>
<path d="M70.811 106C64.42 106 58.1577 104.277 52.6843 101.024C51.9277 100.573 51.6701 99.5747 52.1208 98.8179C52.5716 98.061 53.5536 97.8033 54.3263 98.2542C59.2846 101.217 64.9834 102.779 70.7949 102.779C79.1016 102.779 86.9898 99.623 93.0106 93.9063C93.6545 93.2944 94.6687 93.3266 95.2804 93.9707C95.8922 94.6149 95.86 95.6294 95.216 96.2413C88.5996 102.522 79.9226 106 70.7788 106H70.811Z" fill="white"/>
<path d="M58.2699 95.9836L47.0977 94.7114L51.5891 105.018L58.2699 95.9836Z" fill="white"/>
<path d="M114.549 51.3291H88.6143C88.3729 51.3291 88.1797 51.5223 88.1797 51.7639V55.6931C88.1797 55.9347 88.3729 56.1279 88.6143 56.1279H89.4676V88.6729C89.4676 88.8823 89.6446 89.0594 89.8539 89.0594H96.3737C96.583 89.0594 96.7601 88.8823 96.7601 88.6729V77.1751C96.7601 76.9658 96.9372 76.7886 97.1465 76.7886H105.984C106.194 76.7886 106.371 76.9658 106.371 77.1751V88.6729C106.371 88.8823 106.548 89.0594 106.757 89.0594H113.277C113.486 89.0594 113.663 88.8823 113.663 88.6729V56.144H114.517C114.758 56.144 114.951 55.9508 114.951 55.7092V51.78C114.951 51.5384 114.758 51.3452 114.517 51.3452L114.549 51.3291ZM97.1303 70.9592C97.1303 71.6355 96.583 72.183 95.9069 72.183C95.2308 72.183 94.6834 71.6355 94.6834 70.9592V67.7546C94.6834 67.0782 95.2308 66.5307 95.9069 66.5307C96.583 66.5307 97.1303 67.0782 97.1303 67.7546V70.9592ZM97.1303 62.3599C97.1303 63.0363 96.583 63.5838 95.9069 63.5838C95.2308 63.5838 94.6834 63.0363 94.6834 62.3599V59.1554C94.6834 58.479 95.2308 57.9315 95.9069 57.9315C96.583 57.9315 97.1303 58.479 97.1303 59.1554V62.3599ZM102.813 70.9592C102.813 71.6355 102.266 72.183 101.59 72.183C100.913 72.183 100.366 71.6355 100.366 70.9592V67.7546C100.366 67.0782 100.913 66.5307 101.59 66.5307C102.266 66.5307 102.813 67.0782 102.813 67.7546V70.9592ZM102.813 62.3599C102.813 63.0363 102.266 63.5838 101.59 63.5838C100.913 63.5838 100.366 63.0363 100.366 62.3599V59.1554C100.366 58.479 100.913 57.9315 101.59 57.9315C102.266 57.9315 102.813 58.479 102.813 59.1554V62.3599ZM108.48 70.9592C108.48 71.6355 107.932 72.183 107.256 72.183C106.58 72.183 106.033 71.6355 106.033 70.9592V67.7546C106.033 67.0782 106.58 66.5307 107.256 66.5307C107.932 66.5307 108.48 67.0782 108.48 67.7546V70.9592ZM108.48 62.3599C108.48 63.0363 107.932 63.5838 107.256 63.5838C106.58 63.5838 106.033 63.0363 106.033 62.3599V59.1554C106.033 58.479 106.58 57.9315 107.256 57.9315C107.932 57.9315 108.48 58.479 108.48 59.1554V62.3599Z" fill="white"/>
<path d="M58.0943 68.4146L40.8852 53.0359C40.4989 52.6977 39.9193 52.6977 39.533 53.0359L22.3399 68.4146C21.6477 69.0266 22.0824 70.1699 23.0161 70.1699H26.0265C26.5899 70.1699 27.0407 70.6208 27.0407 71.1844V87.7226C27.0407 88.2863 27.4914 88.7371 28.0549 88.7371H33.3673C33.9307 88.7371 34.3815 88.2863 34.3815 87.7226V77.352C34.3815 76.7884 34.8322 76.3375 35.3957 76.3375H45.103C45.6664 76.3375 46.1172 76.7884 46.1172 77.352V87.7226C46.1172 88.2863 46.5679 88.7371 47.1314 88.7371H52.4438C53.0072 88.7371 53.458 88.2863 53.458 87.7226V71.1844C53.458 70.6208 53.9088 70.1699 54.4722 70.1699H57.4826C58.4163 70.1699 58.8509 69.0266 58.1587 68.4146H58.0943Z" fill="white"/>
</g>
<defs>
<linearGradient id="paint0_linear_372_5701" x1="69.5" y1="0" x2="69.5" y2="139" gradientUnits="userSpaceOnUse">
<stop stop-color="#0054AC"/>
<stop offset="1" stop-color="#98CBFF"/>
</linearGradient>
<clipPath id="clip0_372_5701">
<rect width="93" height="71" fill="white" transform="translate(22 35)"/>
</clipPath>
</defs>
</svg>
