<svg width="139" height="139" viewBox="0 0 139 139" fill="none" xmlns="http://www.w3.org/2000/svg">
<circle cx="69.5" cy="69.5" r="69.5" fill="url(#paint0_linear_373_5742)"/>
<g clip-path="url(#clip0_373_5742)">
<path d="M82.1619 57.5146C81.2962 56.4889 80.0658 55.5601 78.5202 54.8992C78.1378 54.7177 77.6722 54.7512 77.3057 55.0314C76.5569 55.6095 75.7248 56.073 74.8113 56.3726C73.9296 56.6705 72.9825 56.8361 71.9999 56.8361C71.0174 56.8361 70.0702 56.6705 69.1903 56.3726C68.275 56.0748 67.4447 55.6113 66.6959 55.0314C66.363 54.7829 65.9134 54.7001 65.4991 54.8816C63.9518 55.5443 62.7054 56.4713 61.8415 57.5146C60.8607 58.6902 60.3438 60.0137 60.3438 61.2897V76.9505C60.3438 78.3075 60.8926 79.5659 61.7902 80.477C62.4222 81.1397 63.2365 81.6191 64.1518 81.8517V94.1022C64.1518 95.2777 64.6351 96.3369 65.4159 97.1159C66.1807 97.8931 67.2624 98.3743 68.4432 98.3743H75.5601C76.741 98.3743 77.805 97.8949 78.5875 97.1159C79.3682 96.3369 79.8515 95.2777 79.8515 94.1022V81.8517C80.7651 81.6208 81.5812 81.1397 82.2132 80.477C83.1108 79.5659 83.6596 78.3075 83.6596 76.9505V61.2897C83.6596 60.0155 83.1444 58.6902 82.1636 57.5146H82.1619Z" fill="white"/>
<path d="M71.9997 55.0985C73.9949 55.0985 75.8078 54.2878 77.1214 52.9801C78.435 51.6723 79.2512 49.8676 79.2512 47.8814C79.2512 45.8952 78.4368 44.0905 77.1214 42.7828C75.8078 41.4751 73.9949 40.6626 71.9997 40.6626C70.0045 40.6626 68.1916 41.4751 66.878 42.7828C65.5644 44.0905 64.75 45.8952 64.75 47.8814C64.75 49.8676 65.5661 51.6723 66.878 52.9801C68.1916 54.2878 70.0045 55.0985 71.9997 55.0985Z" fill="white"/>
<path d="M82.8563 94.795C82.4066 94.3315 82.4243 93.586 82.9059 93.1559C83.3715 92.71 84.1203 92.7259 84.5523 93.2053C85.0179 93.6847 85.3844 94.231 85.6499 94.795C85.8996 95.3748 86.0483 95.9705 86.0483 96.5997C86.0483 98.8009 84.3523 100.722 81.6082 102.046C79.1296 103.255 75.7217 103.998 71.9968 103.998C68.2719 103.998 64.8639 103.253 62.3854 102.046C59.6413 100.72 57.9453 98.8009 57.9453 96.5997C57.9453 95.9705 58.0958 95.3748 58.3454 94.795C58.611 94.2328 58.9774 93.6864 59.4431 93.2053C59.875 92.7259 60.6239 92.7083 61.0895 93.1559C61.571 93.586 61.5888 94.3315 61.1391 94.795C60.8558 95.1087 60.6239 95.4242 60.4911 95.7379C60.3583 96.0198 60.2911 96.3001 60.2911 96.5997C60.2911 97.8245 61.4878 99.0159 63.4016 99.943C65.581 101.002 68.6242 101.649 71.9986 101.649C75.3729 101.649 78.418 101.004 80.5955 99.943C82.5075 99.0159 83.7043 97.8245 83.7043 96.5997C83.7043 96.3018 83.637 96.0198 83.5042 95.7379C83.3715 95.4242 83.1378 95.1087 82.8563 94.795Z" fill="white"/>
<path d="M55.8896 55.1145C55.1248 54.2033 54.0608 53.4102 52.7295 52.8304C52.3471 52.6489 51.8815 52.6823 51.515 52.9626C50.8989 53.4419 50.2014 53.8244 49.4525 54.0887C48.7214 54.3372 47.9389 54.4694 47.1085 54.4694C46.2782 54.4694 45.5117 54.3372 44.7805 54.0887C44.0316 53.8244 43.3341 53.4437 42.718 52.9626H42.7021C42.3852 52.7141 41.9213 52.6312 41.5212 52.8128C40.174 53.3926 39.094 54.2033 38.3452 55.1145C37.4795 56.1402 37.0156 57.2999 37.0156 58.4084V71.7357C37.0156 72.9447 37.5149 74.0357 38.3133 74.8481C38.8462 75.3945 39.5101 75.8086 40.2749 76.0395V86.3038C40.2749 87.363 40.6909 88.3059 41.3885 89.002C42.086 89.6805 43.0349 90.1106 44.083 90.1106H50.1359C51.184 90.1106 52.147 89.6805 52.8304 89.002V88.9844C53.5279 88.3059 53.9617 87.3453 53.9617 86.302V76.0377C54.7105 75.8051 55.3921 75.3927 55.9233 74.8464C56.7217 74.0357 57.2032 72.943 57.2032 71.734V58.4066C57.2032 57.2981 56.7376 56.1384 55.8896 55.1127V55.1145Z" fill="white"/>
<path d="M47.1058 52.6153C48.8514 52.6153 50.4483 51.9033 51.5955 50.7612C52.7427 49.6192 53.442 48.0454 53.442 46.3076C53.442 44.5699 52.7445 42.9802 51.5955 41.8382C50.4483 40.712 48.8514 40 47.1058 40C45.3602 40 43.7793 40.712 42.6321 41.8382C41.4849 42.9802 40.7697 44.5699 40.7697 46.3076C40.7697 48.0454 41.4849 49.6192 42.6321 50.7612C43.7793 51.9033 45.3585 52.6153 47.1058 52.6153Z" fill="white"/>
<path d="M56.202 87.0317C55.7701 86.5523 55.786 85.8227 56.2516 85.3768C56.7332 84.9291 57.4661 84.9626 57.914 85.4261C58.3141 85.8562 58.6469 86.3373 58.8629 86.8325C59.0948 87.3454 59.2294 87.8759 59.2294 88.4381C59.2294 90.375 57.7493 92.0634 55.354 93.2213C53.226 94.2488 50.2996 94.8938 47.1058 94.8938C43.9121 94.8938 41.0033 94.2488 38.8577 93.2213C36.48 92.0616 35 90.375 35 88.4381C35 87.8759 35.1168 87.3454 35.3488 86.8325C35.5807 86.3197 35.8976 85.8562 36.3136 85.4261C36.7456 84.9626 37.4945 84.9291 37.9601 85.3768C38.4257 85.8227 38.4593 86.5523 38.0096 87.0317C37.7777 87.2802 37.5936 87.5287 37.4768 87.7772C37.3936 87.9922 37.344 88.2072 37.344 88.4399C37.344 89.4162 38.3088 90.3609 39.888 91.1222C41.7009 92.0158 44.2608 92.5621 47.1058 92.5621C49.9508 92.5621 52.5108 92.0158 54.3396 91.1222C55.9028 90.3609 56.8836 89.4162 56.8836 88.4399C56.8836 88.2072 56.8341 87.9922 56.7332 87.7772C56.6163 87.5287 56.434 87.2802 56.202 87.0317Z" fill="white"/>
<path d="M105.659 55.1145C104.91 54.2033 103.846 53.4102 102.517 52.8304C102.134 52.6489 101.653 52.6823 101.304 52.9626C100.672 53.4419 99.9728 53.8244 99.2257 54.0887C98.4945 54.3372 97.712 54.4694 96.8976 54.4694C96.0832 54.4694 95.2848 54.3372 94.5536 54.0887C93.8048 53.8244 93.1072 53.4437 92.4911 52.9626C92.1583 52.7141 91.7104 52.6312 91.3103 52.8128C89.963 53.3926 88.8831 54.2033 88.1183 55.1145C87.2703 56.1402 86.8047 57.2999 86.8047 58.4084V71.7357C86.8047 72.9447 87.2862 74.0357 88.0847 74.8481C88.6176 75.3945 89.2992 75.8086 90.0463 76.0395V86.3038C90.0463 87.363 90.4782 88.3059 91.1775 89.002C91.8591 89.6805 92.824 90.1106 93.872 90.1106H99.925C100.973 90.1106 101.922 89.6805 102.619 89.002V88.9844C103.319 88.3059 103.733 87.3453 103.733 86.302V76.0377C104.498 75.8051 105.164 75.3927 105.695 74.8464C106.493 74.0357 106.992 72.943 106.992 71.734V58.4066C106.992 57.2981 106.527 56.1384 105.663 55.1127L105.659 55.1145Z" fill="white"/>
<path d="M96.8948 52.6153C98.6404 52.6153 100.221 51.9033 101.369 50.7612C102.516 49.6192 103.231 48.0454 103.231 46.3076C103.231 44.5699 102.516 42.9802 101.369 41.8382C100.221 40.712 98.6404 40 96.8948 40C95.1492 40 93.5523 40.712 92.4051 41.8382C91.2579 42.9802 90.5586 44.5699 90.5586 46.3076C90.5586 48.0454 91.2579 49.6192 92.4051 50.7612C93.5523 51.9033 95.1492 52.6153 96.8948 52.6153Z" fill="white"/>
<path d="M105.991 87.0317C105.542 86.5523 105.575 85.8227 106.041 85.3768C106.507 84.9291 107.255 84.9626 107.687 85.4261C108.103 85.8562 108.419 86.3197 108.652 86.8325C108.886 87.3454 109.001 87.8759 109.001 88.4381C109.001 90.375 107.521 92.0634 105.143 93.2213C102.998 94.2488 100.089 94.8938 96.8952 94.8938C93.7014 94.8938 90.7768 94.2488 88.647 93.2213C86.2517 92.0616 84.7734 90.375 84.7734 88.4381C84.7734 87.8759 84.9062 87.3454 85.1399 86.8325C85.3559 86.3197 85.671 85.8562 86.0871 85.4261C86.5367 84.9626 87.2679 84.9291 87.7494 85.3768C88.2151 85.8227 88.231 86.5523 87.799 87.0317C87.5653 87.2802 87.383 87.5287 87.2661 87.7772C87.1652 87.9922 87.1174 88.2072 87.1174 88.4399C87.1174 89.4162 88.0982 90.3609 89.6614 91.1222C91.4902 92.0158 94.052 92.5621 96.8952 92.5621C99.7384 92.5621 102.284 92.0158 104.113 91.1222C105.692 90.3609 106.657 89.4162 106.657 88.4399C106.657 88.2072 106.607 87.9922 106.508 87.7772C106.407 87.5287 106.225 87.2802 105.993 87.0317H105.991Z" fill="white"/>
</g>
<defs>
<linearGradient id="paint0_linear_373_5742" x1="69.5" y1="0" x2="69.5" y2="139" gradientUnits="userSpaceOnUse">
<stop stop-color="#0054AC"/>
<stop offset="1" stop-color="#98CBFF"/>
</linearGradient>
<clipPath id="clip0_373_5742">
<rect width="74" height="64" fill="white" transform="translate(35 40)"/>
</clipPath>
</defs>
</svg>
