<svg width="139" height="139" viewBox="0 0 139 139" fill="none" xmlns="http://www.w3.org/2000/svg">
<circle cx="69.5" cy="69.5" r="69.5" fill="url(#paint0_linear_372_5692)"/>
<g clip-path="url(#clip0_372_5692)">
<path d="M112.187 52.3193H28.8125V83.4309H40.3142L32.5676 97.6805L56.7264 83.4309H112.187V52.3193Z" stroke="white" stroke-width="3" stroke-linecap="round" stroke-linejoin="round"/>
<path d="M43.2027 74.3537L44.8308 69.3136C44.9095 69.0761 44.8308 68.8122 44.6207 68.6803L40.3666 65.5928C39.9202 65.2762 40.1566 64.5637 40.708 64.5637H45.9337C46.17 64.5637 46.4063 64.4054 46.4589 64.1679L48.087 59.1278C48.2445 58.6 49.006 58.6 49.1636 59.1278L50.7917 64.1415C50.8705 64.379 51.0805 64.5373 51.3431 64.5373H56.595C57.1465 64.5373 57.3828 65.2498 56.9364 65.5665L52.6824 68.6803C52.4723 68.8122 52.3935 69.0761 52.4723 69.3136L54.1004 74.3273C54.2579 74.8551 53.6802 75.2773 53.2338 74.9606L48.9798 71.8468C48.7697 71.6885 48.5071 71.6885 48.3233 71.8468L44.0692 74.9606C43.6228 75.2773 43.0189 74.8551 43.2027 74.3273V74.3537Z" fill="white"/>
<path d="M65.0503 74.3537L66.6784 69.3136C66.7572 69.0761 66.6784 68.8122 66.4683 68.6803L62.2143 65.5928C61.7679 65.2762 62.0042 64.5637 62.5557 64.5637H67.7813C68.0177 64.5637 68.254 64.4054 68.3065 64.1679L69.9346 59.1278C70.0922 58.6 70.8537 58.6 71.0112 59.1278L72.6393 64.1415C72.7181 64.379 72.9282 64.5373 73.1908 64.5373H78.4427C78.9941 64.5373 79.2305 65.2498 78.7841 65.5665L74.53 68.6803C74.32 68.8122 74.2412 69.0761 74.32 69.3136L75.948 74.3273C76.1056 74.8551 75.5279 75.2773 75.0815 74.9606L70.8274 71.8468C70.6174 71.6885 70.3548 71.6885 70.1709 71.8468L65.9169 74.9606C65.4705 75.2773 64.8665 74.8551 65.0503 74.3273V74.3537Z" fill="white"/>
<path d="M86.8746 74.3537L88.5026 69.3136C88.5814 69.0761 88.5026 68.8122 88.2926 68.6803L84.0385 65.5928C83.5921 65.2762 83.8284 64.5637 84.3799 64.5637H89.6055C89.8419 64.5637 90.0782 64.4054 90.1307 64.1679L91.7588 59.1278C91.9164 58.6 92.6779 58.6 92.8355 59.1278L94.4636 64.1415C94.5423 64.379 94.7524 64.5373 95.015 64.5373H100.267C100.818 64.5373 101.055 65.2498 100.608 65.5665L96.3542 68.6803C96.1442 68.8122 96.0654 69.0761 96.1442 69.3136L97.7723 74.3273C97.9298 74.8551 97.3521 75.2773 96.9057 74.9606L92.6516 71.8468C92.4416 71.6885 92.179 71.6885 91.9952 71.8468L87.7411 74.9606C87.2947 75.2773 86.6907 74.8551 86.8746 74.3273V74.3537Z" fill="white"/>
</g>
<defs>
<linearGradient id="paint0_linear_372_5692" x1="69.5" y1="0" x2="69.5" y2="139" gradientUnits="userSpaceOnUse">
<stop stop-color="#0054AC"/>
<stop offset="1" stop-color="#98CBFF"/>
</linearGradient>
<clipPath id="clip0_372_5692">
<rect width="86" height="48" fill="white" transform="translate(27.5 51)"/>
</clipPath>
</defs>
</svg>
