<svg width="139" height="139" viewBox="0 0 139 139" fill="none" xmlns="http://www.w3.org/2000/svg">
<circle cx="69.5" cy="69.5" r="69.5" fill="url(#paint0_linear_372_5685)"/>
<g clip-path="url(#clip0_372_5685)">
<path d="M43.6917 42.3822C45.7704 41.2681 48.388 41.2296 50.4667 42.363C52.2567 43.2467 53.5655 44.8603 54.4509 46.6084C55.6827 49.1633 56.1061 52.0448 56.0484 54.8686C56.0869 57.7117 55.9521 60.5548 56.1446 63.3978C56.6065 63.3978 57.0492 63.3978 57.5112 63.3978C57.5112 59.8632 57.5689 56.3094 57.5112 52.7748C57.3379 48.856 55.9521 44.7835 52.8918 42.1709C50.5822 40.1539 47.1754 39.4239 44.2691 40.4805C41.5167 41.3833 39.4573 43.7077 38.2255 46.2626C36.8589 49.0481 36.5702 52.1985 36.6279 55.2528C36.6664 57.9614 36.5702 60.67 36.7434 63.3786C37.1861 63.3786 37.6288 63.3786 38.0715 63.3786C38.0715 60.5356 38.11 57.7117 38.0715 54.8686C38.0715 52.0448 38.4179 49.1249 39.7267 46.57C40.6314 44.8795 41.9209 43.2851 43.6532 42.4014L43.6917 42.3822Z" fill="white"/>
<path d="M70.6557 81.3783C68.9427 74.578 67.2489 67.7777 65.4589 60.9966C65.228 60.4203 64.6313 60.0361 64.0154 60.0937C62.2254 60.0937 60.4546 60.0745 58.6647 60.113C58.6647 61.1503 58.6647 62.1876 58.6839 63.225C59.0881 63.3402 59.7233 63.3978 59.7617 63.9549C59.7617 65.338 59.858 66.7211 59.6655 68.085C59.4923 69.4105 58.3759 70.6592 56.9709 70.6207C55.5274 70.7168 54.2955 69.4489 54.1416 68.0658C53.9876 66.5483 54.0646 64.9923 54.1416 63.4747C54.3918 63.3786 54.6612 63.3018 54.9307 63.2057C54.9307 62.1684 54.9307 61.1311 54.9499 60.113C53.006 59.9785 51.0428 60.113 49.0988 60.0553C45.8075 60.0937 42.5162 60.0169 39.2442 60.113C39.2442 61.1503 39.225 62.2068 39.2827 63.2634C39.6099 63.3594 40.1296 63.2634 40.2643 63.7052C40.3413 64.6657 40.2643 65.6454 40.3028 66.6059C40.3413 67.7585 40.1873 69.0455 39.3597 69.91C38.4743 70.8321 36.8576 70.9089 35.876 70.1021C35.0868 69.4682 34.7019 68.4308 34.6826 67.4511C34.6441 66.2217 34.5864 64.9923 34.6826 63.7628C34.6826 63.321 35.2408 63.3594 35.5487 63.2057C35.5487 62.1876 35.5487 61.1503 35.5872 60.1322C33.8165 60.0745 32.0265 60.113 30.2558 60.0937C29.6976 60.0553 29.1972 60.4587 28.9854 60.939C27.2532 67.6432 25.5017 74.3667 23.8272 81.0901C23.2113 83.2608 23.4807 85.6621 24.5008 87.6599C25.7519 90.0035 28.0808 91.7708 30.6984 92.3087C31.7955 92.5392 32.9119 92.4239 34.009 92.4431C43.3054 92.4431 52.621 92.4431 61.9174 92.4431C63.7844 92.4816 65.6322 91.8861 67.1334 90.8103C70.0975 88.7933 71.5603 84.836 70.6364 81.3783H70.6557Z" fill="white"/>
<path d="M35.8948 64.4733C35.8178 65.6451 35.7215 66.8553 35.9332 68.0271C36.068 68.8724 36.8379 69.6792 37.7425 69.4871C38.5316 69.3718 38.9551 68.565 39.0513 67.8542C39.1475 66.7209 39.0513 65.5875 39.0513 64.4541C37.9927 64.4925 36.9341 64.4541 35.8755 64.4733H35.8948Z" fill="white"/>
<path d="M56.7382 69.4677C57.6813 69.6214 58.3934 68.6993 58.5089 67.8541C58.6051 66.7399 58.5282 65.6065 58.5474 64.4731C57.4503 64.4731 56.3532 64.4731 55.2561 64.4731C55.2561 65.5297 55.1984 66.5862 55.2561 67.6428C55.3139 68.4688 55.8335 69.3909 56.7382 69.4677Z" fill="white"/>
<path d="M99.9111 58.8066L96.5043 62.3413C103.722 62.5141 109.535 68.45 109.535 75.6921C109.535 82.9342 103.53 89.0622 96.1386 89.0622C88.7477 89.0622 82.7426 83.0687 82.7426 75.6921C82.7426 68.3155 88.5552 62.5141 95.7729 62.3413L92.4817 58.9411L92.3662 58.8066C84.5903 60.4779 78.7969 67.3934 78.7969 75.6729C78.7969 85.2586 86.5728 93.0194 96.1579 93.0194C105.743 93.0194 113.519 85.2586 113.519 75.6729C113.519 67.4127 107.725 60.5163 99.9303 58.8066H99.9111Z" fill="white"/>
<path d="M86.0742 51.2188L94.5045 59.9592L94.1388 59.2101L90.2894 51.2188H86.0742Z" fill="white"/>
<path d="M106.262 51.2188H102.028L97.8125 59.9784L99.2945 58.4417L106.262 51.2188Z" fill="white"/>
<path d="M85.8242 50.3158H90.3858L95.0629 45.6094H88.7113L85.8242 50.3158Z" fill="white"/>
<path d="M106.512 50.3158L103.586 45.6094H97.2344L101.911 50.3158H106.512Z" fill="white"/>
<path d="M95.3505 59.6133C95.3505 59.6133 95.3698 59.6517 95.389 59.6709L96.1396 61.3038L97.3522 58.8257L101.009 51.2378H91.3086L95.312 59.5749L95.3505 59.6133Z" fill="white"/>
<path d="M91.6719 50.3158H100.641L96.1372 45.7822L91.6719 50.3158Z" fill="white"/>
</g>
<defs>
<linearGradient id="paint0_linear_372_5685" x1="69.5" y1="0" x2="69.5" y2="139" gradientUnits="userSpaceOnUse">
<stop stop-color="#0054AC"/>
<stop offset="1" stop-color="#98CBFF"/>
</linearGradient>
<clipPath id="clip0_372_5685">
<rect width="90" height="53" fill="white" transform="translate(23.5 40)"/>
</clipPath>
</defs>
</svg>
