<svg width="139" height="139" viewBox="0 0 139 139" fill="none" xmlns="http://www.w3.org/2000/svg">
<circle cx="69.5" cy="69.5" r="69.5" fill="url(#paint0_linear_372_5730)"/>
<g clip-path="url(#clip0_372_5730)">
<path d="M74.7725 55.4066V42.1372C71.6169 43.3452 69.303 44.6978 68.4218 45.2475V57.8768C70.5101 56.8642 72.6306 56.0396 74.7725 55.4103V55.4066Z" fill="white"/>
<path d="M84.5394 55.6816C81.8709 55.7504 79.2024 56.1156 76.5625 56.7883V70.8968C79.2024 70.3507 81.8673 70.0505 84.5394 69.9963V55.6816Z" fill="white"/>
<path d="M74.7725 57.2983C72.627 57.9602 70.5065 58.8246 68.4218 59.8915V73.4032C70.5101 72.5388 72.6306 71.8408 74.7725 71.3056V57.2983Z" fill="white"/>
<path d="M94.305 41.5046C91.9338 40.727 89.2116 40.1013 86.3281 39.9277V53.8662C88.9966 53.9313 91.6651 54.2858 94.305 54.9259V41.501V41.5046Z" fill="white"/>
<path d="M84.5394 53.8697V39.9312C81.656 40.1011 78.9337 40.7304 76.5625 41.5044V54.9293C79.2024 54.2892 81.8673 53.9348 84.5394 53.8697Z" fill="white"/>
<path d="M84.5365 89.2513C84.5365 88.8318 84.1962 88.4918 83.7807 88.5027C81.5635 88.5606 79.3535 88.7342 77.1613 89.0307C76.796 89.0814 76.5273 89.396 76.5273 89.7685V100.004H84.54V89.255L84.5365 89.2513Z" fill="white"/>
<path d="M94.3411 89.783C94.3411 89.4032 94.0618 89.0777 93.6892 89.0271C91.5079 88.7342 89.3086 88.5606 87.1057 88.5027C86.6795 88.4918 86.332 88.839 86.332 89.2694V100H94.3411V89.7794V89.783Z" fill="white"/>
<path d="M96.082 100H102.504V91.4395C102.504 91.1249 102.297 90.8464 101.996 90.7596C100.327 90.2858 98.6359 89.8844 96.9309 89.5589C96.4904 89.4757 96.082 89.8193 96.082 90.2749V100Z" fill="white"/>
<path d="M74.8247 90.3073C74.8247 89.8335 74.3985 89.4718 73.94 89.5623C72.2314 89.8878 70.5407 90.2892 68.8716 90.763C68.5707 90.8498 68.3594 91.1283 68.3594 91.4465V100.003H74.8211V90.3073H74.8247Z" fill="white"/>
<path d="M102.444 59.8949C100.36 58.828 98.2393 57.9636 96.0938 57.3018V71.309C98.2357 71.8443 100.36 72.5423 102.444 73.4066V59.8949Z" fill="white"/>
<path d="M94.305 56.7922C91.6687 56.1195 89.0002 55.7506 86.3281 55.6855V70.0002C88.9966 70.0544 91.6651 70.3546 94.305 70.9007V56.7922Z" fill="white"/>
<path d="M76.5625 72.7448V87.2873C79.2024 86.9148 81.8673 86.7086 84.5394 86.6725V71.8081C81.8709 71.866 79.2024 72.177 76.5625 72.7448Z" fill="white"/>
<path d="M96.0938 73.1755V87.5697C98.2357 87.935 100.36 88.4124 102.444 89.0019V75.3672C100.36 74.4666 98.2393 73.7325 96.0938 73.1719V73.1755Z" fill="white"/>
<path d="M86.3281 71.8081V86.6725C88.9966 86.7086 91.6651 86.9148 94.305 87.2873V72.7448C91.6651 72.177 89.0002 71.866 86.3281 71.8081Z" fill="white"/>
<path d="M68.418 75.367V89.0017C70.5062 88.4122 72.6267 87.9348 74.7687 87.5695V73.1753C72.6231 73.7359 70.5026 74.4664 68.418 75.3706V75.367Z" fill="white"/>
<path d="M96.0938 42.1411V55.4069C98.2357 56.0362 100.36 56.8608 102.444 57.8735V45.2478C101.56 44.6981 99.2458 43.3491 96.0938 42.1411Z" fill="white"/>
<path d="M102.446 42.1771V33.3887C91.4567 26.2025 79.4072 26.2025 68.418 33.3887V42.1735C73.8624 38.8318 79.5792 37.1392 85.432 37.1392C91.2848 37.1392 97.0015 38.8318 102.446 42.1735V42.1771Z" fill="white"/>
<path d="M25.5 66.0071V98.7847C25.5 99.4501 26.0337 99.9854 26.6892 99.989L65.5205 99.9999V47.9312L25.5 66.0071Z" fill="white"/>
</g>
<defs>
<linearGradient id="paint0_linear_372_5730" x1="69.5" y1="0" x2="69.5" y2="139" gradientUnits="userSpaceOnUse">
<stop stop-color="#0054AC"/>
<stop offset="1" stop-color="#98CBFF"/>
</linearGradient>
<clipPath id="clip0_372_5730">
<rect width="77" height="72" fill="white" transform="translate(25.5 28)"/>
</clipPath>
</defs>
</svg>
