<svg width="119" height="119" viewBox="0 0 119 119" fill="none" xmlns="http://www.w3.org/2000/svg">
<rect width="119" height="119" rx="59.5" fill="white"/>
<g clip-path="url(#clip0_358_3619)">
<path d="M54.4345 19.0456V23.0955H49.6327C49.4285 20.8742 49.8304 19.7695 50.2304 19L54.4345 19.0456Z" fill="#0054AC"/>
<path d="M54.6202 24.5762V29.5323H48.9126C48.3979 27.9993 48.3591 26.5001 48.7932 24.9647C48.8577 24.7361 49.0715 24.5762 49.3133 24.5762H54.6202Z" fill="#0054AC"/>
<path d="M64.2769 24.5762H56.1129V29.5323H64.2769V24.5762Z" fill="#0054AC"/>
<path d="M64.462 19.0532H55.9272V23.0954H64.462V19.0532Z" fill="#0054AC"/>
<path d="M70.7565 23.0955H65.9547V19.0456L70.1588 19C70.5589 19.7695 70.9613 20.8736 70.7565 23.0955Z" fill="#0054AC"/>
<path d="M71.4772 29.5323H65.7697V24.5762H71.4772C72.0349 26.2389 72.0349 27.869 71.4772 29.5323Z" fill="#0054AC"/>
<path d="M47.079 31.0352C46.7799 33.1267 46.5291 35.274 46.3165 37.5699V37.5776C44.8202 38.5318 43.426 39.6407 42.1447 40.8965L44.4846 33.2002C44.8459 32.0119 45.8633 31.1779 47.079 31.0352Z" fill="#0054AC"/>
<path d="M71.9621 36.3697C71.3853 36.0747 70.796 35.7999 70.1947 35.5476C67.0236 34.2172 63.6596 33.5431 60.1946 33.5431C56.7297 33.5431 53.3651 34.2178 50.1946 35.5476C49.4106 35.8769 48.6475 36.243 47.9054 36.6434C48.1012 34.6845 48.3269 32.8281 48.5902 31.0132H71.3047C71.5561 32.7434 71.7728 34.511 71.9621 36.3697Z" fill="#0054AC"/>
<path d="M78.2452 40.8976C76.8152 39.4961 75.2443 38.2765 73.5485 37.2523C73.3419 35.0672 73.0995 33.0147 72.8129 31.0132H72.9371C74.3146 31.0132 75.507 31.8916 75.9047 33.2001L78.2452 40.8976Z" fill="#0054AC"/>
<path d="M89 57.4437V60.6092C89 61.365 88.3802 61.9793 87.619 61.9793H85.7119C85.7136 61.9615 85.7154 61.9437 85.7178 61.926C85.722 61.8851 85.7262 61.8442 85.731 61.8034C85.7423 61.6985 85.7531 61.5931 85.7632 61.4882C85.768 61.442 85.7722 61.3958 85.7763 61.3496C85.7865 61.2389 85.7954 61.1281 85.8044 61.0173C85.8068 60.9824 85.8098 60.948 85.8128 60.9137C85.8229 60.7691 85.8325 60.6246 85.8408 60.4801C85.8426 60.4504 85.8438 60.4202 85.8456 60.39C85.8516 60.2751 85.8569 60.1596 85.8617 60.0447C85.8635 59.9979 85.8647 59.9511 85.8665 59.9043C85.8701 59.8001 85.8731 59.6964 85.8755 59.5921C85.8761 59.5483 85.8772 59.5045 85.8778 59.4606C85.8808 59.3155 85.882 59.171 85.882 59.0265C85.882 58.8819 85.8808 58.738 85.8778 58.5934C85.8772 58.549 85.8761 58.5046 85.8755 58.4608C85.8731 58.3577 85.8701 58.2546 85.8665 58.1516C85.8647 58.1036 85.8635 58.0556 85.8617 58.0082C85.8569 57.8963 85.8516 57.7843 85.8456 57.6724C85.8438 57.6386 85.8426 57.6054 85.8408 57.5717C85.8325 57.4295 85.8235 57.2867 85.8128 57.144C85.8098 57.1055 85.8068 57.067 85.8038 57.0279C85.7954 56.9219 85.7865 56.8158 85.7769 56.7104C85.7728 56.6606 85.768 56.6109 85.7632 56.5611C85.7536 56.4604 85.7429 56.3603 85.7322 56.2596C85.7274 56.2146 85.7226 56.1696 85.7178 56.1252C85.7154 56.108 85.7142 56.0908 85.7119 56.0742H87.619C88.3802 56.0742 89 56.6885 89 57.4437Z" fill="#0054AC"/>
<path d="M84.1224 55.4426C83.8256 53.4701 83.2757 51.5325 82.487 49.6826C81.2677 46.824 79.5236 44.2574 77.303 42.0544C75.0825 39.8515 72.4947 38.1207 69.6131 36.9111C66.6277 35.6589 63.4583 35.0239 60.1946 35.0239C56.931 35.0239 53.7616 35.6589 50.7762 36.9111C47.8946 38.1207 45.3074 39.8515 43.0863 42.0544C40.8657 44.2574 39.1216 46.824 37.9017 49.6826C36.6401 52.6437 36 55.7873 36 59.0262C36 62.2652 36.6401 65.4093 37.9017 68.3704C39.1216 71.2291 40.8657 73.7957 43.0863 75.9992C45.3074 78.2021 47.8952 79.9324 50.7762 81.1413C53.7598 82.3936 56.9286 83.0285 60.1946 83.0285C63.4607 83.0285 66.6289 82.3936 69.6131 81.1413C72.4947 79.9324 75.0819 78.2021 77.303 75.9992C79.5236 73.7957 81.2677 71.2291 82.487 68.3704C83.2751 66.5206 83.825 64.5824 84.1218 62.6105C84.2525 61.7445 84.3355 60.8619 84.3702 59.977C84.3767 59.8105 84.3821 59.6441 84.3851 59.4776C84.3881 59.3271 84.3893 59.1767 84.3893 59.0262C84.3893 57.8256 84.2997 56.6195 84.1224 55.4426ZM80.3362 67.4677C79.2352 70.0503 77.6595 72.3693 75.6521 74.3608C73.6447 76.3523 71.3071 77.916 68.7038 79.0083C66.0085 80.1391 63.1455 80.7125 60.1952 80.7125C57.2444 80.7125 54.3814 80.1391 51.6861 79.0083C49.0828 77.916 46.7452 76.3523 44.7378 74.3608C42.7304 72.3693 41.1547 70.0503 40.0536 67.4677C38.9132 64.7939 38.3352 61.9536 38.3352 59.0262C38.3352 56.0989 38.9132 53.2592 40.0536 50.5854C41.1547 48.0027 42.7304 45.6837 44.7378 43.6923C46.7452 41.7008 49.0828 40.1376 51.6861 39.0453C53.0338 38.4797 54.4232 38.0532 55.8448 37.7688C57.2665 37.4839 58.7198 37.3406 60.1952 37.3406C63.1455 37.3406 66.0085 37.914 68.7038 39.0453C71.3071 40.1376 73.6447 41.7008 75.6521 43.6923C77.6595 45.6837 79.2352 48.0027 80.3362 50.5854C81.4767 53.2592 82.0547 56.0989 82.0547 59.0262C82.0547 61.9536 81.4767 64.7939 80.3362 67.4677Z" fill="#0054AC"/>
<path d="M70.5547 52.2203L74.5773 49.9161C74.9344 49.7118 75.3905 49.8332 75.5965 50.1874C75.8025 50.5416 75.6807 50.9942 75.3237 51.1985L71.3011 53.5027C71.1835 53.5703 71.0551 53.6023 70.9285 53.6023C70.6706 53.6023 70.4198 53.469 70.2813 53.2315C70.0753 52.8778 70.1977 52.4247 70.5547 52.2203Z" fill="#0054AC"/>
<path d="M65.7971 48.0047L68.1198 44.0141C68.3258 43.6599 68.782 43.5391 69.139 43.7434C69.4961 43.9478 69.6185 44.4009 69.4125 44.7545L67.0898 48.7452C66.9519 48.9827 66.7011 49.1154 66.4432 49.1154C66.3166 49.1154 66.1882 49.0834 66.0706 49.0164C65.7135 48.8121 65.5911 48.3589 65.7971 48.0047Z" fill="#0054AC"/>
<path d="M59.5528 42.1062C59.5528 41.6968 59.8871 41.3657 60.2991 41.3657C60.7111 41.3657 61.0455 41.6968 61.0455 42.1062V46.714C61.0455 47.1227 60.7111 47.4544 60.2991 47.4544C59.8871 47.4544 59.5528 47.1227 59.5528 46.714V42.1062Z" fill="#0054AC"/>
<path d="M42.5525 58.8674C42.5525 58.4581 42.8862 58.127 43.2988 58.127H47.9436C48.3556 58.127 48.6899 58.4581 48.6899 58.8674C48.6899 59.2767 48.3556 59.6078 47.9436 59.6078H43.2988C42.8862 59.6078 42.5525 59.2761 42.5525 58.8674Z" fill="#0054AC"/>
<path d="M49.939 65.6184L45.9164 67.922C45.7988 67.9895 45.6704 68.0215 45.5439 68.0215C45.2859 68.0215 45.0351 67.8888 44.8966 67.6513C44.6906 67.2971 44.813 66.8439 45.1701 66.6396L49.1927 64.336C49.5491 64.131 50.0059 64.2524 50.2119 64.6067C50.4179 64.9609 50.2955 65.4134 49.939 65.6184Z" fill="#0054AC"/>
<path d="M50.2644 53.142C50.1259 53.3796 49.8751 53.5122 49.6172 53.5122C49.4906 53.5122 49.3622 53.4803 49.2446 53.4127L45.222 51.1091C44.8656 50.9042 44.7432 50.4516 44.9492 50.0974C45.1552 49.7432 45.6119 49.6217 45.9684 49.8267L49.991 52.1303C50.348 52.3347 50.4704 52.7878 50.2644 53.142Z" fill="#0054AC"/>
<path d="M54.696 69.8334L52.374 73.824C52.2354 74.0616 51.9847 74.1942 51.7267 74.1942C51.6001 74.1942 51.4718 74.1623 51.3541 74.0953C50.9971 73.8904 50.8747 73.4378 51.0813 73.0836L53.4033 69.093C53.6093 68.7388 54.0661 68.6173 54.4232 68.8223C54.7802 69.0267 54.902 69.4792 54.696 69.8334Z" fill="#0054AC"/>
<path d="M54.5133 48.9641C54.3963 49.0316 54.2679 49.0636 54.1413 49.0636C53.8834 49.0636 53.632 48.9309 53.4941 48.6934L51.1714 44.7027C50.9654 44.3485 51.0878 43.8954 51.4449 43.691C51.802 43.4867 52.2581 43.6081 52.4641 43.9623L54.7868 47.9529C54.9928 48.3066 54.8704 48.7597 54.5133 48.9641Z" fill="#0054AC"/>
<path d="M60.941 75.733C60.941 76.1417 60.6066 76.4735 60.1946 76.4735C59.7826 76.4735 59.4483 76.1417 59.4483 75.733V71.1252C59.4483 70.7159 59.782 70.3848 60.1946 70.3848C60.6072 70.3848 60.941 70.7159 60.941 71.1252V75.733Z" fill="#0054AC"/>
<path d="M63.2398 64.2764C63.1234 64.3421 62.9962 64.3735 62.8714 64.3735C62.6117 64.3735 62.3597 64.2391 62.2218 63.9992L60.363 60.7608C60.3075 60.7662 60.2514 60.7691 60.1946 60.7691C59.2262 60.7691 58.4386 59.9872 58.4386 59.027C58.4386 58.331 58.8524 57.7292 59.4483 57.4502V49.5632C59.4483 49.1539 59.7826 48.8228 60.1946 48.8228C60.6066 48.8228 60.941 49.1539 60.941 49.5632V57.4508C61.5369 57.7292 61.9507 58.331 61.9507 59.027C61.9507 59.389 61.8384 59.726 61.6468 60.005L63.5192 63.2664C63.7228 63.6218 63.598 64.0738 63.2398 64.2764Z" fill="#0054AC"/>
<path d="M69.0489 74.1472C68.9313 74.2147 68.8029 74.2467 68.6763 74.2467C68.4184 74.2467 68.1676 74.114 68.029 73.8765L65.707 69.8858C65.5004 69.5316 65.6228 69.0791 65.9798 68.8741C66.3369 68.6698 66.7931 68.7912 66.9997 69.1454L69.3217 73.136C69.5277 73.4903 69.4053 73.9428 69.0489 74.1472Z" fill="#0054AC"/>
<path d="M75.5446 67.7407C75.4061 67.9783 75.1553 68.1115 74.8974 68.1115C74.7708 68.1115 74.6424 68.0796 74.5248 68.012L70.5022 65.7078C70.1451 65.5035 70.0233 65.0509 70.2293 64.6967C70.4353 64.3425 70.8915 64.221 71.2486 64.4254L75.2711 66.7296C75.6282 66.934 75.7506 67.3865 75.5446 67.7407Z" fill="#0054AC"/>
<path d="M77.195 58.2309H75.1404V57.0012C75.1404 56.5925 74.806 56.2607 74.394 56.2607H67.8696C67.4576 56.2607 67.1233 56.5925 67.1233 57.0012V60.9408C67.1233 61.3501 67.4576 61.6813 67.8696 61.6813H74.394C74.806 61.6813 75.1404 61.3501 75.1404 60.9408V59.7117H77.195C77.6069 59.7117 77.9413 59.38 77.9413 58.9713C77.9413 58.5626 77.6069 58.2309 77.195 58.2309ZM73.6477 60.2004H68.616V57.7416H73.6477V60.2004Z" fill="#0054AC"/>
<path d="M78.222 77.1787L75.9047 84.7998C75.5434 85.988 74.526 86.822 73.3103 86.9648C73.6077 84.888 73.8566 82.7568 74.068 80.4787C75.5571 79.5297 76.9454 78.4268 78.222 77.1787Z" fill="#0054AC"/>
<path d="M72.4785 81.4126C72.2839 83.3513 72.06 85.1888 71.799 86.9865H49.0846C48.8362 85.2735 48.6207 83.5243 48.4332 81.6863C49.0082 81.9801 49.5951 82.2537 50.1946 82.5049C53.3633 83.8353 56.7279 84.5094 60.1946 84.5094C63.6613 84.5094 67.0253 83.8353 70.1947 82.5049C70.9769 82.1767 71.7381 81.8118 72.4785 81.4126Z" fill="#0054AC"/>
<path d="M47.577 86.9866H47.4522C46.0753 86.9866 44.8823 86.1076 44.4846 84.7997L42.1679 77.1792C43.5932 78.5724 45.1582 79.7849 46.8461 80.8043C47.0521 82.9682 47.2922 85.0023 47.577 86.9866Z" fill="#0054AC"/>
<path d="M72.9264 93.0353C72.8619 93.264 72.6481 93.4239 72.4057 93.4239H67.0994V88.4678H72.8069C73.3216 90.0008 73.3598 91.4994 72.9264 93.0353Z" fill="#0054AC"/>
<path d="M65.6067 88.4678H57.4427V93.4239H65.6067V88.4678Z" fill="#0054AC"/>
<path d="M55.9499 88.4678V93.4239H50.2423C49.6841 91.7606 49.6841 90.1305 50.2423 88.4678H55.9499Z" fill="#0054AC"/>
<path d="M55.7648 94.9048V98.9546L51.5601 99.0002C51.1601 98.2308 50.7582 97.1261 50.963 94.9048H55.7648Z" fill="#0054AC"/>
<path d="M65.7918 94.9048H57.2576V98.9463H65.7918V94.9048Z" fill="#0054AC"/>
<path d="M71.4892 99.0002L67.2845 98.9546V94.9048H72.0863C72.2911 97.1261 71.8892 98.2308 71.4892 99.0002Z" fill="#0054AC"/>
</g>
<defs>
<clipPath id="clip0_358_3619">
<rect width="53" height="80" fill="white" transform="translate(36 19)"/>
</clipPath>
</defs>
</svg>
