<svg width="119" height="119" viewBox="0 0 119 119" fill="none" xmlns="http://www.w3.org/2000/svg">
<rect width="119" height="119" rx="59.5" fill="white"/>
<g clip-path="url(#clip0_358_3740)">
<path d="M81.8187 40.9841C81.9163 40.8917 82.104 40.9233 82.2371 41.0549C82.3702 41.1864 82.388 41.3749 82.2764 41.4761C82.1648 41.5773 81.9772 41.5457 81.858 41.4053C81.7389 41.2649 81.7211 41.0764 81.8187 40.9841Z" fill="#0054AC"/>
<path d="M83.1607 42.4919C83.3002 42.3768 83.6006 42.497 83.8276 42.7613L83.8922 42.836C84.1192 43.1003 84.1673 43.4204 83.9975 43.5469C83.8276 43.6733 83.522 43.5481 83.3179 43.2673L83.2786 43.2142C83.0732 42.9321 83.02 42.6083 83.1607 42.4919Z" fill="#0054AC"/>
<path d="M84.7851 44.6397C84.9841 44.5031 85.3112 44.6245 85.5128 44.9078L85.5724 44.9913C85.7739 45.2747 85.7511 45.6238 85.5217 45.7654C85.2922 45.9071 84.9575 45.7794 84.7787 45.4808L84.747 45.429C84.5683 45.1305 84.5848 44.775 84.7838 44.6384L84.7851 44.6397Z" fill="#0054AC"/>
<path d="M86.2084 46.9256C86.4683 46.7801 86.8233 46.9092 86.997 47.2102L87.0502 47.3038C87.2239 47.6049 87.1301 47.9704 86.8398 48.1159C86.5495 48.2614 86.1881 48.1235 86.036 47.8098L86.0119 47.7592C85.8598 47.4455 85.9485 47.0711 86.2084 46.9256Z" fill="#0054AC"/>
<path d="M87.4215 49.3287C87.7398 49.187 88.1201 49.3299 88.2646 49.6462L88.3115 49.7474C88.4573 50.0636 88.3103 50.4254 87.9857 50.5531L87.8868 50.5911C87.5623 50.7175 87.1959 50.5556 87.0729 50.2293L87.0552 50.1812C86.9322 49.8561 87.0919 49.4741 87.4114 49.3325L87.4228 49.3274L87.4215 49.3287Z" fill="#0054AC"/>
<path d="M88.4926 51.8057C88.8223 51.6944 89.1874 51.8715 89.3028 52.1991L89.3408 52.3092C89.4562 52.6381 89.2761 52.9847 88.9414 53.082L88.6625 53.1617C88.3278 53.2579 87.9779 53.0631 87.8854 52.7279L87.8727 52.6823C87.7802 52.3471 87.9741 51.9816 88.305 51.869L88.4926 51.8057Z" fill="#0054AC"/>
<path d="M89.3335 54.3772C89.672 54.2963 90.0194 54.5062 90.1031 54.844L90.1323 54.9604C90.2172 55.2981 90.0055 55.627 89.6632 55.6927L89.2004 55.7813C88.8581 55.8471 88.5272 55.6206 88.4651 55.2778L88.4575 55.2361C88.3954 54.8933 88.6223 54.5467 88.9621 54.4658L89.3335 54.3772Z" fill="#0054AC"/>
<path d="M89.9279 57.0245C90.2727 56.9752 90.5985 57.2155 90.6505 57.5595L90.6695 57.6822C90.7215 58.0263 90.4806 58.3349 90.1345 58.3691L89.4981 58.4311C89.1507 58.4652 88.8426 58.2097 88.8109 57.8631L88.8071 57.8239C88.7767 57.4773 89.0328 57.1535 89.3789 57.1029L89.9291 57.0232L89.9279 57.0245Z" fill="#0054AC"/>
<path d="M90.2816 59.7226C90.6303 59.7036 90.932 59.9731 90.9536 60.3209L90.9612 60.4474C90.9827 60.794 90.7139 61.0811 90.3653 61.0837L89.5565 61.09C89.2078 61.0925 88.9226 60.8105 88.9238 60.4626V60.4259C88.9238 60.0781 89.2104 59.7783 89.5577 59.7606L90.2816 59.7226Z" fill="#0054AC"/>
<path d="M90.386 62.4498C90.7346 62.4625 91.011 62.7572 90.9996 63.105L90.9958 63.2366C90.9844 63.5844 90.6915 63.845 90.3442 63.8172L89.3768 63.7375C89.0295 63.7097 88.7708 63.4023 88.8013 63.0557L88.8038 63.0241C88.8342 62.6775 89.1448 62.4043 89.4935 62.4169L90.386 62.4498Z" fill="#0054AC"/>
<path d="M90.2398 65.1822C90.5859 65.2265 90.8331 65.5452 90.7913 65.8905L90.7748 66.0246C90.7317 66.3699 90.416 66.6039 90.0725 66.5432L88.9644 66.351C88.6209 66.2915 88.3914 65.9626 88.4535 65.6198L88.4586 65.592C88.5207 65.2492 88.8554 65.0064 89.2002 65.0494L90.2386 65.1822H90.2398Z" fill="#0054AC"/>
<path d="M89.8431 67.8968C90.1829 67.9727 90.4009 68.3116 90.3274 68.6519L90.2983 68.7873C90.2247 69.1275 89.8888 69.3312 89.5515 69.2401L88.3167 68.9062C87.9808 68.8151 87.7817 68.4672 87.8743 68.132L87.8806 68.1093C87.9744 67.7741 88.3294 67.5616 88.6692 67.6375L89.8419 67.898L89.8431 67.8968Z" fill="#0054AC"/>
<path d="M89.1979 70.5707C89.5301 70.6769 89.7151 71.0349 89.6087 71.3663L89.5655 71.5017C89.4603 71.8331 89.1053 72.0051 88.7795 71.8837L87.442 71.3866C87.1149 71.2651 86.9488 70.8996 87.0718 70.5745L87.0794 70.5555C87.2024 70.2304 87.5751 70.0508 87.9073 70.1571L89.1979 70.5707Z" fill="#0054AC"/>
<path d="M88.2987 73.179C88.6195 73.3156 88.7703 73.6887 88.6347 74.0087L88.5776 74.1428C88.442 74.4628 88.073 74.602 87.7586 74.4515L86.3476 73.7747C86.0332 73.6242 85.9013 73.2447 86.0535 72.9323L86.0611 72.9171C86.2132 72.6047 86.6011 72.4592 86.9219 72.5958L88.2987 73.1802V73.179Z" fill="#0054AC"/>
<path d="M87.1624 75.6985C87.4692 75.8629 87.5859 76.2487 87.421 76.5561L87.3513 76.6864C87.1865 76.9925 86.8074 77.0975 86.5082 76.9191L85.0452 76.0451C84.746 75.8667 84.6484 75.4771 84.8297 75.1786L84.8373 75.166C85.0173 74.8687 85.4167 74.7599 85.7235 74.9244L87.1637 75.6972L87.1624 75.6985Z" fill="#0054AC"/>
<path d="M85.7983 78.1093C86.0886 78.3016 86.1698 78.6962 85.9783 78.9859L85.8947 79.1111C85.7032 79.402 85.3153 79.4716 85.0338 79.2667L83.5442 78.1814C83.2627 77.9765 83.2006 77.5793 83.4085 77.2998L83.4149 77.2909C83.6215 77.0114 84.0285 76.9393 84.3188 77.1303L85.7983 78.108V78.1093Z" fill="#0054AC"/>
<path d="M84.2142 80.3886C84.4868 80.6061 84.5299 81.0059 84.3119 81.2778L84.2155 81.3967C83.9975 81.6674 83.6044 81.7016 83.342 81.4726L81.8612 80.1748C81.5988 79.9446 81.5735 79.5436 81.8042 79.283L81.8093 79.2767C82.04 79.0161 82.4508 78.9807 82.7233 79.1983L84.213 80.3898L84.2142 80.3886Z" fill="#0054AC"/>
<path d="M82.4204 82.5174C82.6714 82.759 82.679 83.1613 82.4369 83.4117L82.3278 83.5243C82.0857 83.7748 81.6914 83.7735 81.4518 83.5205L80.0091 82.0039C79.7694 81.7522 79.7796 81.3499 80.0331 81.1109L80.0369 81.1071C80.2905 80.868 80.7025 80.8693 80.9548 81.1109L82.4204 82.5174Z" fill="#0054AC"/>
<path d="M80.4393 84.481C80.6676 84.7441 80.6384 85.1451 80.3747 85.3727L80.2543 85.4765C79.9906 85.7041 79.5975 85.6675 79.382 85.3942L78.0065 83.6562C77.7909 83.383 77.8379 82.9846 78.1117 82.7683L78.1142 82.7657C78.3881 82.5507 78.7988 82.5899 79.027 82.853L80.4393 84.4797V84.481Z" fill="#0054AC"/>
<path d="M78.2833 86.2592C78.4874 86.5413 78.4215 86.9385 78.1388 87.1409L78.007 87.2357C77.7242 87.4381 77.3363 87.366 77.1461 87.0751L75.8657 85.1157C75.6755 84.8248 75.7592 84.4314 76.0508 84.2417C76.3436 84.0519 76.7493 84.1278 76.9522 84.4112L78.2846 86.2592H78.2833Z" fill="#0054AC"/>
<path d="M75.9666 87.8367C76.1441 88.1364 76.0414 88.5248 75.741 88.7006L75.5977 88.7841C75.2972 88.9599 74.9169 88.8511 74.7534 88.5438L73.6048 86.3782C73.4412 86.0708 73.5591 85.6863 73.8672 85.5231C74.1753 85.36 74.5708 85.4725 74.747 85.7723L75.9654 87.8367H75.9666Z" fill="#0054AC"/>
<path d="M73.5096 89.1965C73.6579 89.5115 73.5223 89.8885 73.2053 90.0364L73.0532 90.1073C72.7375 90.254 72.3686 90.1123 72.2355 89.7911L71.2479 87.4295C71.1135 87.1082 71.2656 86.7363 71.5864 86.6022C71.9071 86.4681 72.29 86.6161 72.4396 86.9311L73.5109 89.1965H73.5096Z" fill="#0054AC"/>
<path d="M70.933 90.3274C71.0522 90.6537 70.8811 91.018 70.554 91.1357L70.393 91.1938C70.0646 91.3115 69.7109 91.1369 69.6069 90.8042L68.8082 88.258C68.7043 87.9266 68.8894 87.5699 69.219 87.4661C69.5486 87.3624 69.9176 87.5446 70.0367 87.8722L70.933 90.3274Z" fill="#0054AC"/>
<path d="M68.2585 91.2188C68.3472 91.5552 68.1444 91.9018 67.8059 91.9891L67.6385 92.0321C67.3013 92.1194 66.9653 91.9119 66.8918 91.5729L66.3074 88.8584C66.2338 88.5182 66.4506 88.1804 66.7879 88.1071C67.1251 88.0337 67.475 88.25 67.5637 88.5865L68.2585 91.2188Z" fill="#0054AC"/>
<path d="M65.5083 91.8642C65.5653 92.207 65.3308 92.5334 64.9872 92.589L64.8148 92.6168C64.4712 92.6725 64.1543 92.4347 64.1125 92.0894L63.7664 89.2307C63.7245 88.8853 63.9705 88.5679 64.3128 88.5261C64.6551 88.4844 64.9822 88.7298 65.0405 89.0726L65.5083 91.8642Z" fill="#0054AC"/>
<path d="M62.7064 92.2499C62.733 92.5965 62.4693 92.9 62.122 92.9241L61.9457 92.9367C61.5984 92.9608 61.3042 92.6951 61.2941 92.3473L61.2054 89.3747C61.1952 89.0269 61.469 88.7334 61.8126 88.722C62.1562 88.7106 62.4605 88.9851 62.4871 89.3317L62.7064 92.2499Z" fill="#0054AC"/>
<path d="M59.8794 92.3817C59.8743 92.7295 59.5853 93.0078 59.2366 93.0002L59.0579 92.9964C58.7092 92.9888 58.4417 92.6992 58.462 92.3513L58.6458 89.2902C58.6661 88.9424 58.9653 88.6742 59.3089 88.6944C59.6525 88.7147 59.9301 89.0145 59.925 89.3623L59.8794 92.3817Z" fill="#0054AC"/>
<path d="M57.0444 92.2587C57.0076 92.604 56.6945 92.8558 56.3484 92.8178L56.1671 92.7976C55.821 92.7584 55.5801 92.4459 55.6321 92.1019L56.1075 88.9775C56.1595 88.6335 56.4802 88.3931 56.82 88.4437C57.1597 88.4943 57.4082 88.8182 57.3715 89.1635L57.0444 92.26V92.2587Z" fill="#0054AC"/>
<path d="M54.2273 91.8792C54.1588 92.2207 53.8241 92.4421 53.4831 92.3725L53.3018 92.3358C52.9608 92.2662 52.7491 91.9323 52.8327 91.5946L53.615 88.4361C53.6986 88.0983 54.0397 87.8884 54.3718 87.9681C54.704 88.0478 54.922 88.3943 54.8536 88.7346L54.226 91.8804L54.2273 91.8792Z" fill="#0054AC"/>
<path d="M71.4976 34.0863C71.8247 33.9649 71.8716 33.684 71.6016 33.4627L62.6637 26.1173C62.3949 25.896 62.1274 25.9959 62.0704 26.3387L61.7521 28.2424C61.6951 28.5852 61.4453 28.8533 61.1969 28.8369C60.9484 28.8204 60.0089 28.8204 59.6603 28.8293L59.5158 28.8331C59.1671 28.8419 58.5979 28.8685 58.2493 28.8938C58.2493 28.8938 57.9412 28.9153 57.4708 28.9495C55.5932 29.1215 52.5265 29.8045 52.5265 29.8045C52.1867 29.8804 51.7544 29.9854 51.5668 30.0386C51.3791 30.0917 51.1243 30.1625 50.9988 30.1967C50.8733 30.2308 50.2787 30.4294 49.9491 30.5407L49.8096 30.5875C49.48 30.6988 48.9437 30.8949 48.6192 31.0227L48.4822 31.0758C48.1577 31.2035 47.6316 31.4236 47.3133 31.5653C47.3133 31.5653 47.0306 31.6905 46.6009 31.8828C44.8957 32.6848 43.2602 33.6334 41.7199 34.7137C40.1783 35.7927 38.7368 37.012 37.4069 38.3389C36.082 39.6722 34.8751 41.1205 33.7988 42.6586C32.7237 44.1968 31.2771 46.9656 31.2771 46.9656C31.1161 47.2743 30.9196 47.6715 30.8398 47.8473C30.7599 48.0231 30.6623 48.2407 30.623 48.328C30.5837 48.4152 30.5342 48.524 30.5152 48.5683C30.4962 48.6126 30.4645 48.6859 30.4467 48.7302C30.429 48.7745 30.3111 49.0768 30.1843 49.4006L30.1323 49.5322C30.0056 49.856 29.8103 50.391 29.7 50.7212L29.6544 50.8553C29.5441 51.1854 29.4401 51.4928 29.4249 51.5383C29.4097 51.5839 29.3869 51.6597 29.3729 51.7065C29.359 51.7534 29.3273 51.8672 29.3019 51.9608C29.2766 52.0544 29.2119 52.2821 29.1599 52.4693C29.108 52.6565 29.0053 53.0866 28.9317 53.4256L28.1914 57.7073C28.147 58.0526 28.0988 58.4916 28.0861 58.6838C28.0735 58.8761 28.0557 59.1126 28.0494 59.2088C28.043 59.3049 28.0329 59.4364 28.0291 59.4997C28.0253 59.5629 28.0151 60.017 28.0075 60.3649L28.005 60.5002C27.9987 60.8481 27.9974 61.3427 28.005 61.5994C28.0126 61.8562 28.0316 62.6114 28.0354 62.7075C28.0392 62.8037 28.0468 62.9605 28.0544 63.0566C28.062 63.1528 28.0811 63.388 28.0963 63.5803C28.1115 63.7726 28.1622 64.2115 28.2066 64.5568C28.2066 64.5568 28.611 67.6344 29.0915 69.4394C29.5745 71.2432 30.2338 72.9963 31.0261 74.6825C31.821 76.3673 32.7605 77.9814 33.8305 79.5031C34.8992 81.0247 36.0985 82.4528 37.4183 83.7582C40.0578 86.369 43.1436 88.5168 46.4982 90.0815C47.5999 90.5938 49.2873 91.2048 49.2873 91.2048C49.6156 91.3237 50.1557 91.5046 50.4891 91.607L50.6679 91.6614C51.0013 91.7639 51.355 91.5754 51.4539 91.2415L52.3934 88.0766C52.4922 87.7427 52.3084 87.3809 51.9851 87.2709C51.6618 87.1609 51.1345 86.9585 50.815 86.8206L49.1263 86.0933C48.8068 85.9554 48.3022 85.6923 48.0056 85.5101C48.0056 85.5101 43.1652 82.5249 40.9985 80.2569C39.9095 79.1286 38.927 77.9004 38.0585 76.6001C37.1888 75.301 36.4332 73.9286 35.8019 72.5043C34.5303 69.657 33.6631 64.1204 33.6631 64.1204C33.6099 63.7764 33.5566 63.3653 33.5465 63.2046C33.5363 63.044 33.5237 62.8479 33.5186 62.7682C33.5135 62.6885 33.5084 62.557 33.5084 62.4773C33.5084 62.3976 33.5034 62.1573 33.4996 61.9435C33.4958 61.7297 33.5059 60.905 33.5186 60.5837C33.5313 60.2624 33.5427 59.9576 33.5452 59.9045C33.5477 59.8513 33.5655 59.6452 33.5731 59.5655C33.5807 59.4858 33.5972 59.2897 33.6111 59.1303C33.6251 58.971 33.6783 58.5586 33.729 58.2145L34.3617 54.8992C34.4415 54.5602 34.5442 54.158 34.5899 54.0062C34.6355 53.8544 34.6913 53.6659 34.7141 53.5887C34.7369 53.5116 34.7648 53.418 34.7762 53.38C34.7876 53.3421 34.8079 53.2801 34.8206 53.2422C34.8333 53.2042 34.9309 52.9272 35.0361 52.6261C35.1414 52.3251 35.3252 51.8368 35.4456 51.5421C35.5661 51.2474 35.6751 50.9742 35.6903 50.9375C35.7055 50.9008 35.7309 50.8413 35.7474 50.8047C35.7638 50.768 35.8057 50.6794 35.8386 50.6073C35.8716 50.5352 35.9553 50.3582 36.0212 50.2127C36.0871 50.0672 36.2773 49.6991 36.4421 49.3918C36.4421 49.3918 37.6059 47.2237 38.5061 45.9676C39.4062 44.7116 40.4128 43.5314 41.5132 42.4474C42.6187 41.3671 43.8181 40.3868 45.0871 39.5077C46.3562 38.6286 47.6988 37.8595 49.0971 37.2106C49.4508 37.0576 49.5763 37.0019 49.5763 37.0019C49.8958 36.8615 50.3991 36.6528 50.6958 36.5377C50.9925 36.4226 51.4818 36.2468 51.7836 36.1468C52.0853 36.0469 52.4149 35.9407 52.5163 35.9103C52.6178 35.8799 53.012 35.7674 53.1642 35.7256C53.3163 35.6839 53.722 35.5877 54.0618 35.5144C54.0618 35.5144 56.4566 34.9958 57.9932 34.8629C58.3786 34.8389 58.5155 34.8301 58.5155 34.8301C58.8629 34.806 59.408 34.782 59.7275 34.7757C60.047 34.7693 60.3601 34.7643 60.426 34.7643C60.492 34.7643 60.6175 35.0438 60.5604 35.3866L60.1674 37.733C60.1104 38.0758 60.3297 38.2567 60.6568 38.1353L71.5014 34.0838L71.4976 34.0863Z" fill="#0054AC"/>
<path d="M54.2524 64.4559C55.0143 63.6363 55.6596 62.8722 56.187 62.1601C56.7144 61.4479 57.1442 60.7712 57.4776 60.1274C57.8098 59.4835 58.0545 58.8701 58.2104 58.2844C58.3664 57.7 58.445 57.1346 58.445 56.5881C58.445 55.4371 58.1762 54.434 57.6386 53.5751C57.1011 52.7175 56.3734 52.0446 55.4543 51.5563C54.5351 51.0693 53.4905 50.8252 52.3178 50.8252C51.1451 50.8252 50.1334 51.0491 49.166 51.4981C48.1987 51.9472 47.3633 52.5809 46.6596 53.3993C45.956 54.219 45.4286 55.1942 45.0762 56.325L47.9198 58.0213C48.1937 57.2611 48.5398 56.6021 48.9607 56.0468C49.3803 55.4915 49.8443 55.0627 50.3527 54.7591C50.8611 54.4568 51.3682 54.3062 51.8778 54.3062C52.4838 54.3062 52.9922 54.4138 53.403 54.6275C53.8137 54.8426 54.1307 55.1449 54.3564 55.5345C54.5807 55.9253 54.6936 56.3934 54.6936 56.9385C54.6936 57.3484 54.5858 57.7923 54.3716 58.2692C54.156 58.7474 53.8771 59.2306 53.5361 59.7175C53.1938 60.2058 52.8375 60.6789 52.4661 61.1368C52.0946 61.5947 51.7422 62.0096 51.41 62.3802L45.2537 69.2246L46.221 71.652H59.1803V68.1419H50.8636L54.2549 64.4559H54.2524Z" fill="#0054AC"/>
<path d="M76.7103 63.2275H73.2213V51.1172H70.2306L60.0566 63.4906L61.6401 66.5327H69.5561V71.6518H73.2213V66.5327H76.7103V63.2275ZM64.4457 63.2275L69.5561 56.9839V63.2275H64.4457Z" fill="#0054AC"/>
</g>
<defs>
<clipPath id="clip0_358_3740">
<rect width="63" height="67" fill="white" transform="translate(28 26)"/>
</clipPath>
</defs>
</svg>
