<svg preserveAspectRatio="none" width="100%" height="100%" overflow="visible" style="display: block;" viewBox="0 0 62 74" fill="none" xmlns="http://www.w3.org/2000/svg">
<g id="_xFF91_&#233;&#165;&#145;1" clip-path="url(#clip0_1079_3121)">
<path id="Vector" d="M27.7081 74.0001C26.0693 68.3814 24.8761 62.6395 23.4976 56.9548C28.3506 58.3139 33.607 58.3603 38.4601 56.9816C37.2104 62.6699 35.9704 68.3654 34.3916 73.9706C40.2543 73.757 46.1161 73.0761 51.8076 71.617C55.283 70.719 58.784 69.7745 61.9991 68.125C61.4255 63.8887 60.9242 59.2816 58.0621 55.9102C55.7675 53.1724 52.0547 52.7051 48.9023 51.5506C48.9023 42.1263 48.7734 32.7021 48.4345 23.285C48.2033 18.9817 47.8644 14.6158 46.4532 10.5198C45.8337 8.58706 44.7685 6.83124 43.2814 5.4659C42.0679 2.70484 39.3179 1.04284 36.4858 0.441484C32.3512 -0.416321 27.9394 -0.0294154 24.0624 1.67637C20.3169 3.3053 17.2968 6.48365 15.7339 10.2857C13.6899 14.9956 13.614 20.2371 13.3828 25.291C13.1551 34.0773 13.0007 42.8671 13.0007 51.6569C11.2462 52.1707 9.51905 52.7649 7.78133 53.3261C5.33847 54.107 3.32981 56.0067 2.21252 58.3165C0.751922 61.368 0.132381 64.8099 0 68.1715C0.830467 68.645 1.73419 68.9694 2.62467 69.3232C10.6372 72.3515 19.1899 73.6596 27.7099 74.0001H27.7081ZM38.8961 54.9085C33.8153 56.5411 28.1609 56.7108 23.1225 54.8219C22.615 52.9222 22.2355 50.9966 21.7678 49.0898C22.5788 48.6421 23.614 48.2784 23.9803 47.3268C24.4648 45.7247 24.4983 44.0287 24.5345 42.3658C26.3278 43.8348 28.6101 44.6488 30.9047 44.773C33.3087 44.7096 35.6624 43.7919 37.5943 42.3596C37.7002 44.0251 37.6437 45.7416 38.1547 47.3473C38.4186 48.265 39.3682 48.626 40.0963 49.0898C39.6842 51.0261 39.2588 52.9624 38.8961 54.9085ZM15.4726 23.6085C15.5124 23.1313 15.8221 22.37 16.432 22.5666C17.2201 23.2609 17.4636 24.3689 18.1467 25.157C18.2985 24.4895 18.4035 23.8113 18.4962 23.1304C22.1199 23.0268 25.6739 22.0287 29.0372 20.7071C32.9839 19.0576 36.845 16.7845 39.4829 13.3059C40.7917 15.9133 41.804 18.6636 43.1525 21.2513C43.7562 22.3566 44.1745 24.8031 44.4252 24.7701C44.8673 23.9722 44.8938 22.3495 46.1064 22.4996C47.0887 23.8721 46.4162 25.6672 46.0137 27.1398C45.3571 28.8652 44.8002 31.1527 42.7492 31.6361C42.06 34.7975 40.7741 37.966 38.318 40.1454C36.244 41.928 33.6556 43.2969 30.8994 43.3898C27.8661 43.1396 25.1161 41.4571 23.0122 39.3108C21.0203 37.1806 20.0548 34.34 19.3196 31.5628C18.505 31.3126 17.6746 30.932 17.2783 30.1206C16.184 28.1477 15.2705 25.9147 15.4718 23.6076L15.4726 23.6085Z" fill="var(--fill-0, #0054AC)"/>
</g>
<defs>
<clipPath id="clip0_1079_3121">
<rect width="62" height="74" fill="white"/>
</clipPath>
</defs>
</svg>
