<svg preserveAspectRatio="none" width="100%" height="100%" overflow="visible" style="display: block;" viewBox="0 0 69 64" fill="none" xmlns="http://www.w3.org/2000/svg">
<g id="_xFF91_&#233;&#165;&#145;1" clip-path="url(#clip0_1079_3124)">
<path id="Vector" d="M49.8096 44.5362C49.8675 44.6904 50.0462 44.7609 50.1931 44.6857C53.9823 42.7638 57.6654 41.0655 61.245 39.5958C62.5258 39.0675 63.8916 38.9314 65.3386 39.1827C68.0431 39.6529 69.8156 41.9756 68.6198 44.5933C68.2228 45.4643 66.4861 46.7132 65.5221 47.2901C62.7683 48.9312 60.6838 50.2068 59.2688 51.1168C57.8808 52.0097 55.7606 53.2148 52.8995 54.7331C50.846 55.8288 48.5655 57.051 46.0609 58.4066C44.4362 59.2823 43.2395 59.7925 42.4764 59.9372C39.6907 60.4522 37.7318 60.0781 34.2816 59.3832C30.983 58.715 25.5507 56.973 20.4709 56.656C20.3686 56.6512 20.2652 56.6607 20.1628 56.6826L16.7039 57.5622C16.5387 57.606 16.4537 57.7773 16.5165 57.9316C16.9318 58.9482 17.6543 60.6321 16.0519 61.1471C13.186 62.0581 10.4235 62.99 7.76726 63.9362C7.07953 64.178 6.34737 63.703 6.30294 62.9862V62.951C6.28072 62.1942 6.7714 61.5174 7.49874 61.288L13.9394 59.2776C14.1626 59.2071 14.2968 58.9787 14.2427 58.754C14.1664 58.4151 13.5415 56.4447 12.3679 52.8502C10.5018 47.1007 9.54261 43.5995 8.56897 41.7957C8.46658 41.611 8.24732 41.5225 8.04641 41.5843L1.20388 43.6519C0.7528 43.788 0.275639 43.5329 0.150071 43.0846L0.0476839 42.7152C-0.148396 42.0156 0.253423 41.294 0.95371 41.0836L9.31852 38.5544C9.5996 38.4706 9.90772 38.5592 10.0951 38.779C10.4786 39.2188 10.751 39.632 10.9123 40.0156C11.0243 40.2888 11.3547 40.4068 11.6222 40.2707C14.9566 38.5944 17.7152 36.8838 20.3705 36.2936C25.8385 35.0704 30.1195 36.9143 35.0958 38.9818C35.4397 39.1265 35.7971 39.2369 36.1622 39.3159C38.6485 39.848 41.6119 40.3545 45.0631 40.8428C47.4248 41.1817 49.0088 42.4135 49.8077 44.5381M15.9215 54.9578L20.5859 54.2058C20.9568 54.1439 21.3316 54.1439 21.7015 54.2058L27.6206 55.191C27.6969 55.2043 27.7684 55.2215 27.8438 55.2529C28.7546 55.6222 29.0173 55.7897 29.9552 55.9611C31.7451 56.2819 33.8614 56.7531 36.3023 57.3775C37.9897 57.8088 39.6994 57.8706 41.4351 57.567C42.5826 57.3642 44.158 56.6912 46.1536 55.5527C48.1492 54.4133 50.6886 53.0149 53.7727 51.3557C55.7992 50.2648 57.8614 48.7779 59.9633 47.6823C60.5573 47.3701 61.4276 46.8113 62.5741 45.9974C63.5294 45.3196 65.9133 44.3125 66.4397 43.1598C66.5827 42.8475 66.4842 42.4868 66.2079 42.284C65.1319 41.5006 64.0162 41.3207 62.86 41.7471C58.9809 43.1769 55.7625 44.5848 53.2096 45.9746C51.9153 46.6828 50.7456 47.2853 49.7053 47.7822C49.4686 47.8927 49.2503 48.0202 49.0398 48.1735C47.785 49.0883 46.3478 49.7479 44.7366 50.1535C44.6381 50.1754 44.5405 50.1839 44.442 50.1801L30.8053 49.0845C30.1533 49.0359 29.6713 48.46 29.7476 47.8175L29.7563 47.7299C29.8635 46.9817 30.5329 46.4362 31.3008 46.481C34.7423 46.6742 38.4244 47.0093 42.3479 47.4881C43.7224 47.6556 44.8342 47.6157 45.6774 47.3653C47.0345 46.9693 47.6952 45.3282 46.6327 44.2249C45.5258 43.0684 42.7401 43.0684 40.2364 42.7333C38.0757 42.443 35.8087 41.849 33.4335 40.9513C30.5184 39.8471 28.885 39.2398 28.5238 39.1217C25.2966 38.0613 22.1091 38.1889 18.967 39.513C16.2084 40.6695 13.9056 41.7833 12.0617 42.8475C11.8251 42.9837 11.7265 43.274 11.8338 43.5253C13.4179 47.2378 14.3558 50.9198 15.5786 54.7512C15.623 54.8921 15.766 54.9797 15.9176 54.9578H15.9215Z" fill="var(--fill-0, #0054AC)"/>
<path id="Vector_2" d="M44.6787 37.0132C39.6627 37.0132 34.9471 35.0885 31.4003 31.5931C27.8535 28.0976 25.9004 23.4504 25.9004 18.5071C25.9004 13.5638 27.8535 8.91657 31.4003 5.42115C34.9462 1.92477 39.6627 0 44.6787 0C49.6947 0 54.4103 1.92572 57.9571 5.4202C61.504 8.91562 63.457 13.5629 63.457 18.5061C63.457 23.4494 61.504 28.0967 57.9571 31.5921C54.4103 35.0875 49.6947 37.0132 44.6787 37.0132Z" fill="var(--fill-0, #0054AC)"/>
<path id="Vector_3" d="M54.0379 9.50012H49.9115L45.0066 17.124L39.6235 9.50012H35.3281L43.0129 20.2044L39.3135 20.1958V22.4519L43.1288 22.469V23.9454L39.3135 23.9273V26.2119L43.1288 26.2291V28.9972H46.8022V26.2471L51.1826 26.2671V23.9835L46.8022 23.9625V22.4871L51.1826 22.5071V20.2234L46.8698 20.213L54.0379 9.50012Z" fill="var(--fill-0, white)"/>
</g>
<defs>
<clipPath id="clip0_1079_3124">
<rect width="69" height="64" fill="white"/>
</clipPath>
</defs>
</svg>
