<svg preserveAspectRatio="none" width="100%" height="100%" overflow="visible" style="display: block;" viewBox="0 0 63 67" fill="none" xmlns="http://www.w3.org/2000/svg">
<g id="_xFF91_&#233;&#165;&#145;1" clip-path="url(#clip0_1079_3129)">
<path id="Vector" d="M53.8187 14.9842C53.9163 14.8918 54.104 14.9235 54.2371 15.055C54.3702 15.1866 54.3879 15.375 54.2764 15.4762C54.1648 15.5774 53.9772 15.5458 53.858 15.4054C53.7388 15.265 53.7211 15.0765 53.8187 14.9842Z" fill="var(--fill-0, #0054AC)"/>
<path id="Vector_2" d="M55.1607 16.492C55.3002 16.3769 55.6006 16.497 55.8276 16.7614L55.8922 16.836C56.1192 17.1004 56.1673 17.4204 55.9975 17.5469C55.8276 17.6734 55.522 17.5482 55.3179 17.2674L55.2786 17.2142C55.0732 16.9322 55.02 16.6084 55.1607 16.492Z" fill="var(--fill-0, #0054AC)"/>
<path id="Vector_3" d="M56.7851 18.6398C56.9841 18.5032 57.3112 18.6246 57.5128 18.908L57.5724 18.9914C57.7739 19.2748 57.7511 19.6239 57.5217 19.7656C57.2922 19.9072 56.9575 19.7795 56.7787 19.481L56.747 19.4291C56.5683 19.1306 56.5848 18.7751 56.7838 18.6385L56.7851 18.6398Z" fill="var(--fill-0, #0054AC)"/>
<path id="Vector_4" d="M58.2084 20.9255C58.4683 20.78 58.8233 20.909 58.997 21.2101L59.0502 21.3037C59.2239 21.6047 59.1301 21.9703 58.8398 22.1158C58.5495 22.2612 58.1881 22.1234 58.036 21.8097L58.0119 21.7591C57.8598 21.4454 57.9485 21.0709 58.2084 20.9255Z" fill="var(--fill-0, #0054AC)"/>
<path id="Vector_5" d="M59.4215 23.3288C59.7398 23.1871 60.1201 23.3301 60.2646 23.6463L60.3115 23.7475C60.4573 24.0637 60.3103 24.4255 59.9857 24.5532L59.8868 24.5912C59.5623 24.7177 59.1959 24.5558 59.0729 24.2294L59.0552 24.1813C58.9322 23.8563 59.0919 23.4743 59.4114 23.3326L59.4228 23.3275L59.4215 23.3288Z" fill="var(--fill-0, #0054AC)"/>
<path id="Vector_6" d="M60.4926 25.8055C60.8223 25.6942 61.1874 25.8713 61.3028 26.1989L61.3408 26.3089C61.4562 26.6378 61.2761 26.9844 60.9414 27.0818L60.6625 27.1615C60.3278 27.2576 59.9779 27.0628 59.8854 26.7276L59.8727 26.6821C59.7802 26.3469 59.9741 25.9813 60.305 25.8688L60.4926 25.8055Z" fill="var(--fill-0, #0054AC)"/>
<path id="Vector_7" d="M61.3335 28.3771C61.672 28.2961 62.0194 28.5061 62.1031 28.8439L62.1323 28.9602C62.2172 29.298 62.0055 29.6268 61.6632 29.6926L61.2004 29.7812C60.8581 29.8469 60.5272 29.6205 60.4651 29.2777L60.4575 29.236C60.3954 28.8932 60.6223 28.5466 60.9621 28.4656L61.3335 28.3771Z" fill="var(--fill-0, #0054AC)"/>
<path id="Vector_8" d="M61.9279 31.0245C62.2727 30.9752 62.5985 31.2155 62.6505 31.5596L62.6695 31.6823C62.7215 32.0264 62.4806 32.335 62.1345 32.3692L61.4981 32.4311C61.1507 32.4653 60.8426 32.2098 60.8109 31.8632L60.8071 31.824C60.7767 31.4774 61.0328 31.1536 61.3789 31.103L61.9291 31.0233L61.9279 31.0245Z" fill="var(--fill-0, #0054AC)"/>
<path id="Vector_9" d="M62.2816 33.7226C62.6303 33.7036 62.932 33.9731 62.9536 34.3209L62.9612 34.4474C62.9827 34.794 62.7139 35.0811 62.3653 35.0837L61.5565 35.09C61.2078 35.0925 60.9226 34.8105 60.9238 34.4626V34.4259C60.9238 34.0781 61.2104 33.7783 61.5577 33.7606L62.2816 33.7226Z" fill="var(--fill-0, #0054AC)"/>
<path id="Vector_10" d="M62.386 36.4498C62.7346 36.4625 63.011 36.7572 62.9996 37.105L62.9958 37.2366C62.9844 37.5844 62.6915 37.845 62.3442 37.8172L61.3768 37.7375C61.0295 37.7097 60.7708 37.4023 60.8013 37.0557L60.8038 37.0241C60.8342 36.6775 61.1448 36.4043 61.4935 36.4169L62.386 36.4498Z" fill="var(--fill-0, #0054AC)"/>
<path id="Vector_11" d="M62.2398 39.182C62.5859 39.2263 62.8331 39.545 62.7913 39.8904L62.7748 40.0244C62.7317 40.3698 62.416 40.6038 62.0725 40.543L60.9644 40.3508C60.6209 40.2913 60.3914 39.9625 60.4535 39.6197L60.4586 39.5918C60.5207 39.249 60.8554 39.0062 61.2002 39.0492L62.2386 39.182H62.2398Z" fill="var(--fill-0, #0054AC)"/>
<path id="Vector_12" d="M61.8431 41.8965C62.1829 41.9724 62.4009 42.3114 62.3274 42.6517L62.2983 42.787C62.2247 43.1273 61.8888 43.3309 61.5515 43.2399L60.3167 42.9059C59.9808 42.8148 59.7817 42.467 59.8743 42.1318L59.8806 42.109C59.9744 41.7738 60.3294 41.5613 60.6692 41.6372L61.8419 41.8978L61.8431 41.8965Z" fill="var(--fill-0, #0054AC)"/>
<path id="Vector_13" d="M61.1979 44.5706C61.5301 44.6768 61.7151 45.0348 61.6087 45.3662L61.5655 45.5015C61.4603 45.8329 61.1053 46.005 60.7795 45.8835L59.442 45.3864C59.1149 45.265 58.9488 44.8994 59.0718 44.5744L59.0794 44.5554C59.2024 44.2303 59.5751 44.0507 59.9073 44.1569L61.1979 44.5706Z" fill="var(--fill-0, #0054AC)"/>
<path id="Vector_14" d="M60.2987 47.1788C60.6195 47.3154 60.7703 47.6885 60.6347 48.0086L60.5776 48.1426C60.442 48.4627 60.073 48.6018 59.7586 48.4513L58.3476 47.7745C58.0332 47.624 57.9013 47.2445 58.0535 46.9321L58.0611 46.9169C58.2132 46.6045 58.6011 46.459 58.9219 46.5956L60.2987 47.18V47.1788Z" fill="var(--fill-0, #0054AC)"/>
<path id="Vector_15" d="M59.1624 49.6985C59.4692 49.8629 59.5859 50.2487 59.421 50.5561L59.3513 50.6864C59.1865 50.9925 58.8074 51.0975 58.5082 50.9191L57.0452 50.0451C56.746 49.8667 56.6484 49.4771 56.8297 49.1786L56.8373 49.166C57.0173 48.8687 57.4167 48.7599 57.7235 48.9244L59.1637 49.6972L59.1624 49.6985Z" fill="var(--fill-0, #0054AC)"/>
<path id="Vector_16" d="M57.7983 52.1094C58.0886 52.3017 58.1697 52.6963 57.9783 52.986L57.8946 53.1112C57.7032 53.4022 57.3153 53.4717 57.0338 53.2668L55.5442 52.1815C55.2627 51.9766 55.2006 51.5794 55.4085 51.2999L55.4149 51.291C55.6215 51.0115 56.0285 50.9394 56.3188 51.1304L57.7983 52.1082V52.1094Z" fill="var(--fill-0, #0054AC)"/>
<path id="Vector_17" d="M56.2142 54.3888C56.4868 54.6064 56.5299 55.0061 56.3119 55.2781L56.2155 55.397C55.9975 55.6676 55.6044 55.7018 55.342 55.4728L53.8612 54.175C53.5988 53.9448 53.5735 53.5439 53.8042 53.2833L53.8093 53.277C54.04 53.0164 54.4508 52.981 54.7233 53.1985L56.213 54.3901L56.2142 54.3888Z" fill="var(--fill-0, #0054AC)"/>
<path id="Vector_18" d="M54.4204 56.5176C54.6714 56.7592 54.679 57.1615 54.4369 57.4119L54.3278 57.5245C54.0857 57.775 53.6914 57.7737 53.4518 57.5207L52.0091 56.0041C51.7694 55.7524 51.7796 55.3501 52.0331 55.111L52.0369 55.1073C52.2905 54.8682 52.7025 54.8694 52.9548 55.111L54.4204 56.5176Z" fill="var(--fill-0, #0054AC)"/>
<path id="Vector_19" d="M52.4394 58.4808C52.6676 58.7439 52.6384 59.1449 52.3747 59.3726L52.2543 59.4763C51.9906 59.704 51.5976 59.6673 51.382 59.3941L50.0065 57.6561C49.791 57.3829 49.8379 56.9844 50.1117 56.7681L50.1142 56.7656C50.3881 56.5505 50.7988 56.5897 51.027 56.8529L52.4394 58.4795V58.4808Z" fill="var(--fill-0, #0054AC)"/>
<path id="Vector_20" d="M50.2833 60.2593C50.4874 60.5413 50.4215 60.9385 50.1388 61.1409L50.007 61.2358C49.7242 61.4382 49.3363 61.3661 49.1461 61.0751L47.8657 59.1158C47.6755 58.8249 47.7592 58.4315 48.0508 58.2417C48.3436 58.052 48.7493 58.1279 48.9522 58.4112L50.2846 60.2593H50.2833Z" fill="var(--fill-0, #0054AC)"/>
<path id="Vector_21" d="M47.9666 61.8366C48.1441 62.1364 48.0414 62.5247 47.7409 62.7005L47.5977 62.784C47.2972 62.9599 46.9169 62.8511 46.7533 62.5437L45.6047 60.3782C45.4412 60.0708 45.5591 59.6863 45.8672 59.5231C46.1752 59.3599 46.5708 59.4725 46.747 59.7723L47.9653 61.8366H47.9666Z" fill="var(--fill-0, #0054AC)"/>
<path id="Vector_22" d="M45.5096 63.1964C45.658 63.5114 45.5223 63.8883 45.2054 64.0363L45.0532 64.1071C44.7376 64.2539 44.3686 64.1122 44.2355 63.7909L43.2479 61.4293C43.1135 61.108 43.2657 60.7361 43.5864 60.6021C43.9072 60.468 44.29 60.616 44.4396 60.9309L45.5109 63.1964H45.5096Z" fill="var(--fill-0, #0054AC)"/>
<path id="Vector_23" d="M42.933 64.3273C43.0522 64.6536 42.8811 65.0179 42.554 65.1355L42.393 65.1937C42.0646 65.3114 41.7109 65.1368 41.6069 64.8041L40.8082 62.2579C40.7043 61.9264 40.8894 61.5697 41.219 61.466C41.5486 61.3623 41.9176 61.5444 42.0367 61.8721L42.933 64.3273Z" fill="var(--fill-0, #0054AC)"/>
<path id="Vector_24" d="M40.2585 65.219C40.3472 65.5555 40.1444 65.9021 39.8059 65.9893L39.6385 66.0323C39.3013 66.1196 38.9653 65.9122 38.8918 65.5732L38.3074 62.8587C38.2338 62.5184 38.4506 62.1807 38.7879 62.1073C39.1251 62.0339 39.475 62.2502 39.5637 62.5867L40.2585 65.219Z" fill="var(--fill-0, #0054AC)"/>
<path id="Vector_25" d="M37.5083 65.8641C37.5653 66.2069 37.3308 66.5332 36.9872 66.5889L36.8148 66.6167C36.4712 66.6724 36.1543 66.4346 36.1125 66.0893L35.7664 63.2305C35.7245 62.8852 35.9705 62.5677 36.3128 62.526C36.6551 62.4842 36.9822 62.7296 37.0405 63.0724L37.5083 65.8641Z" fill="var(--fill-0, #0054AC)"/>
<path id="Vector_26" d="M34.7064 66.2499C34.733 66.5965 34.4693 66.9001 34.122 66.9241L33.9457 66.9368C33.5984 66.9608 33.3042 66.6952 33.2941 66.3473L33.2054 63.3748C33.1952 63.0269 33.469 62.7335 33.8126 62.7221C34.1562 62.7107 34.4605 62.9852 34.4871 63.3318L34.7064 66.2499Z" fill="var(--fill-0, #0054AC)"/>
<path id="Vector_27" d="M31.8794 66.3815C31.8743 66.7293 31.5853 67.0076 31.2366 67L31.0579 66.9962C30.7092 66.9886 30.4417 66.699 30.462 66.3511L30.6458 63.29C30.6661 62.9422 30.9653 62.674 31.3089 62.6943C31.6525 62.7145 31.9301 63.0143 31.925 63.3621L31.8794 66.3815Z" fill="var(--fill-0, #0054AC)"/>
<path id="Vector_28" d="M29.0444 66.2588C29.0076 66.6041 28.6945 66.8558 28.3484 66.8179L28.1671 66.7976C27.821 66.7584 27.5801 66.446 27.6321 66.1019L28.1075 62.9776C28.1595 62.6335 28.4802 62.3932 28.82 62.4438C29.1597 62.4944 29.4082 62.8182 29.3715 63.1635L29.0444 66.26V66.2588Z" fill="var(--fill-0, #0054AC)"/>
<path id="Vector_29" d="M26.2273 65.8793C26.1588 66.2208 25.8241 66.4422 25.4831 66.3726L25.3018 66.3359C24.9608 66.2664 24.7491 65.9324 24.8327 65.5947L25.615 62.4362C25.6986 62.0985 26.0397 61.8885 26.3718 61.9682C26.704 62.0479 26.922 62.3945 26.8536 62.7347L26.226 65.8806L26.2273 65.8793Z" fill="var(--fill-0, #0054AC)"/>
<path id="Vector_30" d="M43.4976 8.08653C43.8247 7.9651 43.8716 7.68429 43.6016 7.46293L34.6637 0.117564C34.3949 -0.103796 34.1274 -0.00386746 34.0704 0.338924L33.7522 2.24262C33.6951 2.58541 33.4453 2.85358 33.1969 2.83713C32.9484 2.82069 32.0089 2.82069 31.6603 2.82954L31.5158 2.83334C31.1671 2.84219 30.5979 2.86875 30.2493 2.89405C30.2493 2.89405 29.9412 2.91556 29.4708 2.94971C27.5933 3.12174 24.5265 3.80479 24.5265 3.80479C24.1867 3.88069 23.7544 3.98567 23.5668 4.0388C23.3791 4.09193 23.1243 4.16276 22.9988 4.19692C22.8733 4.23107 22.2787 4.42966 21.9491 4.54097L21.8096 4.58777C21.48 4.69909 20.9437 4.89515 20.6192 5.0229L20.4823 5.07603C20.1577 5.20379 19.6316 5.42388 19.3134 5.56555C19.3134 5.56555 19.0306 5.69078 18.6009 5.88305C16.8957 6.685 15.2602 7.63369 13.7199 8.71393C12.1783 9.7929 10.7368 11.0123 9.40689 12.3392C8.08205 13.6724 6.87512 15.1207 5.79878 16.6589C4.72369 18.197 3.27715 20.9659 3.27715 20.9659C3.11614 21.2745 2.91964 21.6717 2.83977 21.8475C2.7599 22.0234 2.66228 22.2409 2.62298 22.3282C2.58367 22.4155 2.53423 22.5243 2.51521 22.5685C2.4962 22.6128 2.4645 22.6862 2.44675 22.7304C2.429 22.7747 2.3111 23.077 2.18432 23.4009L2.13234 23.5324C2.00556 23.8562 1.81033 24.3913 1.70003 24.7214L1.65439 24.8555C1.54409 25.1856 1.44013 25.493 1.42492 25.5386C1.40971 25.5841 1.38689 25.66 1.37294 25.7068C1.35899 25.7536 1.3273 25.8674 1.30194 25.961C1.27659 26.0546 1.21193 26.2823 1.15995 26.4695C1.10797 26.6567 1.00528 27.0868 0.931752 27.4258L0.191366 31.7075C0.146993 32.0529 0.0988173 32.4918 0.0861395 32.6841C0.0734616 32.8763 0.0557127 33.1129 0.0493737 33.209C0.0430348 33.3051 0.0328925 33.4367 0.0290892 33.4999C0.0252858 33.5632 0.0151436 34.0173 0.00753686 34.3651L0.00500129 34.5005C-0.00133763 34.8483 -0.00260541 35.3429 0.00500129 35.5997C0.012608 35.8565 0.0316248 36.6116 0.0354281 36.7078C0.0392315 36.8039 0.0468382 36.9607 0.0544449 37.0569C0.0620516 37.153 0.0810684 37.3883 0.0962818 37.5805C0.111495 37.7728 0.162207 38.2117 0.206579 38.5571C0.206579 38.5571 0.611002 41.6346 1.09149 43.4396C1.57452 45.2434 2.23377 46.9966 3.02613 48.6827C3.82103 50.3676 4.76046 51.9816 5.83047 53.5033C6.89921 55.025 8.09854 56.4531 9.4183 57.7585C12.0578 60.3693 15.1436 62.5171 18.4982 64.0818C19.5999 64.5941 21.2873 65.205 21.2873 65.205C21.6157 65.3239 22.1557 65.5048 22.4892 65.6073L22.6679 65.6617C23.0013 65.7641 23.3551 65.5757 23.4539 65.2417L24.3934 62.0769C24.4923 61.743 24.3084 61.3812 23.9851 61.2711C23.6619 61.1611 23.1345 60.9587 22.815 60.8208L21.1263 60.0935C20.8068 59.9556 20.3022 59.6925 20.0056 59.5104C20.0056 59.5104 15.1652 56.5252 12.9985 54.2572C11.9095 53.1289 10.927 51.9006 10.0585 50.6003C9.18883 49.3012 8.43323 47.9288 7.80187 46.5045C6.53029 43.6572 5.66312 38.1207 5.66312 38.1207C5.60988 37.7766 5.55663 37.3655 5.54649 37.2049C5.53634 37.0442 5.52367 36.8482 5.51859 36.7685C5.51352 36.6888 5.50845 36.5572 5.50845 36.4775C5.50845 36.3979 5.50338 36.1575 5.49958 35.9437C5.49577 35.73 5.50592 34.9053 5.51859 34.584C5.53127 34.2627 5.54268 33.9578 5.54522 33.9047C5.54775 33.8516 5.5655 33.6454 5.57311 33.5657C5.58072 33.486 5.5972 33.29 5.61114 33.1306C5.62509 32.9712 5.67834 32.5588 5.72905 32.2148L6.36167 28.8994C6.44154 28.5604 6.54423 28.1582 6.58987 28.0064C6.63551 27.8546 6.6913 27.6661 6.71412 27.589C6.73694 27.5118 6.76483 27.4182 6.77624 27.3803C6.78765 27.3423 6.80793 27.2803 6.82061 27.2424C6.83329 27.2045 6.93091 26.9274 7.03613 26.6264C7.14136 26.3253 7.32519 25.8371 7.44563 25.5424C7.56607 25.2476 7.6751 24.9744 7.69031 24.9377C7.70552 24.901 7.73088 24.8416 7.74736 24.8049C7.76384 24.7682 7.80568 24.6797 7.83864 24.6076C7.8716 24.5355 7.95528 24.3584 8.0212 24.2129C8.08713 24.0675 8.27729 23.6994 8.4421 23.392C8.4421 23.392 9.60593 21.2239 10.5061 19.9679C11.4062 18.7118 12.4128 17.5316 13.5132 16.4476C14.6187 15.3674 15.8181 14.3871 17.0871 13.508C18.3562 12.6288 19.6988 11.8598 21.0971 11.2109C21.4508 11.0578 21.5763 11.0022 21.5763 11.0022C21.8958 10.8618 22.3991 10.653 22.6958 10.5379C22.9925 10.4228 23.4818 10.247 23.7836 10.1471C24.0853 10.0471 24.4149 9.94089 24.5163 9.91053C24.6178 9.88018 25.012 9.7676 25.1642 9.72586C25.3163 9.68412 25.722 9.58798 26.0618 9.51462C26.0618 9.51462 28.4566 8.996 29.9932 8.86319C30.3786 8.83915 30.5155 8.8303 30.5155 8.8303C30.8629 8.80626 31.408 8.78223 31.7275 8.77591C32.047 8.76958 32.3601 8.76452 32.426 8.76452C32.492 8.76452 32.6175 9.04407 32.5604 9.38686L32.1674 11.7333C32.1104 12.0761 32.3297 12.257 32.6568 12.1355L43.5014 8.084L43.4976 8.08653Z" fill="var(--fill-0, #0054AC)"/>
<path id="Vector_31" d="M26.2524 38.4559C27.0143 37.6363 27.6596 36.8722 28.187 36.1601C28.7144 35.4479 29.1442 34.7712 29.4776 34.1274C29.8098 33.4835 30.0545 32.8701 30.2104 32.2844C30.3664 31.7 30.445 31.1346 30.445 30.5881C30.445 29.4371 30.1762 28.434 29.6386 27.5751C29.1011 26.7175 28.3734 26.0446 27.4543 25.5563C26.5351 25.0693 25.4905 24.8252 24.3178 24.8252C23.1451 24.8252 22.1334 25.0491 21.166 25.4981C20.1987 25.9472 19.3633 26.5809 18.6596 27.3993C17.956 28.219 17.4286 29.1942 17.0762 30.325L19.9198 32.0213C20.1937 31.2611 20.5398 30.6021 20.9607 30.0468C21.3803 29.4915 21.8443 29.0627 22.3527 28.7591C22.8611 28.4568 23.3682 28.3062 23.8778 28.3062C24.4838 28.3062 24.9922 28.4138 25.403 28.6275C25.8137 28.8426 26.1307 29.1449 26.3564 29.5345C26.5807 29.9253 26.6936 30.3934 26.6936 30.9385C26.6936 31.3484 26.5858 31.7923 26.3716 32.2692C26.156 32.7474 25.8771 33.2306 25.5361 33.7175C25.1938 34.2058 24.8375 34.6789 24.4661 35.1368C24.0946 35.5947 23.7422 36.0096 23.41 36.3802L17.2537 43.2246L18.221 45.652H31.1803V42.1419H22.8636L26.2549 38.4559H26.2524Z" fill="var(--fill-0, #0054AC)"/>
<path id="Vector_32" d="M48.7103 37.2277H45.2213V25.1174H42.2306L32.0566 37.4908L33.6401 40.5329H41.5561V45.6521H45.2213V40.5329H48.7103V37.2277ZM36.4457 37.2277L41.5561 30.9841V37.2277H36.4457Z" fill="var(--fill-0, #0054AC)"/>
</g>
<defs>
<clipPath id="clip0_1079_3129">
<rect width="63" height="67" fill="white"/>
</clipPath>
</defs>
</svg>
