<svg preserveAspectRatio="none" width="100%" height="100%" overflow="visible" style="display: block;" viewBox="0 0 53 80" fill="none" xmlns="http://www.w3.org/2000/svg">
<g id="Layer_1" clip-path="url(#clip0_1079_3055)">
<path id="Vector" d="M18.4345 0.0456104V4.09546H13.6327C13.4285 1.87417 13.8304 0.769453 14.2304 0L18.4345 0.0456104Z" fill="var(--fill-0, #0054AC)"/>
<path id="Vector_2" d="M18.6202 5.57631V10.5324H12.9126C12.398 8.99946 12.3591 7.50024 12.7932 5.96489C12.8577 5.73624 13.0715 5.57631 13.3133 5.57631H18.6202Z" fill="var(--fill-0, #0054AC)"/>
<path id="Vector_3" d="M28.2769 5.57631H20.1129V10.5324H28.2769V5.57631Z" fill="var(--fill-0, #0054AC)"/>
<path id="Vector_4" d="M28.462 0.0533108H19.9272V4.09546H28.462V0.0533108Z" fill="var(--fill-0, #0054AC)"/>
<path id="Vector_5" d="M34.7565 4.09546H29.9548V0.0456104L34.1589 0C34.5589 0.769453 34.9613 1.87358 34.7565 4.09546Z" fill="var(--fill-0, #0054AC)"/>
<path id="Vector_6" d="M35.4772 10.5324H29.7697V5.57631H35.4772C36.0349 7.23902 36.0349 8.86914 35.4772 10.5324Z" fill="var(--fill-0, #0054AC)"/>
<path id="Vector_7" d="M11.079 12.0352C10.7798 14.1268 10.5291 16.274 10.3165 18.5699V18.5776C8.8202 19.5319 7.42599 20.6408 6.14464 21.8965L8.48463 14.2002C8.84587 13.012 9.86331 12.178 11.079 12.0352Z" fill="var(--fill-0, #0054AC)"/>
<path id="Vector_8" d="M35.9621 17.3699C35.3853 17.0749 34.796 16.8 34.1947 16.5477C31.0235 15.2173 27.6595 14.5432 24.1946 14.5432C20.7297 14.5432 17.3651 15.2179 14.1946 16.5477C13.4106 16.877 12.6475 17.2431 11.9054 17.6435C12.1012 15.6846 12.3269 13.8282 12.5902 12.0133H35.3047C35.556 13.7435 35.7728 15.5111 35.9621 17.3699Z" fill="var(--fill-0, #0054AC)"/>
<path id="Vector_9" d="M42.2452 21.8977C40.8152 20.4962 39.2443 19.2766 37.5485 18.2524C37.3419 16.0673 37.0995 14.0148 36.8129 12.0133H36.9371C38.3146 12.0133 39.507 12.8917 39.9046 14.2002L42.2452 21.8977Z" fill="var(--fill-0, #0054AC)"/>
<path id="Vector_10" d="M53 38.4436V41.6091C53 42.3649 52.3802 42.9792 51.6189 42.9792H49.7118C49.7136 42.9614 49.7154 42.9436 49.7178 42.9259C49.722 42.885 49.7262 42.8441 49.7309 42.8033C49.7423 42.6984 49.753 42.593 49.7632 42.4881C49.768 42.4419 49.7721 42.3957 49.7763 42.3495C49.7865 42.2388 49.7954 42.128 49.8044 42.0172C49.8068 41.9823 49.8098 41.9479 49.8127 41.9136C49.8229 41.769 49.8324 41.6245 49.8408 41.48C49.8426 41.4504 49.8438 41.4201 49.8456 41.3899C49.8516 41.275 49.8569 41.1595 49.8617 41.0446C49.8635 40.9978 49.8647 40.951 49.8665 40.9042C49.8701 40.8 49.873 40.6963 49.8754 40.5921C49.876 40.5482 49.8772 40.5044 49.8778 40.4605C49.8808 40.3154 49.882 40.1709 49.882 40.0264C49.882 39.8818 49.8808 39.7379 49.8778 39.5934C49.8772 39.5489 49.876 39.5045 49.8754 39.4607C49.873 39.3576 49.8701 39.2545 49.8665 39.1515C49.8647 39.1035 49.8635 39.0555 49.8617 39.0081C49.8569 38.8962 49.8516 38.7842 49.8456 38.6723C49.8438 38.6385 49.8426 38.6053 49.8408 38.5716C49.8324 38.4294 49.8235 38.2867 49.8127 38.1439C49.8098 38.1054 49.8068 38.0669 49.8038 38.0278C49.7954 37.9218 49.7865 37.8157 49.7769 37.7103C49.7727 37.6605 49.768 37.6108 49.7632 37.561C49.7536 37.4603 49.7429 37.3602 49.7321 37.2595C49.7274 37.2145 49.7226 37.1695 49.7178 37.1251C49.7154 37.1079 49.7142 37.0907 49.7118 37.0741H51.6189C52.3802 37.0741 53 37.6884 53 38.4436Z" fill="var(--fill-0, #0054AC)"/>
<path id="Vector_11" d="M48.1224 36.4427C47.8256 34.4702 47.2757 32.5326 46.487 30.6827C45.2677 27.8241 43.5236 25.2575 41.303 23.0546C39.0825 20.8516 36.4947 19.1208 33.6131 17.9113C30.6277 16.659 27.4583 16.024 24.1946 16.024C20.931 16.024 17.7616 16.659 14.7762 17.9113C11.8946 19.1208 9.30742 20.8516 7.08625 23.0546C4.86568 25.2575 3.12158 27.8241 1.90173 30.6827C0.640079 33.6439 0 36.7874 0 40.0264C0 43.2653 0.640079 46.4094 1.90173 49.3706C3.12158 52.2292 4.86568 54.7958 7.08625 56.9993C9.30742 59.2023 11.8952 60.9325 14.7762 62.1415C17.7598 63.3937 20.9286 64.0287 24.1946 64.0287C27.4607 64.0287 30.6289 63.3937 33.6131 62.1415C36.4947 60.9325 39.0819 59.2023 41.303 56.9993C43.5236 54.7958 45.2677 52.2292 46.487 49.3706C47.2751 47.5207 47.825 45.5825 48.1218 43.6106C48.2525 42.7446 48.3355 41.862 48.3702 40.9771C48.3767 40.8106 48.3821 40.6442 48.3851 40.4777C48.3881 40.3273 48.3893 40.1768 48.3893 40.0264C48.3893 38.8257 48.2997 37.6197 48.1224 36.4427ZM44.3362 48.4678C43.2352 51.0504 41.6595 53.3695 39.6521 55.3609C37.6447 57.3524 35.3071 58.9162 32.7038 60.0084C30.0085 61.1392 27.1455 61.7126 24.1952 61.7126C21.2444 61.7126 18.3814 61.1392 15.6861 60.0084C13.0828 58.9162 10.7452 57.3524 8.7378 55.3609C6.73039 53.3695 5.15467 51.0504 4.05364 48.4678C2.9132 45.794 2.33521 42.9537 2.33521 40.0264C2.33521 37.099 2.9132 34.2593 4.05364 31.5855C5.15467 29.0029 6.73039 26.6838 8.7378 24.6924C10.7452 22.7009 13.0828 21.1377 15.6861 20.0455C17.0338 19.4798 18.4232 19.0533 19.8448 18.769C21.2665 18.484 22.7198 18.3407 24.1952 18.3407C27.1455 18.3407 30.0085 18.9141 32.7038 20.0455C35.3071 21.1377 37.6447 22.7009 39.6521 24.6924C41.6595 26.6838 43.2352 29.0029 44.3362 31.5855C45.4767 34.2593 46.0547 37.099 46.0547 40.0264C46.0547 42.9537 45.4767 45.794 44.3362 48.4678Z" fill="var(--fill-0, #0054AC)"/>
<path id="Vector_12" d="M34.5547 33.2203L38.5773 30.9161C38.9344 30.7118 39.3905 30.8332 39.5965 31.1874C39.8025 31.5416 39.6807 31.9942 39.3237 32.1986L35.3011 34.5028C35.1835 34.5703 35.0551 34.6023 34.9285 34.6023C34.6706 34.6023 34.4198 34.469 34.2813 34.2315C34.0753 33.8778 34.1977 33.4247 34.5547 33.2203Z" fill="var(--fill-0, #0054AC)"/>
<path id="Vector_13" d="M29.7971 29.0046L32.1198 25.014C32.3258 24.6598 32.782 24.539 33.139 24.7433C33.4961 24.9477 33.6185 25.4008 33.4125 25.7545L31.0898 29.7451C30.9519 29.9826 30.7011 30.1153 30.4432 30.1153C30.3166 30.1153 30.1882 30.0833 30.0706 30.0164C29.7135 29.812 29.5911 29.3589 29.7971 29.0046Z" fill="var(--fill-0, #0054AC)"/>
<path id="Vector_14" d="M23.5528 23.1061C23.5528 22.6968 23.8871 22.3657 24.2991 22.3657C24.7111 22.3657 25.0455 22.6968 25.0455 23.1061V27.7139C25.0455 28.1226 24.7111 28.4544 24.2991 28.4544C23.8871 28.4544 23.5528 28.1226 23.5528 27.7139V23.1061Z" fill="var(--fill-0, #0054AC)"/>
<path id="Vector_15" d="M6.55245 39.8676C6.55245 39.4583 6.88623 39.1272 7.29881 39.1272H11.9436C12.3556 39.1272 12.6899 39.4583 12.6899 39.8676C12.6899 40.2769 12.3556 40.608 11.9436 40.608H7.29881C6.88623 40.608 6.55245 40.2763 6.55245 39.8676Z" fill="var(--fill-0, #0054AC)"/>
<path id="Vector_16" d="M13.939 46.6185L9.91645 48.9222C9.79883 48.9897 9.67045 49.0217 9.54387 49.0217C9.28593 49.0217 9.03515 48.889 8.89663 48.6515C8.69063 48.2972 8.81303 47.8441 9.17009 47.6397L13.1927 45.3361C13.5491 45.1312 14.0059 45.2526 14.2119 45.6068C14.4179 45.961 14.2955 46.4136 13.939 46.6185Z" fill="var(--fill-0, #0054AC)"/>
<path id="Vector_17" d="M14.2645 34.142C14.1259 34.3796 13.8752 34.5122 13.6172 34.5122C13.4906 34.5122 13.3623 34.4803 13.2446 34.4127L9.22204 32.1091C8.86558 31.9042 8.74317 31.4516 8.94917 31.0974C9.15516 30.7432 9.61194 30.6217 9.9684 30.8267L13.991 33.1303C14.348 33.3347 14.4704 33.7878 14.2645 34.142Z" fill="var(--fill-0, #0054AC)"/>
<path id="Vector_18" d="M18.696 50.8337L16.374 54.8243C16.2354 55.0618 15.9847 55.1945 15.7267 55.1945C15.6001 55.1945 15.4718 55.1625 15.3541 55.0956C14.9971 54.8906 14.8747 54.4381 15.0813 54.0838L17.4034 50.0932C17.6093 49.739 18.0661 49.6176 18.4232 49.8225C18.7802 50.0269 18.902 50.4794 18.696 50.8337Z" fill="var(--fill-0, #0054AC)"/>
<path id="Vector_19" d="M18.5133 29.9642C18.3963 30.0318 18.2679 30.0638 18.1414 30.0638C17.8834 30.0638 17.632 29.9311 17.4941 29.6935L15.1714 25.7029C14.9654 25.3487 15.0878 24.8956 15.4449 24.6912C15.802 24.4868 16.2581 24.6083 16.4641 24.9625L18.7868 28.9531C18.9928 29.3067 18.8704 29.7599 18.5133 29.9642Z" fill="var(--fill-0, #0054AC)"/>
<path id="Vector_20" d="M24.941 56.7328C24.941 57.1415 24.6066 57.4732 24.1946 57.4732C23.7826 57.4732 23.4483 57.1415 23.4483 56.7328V52.125C23.4483 51.7156 23.7821 51.3845 24.1946 51.3845C24.6072 51.3845 24.941 51.7156 24.941 52.125V56.7328Z" fill="var(--fill-0, #0054AC)"/>
<path id="Vector_21" d="M27.2398 45.2763C27.1234 45.342 26.9962 45.3734 26.8714 45.3734C26.6117 45.3734 26.3597 45.239 26.2218 44.9991L24.363 41.7607C24.3075 41.7661 24.2514 41.769 24.1946 41.769C23.2262 41.769 22.4386 40.9871 22.4386 40.027C22.4386 39.3309 22.8524 38.7291 23.4483 38.4501V30.5631C23.4483 30.1538 23.7826 29.8227 24.1946 29.8227C24.6066 29.8227 24.941 30.1538 24.941 30.5631V38.4507C25.5369 38.7291 25.9507 39.3309 25.9507 40.027C25.9507 40.3889 25.8384 40.7259 25.6468 41.0049L27.5192 44.2663C27.7228 44.6218 27.598 45.0737 27.2398 45.2763Z" fill="var(--fill-0, #0054AC)"/>
<path id="Vector_22" d="M33.0489 55.1471C32.9312 55.2146 32.8029 55.2466 32.6763 55.2466C32.4183 55.2466 32.1676 55.1139 32.029 54.8764L29.707 50.8858C29.5004 50.5316 29.6228 50.079 29.9798 49.8741C30.3369 49.6697 30.7931 49.7911 30.9997 50.1453L33.3217 54.136C33.5277 54.4902 33.4053 54.9427 33.0489 55.1471Z" fill="var(--fill-0, #0054AC)"/>
<path id="Vector_23" d="M39.5446 48.7409C39.4061 48.9784 39.1553 49.1117 38.8974 49.1117C38.7708 49.1117 38.6424 49.0797 38.5248 49.0122L34.5022 46.708C34.1451 46.5036 34.0233 46.0511 34.2293 45.6969C34.4353 45.3426 34.8915 45.2212 35.2485 45.4256L39.2711 47.7298C39.6282 47.9341 39.7506 48.3867 39.5446 48.7409Z" fill="var(--fill-0, #0054AC)"/>
<path id="Vector_24" d="M41.195 39.2308H39.1404V38.0011C39.1404 37.5924 38.806 37.2607 38.394 37.2607H31.8696C31.4576 37.2607 31.1233 37.5924 31.1233 38.0011V41.9408C31.1233 42.3501 31.4576 42.6812 31.8696 42.6812H38.394C38.806 42.6812 39.1404 42.3501 39.1404 41.9408V40.7117H41.195C41.6069 40.7117 41.9413 40.38 41.9413 39.9713C41.9413 39.5626 41.6069 39.2308 41.195 39.2308ZM37.6477 41.2004H32.616V38.7416H37.6477V41.2004Z" fill="var(--fill-0, #0054AC)"/>
<path id="Vector_25" d="M42.2219 58.1787L39.9046 65.7998C39.5434 66.988 38.526 67.822 37.3103 67.9648C37.6076 65.888 37.8566 63.7568 38.068 61.4786C39.5571 60.5297 40.9454 59.4268 42.2219 58.1787Z" fill="var(--fill-0, #0054AC)"/>
<path id="Vector_26" d="M36.4785 62.4128C36.2839 64.3515 36.06 66.1889 35.7991 67.9867H13.0846C12.8362 66.2736 12.6207 64.5245 12.4332 62.6864C13.0082 62.9802 13.5951 63.2539 14.1946 63.505C17.3633 64.8354 20.7279 65.5095 24.1946 65.5095C27.6613 65.5095 31.0253 64.8354 34.1947 63.505C34.9769 63.1769 35.7382 62.812 36.4785 62.4128Z" fill="var(--fill-0, #0054AC)"/>
<path id="Vector_27" d="M11.577 67.9867H11.4522C10.0753 67.9867 8.88229 67.1077 8.48463 65.7998L6.16793 58.1793C7.59318 59.5725 9.15815 60.785 10.8461 61.8044C11.0521 63.9683 11.2921 66.0024 11.577 67.9867Z" fill="var(--fill-0, #0054AC)"/>
<path id="Vector_28" d="M36.9264 74.0351C36.8619 74.2638 36.6481 74.4237 36.4057 74.4237H31.0994V69.4676H36.8069C37.3216 71.0005 37.3599 72.4992 36.9264 74.0351Z" fill="var(--fill-0, #0054AC)"/>
<path id="Vector_29" d="M29.6067 69.4676H21.4427V74.4237H29.6067V69.4676Z" fill="var(--fill-0, #0054AC)"/>
<path id="Vector_30" d="M19.9499 69.4676V74.4237H14.2424C13.6841 72.7604 13.6841 71.1303 14.2424 69.4676H19.9499Z" fill="var(--fill-0, #0054AC)"/>
<path id="Vector_31" d="M19.7648 75.9045V79.9544L15.5601 80C15.1601 79.2305 14.7582 78.1258 14.963 75.9045H19.7648Z" fill="var(--fill-0, #0054AC)"/>
<path id="Vector_32" d="M29.7918 75.9045H21.2576V79.9461H29.7918V75.9045Z" fill="var(--fill-0, #0054AC)"/>
<path id="Vector_33" d="M35.4892 80L31.2845 79.9544V75.9045H36.0863C36.2911 78.1258 35.8892 79.2305 35.4892 80Z" fill="var(--fill-0, #0054AC)"/>
</g>
<defs>
<clipPath id="clip0_1079_3055">
<rect width="53" height="80" fill="white"/>
</clipPath>
</defs>
</svg>
