<svg width="119" height="119" viewBox="0 0 119 119" fill="none" xmlns="http://www.w3.org/2000/svg">
<rect width="119" height="119" rx="59.5" fill="white"/>
<g clip-path="url(#clip0_358_3718)">
<path d="M66.8096 70.5363C66.8675 70.6905 67.0462 70.7609 67.1931 70.6857C70.9823 68.7638 74.6654 67.0656 78.245 65.5959C79.5258 65.0675 80.8916 64.9314 82.3386 65.1827C85.0431 65.653 86.8156 67.9756 85.6198 70.5934C85.2228 71.4644 83.4861 72.7133 82.5221 73.2902C79.7683 74.9313 77.6838 76.2068 76.2688 77.1169C74.8808 78.0098 72.7606 79.2149 69.8995 80.7332C67.846 81.8288 65.5655 83.0511 63.0609 84.4066C61.4362 85.2824 60.2395 85.7926 59.4764 85.9373C56.6907 86.4523 54.7318 86.0782 51.2816 85.3833C47.983 84.715 42.5507 82.973 37.4709 82.656C37.3686 82.6513 37.2652 82.6608 37.1628 82.6827L33.7039 83.5623C33.5387 83.6061 33.4537 83.7774 33.5165 83.9316C33.9318 84.9483 34.6543 86.6322 33.0519 87.1472C30.186 88.0582 27.4235 88.9901 24.7673 89.9363C24.0795 90.1781 23.3474 89.7031 23.3029 88.9863V88.951C23.2807 88.1943 23.7714 87.5175 24.4987 87.2881L30.9394 85.2776C31.1626 85.2072 31.2968 84.9787 31.2427 84.7541C31.1664 84.4152 30.5415 82.4447 29.3679 78.8503C27.5018 73.1007 26.5426 69.5996 25.569 67.7957C25.4666 67.6111 25.2473 67.5225 25.0464 67.5844L18.2039 69.652C17.7528 69.7881 17.2756 69.533 17.1501 69.0846L17.0477 68.7153C16.8516 68.0156 17.2534 67.2941 17.9537 67.0837L26.3185 64.5545C26.5996 64.4707 26.9077 64.5592 27.0951 64.7791C27.4786 65.2189 27.751 65.632 27.9123 66.0156C28.0243 66.2888 28.3547 66.4069 28.6222 66.2708C31.9566 64.5944 34.7152 62.8838 37.3705 62.2937C42.8385 61.0705 47.1195 62.9143 52.0958 64.9819C52.4397 65.1266 52.7971 65.237 53.1622 65.316C55.6485 65.8481 58.6119 66.3545 62.0631 66.8429C64.4248 67.1817 66.0088 68.4135 66.8077 70.5382M32.9215 80.9578L37.5859 80.2058C37.9568 80.1439 38.3316 80.1439 38.7015 80.2058L44.6206 81.191C44.6969 81.2044 44.7684 81.2215 44.8438 81.2529C45.7546 81.6223 46.0173 81.7898 46.9552 81.9611C48.7451 82.2819 50.8614 82.7531 53.3023 83.3776C54.9897 83.8088 56.6994 83.8707 58.4351 83.567C59.5826 83.3643 61.158 82.6913 63.1536 81.5528C65.1492 80.4133 67.6886 79.015 70.7727 77.3558C72.7992 76.2649 74.8614 74.778 76.9633 73.6824C77.5573 73.3701 78.4276 72.8114 79.5741 71.9975C80.5294 71.3197 82.9133 70.3126 83.4397 69.1598C83.5827 68.8476 83.4842 68.4868 83.2079 68.2841C82.1319 67.5006 81.0162 67.3207 79.86 67.7472C75.9809 69.177 72.7625 70.5848 70.2096 71.9746C68.9153 72.6828 67.7456 73.2854 66.7053 73.7823C66.4686 73.8927 66.2503 74.0203 66.0398 74.1735C64.785 75.0883 63.3478 75.748 61.7366 76.1535C61.6381 76.1754 61.5405 76.184 61.442 76.1802L47.8053 75.0845C47.1533 75.036 46.6713 74.4601 46.7476 73.8175L46.7563 73.73C46.8635 72.9817 47.5329 72.4363 48.3008 72.481C51.7423 72.6743 55.4244 73.0094 59.3479 73.4882C60.7224 73.6557 61.8342 73.6157 62.6774 73.3654C64.0345 72.9694 64.6952 71.3283 63.6327 70.225C62.5258 69.0684 59.7401 69.0684 57.2364 68.7334C55.0757 68.443 52.8087 67.849 50.4335 66.9514C47.5184 65.8472 45.885 65.2398 45.5238 65.1218C42.2966 64.0614 39.1091 64.1889 35.967 65.513C33.2084 66.6696 30.9056 67.7833 29.0617 68.8476C28.8251 68.9837 28.7265 69.274 28.8338 69.5253C30.4179 73.2378 31.3558 76.9198 32.5786 80.7513C32.623 80.8921 32.766 80.9797 32.9176 80.9578H32.9215Z" fill="#0054AC"/>
<path d="M61.6787 63.0132C56.6627 63.0132 51.9471 61.0885 48.4003 57.5931C44.8535 54.0976 42.9004 49.4504 42.9004 44.5071C42.9004 39.5638 44.8535 34.9166 48.4003 31.4211C51.9462 27.9248 56.6627 26 61.6787 26C66.6947 26 71.4103 27.9257 74.9571 31.4202C78.504 34.9156 80.457 39.5629 80.457 44.5061C80.457 49.4494 78.504 54.0967 74.9571 57.5921C71.4103 61.0875 66.6947 63.0132 61.6787 63.0132Z" fill="#0054AC"/>
<path d="M71.0379 35.5H66.9115L62.0066 43.1239L56.6235 35.5H52.3281L60.0129 46.2043L56.3135 46.1957V48.4517L60.1288 48.4689V49.9453L56.3135 49.9272V52.2118L60.1288 52.2289V54.9971H63.8022V52.247L68.1826 52.267V49.9834L63.8022 49.9624V48.487L68.1826 48.5069V46.2233L63.8698 46.2128L71.0379 35.5Z" fill="white"/>
</g>
<defs>
<clipPath id="clip0_358_3718">
<rect width="69" height="64" fill="white" transform="translate(17 26)"/>
</clipPath>
</defs>
</svg>
