<svg width="119" height="119" viewBox="0 0 119 119" fill="none" xmlns="http://www.w3.org/2000/svg">
<rect width="119" height="119" rx="59.5" fill="white"/>
<g clip-path="url(#clip0_358_3788)">
<path d="M56.7081 96.9999C55.0693 91.3813 53.8761 85.6394 52.4976 79.9546C57.3506 81.3137 62.607 81.3602 67.4601 79.9815C66.2104 85.6698 64.9704 91.3652 63.3916 96.9705C69.2543 96.7569 75.1161 96.076 80.8076 94.6169C84.283 93.7188 87.784 92.7744 90.9991 91.1249C90.4255 86.8886 89.9242 82.2814 87.0621 78.9101C84.7675 76.1723 81.0547 75.7049 77.9023 74.5505C77.9023 65.1262 77.7734 55.702 77.4345 46.2849C77.2033 41.9816 76.8644 37.6157 75.4532 33.5197C74.8337 31.5869 73.7685 29.8311 72.2814 28.4658C71.0679 25.7047 68.3179 24.0427 65.4858 23.4414C61.3512 22.5836 56.9394 22.9705 53.0624 24.6762C49.3169 26.3052 46.2968 29.4835 44.7339 33.2856C42.6899 37.9955 42.614 43.237 42.3828 48.2909C42.1551 57.0772 42.0007 65.867 42.0007 74.6568C40.2462 75.1706 38.519 75.7648 36.7813 76.3259C34.3385 77.1069 32.3298 79.0066 31.2125 81.3164C29.7519 84.3679 29.1324 87.8098 29 91.1713C29.8305 91.6449 30.7342 91.9693 31.6247 92.3231C39.6372 95.3514 48.1899 96.6595 56.7099 96.9999H56.7081ZM67.8961 77.9084C62.8153 79.5409 57.1609 79.7107 52.1225 77.8217C51.615 75.9221 51.2355 73.9965 50.7678 72.0896C51.5788 71.642 52.614 71.2783 52.9803 70.3267C53.4648 68.7245 53.4983 67.0286 53.5345 65.3657C55.3278 66.8347 57.6101 67.6487 59.9047 67.7729C62.3087 67.7095 64.6624 66.7918 66.5943 65.3594C66.7002 67.025 66.6437 68.7415 67.1547 70.3472C67.4186 71.2649 68.3682 71.6259 69.0963 72.0896C68.6842 74.026 68.2588 75.9623 67.8961 77.9084ZM44.4726 46.6084C44.5124 46.1312 44.8221 45.3699 45.432 45.5665C46.2201 46.2608 46.4636 47.3688 47.1467 48.1569C47.2985 47.4894 47.4035 46.8112 47.4962 46.1303C51.1199 46.0267 54.6739 45.0286 58.0372 43.707C61.9839 42.0575 65.845 39.7843 68.4829 36.3058C69.7917 38.9131 70.804 41.6635 72.1525 44.2512C72.7562 45.3565 73.1745 47.803 73.4252 47.77C73.8673 46.972 73.8938 45.3493 75.1064 45.4995C76.0887 46.872 75.4162 48.6671 75.0137 50.1397C74.3571 51.8651 73.8002 54.1526 71.7492 54.636C71.06 57.7974 69.7741 60.9659 67.318 63.1452C65.244 64.9279 62.6556 66.2968 59.8994 66.3897C56.8661 66.1395 54.1161 64.457 52.0122 62.3107C50.0203 60.1804 49.0548 57.3399 48.3196 54.5627C47.505 54.3125 46.6746 53.9319 46.2783 53.1205C45.184 51.1476 44.2705 48.9146 44.4718 46.6075L44.4726 46.6084Z" fill="#0054AC"/>
</g>
<defs>
<clipPath id="clip0_358_3788">
<rect width="62" height="74" fill="white" transform="translate(29 23)"/>
</clipPath>
</defs>
</svg>
