<svg preserveAspectRatio="none" width="100%" height="100%" overflow="visible" style="display: block;" viewBox="0 0 90 53" fill="none" xmlns="http://www.w3.org/2000/svg">
<g id="_&#227;&#131;&#172;&#227;&#130;&#164;&#227;&#131;&#164;&#227;&#131;&#188;_1" clip-path="url(#clip0_1079_3090)">
<path id="Vector" d="M20.1917 2.38224C22.2704 1.26807 24.888 1.22965 26.9667 2.36303C28.7567 3.24668 30.0655 4.86031 30.9509 6.60841C32.1827 9.16332 32.6061 12.0448 32.5484 14.8686C32.5869 17.7117 32.4521 20.5548 32.6446 23.3978C33.1065 23.3978 33.5492 23.3978 34.0112 23.3978C34.0112 19.8632 34.0689 16.3094 34.0112 12.7748C33.8379 8.85596 32.4521 4.78347 29.3918 2.17093C27.0822 0.153894 23.6754 -0.57608 20.7691 0.480462C18.0167 1.38333 15.9573 3.70772 14.7255 6.26263C13.3589 9.04806 13.0702 12.1985 13.1279 15.2528C13.1664 17.9614 13.0702 20.67 13.2434 23.3786C13.6861 23.3786 14.1288 23.3786 14.5715 23.3786C14.5715 20.5356 14.61 17.7117 14.5715 14.8686C14.5715 12.0448 14.9179 9.1249 16.2267 6.56999C17.1314 4.87952 18.4209 3.2851 20.1532 2.40145L20.1917 2.38224Z" fill="var(--fill-0, white)"/>
<path id="Vector_2" d="M47.1557 41.378C45.4427 34.5777 43.7489 27.7775 41.9589 20.9964C41.728 20.4201 41.1313 20.0359 40.5154 20.0935C38.7254 20.0935 36.9547 20.0743 35.1647 20.1127C35.1647 21.1501 35.1647 22.1874 35.1839 23.2247C35.5881 23.34 36.2233 23.3976 36.2618 23.9547C36.2618 25.3378 36.358 26.7209 36.1655 28.0848C35.9923 29.4103 34.876 30.6589 33.4709 30.6205C32.0274 30.7166 30.7956 29.4487 30.6416 28.0656C30.4876 26.548 30.5646 24.992 30.6416 23.4744C30.8918 23.3784 31.1612 23.3016 31.4307 23.2055C31.4307 22.1682 31.4307 21.1308 31.45 20.1127C29.506 19.9783 27.5428 20.1127 25.5988 20.0551C22.3075 20.0935 19.0163 20.0167 15.7442 20.1127C15.7442 21.1501 15.725 22.2066 15.7827 23.2631C16.1099 23.3592 16.6296 23.2631 16.7643 23.705C16.8413 24.6655 16.7643 25.6452 16.8028 26.6057C16.8413 27.7582 16.6873 29.0453 15.8597 29.9097C14.9743 30.8318 13.3576 30.9087 12.376 30.1018C11.5868 29.4679 11.2019 28.4306 11.1826 27.4509C11.1441 26.2215 11.0864 24.992 11.1826 23.7626C11.1826 23.3208 11.7408 23.3592 12.0488 23.2055C12.0488 22.1874 12.0488 21.1501 12.0873 20.1319C10.3165 20.0743 8.52652 20.1127 6.75577 20.0935C6.1976 20.0551 5.69718 20.4585 5.48546 20.9387C3.75321 27.643 2.00171 34.3664 0.327203 41.0899C-0.288708 43.2606 -0.0192472 45.6618 1.00086 47.6597C2.25192 50.0033 4.58084 51.7706 7.19846 52.3084C8.29555 52.539 9.41189 52.4237 10.509 52.4429C19.8054 52.4429 29.121 52.4429 38.4174 52.4429C40.2844 52.4813 42.1322 51.8858 43.6334 50.8101C46.5975 48.793 48.0603 44.8358 47.1364 41.378H47.1557Z" fill="var(--fill-0, white)"/>
<path id="Vector_3" d="M12.3948 24.4733C12.3178 25.6451 12.2215 26.8553 12.4332 28.0271C12.568 28.8724 13.3379 29.6792 14.2425 29.4871C15.0316 29.3718 15.4551 28.565 15.5513 27.8542C15.6475 26.7209 15.5513 25.5875 15.5513 24.4541C14.4927 24.4925 13.4341 24.4541 12.3755 24.4733H12.3948Z" fill="var(--fill-0, white)"/>
<path id="Vector_4" d="M33.2382 29.4677C34.1813 29.6214 34.8934 28.6993 35.0089 27.8541C35.1051 26.7399 35.0282 25.6065 35.0474 24.4731C33.9503 24.4731 32.8532 24.4731 31.7561 24.4731C31.7561 25.5297 31.6984 26.5862 31.7561 27.6428C31.8139 28.4688 32.3335 29.3909 33.2382 29.4677Z" fill="var(--fill-0, white)"/>
<path id="Vector_5" d="M76.4111 18.8066L73.0043 22.3413C80.222 22.5141 86.0347 28.45 86.0347 35.6921C86.0347 42.9342 80.0296 49.0622 72.6386 49.0622C65.2477 49.0622 59.2426 43.0687 59.2426 35.6921C59.2426 28.3155 65.0552 22.5141 72.2729 22.3413L68.9817 18.9411L68.8662 18.8066C61.0903 20.4779 55.2969 27.3934 55.2969 35.6729C55.2969 45.2586 63.0728 53.0194 72.6579 53.0194C82.243 53.0194 90.0189 45.2586 90.0189 35.6729C90.0189 27.4127 84.2254 20.5163 76.4303 18.8066H76.4111Z" fill="var(--fill-0, white)"/>
<path id="Vector_6" d="M62.5742 11.2188L71.0045 19.9592L70.6388 19.2101L66.7894 11.2188H62.5742Z" fill="var(--fill-0, white)"/>
<path id="Vector_7" d="M82.762 11.2188H78.5276L74.3125 19.9784L75.7945 18.4417L82.762 11.2188Z" fill="var(--fill-0, white)"/>
<path id="Vector_8" d="M62.3242 10.3158H66.8858L71.5629 5.60938H65.2113L62.3242 10.3158Z" fill="var(--fill-0, white)"/>
<path id="Vector_9" d="M83.0115 10.3158L80.086 5.60938H73.7344L78.4115 10.3158H83.0115Z" fill="var(--fill-0, white)"/>
<path id="Vector_10" d="M71.8505 19.6133C71.8505 19.6133 71.8698 19.6517 71.889 19.6709L72.6396 21.3038L73.8522 18.8257L77.5092 11.2378H67.8086L71.812 19.5749L71.8505 19.6133Z" fill="var(--fill-0, white)"/>
<path id="Vector_11" d="M68.1719 10.3158H77.1411L72.6372 5.78223L68.1719 10.3158Z" fill="var(--fill-0, white)"/>
</g>
<defs>
<clipPath id="clip0_1079_3090">
<rect width="90" height="53" fill="white"/>
</clipPath>
</defs>
</svg>
