<svg preserveAspectRatio="none" width="100%" height="100%" overflow="visible" style="display: block;" viewBox="0 0 86 48" fill="none" xmlns="http://www.w3.org/2000/svg">
<g id="_&#227;&#131;&#172;&#227;&#130;&#164;&#227;&#131;&#164;&#227;&#131;&#188;_1" clip-path="url(#clip0_1079_3103)">
<path id="Vector" d="M84.6865 1.31934H1.3125V32.4309H12.8142L5.06761 46.6805L29.2264 32.4309H84.6865V1.31934Z" stroke="var(--stroke-0, white)" stroke-width="3" stroke-linecap="round" stroke-linejoin="round"/>
<path id="Vector_2" d="M15.7027 23.3537L17.3308 18.3136C17.4095 18.0761 17.3308 17.8122 17.1207 17.6803L12.8666 14.5928C12.4202 14.2762 12.6566 13.5637 13.208 13.5637H18.4337C18.67 13.5637 18.9063 13.4054 18.9589 13.1679L20.587 8.12776C20.7445 7.59999 21.506 7.59999 21.6636 8.12776L23.2917 13.1415C23.3705 13.379 23.5805 13.5373 23.8431 13.5373H29.095C29.6465 13.5373 29.8828 14.2498 29.4364 14.5665L25.1824 17.6803C24.9723 17.8122 24.8935 18.0761 24.9723 18.3136L26.6004 23.3273C26.7579 23.8551 26.1802 24.2773 25.7338 23.9606L21.4798 20.8468C21.2697 20.6885 21.0071 20.6885 20.8233 20.8468L16.5692 23.9606C16.1228 24.2773 15.5189 23.8551 15.7027 23.3273V23.3537Z" fill="var(--fill-0, white)"/>
<path id="Vector_3" d="M37.5503 23.3537L39.1784 18.3136C39.2572 18.0761 39.1784 17.8122 38.9683 17.6803L34.7143 14.5928C34.2679 14.2762 34.5042 13.5637 35.0557 13.5637H40.2813C40.5177 13.5637 40.754 13.4054 40.8065 13.1679L42.4346 8.12776C42.5922 7.59999 43.3537 7.59999 43.5112 8.12776L45.1393 13.1415C45.2181 13.379 45.4282 13.5373 45.6908 13.5373H50.9427C51.4941 13.5373 51.7305 14.2498 51.2841 14.5665L47.03 17.6803C46.82 17.8122 46.7412 18.0761 46.82 18.3136L48.448 23.3273C48.6056 23.8551 48.0279 24.2773 47.5815 23.9606L43.3274 20.8468C43.1174 20.6885 42.8548 20.6885 42.6709 20.8468L38.4169 23.9606C37.9705 24.2773 37.3665 23.8551 37.5503 23.3273V23.3537Z" fill="var(--fill-0, white)"/>
<path id="Vector_4" d="M59.3746 23.3537L61.0026 18.3136C61.0814 18.0761 61.0026 17.8122 60.7926 17.6803L56.5385 14.5928C56.0921 14.2762 56.3284 13.5637 56.8799 13.5637H62.1055C62.3419 13.5637 62.5782 13.4054 62.6307 13.1679L64.2588 8.12776C64.4164 7.59999 65.1779 7.59999 65.3355 8.12776L66.9636 13.1415C67.0423 13.379 67.2524 13.5373 67.515 13.5373H72.7669C73.3184 13.5373 73.5547 14.2498 73.1083 14.5665L68.8542 17.6803C68.6442 17.8122 68.5654 18.0761 68.6442 18.3136L70.2723 23.3273C70.4298 23.8551 69.8521 24.2773 69.4057 23.9606L65.1516 20.8468C64.9416 20.6885 64.679 20.6885 64.4952 20.8468L60.2411 23.9606C59.7947 24.2773 59.1907 23.8551 59.3746 23.3273V23.3537Z" fill="var(--fill-0, white)"/>
</g>
<defs>
<clipPath id="clip0_1079_3103">
<rect width="86" height="48" fill="white"/>
</clipPath>
</defs>
</svg>
