<svg preserveAspectRatio="none" width="100%" height="100%" overflow="visible" style="display: block;" viewBox="0 0 93 71" fill="none" xmlns="http://www.w3.org/2000/svg">
<g id="_&#227;&#131;&#172;&#227;&#130;&#164;&#227;&#131;&#164;&#227;&#131;&#188;_1" clip-path="url(#clip0_1079_3109)">
<path id="Vector" d="M25.0989 12.5285C24.6804 12.5285 24.2457 12.3674 23.9238 12.0293C23.312 11.3851 23.3442 10.3706 23.9881 9.75868C30.6046 3.46224 39.2815 0 48.4254 0C54.8164 0 61.0787 1.72307 66.5521 4.97596C67.3087 5.42685 67.5663 6.42527 67.1155 7.18213C66.6648 7.93899 65.6828 8.19664 64.9101 7.74575C59.9518 4.78272 54.253 3.22069 48.4415 3.22069C40.1348 3.22069 32.2466 6.37696 26.2258 12.0937C25.9199 12.3835 25.5175 12.5285 25.115 12.5285H25.0989Z" fill="var(--fill-0, white)"/>
<path id="Vector_2" d="M60.9648 10.0325L72.121 11.2886L67.6456 0.982422L60.9648 10.0325Z" fill="var(--fill-0, white)"/>
<path id="Vector_3" d="M48.811 71C42.42 71 36.1577 69.2769 30.6843 66.024C29.9277 65.5731 29.6701 64.5747 30.1208 63.8179C30.5716 63.061 31.5536 62.8033 32.3263 63.2542C37.2846 66.2173 42.9834 67.7793 48.7949 67.7793C57.1016 67.7793 64.9898 64.623 71.0106 58.9063C71.6545 58.2944 72.6687 58.3266 73.2804 58.9707C73.8922 59.6149 73.86 60.6294 73.216 61.2413C66.5996 67.5216 57.9226 71 48.7788 71H48.811Z" fill="var(--fill-0, white)"/>
<path id="Vector_4" d="M36.2699 60.9836L25.0977 59.7114L29.5891 70.0176L36.2699 60.9836Z" fill="var(--fill-0, white)"/>
<path id="Vector_5" d="M92.5487 16.3291H66.6143C66.3729 16.3291 66.1797 16.5223 66.1797 16.7639V20.6931C66.1797 20.9347 66.3729 21.1279 66.6143 21.1279H67.4676V53.6729C67.4676 53.8823 67.6446 54.0594 67.8539 54.0594H74.3737C74.583 54.0594 74.7601 53.8823 74.7601 53.6729V42.1751C74.7601 41.9658 74.9372 41.7886 75.1465 41.7886H83.9844C84.1937 41.7886 84.3708 41.9658 84.3708 42.1751V53.6729C84.3708 53.8823 84.5479 54.0594 84.7572 54.0594H91.277C91.4862 54.0594 91.6633 53.8823 91.6633 53.6729V21.144H92.5165C92.758 21.144 92.9512 20.9508 92.9512 20.7092V16.78C92.9512 16.5384 92.758 16.3452 92.5165 16.3452L92.5487 16.3291ZM75.1303 35.9592C75.1303 36.6355 74.583 37.183 73.9069 37.183C73.2308 37.183 72.6834 36.6355 72.6834 35.9592V32.7546C72.6834 32.0782 73.2308 31.5307 73.9069 31.5307C74.583 31.5307 75.1303 32.0782 75.1303 32.7546V35.9592ZM75.1303 27.3599C75.1303 28.0363 74.583 28.5838 73.9069 28.5838C73.2308 28.5838 72.6834 28.0363 72.6834 27.3599V24.1554C72.6834 23.479 73.2308 22.9315 73.9069 22.9315C74.583 22.9315 75.1303 23.479 75.1303 24.1554V27.3599ZM80.8131 35.9592C80.8131 36.6355 80.2657 37.183 79.5896 37.183C78.9135 37.183 78.3661 36.6355 78.3661 35.9592V32.7546C78.3661 32.0782 78.9135 31.5307 79.5896 31.5307C80.2657 31.5307 80.8131 32.0782 80.8131 32.7546V35.9592ZM80.8131 27.3599C80.8131 28.0363 80.2657 28.5838 79.5896 28.5838C78.9135 28.5838 78.3661 28.0363 78.3661 27.3599V24.1554C78.3661 23.479 78.9135 22.9315 79.5896 22.9315C80.2657 22.9315 80.8131 23.479 80.8131 24.1554V27.3599ZM86.4797 35.9592C86.4797 36.6355 85.9323 37.183 85.2562 37.183C84.5801 37.183 84.0327 36.6355 84.0327 35.9592V32.7546C84.0327 32.0782 84.5801 31.5307 85.2562 31.5307C85.9323 31.5307 86.4797 32.0782 86.4797 32.7546V35.9592ZM86.4797 27.3599C86.4797 28.0363 85.9323 28.5838 85.2562 28.5838C84.5801 28.5838 84.0327 28.0363 84.0327 27.3599V24.1554C84.0327 23.479 84.5801 22.9315 85.2562 22.9315C85.9323 22.9315 86.4797 23.479 86.4797 24.1554V27.3599Z" fill="var(--fill-0, white)"/>
<path id="Vector_6" d="M36.0943 33.4146L18.8852 18.0359C18.4989 17.6977 17.9193 17.6977 17.533 18.0359L0.339948 33.4146C-0.35228 34.0266 0.0823746 35.1699 1.01608 35.1699H4.02646C4.5899 35.1699 5.04066 35.6208 5.04066 36.1844V52.7226C5.04066 53.2863 5.49141 53.7371 6.05485 53.7371H11.3673C11.9307 53.7371 12.3815 53.2863 12.3815 52.7226V42.352C12.3815 41.7884 12.8322 41.3375 13.3957 41.3375H23.103C23.6664 41.3375 24.1172 41.7884 24.1172 42.352V52.7226C24.1172 53.2863 24.5679 53.7371 25.1314 53.7371H30.4438C31.0072 53.7371 31.458 53.2863 31.458 52.7226V36.1844C31.458 35.6208 31.9088 35.1699 32.4722 35.1699H35.4826C36.4163 35.1699 36.8509 34.0266 36.1587 33.4146H36.0943Z" fill="var(--fill-0, white)"/>
</g>
<defs>
<clipPath id="clip0_1079_3109">
<rect width="93" height="71" fill="white"/>
</clipPath>
</defs>
</svg>
