<svg preserveAspectRatio="none" width="100%" height="100%" overflow="visible" style="display: block;" viewBox="0 0 77 72" fill="none" xmlns="http://www.w3.org/2000/svg">
<g id="_&#227;&#131;&#172;&#227;&#130;&#164;&#227;&#131;&#164;&#227;&#131;&#188;_1" clip-path="url(#clip0_1075_2988)">
<path id="Vector" d="M49.2725 27.4069V14.1374C46.1169 15.3454 43.803 16.698 42.9218 17.2477V29.877C45.0101 28.8644 47.1306 28.0398 49.2725 27.4105V27.4069Z" fill="var(--fill-0, white)"/>
<path id="Vector_2" d="M59.0394 27.6816C56.3709 27.7504 53.7024 28.1156 51.0625 28.7883V42.8968C53.7024 42.3507 56.3673 42.0505 59.0394 41.9963V27.6816Z" fill="var(--fill-0, white)"/>
<path id="Vector_3" d="M49.2725 29.2984C47.127 29.9602 45.0065 30.8246 42.9218 31.8915V45.4033C45.0101 44.5389 47.1306 43.8409 49.2725 43.3056V29.2984Z" fill="var(--fill-0, white)"/>
<path id="Vector_4" d="M68.805 13.5046C66.4338 12.727 63.7116 12.1013 60.8281 11.9277V25.8662C63.4966 25.9313 66.1651 26.2858 68.805 26.9259V13.501V13.5046Z" fill="var(--fill-0, white)"/>
<path id="Vector_5" d="M59.0394 25.8697V11.9312C56.156 12.1011 53.4337 12.7304 51.0625 13.5044V26.9293C53.7024 26.2892 56.3673 25.9348 59.0394 25.8697Z" fill="var(--fill-0, white)"/>
<path id="Vector_6" d="M59.0365 61.2513C59.0365 60.8318 58.6962 60.4918 58.2807 60.5027C56.0635 60.5606 53.8535 60.7342 51.6613 61.0307C51.296 61.0814 51.0273 61.396 51.0273 61.7685V72.0036H59.04V61.255L59.0365 61.2513Z" fill="var(--fill-0, white)"/>
<path id="Vector_7" d="M68.8411 61.783C68.8411 61.4032 68.5618 61.0777 68.1892 61.0271C66.0079 60.7342 63.8086 60.5606 61.6057 60.5027C61.1795 60.4918 60.832 60.839 60.832 61.2694V72H68.8411V61.7794V61.783Z" fill="var(--fill-0, white)"/>
<path id="Vector_8" d="M70.582 72.0001H77.0044V63.4395C77.0044 63.1249 76.7966 62.8464 76.4957 62.7596C74.8266 62.2858 73.1359 61.8844 71.4309 61.5589C70.9904 61.4757 70.582 61.8193 70.582 62.2749V72.0001Z" fill="var(--fill-0, white)"/>
<path id="Vector_9" d="M49.3247 62.3073C49.3247 61.8335 48.8985 61.4718 48.44 61.5623C46.7314 61.8878 45.0407 62.2892 43.3716 62.763C43.0707 62.8498 42.8594 63.1283 42.8594 63.4465V72.0035H49.3211V62.3073H49.3247Z" fill="var(--fill-0, white)"/>
<path id="Vector_10" d="M76.9445 31.8951C74.8598 30.8282 72.7393 29.9638 70.5938 29.302V43.3092C72.7357 43.8445 74.8598 44.5425 76.9445 45.4069V31.8951Z" fill="var(--fill-0, white)"/>
<path id="Vector_11" d="M68.805 28.7922C66.1687 28.1195 63.5002 27.7506 60.8281 27.6855V42.0002C63.4966 42.0544 66.1651 42.3546 68.805 42.9007V28.7922Z" fill="var(--fill-0, white)"/>
<path id="Vector_12" d="M51.0625 44.7448V59.2873C53.7024 58.9148 56.3673 58.7086 59.0394 58.6725V43.8081C56.3709 43.866 53.7024 44.177 51.0625 44.7448Z" fill="var(--fill-0, white)"/>
<path id="Vector_13" d="M70.5938 45.1755V59.5697C72.7357 59.935 74.8598 60.4124 76.9445 61.0019V47.3672C74.8598 46.4666 72.7393 45.7325 70.5938 45.1719V45.1755Z" fill="var(--fill-0, white)"/>
<path id="Vector_14" d="M60.8281 43.8081V58.6725C63.4966 58.7086 66.1651 58.9148 68.805 59.2873V44.7448C66.1651 44.177 63.5002 43.866 60.8281 43.8081Z" fill="var(--fill-0, white)"/>
<path id="Vector_15" d="M42.918 47.367V61.0017C45.0062 60.4122 47.1267 59.9348 49.2687 59.5695V45.1753C47.1231 45.7359 45.0026 46.4664 42.918 47.3706V47.367Z" fill="var(--fill-0, white)"/>
<path id="Vector_16" d="M70.5938 14.1411V27.4069C72.7357 28.0362 74.8598 28.8608 76.9445 29.8735V17.2478C76.0597 16.6981 73.7458 15.3491 70.5938 14.1411Z" fill="var(--fill-0, white)"/>
<path id="Vector_17" d="M76.946 14.1771V5.38872C65.9567 -1.79754 53.9072 -1.79754 42.918 5.38872V14.1735C48.3624 10.8318 54.0792 9.13917 59.932 9.13917C65.7848 9.13917 71.5015 10.8318 76.946 14.1735V14.1771Z" fill="var(--fill-0, white)"/>
<path id="Vector_18" d="M0 38.0072V70.7848C0 71.4503 0.533702 71.9855 1.18919 71.9891L40.0205 72V19.9313L0 38.0072Z" fill="var(--fill-0, white)"/>
</g>
<defs>
<clipPath id="clip0_1075_2988">
<rect width="77" height="72" fill="white"/>
</clipPath>
</defs>
</svg>
