<svg preserveAspectRatio="none" width="100%" height="100%" overflow="visible" style="display: block;" viewBox="0 0 74 64" fill="none" xmlns="http://www.w3.org/2000/svg">
<g id="Layer_1" clip-path="url(#clip0_1075_3019)">
<path id="Vector" d="M47.1619 17.5146C46.2962 16.4889 45.0658 15.5601 43.5202 14.8992C43.1378 14.7177 42.6722 14.7512 42.3057 15.0314C41.5569 15.6095 40.7248 16.073 39.8113 16.3726C38.9296 16.6705 37.9825 16.8361 36.9999 16.8361C36.0174 16.8361 35.0702 16.6705 34.1903 16.3726C33.275 16.0748 32.4447 15.6113 31.6959 15.0314C31.363 14.7829 30.9134 14.7001 30.4991 14.8816C28.9518 15.5443 27.7054 16.4713 26.8415 17.5146C25.8607 18.6902 25.3438 20.0137 25.3438 21.2897V36.9505C25.3438 38.3075 25.8926 39.5659 26.7902 40.477C27.4222 41.1397 28.2365 41.6191 29.1518 41.8517V54.1022C29.1518 55.2777 29.6351 56.3369 30.4159 57.1159C31.1807 57.8931 32.2624 58.3743 33.4432 58.3743H40.5601C41.741 58.3743 42.805 57.8949 43.5875 57.1159C44.3682 56.3369 44.8515 55.2777 44.8515 54.1022V41.8517C45.7651 41.6208 46.5812 41.1397 47.2132 40.477C48.1108 39.5659 48.6596 38.3075 48.6596 36.9505V21.2897C48.6596 20.0155 48.1444 18.6902 47.1636 17.5146H47.1619Z" fill="var(--fill-0, white)"/>
<path id="Vector_2" d="M36.9997 15.0985C38.9949 15.0985 40.8078 14.2878 42.1214 12.9801C43.435 11.6723 44.2512 9.86764 44.2512 7.88141C44.2512 5.89518 43.4368 4.09048 42.1214 2.78277C40.8078 1.47507 38.9949 0.662598 36.9997 0.662598C35.0045 0.662598 33.1916 1.47507 31.878 2.78277C30.5644 4.09048 29.75 5.89518 29.75 7.88141C29.75 9.86764 30.5661 11.6723 31.878 12.9801C33.1916 14.2878 35.0045 15.0985 36.9997 15.0985Z" fill="var(--fill-0, white)"/>
<path id="Vector_3" d="M47.8563 54.795C47.4066 54.3315 47.4243 53.586 47.9059 53.1559C48.3715 52.71 49.1203 52.7259 49.5523 53.2053C50.0179 53.6847 50.3844 54.231 50.6499 54.795C50.8996 55.3748 51.0483 55.9705 51.0483 56.5997C51.0483 58.8009 49.3523 60.7219 46.6082 62.0455C44.1296 63.2545 40.7217 63.9983 36.9968 63.9983C33.2719 63.9983 29.8639 63.2528 27.3854 62.0455C24.6413 60.7202 22.9453 58.8009 22.9453 56.5997C22.9453 55.9705 23.0958 55.3748 23.3454 54.795C23.611 54.2328 23.9774 53.6864 24.4431 53.2053C24.875 52.7259 25.6239 52.7083 26.0895 53.1559C26.571 53.586 26.5888 54.3315 26.1391 54.795C25.8558 55.1087 25.6239 55.4242 25.4911 55.7379C25.3583 56.0198 25.2911 56.3001 25.2911 56.5997C25.2911 57.8245 26.4878 59.0159 28.4016 59.943C30.581 61.0022 33.6242 61.649 36.9986 61.649C40.3729 61.649 43.418 61.0039 45.5955 59.943C47.5075 59.0159 48.7043 57.8245 48.7043 56.5997C48.7043 56.3018 48.637 56.0198 48.5042 55.7379C48.3715 55.4242 48.1378 55.1087 47.8563 54.795Z" fill="var(--fill-0, white)"/>
<path id="Vector_4" d="M20.8896 15.1145C20.1248 14.2033 19.0608 13.4102 17.7295 12.8304C17.3471 12.6489 16.8815 12.6823 16.515 12.9626C15.8989 13.4419 15.2014 13.8244 14.4525 14.0887C13.7214 14.3372 12.9389 14.4694 12.1085 14.4694C11.2782 14.4694 10.5117 14.3372 9.7805 14.0887C9.03163 13.8244 8.3341 13.4437 7.71801 12.9626H7.70208C7.38518 12.7141 6.92134 12.6312 6.52124 12.8128C5.17398 13.3926 4.09405 14.2033 3.34518 15.1145C2.47946 16.1402 2.01562 17.2999 2.01562 18.4084V31.7357C2.01562 32.9447 2.51487 34.0357 3.31331 34.8481C3.8462 35.3945 4.51009 35.8086 5.27489 36.0395V46.3038C5.27489 47.363 5.69093 48.3059 6.38846 49.002C7.08599 49.6805 8.03491 50.1106 9.08297 50.1106H15.1359C16.184 50.1106 17.147 49.6805 17.8304 49.002V48.9844C18.5279 48.3059 18.9617 47.3453 18.9617 46.302V36.0377C19.7105 35.8051 20.3921 35.3927 20.9233 34.8464C21.7217 34.0357 22.2032 32.943 22.2032 31.734V18.4066C22.2032 17.2981 21.7376 16.1384 20.8896 15.1127V15.1145Z" fill="var(--fill-0, white)"/>
<path id="Vector_5" d="M12.1058 12.6153C13.8514 12.6153 15.4483 11.9033 16.5955 10.7612C17.7427 9.61921 18.442 8.04538 18.442 6.30765C18.442 4.56992 17.7445 2.98023 16.5955 1.83819C15.4483 0.712012 13.8514 0 12.1058 0C10.3602 0 8.7793 0.712012 7.6321 1.83819C6.48489 2.98023 5.76966 4.56992 5.76966 6.30765C5.76966 8.04538 6.48489 9.61921 7.6321 10.7612C8.7793 11.9033 10.3585 12.6153 12.1058 12.6153Z" fill="var(--fill-0, white)"/>
<path id="Vector_6" d="M21.202 47.0316C20.7701 46.5522 20.786 45.8225 21.2516 45.3767C21.7332 44.929 22.4661 44.9625 22.914 45.426C23.3141 45.856 23.6469 46.3372 23.8629 46.8324C24.0948 47.3453 24.2294 47.8757 24.2294 48.438C24.2294 50.3748 22.7493 52.0632 20.354 53.2211C18.226 54.2486 15.2996 54.8937 12.1058 54.8937C8.91208 54.8937 6.00335 54.2486 3.85765 53.2211C1.48004 52.0615 0 50.3748 0 48.438C0 47.8757 0.116845 47.3453 0.348764 46.8324C0.580684 46.3195 0.897581 45.856 1.31362 45.426C1.74559 44.9625 2.49446 44.929 2.96007 45.3767C3.42568 45.8225 3.45932 46.5522 3.00964 47.0316C2.77772 47.2801 2.5936 47.5286 2.47676 47.7771C2.39355 47.9921 2.34398 48.2071 2.34398 48.4397C2.34398 49.4161 3.30884 50.3607 4.88801 51.1221C6.70088 52.0156 9.26084 52.562 12.1058 52.562C14.9508 52.562 17.5108 52.0156 19.3396 51.1221C20.9028 50.3607 21.8836 49.4161 21.8836 48.4397C21.8836 48.2071 21.8341 47.9921 21.7332 47.7771C21.6163 47.5286 21.434 47.2801 21.202 47.0316Z" fill="var(--fill-0, white)"/>
<path id="Vector_7" d="M70.6592 15.1145C69.9103 14.2033 68.8463 13.4102 67.5168 12.8304C67.1344 12.6489 66.6528 12.6823 66.3041 12.9626C65.6721 13.4419 64.9728 13.8244 64.2257 14.0887C63.4945 14.3372 62.712 14.4694 61.8976 14.4694C61.0832 14.4694 60.2848 14.3372 59.5536 14.0887C58.8048 13.8244 58.1072 13.4437 57.4911 12.9626C57.1583 12.7141 56.7104 12.6312 56.3103 12.8128C54.963 13.3926 53.8831 14.2033 53.1183 15.1145C52.2703 16.1402 51.8047 17.2999 51.8047 18.4084V31.7357C51.8047 32.9447 52.2862 34.0357 53.0847 34.8481C53.6176 35.3945 54.2992 35.8086 55.0463 36.0395V46.3038C55.0463 47.363 55.4782 48.3059 56.1775 49.002C56.8591 49.6805 57.824 50.1106 58.872 50.1106H64.925C65.973 50.1106 66.9219 49.6805 67.6195 49.002V48.9844C68.3188 48.3059 68.733 47.3453 68.733 46.302V36.0377C69.4978 35.8051 70.1635 35.3927 70.6946 34.8464C71.4931 34.0357 71.9923 32.943 71.9923 31.734V18.4066C71.9923 17.2981 71.5267 16.1384 70.6628 15.1127L70.6592 15.1145Z" fill="var(--fill-0, white)"/>
<path id="Vector_8" d="M61.8948 12.6153C63.6404 12.6153 65.2213 11.9033 66.3685 10.7612C67.5157 9.61921 68.231 8.04538 68.231 6.30765C68.231 4.56992 67.5157 2.98023 66.3685 1.83819C65.2213 0.712012 63.6404 0 61.8948 0C60.1492 0 58.5523 0.712012 57.4051 1.83819C56.2579 2.98023 55.5586 4.56992 55.5586 6.30765C55.5586 8.04538 56.2579 9.61921 57.4051 10.7612C58.5523 11.9033 60.1492 12.6153 61.8948 12.6153Z" fill="var(--fill-0, white)"/>
<path id="Vector_9" d="M70.9914 47.0317C70.5417 46.5523 70.5754 45.8227 71.041 45.3768C71.5066 44.9291 72.2555 44.9626 72.6874 45.4261C73.1035 45.8562 73.4186 46.3197 73.6523 46.8325C73.886 47.3454 74.001 47.8759 74.001 48.4381C74.001 50.375 72.521 52.0634 70.1434 53.2213C67.9977 54.2488 65.089 54.8938 61.8952 54.8938C58.7014 54.8938 55.7768 54.2488 53.647 53.2213C51.2517 52.0616 49.7734 50.375 49.7734 48.4381C49.7734 47.8759 49.9062 47.3454 50.1399 46.8325C50.3559 46.3197 50.671 45.8562 51.0871 45.4261C51.5367 44.9626 52.2679 44.9291 52.7494 45.3768C53.2151 45.8227 53.231 46.5523 52.799 47.0317C52.5653 47.2802 52.383 47.5287 52.2661 47.7772C52.1652 47.9922 52.1174 48.2072 52.1174 48.4399C52.1174 49.4162 53.0982 50.3609 54.6614 51.1222C56.4902 52.0158 59.052 52.5621 61.8952 52.5621C64.7384 52.5621 67.2842 52.0158 69.113 51.1222C70.6922 50.3609 71.6571 49.4162 71.6571 48.4399C71.6571 48.2072 71.6075 47.9922 71.5084 47.7772C71.4074 47.5287 71.2251 47.2802 70.9932 47.0317H70.9914Z" fill="var(--fill-0, white)"/>
</g>
<defs>
<clipPath id="clip0_1075_3019">
<rect width="74" height="64" fill="white"/>
</clipPath>
</defs>
</svg>
