<svg preserveAspectRatio="none" width="100%" height="100%" overflow="visible" style="display: block;" viewBox="0 0 76 66" fill="none" xmlns="http://www.w3.org/2000/svg">
<g id="Layer_1" clip-path="url(#clip0_1075_3008)">
<path id="Vector" d="M14.1052 12.7559C15.1822 12.7559 16.0581 11.8854 16.0581 10.8151V6.24935C16.0581 6.24935 16.0581 6.24775 16.0581 6.24722C16.0581 6.24669 16.0581 6.24563 16.0581 6.2451V1.94086C16.0581 0.870519 15.1822 0 14.1052 0C13.0283 0 12.1523 0.870519 12.1523 1.94086V10.8151C12.1523 11.8854 13.0283 12.7559 14.1052 12.7559Z" fill="var(--fill-0, white)"/>
<path id="Vector_2" d="M38 12.7559C39.077 12.7559 39.9529 11.8854 39.9529 10.8151V1.94086C39.9529 0.870519 39.077 0 38 0C36.923 0 36.0471 0.870519 36.0471 1.94086V6.24616C36.0471 6.24616 36.0471 6.24669 36.0471 6.24722C36.0471 6.24775 36.0471 6.24775 36.0471 6.24828V10.8151C36.0471 11.8854 36.923 12.7559 38 12.7559Z" fill="var(--fill-0, white)"/>
<path id="Vector_3" d="M73.7011 7.17726H65.7201V10.8151C65.7201 12.9111 64.0041 14.616 61.8956 14.616C59.7871 14.616 58.0711 12.9111 58.0711 10.8151V7.17726H41.825V10.8151C41.825 12.9111 40.1096 14.616 38.0005 14.616C35.8915 14.616 34.176 12.9111 34.176 10.8151V7.17726H17.93V10.8151C17.93 12.9111 16.2145 14.616 14.1055 14.616C11.9965 14.616 10.281 12.9111 10.281 10.8151V7.17726H2.2994C1.03152 7.17726 0 8.20244 0 9.46251V19.2157H76V9.46251C76 8.20244 74.9685 7.17726 73.7006 7.17726H73.7011Z" fill="var(--fill-0, white)"/>
<path id="Vector_4" d="M0 63.7148C0 64.9748 1.03152 66 2.2994 66H73.7011C74.969 66 76.0005 64.9748 76.0005 63.7148V21.0758H0V63.7148ZM62.0325 26.6056H70.0424V34.5662H62.0325V26.6056ZM62.0325 39.7861H70.0424V47.7467H62.0325V39.7861ZM62.0325 52.9667H70.0424V60.9273H62.0325V52.9667ZM47.8511 26.6056H55.861V34.5662H47.8511V26.6056ZM47.8511 39.7861H55.861V47.7467H47.8511V39.7861ZM47.8511 52.9667H55.861V60.9273H47.8511V52.9667ZM33.6696 26.6056H41.6796V34.5662H33.6696V26.6056ZM33.6696 39.7861H41.6796V47.7467H33.6696V39.7861ZM33.6696 52.9667H41.6796V60.9273H33.6696V52.9667ZM19.4888 39.7861H27.4987V47.7467H19.4888V39.7861ZM19.4888 52.9667H27.4987V60.9273H19.4888V52.9667ZM5.30734 39.7861H13.3173V47.7467H5.30734V39.7861ZM5.30734 52.9667H13.3173V60.9273H5.30734V52.9667Z" fill="var(--fill-0, white)"/>
<path id="Vector_5" d="M61.8982 12.7559C62.9752 12.7559 63.8511 11.8854 63.8511 10.8151V6.24935C63.8511 6.24935 63.8511 6.24775 63.8511 6.24722C63.8511 6.24669 63.8511 6.24563 63.8511 6.2451V1.94086C63.8511 0.870519 62.9752 0 61.8982 0C60.8212 0 59.9453 0.870519 59.9453 1.94086V10.8151C59.9453 11.8854 60.8212 12.7559 61.8982 12.7559Z" fill="var(--fill-0, white)"/>
</g>
<defs>
<clipPath id="clip0_1075_3008">
<rect width="76" height="66" fill="white"/>
</clipPath>
</defs>
</svg>
