<svg width="167" height="192" viewBox="0 0 167 192" fill="none" xmlns="http://www.w3.org/2000/svg">
<g clip-path="url(#clip0_358_3342)">
<path d="M108.168 34.484H117.256C120.598 37.1678 124.837 38.7945 129.443 38.7945C134.048 38.7945 138.165 37.2288 141.466 34.606H150.534C152.389 34.606 153.509 32.9997 152.552 31.7391C149.719 28.0385 148.965 21.8981 148.822 20.4139C148.822 20.0682 148.884 19.7429 148.884 19.3972C148.884 8.70232 140.162 0 129.443 0C118.724 0 110.002 8.70232 110.002 19.3972C110.002 19.6006 110.022 19.7835 110.022 19.9665H109.879C109.879 19.9665 109.35 27.3879 106.13 31.6171C105.172 32.8777 106.293 34.484 108.147 34.484H108.168ZM114.2 17.6486C123.655 17.4656 131.643 12.8298 135.556 8.316C136.921 11.2846 140.325 14.7817 144.4 15.6967C144.686 16.876 144.869 18.1163 144.869 19.3972C144.869 27.8556 137.961 34.7483 129.483 34.7483C121.006 34.7483 114.098 27.8556 114.098 19.3972C114.098 18.8076 114.139 18.2383 114.2 17.6486Z" fill="#0054AC"/>
<path d="M147.335 39.3232H143.463C143.096 39.6892 142.872 39.9129 142.505 40.2789C142.505 40.2789 139.347 53.6577 129.321 53.6577C119.295 53.6577 116.462 39.9332 116.462 39.9332L115.851 39.3232H111.632C100.771 39.3232 91.9673 48.1069 91.9673 58.9441L96.6543 107.031C97.0415 111.077 100.465 114.167 104.541 114.167H107.638L112.672 184.07C112.998 188.523 116.707 191.98 121.19 191.98H137.737C142.22 191.98 145.929 188.523 146.255 184.07L151.288 114.167H154.386C158.462 114.167 161.885 111.077 162.272 107.031L166.959 58.9441C166.959 48.1069 158.156 39.3232 147.294 39.3232H147.335Z" fill="#0054AC"/>
<path fill-rule="evenodd" clip-rule="evenodd" d="M37.4755 38.7945C48.1945 38.7945 56.9164 30.0921 56.9164 19.3972C56.9164 8.70232 48.1945 0 37.4755 0C26.7566 0 18.0347 8.70232 18.0347 19.3972C18.0347 30.0921 26.7566 38.7945 37.4755 38.7945ZM22.2122 17.6486C31.6677 17.4656 39.656 12.8298 43.5686 8.316C44.934 11.2846 48.3372 14.7817 52.4128 15.6967C52.6981 16.876 52.8815 18.1163 52.8815 19.3972C52.8815 27.8556 45.9733 34.7483 37.4959 34.7483C29.0186 34.7483 22.1103 27.8556 22.1103 19.3972C22.1103 18.8076 22.1511 18.2383 22.2122 17.6486Z" fill="#0054AC"/>
<path fill-rule="evenodd" clip-rule="evenodd" d="M55.3473 39.3232H51.4754C51.1697 39.5469 50.8437 39.7299 50.5176 39.9332V46.4193L41.6531 71.7943V55.3046C41.6531 54.3693 40.8991 53.617 39.9617 53.617H35.1117C34.1742 53.617 33.4203 54.3693 33.4203 55.3046V72.0383L24.4742 46.4396V39.9535C24.1481 39.7502 23.8221 39.5672 23.5164 39.3436H19.6445C8.78291 39.3436 -0.0205078 48.1272 -0.0205078 58.9645L4.6665 107.051C5.05368 111.097 8.47724 114.188 12.5529 114.188H15.6504L20.6838 184.091C21.0099 188.544 24.7187 192 29.2019 192H45.7491C50.2323 192 53.9412 188.544 54.2672 184.091L59.3007 114.188H62.3982C66.4738 114.188 69.8974 111.097 70.2846 107.051L74.9716 58.9645C74.9716 48.1272 66.1682 39.3436 55.3065 39.3436L55.3473 39.3232Z" fill="#0054AC"/>
<path fill-rule="evenodd" clip-rule="evenodd" d="M32.1771 40.7261C30.7914 40.7261 29.8336 42.0884 30.282 43.3896L32.9719 50.994C33.2572 51.787 34.0112 52.3359 34.8671 52.3359H40.2266C41.0824 52.3359 41.8364 51.8073 42.1217 50.994L44.8117 43.3896C45.26 42.0884 44.3022 40.7261 42.9165 40.7261H32.1771Z" fill="#0054AC"/>
</g>
<defs>
<clipPath id="clip0_358_3342">
<rect width="167" height="192" fill="white"/>
</clipPath>
</defs>
</svg>
