<svg width="164" height="155" viewBox="0 0 164 155" fill="none" xmlns="http://www.w3.org/2000/svg">
<g clip-path="url(#clip0_358_2913)">
<path d="M140.508 60.076C146.322 60.076 151.036 55.3262 151.036 49.467C151.036 43.6077 146.322 38.8579 140.508 38.8579C134.693 38.8579 129.979 43.6077 129.979 49.467C129.979 55.3262 134.693 60.076 140.508 60.076Z" fill="white"/>
<path d="M140.508 61.3167C134.03 61.3167 128.748 55.9942 128.748 49.467C128.748 42.9397 134.03 37.6172 140.508 37.6172C146.985 37.6172 152.267 42.9397 152.267 49.467C152.267 55.9942 146.985 61.3167 140.508 61.3167ZM140.508 40.0806C135.386 40.0806 131.211 44.2883 131.211 49.449C131.211 54.6096 135.386 58.8173 140.508 58.8173C145.629 58.8173 149.805 54.6096 149.805 49.449C149.805 44.2883 145.629 40.0806 140.508 40.0806Z" fill="#0054AC"/>
<path d="M145.165 39.9188C144.094 39.3254 142.56 38.8759 140.115 38.9838C134.494 39.2355 129.908 43.1734 129.783 48.3701C136.154 48.7837 141.614 45.6908 144.184 42.6879C145.183 44.8637 147.913 47.489 151.018 47.3451C150.554 44.0545 148.288 41.2854 145.165 39.9188Z" fill="#0054AC"/>
<path d="M151.321 61.6404H148.984C148.787 61.7663 148.591 61.8921 148.413 62.018V65.9739L140.543 88.7204L132.674 65.9739V62.018C132.477 61.8921 132.281 61.7842 132.103 61.6404H129.765C123.198 61.6404 117.863 66.9989 117.863 73.634L120.7 103.016C120.932 105.497 123.002 107.385 125.465 107.385H127.338L130.39 150.091C130.586 152.824 132.834 154.928 135.547 154.928H145.557C148.27 154.928 150.518 152.824 150.715 150.091L153.766 107.385H155.64C158.102 107.385 160.172 105.497 160.404 103.016L163.241 73.634C163.241 67.0168 157.924 61.6404 151.339 61.6404H151.321Z" fill="#0054AC"/>
<path fill-rule="evenodd" clip-rule="evenodd" d="M136.153 64.1038L137.777 68.761C137.956 69.2465 138.402 69.5702 138.919 69.5702H142.167C142.685 69.5702 143.131 69.2465 143.309 68.761L144.933 64.1038C145.218 63.3126 144.63 62.4855 143.791 62.4855H137.296C136.457 62.4855 135.868 63.3126 136.153 64.1038Z" fill="#0054AC"/>
<path d="M140.847 70.3614H140.24C139.038 70.3614 138.063 71.3436 138.063 72.5551V87.0661C138.063 88.2777 139.038 89.2599 140.24 89.2599H140.847C142.049 89.2599 143.024 88.2777 143.024 87.0661V72.5551C143.024 71.3436 142.049 70.3614 140.847 70.3614Z" fill="#0054AC"/>
<path d="M107.46 0H1.8023C0.803003 0 0 0.809165 0 1.81613V17.9814C0 18.9884 0.803003 19.7976 1.8023 19.7976H5.28197V153.4C5.28197 154.299 5.99575 155.018 6.88798 155.018H33.4228C34.315 155.018 35.0288 154.299 35.0288 153.4V106.234C35.0288 105.335 35.7426 104.616 36.6348 104.616H72.645C73.5372 104.616 74.251 105.335 74.251 106.234V153.4C74.251 154.299 74.9648 155.018 75.857 155.018H102.392C103.284 155.018 103.998 154.299 103.998 153.4V19.7796H107.477C108.477 19.7796 109.28 18.9704 109.28 17.9635V1.81613C109.28 0.809165 108.477 0 107.477 0H107.46Z" fill="#0054AC"/>
<path d="M34.6004 27.1879H28.444C27.3895 27.1879 26.5347 28.0493 26.5347 29.1119V48.442C26.5347 49.5046 27.3895 50.366 28.444 50.366H34.6004C35.6549 50.366 36.5097 49.5046 36.5097 48.442V29.1119C36.5097 28.0493 35.6549 27.1879 34.6004 27.1879Z" fill="white"/>
<path d="M57.7093 27.1879H51.5529C50.4984 27.1879 49.6436 28.0493 49.6436 29.1119V48.442C49.6436 49.5046 50.4984 50.366 51.5529 50.366H57.7093C58.7638 50.366 59.6186 49.5046 59.6186 48.442V29.1119C59.6186 28.0493 58.7638 27.1879 57.7093 27.1879Z" fill="white"/>
<path d="M80.8177 27.1879H74.6613C73.6068 27.1879 72.752 28.0493 72.752 29.1119V48.442C72.752 49.5046 73.6068 50.366 74.6613 50.366H80.8177C81.8722 50.366 82.727 49.5046 82.727 48.442V29.1119C82.727 28.0493 81.8722 27.1879 80.8177 27.1879Z" fill="white"/>
<path d="M34.6004 62.4316H28.444C27.3895 62.4316 26.5347 63.293 26.5347 64.3556V83.6856C26.5347 84.7482 27.3895 85.6097 28.444 85.6097H34.6004C35.6549 85.6097 36.5097 84.7482 36.5097 83.6856V64.3556C36.5097 63.293 35.6549 62.4316 34.6004 62.4316Z" fill="white"/>
<path d="M57.7093 62.4316H51.5529C50.4984 62.4316 49.6436 63.293 49.6436 64.3556V83.6856C49.6436 84.7482 50.4984 85.6097 51.5529 85.6097H57.7093C58.7638 85.6097 59.6186 84.7482 59.6186 83.6856V64.3556C59.6186 63.293 58.7638 62.4316 57.7093 62.4316Z" fill="white"/>
<path d="M80.8177 62.4316H74.6613C73.6068 62.4316 72.752 63.293 72.752 64.3556V83.6856C72.752 84.7482 73.6068 85.6097 74.6613 85.6097H80.8177C81.8722 85.6097 82.727 84.7482 82.727 83.6856V64.3556C82.727 63.293 81.8722 62.4316 80.8177 62.4316Z" fill="white"/>
</g>
<defs>
<clipPath id="clip0_358_2913">
<rect width="163.206" height="155" fill="white"/>
</clipPath>
</defs>
</svg>
