<svg width="248" height="122" viewBox="0 0 248 122" fill="none" xmlns="http://www.w3.org/2000/svg">
<path d="M70.2732 22.293C72.1462 22.293 73.6723 20.7701 73.6723 18.9012V10.9323V3.41326C73.6723 1.54432 72.1462 0.0214844 70.2732 0.0214844C68.4002 0.0214844 66.874 1.54432 66.874 3.41326V18.9099C66.874 20.7788 68.4002 22.3016 70.2732 22.3016V22.293Z" fill="#0054AC"/>
<path d="M111.818 22.293C113.691 22.293 115.217 20.7701 115.217 18.9012V3.41326C115.217 1.54432 113.691 0.0214844 111.818 0.0214844C109.945 0.0214844 108.419 1.54432 108.419 3.41326V10.9323V18.9012C108.419 20.7701 109.945 22.293 111.818 22.293Z" fill="#0054AC"/>
<path d="M173.903 12.5503H160.029V18.9012C160.029 22.5612 157.046 25.5377 153.378 25.5377C149.71 25.5377 146.728 22.5612 146.728 18.9012V12.5503H118.476V18.9012C118.476 22.5612 115.493 25.5377 111.825 25.5377C108.157 25.5377 105.175 22.5612 105.175 18.9012V12.5503H76.9233V18.9012C76.9233 22.5612 73.9404 25.5377 70.2724 25.5377C66.6044 25.5377 63.6215 22.5612 63.6215 18.9012V12.5503H49.7387C47.5362 12.5503 45.7412 14.3414 45.7412 16.5391V33.5672H177.901V16.5391C177.901 14.3414 176.106 12.5503 173.903 12.5503Z" fill="#0054AC"/>
<path d="M45.7412 111.258C45.7412 113.456 47.5362 115.247 49.7387 115.247H173.903C176.106 115.247 177.901 113.456 177.901 111.258V36.8206H45.7412V111.267V111.258ZM153.613 46.4681H167.539V60.364H153.613V46.4681ZM153.613 69.4837H167.539V83.3796H153.613V69.4837ZM153.613 92.4906H167.539V106.387H153.613V92.4906ZM128.951 46.4681H142.877V60.364H128.951V46.4681ZM128.951 69.4837H142.877V83.3796H128.951V69.4837ZM128.951 92.4906H142.877V106.387H128.951V92.4906ZM104.29 46.4681H118.216V60.364H104.29V46.4681ZM104.29 69.4837H118.216V83.3796H104.29V69.4837ZM104.29 92.4906H118.216V106.387H104.29V92.4906ZM79.6288 69.4837H93.5549V83.3796H79.6288V69.4837ZM79.6288 92.4906H93.5549V106.387H79.6288V92.4906ZM54.9675 69.4837H68.8937V83.3796H54.9675V69.4837ZM54.9675 92.4906H68.8937V106.387H54.9675V92.4906Z" fill="#0054AC"/>
<path d="M153.369 22.293C155.242 22.293 156.768 20.7701 156.768 18.9012V10.9323V3.41326C156.768 1.54432 155.242 0.0214844 153.369 0.0214844C151.496 0.0214844 149.97 1.54432 149.97 3.41326V18.9099C149.97 20.7788 151.496 22.3016 153.369 22.3016V22.293Z" fill="#0054AC"/>
<path d="M171.659 119.383C156.216 119.383 143.66 106.845 143.66 91.4437C143.66 76.0423 156.224 63.5049 171.659 63.5049C187.094 63.5049 199.659 76.0423 199.659 91.4437C199.659 106.845 187.094 119.383 171.659 119.383Z" fill="white"/>
<path d="M171.659 66.0919C185.663 66.0919 197.058 77.4612 197.058 91.435C197.058 105.409 185.663 116.778 171.659 116.778C157.655 116.778 146.261 105.409 146.261 91.435C146.261 77.4612 157.655 66.0919 171.659 66.0919ZM171.659 60.9004C154.759 60.9004 141.058 74.5713 141.058 91.435C141.058 108.299 154.759 121.97 171.659 121.97C188.56 121.97 202.26 108.299 202.26 91.435C202.26 74.5713 188.56 60.9004 171.659 60.9004Z" fill="#0054AC"/>
<path d="M168.431 105.391C167.052 105.391 165.726 104.846 164.754 103.869L156.387 95.5189C154.357 93.4942 154.357 90.2063 156.387 88.1816C158.416 86.1569 161.711 86.1569 163.74 88.1816L168.388 92.8107L180.71 80.2386C182.721 78.188 186.017 78.1534 188.063 80.1521C190.118 82.1595 190.153 85.4474 188.15 87.4894L172.151 103.817C171.18 104.812 169.853 105.374 168.457 105.383H168.431V105.391Z" fill="#0054AC"/>
</svg>
