<svg width="556" height="214" viewBox="0 0 556 214" fill="none" xmlns="http://www.w3.org/2000/svg">
<g clip-path="url(#clip0_358_3484)">
<path d="M40.6091 98.3028C37.5506 98.3028 34.4922 98.3028 31.4337 98.3028C29.5575 98.3028 28.7607 97.0953 29.5832 95.4509C32.1533 90.3379 33.4641 84.8909 33.901 79.187C34.0295 77.4141 34.0809 75.667 33.901 73.8941C33.8753 73.6372 33.8496 73.3546 33.6954 73.1233C33.4127 72.6609 33.1557 72.4553 32.5645 72.8407C26.8845 76.4378 19.4054 74.0997 16.681 67.9333C16.5011 67.5479 16.3212 67.2909 15.8329 67.2396C10.1015 66.5715 5.75791 63.7196 2.64803 58.9149C0.797526 56.0886 -0.0763236 52.8513 0.000780822 49.4854C0.15499 43.1649 2.93075 38.1804 8.14815 34.609C8.79068 34.1722 8.91919 33.8896 8.55937 33.1702C4.88406 25.5906 9.66453 16.4695 17.9918 15.1077C19.1484 14.9279 20.2792 14.8765 21.4358 15.0306C21.9498 15.1077 22.0783 14.9536 22.2069 14.5168C22.9522 11.3822 24.4429 8.633 26.6018 6.24352C29.6346 2.90338 33.3613 0.822221 37.8333 0.20558C43.6419 -0.590914 48.8336 0.899301 53.2799 4.779C56.03 7.16848 57.8291 10.226 58.8829 13.7203C58.9857 14.0286 59.0628 14.3369 59.1399 14.6452C59.2427 15.082 59.4997 15.1848 59.9109 15.1077C67.4671 14.0543 74.5351 20.529 73.9953 28.6738C73.8925 30.2925 73.4813 31.8598 72.6845 33.2729C72.3761 33.8125 72.3761 34.0951 72.9673 34.4805C77.7991 37.5894 80.5749 42.0344 81.2174 47.7126C81.7829 52.7742 80.3693 57.399 77.0281 61.2787C73.9953 64.7987 70.1658 66.8799 65.5138 67.2909C64.9741 67.3423 64.8199 67.702 64.64 68.0874C63.2521 71.1706 60.939 73.2518 57.6749 74.1511C54.7192 74.9733 51.8407 74.6136 49.142 73.0976C48.191 72.5581 47.7027 72.815 47.5228 73.9455C47.2915 75.5128 47.3172 77.1058 47.42 78.6731C47.7027 82.9896 48.4738 87.2033 49.9387 91.3142C50.4785 92.8045 51.1467 94.2433 51.7892 95.6821C52.4575 97.1723 51.7378 98.3285 50.093 98.3285C46.9574 98.3285 43.8218 98.3285 40.6862 98.3285L40.6091 98.3028Z" fill="#0054AC"/>
<path d="M135.062 98.3026C132.004 98.3026 128.945 98.3026 125.887 98.3026C124.011 98.3026 123.214 97.0951 124.036 95.4507C126.606 90.3377 127.917 84.8907 128.354 79.1868C128.483 77.4139 128.534 75.6668 128.354 73.8939C128.328 73.637 128.303 73.3544 128.149 73.1231C127.866 72.6607 127.609 72.4551 127.018 72.8405C121.338 76.4376 113.859 74.0995 111.134 67.9331C110.954 67.5477 110.774 67.2908 110.286 67.2394C104.555 66.5713 100.211 63.7194 97.1012 58.9147C95.2506 56.0371 94.3768 52.8254 94.4539 49.4596C94.6081 43.139 97.3839 38.1545 102.601 34.5831C103.244 34.1463 103.372 33.8637 103.013 33.1443C99.3372 25.5647 104.118 16.4436 112.445 15.0818C113.602 14.902 114.732 14.8506 115.889 15.0048C116.403 15.0819 116.531 14.9277 116.66 14.4909C117.405 11.3563 118.896 8.60712 121.055 6.21764C124.088 2.8775 127.814 0.796342 132.286 0.179701C138.095 -0.616793 143.287 0.873422 147.733 4.75312C150.483 7.1426 152.282 10.2001 153.336 13.6944C153.439 14.0027 153.516 14.311 153.593 14.6194C153.696 15.0562 153.953 15.1589 154.364 15.0818C161.92 14.0284 168.988 20.5031 168.448 28.6479C168.346 30.2666 167.934 31.8339 167.138 33.2471C166.829 33.7866 166.829 34.0692 167.42 34.4546C172.252 37.5635 175.028 42.0085 175.671 47.6867C176.236 52.7483 174.822 57.3731 171.481 61.2528C168.448 64.7728 164.619 66.854 159.967 67.2651C159.427 67.3164 159.273 67.6762 159.093 68.0616C157.705 71.1448 155.392 73.2259 152.128 74.1252C149.172 74.9474 146.294 74.5877 143.595 73.0718C142.644 72.5322 142.156 72.7891 141.976 73.9196C141.745 75.4869 141.77 77.0799 141.873 78.6472C142.156 82.9637 142.927 87.1774 144.392 91.2883C144.932 92.7786 145.6 94.2174 146.242 95.6562C146.911 97.1464 146.191 98.3026 144.546 98.3026C141.411 98.3026 138.275 98.3026 135.139 98.3026H135.062Z" fill="#0054AC"/>
<path d="M230.824 98.3026C227.765 98.3026 224.707 98.3026 221.649 98.3026C219.772 98.3026 218.976 97.0951 219.798 95.4507C222.368 90.3377 223.679 84.8907 224.116 79.1868C224.244 77.4139 224.296 75.6668 224.116 73.8939C224.09 73.637 224.064 73.3544 223.91 73.1231C223.628 72.6607 223.371 72.4551 222.779 72.8405C217.099 76.4376 209.62 74.0995 206.896 67.9331C206.716 67.5477 206.536 67.2908 206.048 67.2394C200.316 66.5713 195.973 63.7194 192.863 58.9147C191.012 56.0371 190.139 52.8254 190.216 49.4596C190.37 43.139 193.146 38.1545 198.363 34.5831C199.006 34.1463 199.134 33.8637 198.774 33.1443C195.099 25.5647 199.879 16.4436 208.207 15.0818C209.363 14.902 210.494 14.8506 211.651 15.0048C212.165 15.0819 212.293 14.9277 212.422 14.4909C213.167 11.3563 214.658 8.60712 216.817 6.21764C219.849 2.8775 223.576 0.796342 228.048 0.179701C233.857 -0.616793 239.048 0.873422 243.495 4.75312C246.245 7.1426 248.044 10.2001 249.098 13.6944C249.2 14.0027 249.278 14.311 249.355 14.6194C249.458 15.0562 249.715 15.1589 250.126 15.0818C257.682 14.0284 264.75 20.5031 264.21 28.6479C264.107 30.2666 263.696 31.8339 262.899 33.2471C262.591 33.7866 262.591 34.0692 263.182 34.4546C268.014 37.5635 270.79 42.0085 271.432 47.6867C271.998 52.7483 270.584 57.3731 267.243 61.2528C264.21 64.7728 260.381 66.854 255.729 67.2651C255.189 67.3164 255.035 67.6762 254.855 68.0616C253.467 71.1448 251.154 73.2259 247.89 74.1252C244.934 74.9474 242.055 74.5877 239.357 73.0718C238.406 72.5322 237.918 72.7891 237.738 73.9196C237.506 75.4869 237.532 77.0799 237.635 78.6472C237.918 82.9637 238.689 87.1774 240.154 91.2883C240.693 92.7786 241.362 94.2174 242.004 95.6562C242.672 97.1464 241.953 98.3026 240.308 98.3026C237.172 98.3026 234.037 98.3026 230.901 98.3026H230.824Z" fill="#0054AC"/>
<path d="M40.6091 214C37.5506 214 34.4922 214 31.4337 214C29.5575 214 28.7607 212.792 29.5832 211.148C32.1533 206.035 33.4641 200.588 33.901 194.884C34.0295 193.111 34.0809 191.364 33.901 189.591C33.8753 189.334 33.8496 189.052 33.6954 188.82C33.4127 188.358 33.1557 188.152 32.5645 188.538C26.8845 192.135 19.4054 189.797 16.681 183.63C16.5011 183.245 16.3212 182.988 15.8329 182.937C10.1015 182.269 5.75791 179.417 2.64803 174.612C0.797526 171.734 -0.0763236 168.523 0.000780822 165.157C0.15499 158.836 2.93075 153.852 8.14815 150.28C8.79068 149.844 8.91919 149.561 8.55937 148.842C4.88406 141.262 9.66453 132.141 17.9918 130.779C19.1484 130.599 20.2792 130.548 21.4358 130.702C21.9498 130.779 22.0783 130.625 22.2069 130.188C22.9522 127.054 24.4429 124.304 26.6018 121.915C29.6346 118.575 33.3613 116.494 37.8333 115.877C43.6419 115.08 48.8336 116.571 53.2799 120.45C56.03 122.84 57.8291 125.897 58.8829 129.392C58.9857 129.7 59.0628 130.008 59.1399 130.317C59.2427 130.753 59.4997 130.856 59.9109 130.779C67.4671 129.726 74.5351 136.2 73.9953 144.345C73.8925 145.964 73.4813 147.531 72.6845 148.944C72.3761 149.484 72.3761 149.767 72.9673 150.152C77.7991 153.261 80.5749 157.706 81.2174 163.384C81.7829 168.446 80.3693 173.07 77.0281 176.95C73.9953 180.47 70.1658 182.551 65.5138 182.962C64.9741 183.014 64.8199 183.373 64.64 183.759C63.2521 186.842 60.939 188.923 57.6749 189.822C54.7192 190.645 51.8407 190.285 49.142 188.769C48.191 188.229 47.7027 188.486 47.5228 189.617C47.2915 191.184 47.3172 192.777 47.42 194.344C47.7027 198.661 48.4738 202.875 49.9387 206.986C50.4785 208.476 51.1467 209.915 51.7892 211.354C52.4575 212.844 51.7378 214 50.093 214C46.9574 214 43.8218 214 40.6862 214H40.6091Z" fill="#0054AC"/>
<path d="M135.062 214C132.004 214 128.945 214 125.887 214C124.011 214 123.214 212.792 124.036 211.148C126.606 206.035 127.917 200.588 128.354 194.884C128.483 193.111 128.534 191.364 128.354 189.591C128.328 189.334 128.303 189.052 128.149 188.82C127.866 188.358 127.609 188.152 127.018 188.538C121.338 192.135 113.859 189.797 111.134 183.63C110.954 183.245 110.774 182.988 110.286 182.937C104.555 182.269 100.211 179.417 97.1012 174.612C95.2506 171.734 94.3768 168.523 94.4539 165.157C94.6081 158.836 97.3839 153.852 102.601 150.28C103.244 149.844 103.372 149.561 103.013 148.842C99.3372 141.262 104.118 132.141 112.445 130.779C113.602 130.599 114.732 130.548 115.889 130.702C116.403 130.779 116.531 130.625 116.66 130.188C117.405 127.054 118.896 124.304 121.055 121.915C124.088 118.575 127.814 116.494 132.286 115.877C138.095 115.08 143.287 116.571 147.733 120.45C150.483 122.84 152.282 125.897 153.336 129.392C153.439 129.7 153.516 130.008 153.593 130.317C153.696 130.753 153.953 130.856 154.364 130.779C161.92 129.726 168.988 136.2 168.448 144.345C168.346 145.964 167.934 147.531 167.138 148.944C166.829 149.484 166.829 149.767 167.42 150.152C172.252 153.261 175.028 157.706 175.671 163.384C176.236 168.446 174.822 173.07 171.481 176.95C168.448 180.47 164.619 182.551 159.967 182.962C159.427 183.014 159.273 183.373 159.093 183.759C157.705 186.842 155.392 188.923 152.128 189.822C149.172 190.645 146.294 190.285 143.595 188.769C142.644 188.229 142.156 188.486 141.976 189.617C141.745 191.184 141.77 192.777 141.873 194.344C142.156 198.661 142.927 202.875 144.392 206.986C144.932 208.476 145.6 209.915 146.242 211.354C146.911 212.844 146.191 214 144.546 214C141.411 214 138.275 214 135.139 214H135.062Z" fill="#0054AC"/>
<path d="M230.824 214C227.765 214 224.707 214 221.649 214C219.772 214 218.976 212.792 219.798 211.148C222.368 206.035 223.679 200.588 224.116 194.884C224.244 193.111 224.296 191.364 224.116 189.591C224.09 189.334 224.064 189.052 223.91 188.82C223.628 188.358 223.371 188.152 222.779 188.538C217.099 192.135 209.62 189.797 206.896 183.63C206.716 183.245 206.536 182.988 206.048 182.937C200.316 182.269 195.973 179.417 192.863 174.612C191.012 171.734 190.139 168.523 190.216 165.157C190.37 158.836 193.146 153.852 198.363 150.28C199.006 149.844 199.134 149.561 198.774 148.842C195.099 141.262 199.879 132.141 208.207 130.779C209.363 130.599 210.494 130.548 211.651 130.702C212.165 130.779 212.293 130.625 212.422 130.188C213.167 127.054 214.658 124.304 216.817 121.915C219.849 118.575 223.576 116.494 228.048 115.877C233.857 115.08 239.048 116.571 243.495 120.45C246.245 122.84 248.044 125.897 249.098 129.392C249.2 129.7 249.278 130.008 249.355 130.317C249.458 130.753 249.715 130.856 250.126 130.779C257.682 129.726 264.75 136.2 264.21 144.345C264.107 145.964 263.696 147.531 262.899 148.944C262.591 149.484 262.591 149.767 263.182 150.152C268.014 153.261 270.79 157.706 271.432 163.384C271.998 168.446 270.584 173.07 267.243 176.95C264.21 180.47 260.381 182.551 255.729 182.962C255.189 183.014 255.035 183.373 254.855 183.759C253.467 186.842 251.154 188.923 247.89 189.822C244.934 190.645 242.055 190.285 239.357 188.769C238.406 188.229 237.918 188.486 237.738 189.617C237.506 191.184 237.532 192.777 237.635 194.344C237.918 198.661 238.689 202.875 240.154 206.986C240.693 208.476 241.362 209.915 242.004 211.354C242.672 212.844 241.953 214 240.308 214C237.172 214 234.037 214 230.901 214H230.824Z" fill="#0054AC"/>
<path d="M325.097 98.3026C322.039 98.3026 318.98 98.3026 315.922 98.3026C314.046 98.3026 313.249 97.0951 314.071 95.4507C316.642 90.3377 317.952 84.8907 318.389 79.1868C318.518 77.4139 318.569 75.6668 318.389 73.8939C318.364 73.637 318.338 73.3544 318.184 73.1231C317.901 72.6607 317.644 72.4551 317.053 72.8405C311.373 76.4376 303.894 74.0995 301.169 67.9331C300.989 67.5477 300.809 67.2908 300.321 67.2394C294.59 66.5713 290.246 63.7194 287.136 58.9147C285.286 56.0371 284.412 52.8254 284.489 49.4596C284.643 43.139 287.419 38.1545 292.636 34.5831C293.279 34.1463 293.407 33.8637 293.048 33.1443C289.372 25.5647 294.153 16.4436 302.48 15.0818C303.637 14.902 304.768 14.8506 305.924 15.0048C306.438 15.0819 306.567 14.9277 306.695 14.4909C307.44 11.3563 308.931 8.60712 311.09 6.21764C314.123 2.8775 317.85 0.796342 322.322 0.179701C328.13 -0.616793 333.322 0.873422 337.768 4.75312C340.518 7.1426 342.317 10.2001 343.371 13.6944C343.474 14.0027 343.551 14.311 343.628 14.6194C343.731 15.0562 343.988 15.1589 344.399 15.0818C351.955 14.0284 359.023 20.5031 358.484 28.6479C358.381 30.2666 357.97 31.8339 357.173 33.2471C356.864 33.7866 356.864 34.0692 357.456 34.4546C362.287 37.5635 365.063 42.0085 365.706 47.6867C366.271 52.7483 364.858 57.3731 361.516 61.2528C358.484 64.7728 354.654 66.854 350.002 67.2651C349.462 67.3164 349.308 67.6762 349.128 68.0616C347.74 71.1448 345.427 73.2259 342.163 74.1252C339.208 74.9474 336.329 74.5877 333.63 73.0718C332.679 72.5322 332.191 72.7891 332.011 73.9196C331.78 75.4869 331.805 77.0799 331.908 78.6472C332.191 82.9637 332.962 87.1774 334.427 91.2883C334.967 92.7786 335.635 94.2174 336.278 95.6562C336.946 97.1464 336.226 98.3026 334.581 98.3026C331.446 98.3026 328.31 98.3026 325.174 98.3026H325.097Z" fill="#0054AC"/>
<path d="M419.551 98.3026C416.492 98.3026 413.434 98.3026 410.375 98.3026C408.499 98.3026 407.702 97.0951 408.525 95.4507C411.095 90.3377 412.406 84.8907 412.842 79.1868C412.971 77.4139 413.022 75.6668 412.842 73.8939C412.817 73.637 412.791 73.3544 412.637 73.1231C412.354 72.6607 412.097 72.4551 411.506 72.8405C405.826 76.4376 398.347 74.0995 395.622 67.9331C395.443 67.5477 395.263 67.2908 394.774 67.2394C389.043 66.5713 384.699 63.7194 381.589 58.9147C379.739 56.0371 378.865 52.8254 378.942 49.4596C379.096 43.139 381.872 38.1545 387.09 34.5831C387.732 34.1463 387.861 33.8637 387.501 33.1443C383.825 25.5647 388.606 16.4436 396.933 15.0818C398.09 14.902 399.221 14.8506 400.377 15.0048C400.891 15.0819 401.02 14.9277 401.148 14.4909C401.894 11.3563 403.384 8.60712 405.543 6.21764C408.576 2.8775 412.303 0.796342 416.775 0.179701C422.583 -0.616793 427.775 0.873422 432.221 4.75312C434.971 7.1426 436.771 10.2001 437.824 13.6944C437.927 14.0027 438.004 14.311 438.081 14.6194C438.184 15.0562 438.441 15.1589 438.852 15.0818C446.409 14.0284 453.476 20.5031 452.937 28.6479C452.834 30.2666 452.423 31.8339 451.626 33.2471C451.318 33.7866 451.318 34.0692 451.909 34.4546C456.741 37.5635 459.516 42.0085 460.159 47.6867C460.724 52.7483 459.311 57.3731 455.97 61.2528C452.937 64.7728 449.107 66.854 444.455 67.2651C443.915 67.3164 443.761 67.6762 443.581 68.0616C442.194 71.1448 439.88 73.2259 436.616 74.1252C433.661 74.9474 430.782 74.5877 428.083 73.0718C427.132 72.5322 426.644 72.7891 426.464 73.9196C426.233 75.4869 426.259 77.0799 426.361 78.6472C426.644 82.9637 427.415 87.1774 428.88 91.2883C429.42 92.7786 430.088 94.2174 430.731 95.6562C431.399 97.1464 430.679 98.3026 429.034 98.3026C425.899 98.3026 422.763 98.3026 419.628 98.3026H419.551Z" fill="#0054AC"/>
<path d="M515.316 98.3026C512.258 98.3026 509.199 98.3026 506.141 98.3026C504.264 98.3026 503.468 97.0951 504.29 95.4507C506.86 90.3377 508.171 84.8907 508.608 79.1868C508.737 77.4139 508.788 75.6668 508.608 73.8939C508.582 73.637 508.557 73.3544 508.402 73.1231C508.12 72.6607 507.863 72.4551 507.272 72.8405C501.592 76.4376 494.112 74.0995 491.388 67.9331C491.208 67.5477 491.028 67.2908 490.54 67.2394C484.809 66.5713 480.465 63.7194 477.355 58.9147C475.505 56.0371 474.631 52.8254 474.708 49.4596C474.862 43.139 477.638 38.1545 482.855 34.5831C483.498 34.1463 483.626 33.8637 483.266 33.1443C479.591 25.5647 484.372 16.4436 492.699 15.0818C493.855 14.902 494.986 14.8506 496.143 15.0048C496.657 15.0819 496.785 14.9277 496.914 14.4909C497.659 11.3563 499.15 8.60712 501.309 6.21764C504.342 2.8775 508.068 0.796342 512.54 0.179701C518.349 -0.616793 523.541 0.873422 527.987 4.75312C530.737 7.1426 532.536 10.2001 533.59 13.6944C533.693 14.0027 533.77 14.311 533.847 14.6194C533.95 15.0562 534.207 15.1589 534.618 15.0818C542.174 14.0284 549.242 20.5031 548.702 28.6479C548.6 30.2666 548.188 31.8339 547.392 33.2471C547.083 33.7866 547.083 34.0692 547.674 34.4546C552.506 37.5635 555.282 42.0085 555.924 47.6867C556.49 52.7483 555.076 57.3731 551.735 61.2528C548.702 64.7728 544.873 66.854 540.221 67.2651C539.681 67.3164 539.527 67.6762 539.347 68.0616C537.959 71.1448 535.646 73.2259 532.382 74.1252C529.426 74.9474 526.548 74.5877 523.849 73.0718C522.898 72.5322 522.41 72.7891 522.23 73.9196C521.999 75.4869 522.024 77.0799 522.127 78.6472C522.41 82.9637 523.181 87.1774 524.646 91.2883C525.186 92.7786 525.854 94.2174 526.496 95.6562C527.165 97.1464 526.445 98.3026 524.8 98.3026C521.664 98.3026 518.529 98.3026 515.393 98.3026H515.316Z" fill="#0054AC"/>
<path d="M325.097 214C322.039 214 318.98 214 315.922 214C314.046 214 313.249 212.792 314.071 211.148C316.642 206.035 317.952 200.588 318.389 194.884C318.518 193.111 318.569 191.364 318.389 189.591C318.364 189.334 318.338 189.052 318.184 188.82C317.901 188.358 317.644 188.152 317.053 188.538C311.373 192.135 303.894 189.797 301.169 183.63C300.989 183.245 300.809 182.988 300.321 182.937C294.59 182.269 290.246 179.417 287.136 174.612C285.286 171.734 284.412 168.523 284.489 165.157C284.643 158.836 287.419 153.852 292.636 150.28C293.279 149.844 293.407 149.561 293.048 148.842C289.372 141.262 294.153 132.141 302.48 130.779C303.637 130.599 304.768 130.548 305.924 130.702C306.438 130.779 306.567 130.625 306.695 130.188C307.44 127.054 308.931 124.304 311.09 121.915C314.123 118.575 317.85 116.494 322.322 115.877C328.13 115.08 333.322 116.571 337.768 120.45C340.518 122.84 342.317 125.897 343.371 129.392C343.474 129.7 343.551 130.008 343.628 130.317C343.731 130.753 343.988 130.856 344.399 130.779C351.955 129.726 359.023 136.2 358.484 144.345C358.381 145.964 357.97 147.531 357.173 148.944C356.864 149.484 356.864 149.767 357.456 150.152C362.287 153.261 365.063 157.706 365.706 163.384C366.271 168.446 364.858 173.07 361.516 176.95C358.484 180.47 354.654 182.551 350.002 182.962C349.462 183.014 349.308 183.373 349.128 183.759C347.74 186.842 345.427 188.923 342.163 189.822C339.208 190.645 336.329 190.285 333.63 188.769C332.679 188.229 332.191 188.486 332.011 189.617C331.78 191.184 331.805 192.777 331.908 194.344C332.191 198.661 332.962 202.875 334.427 206.986C334.967 208.476 335.635 209.915 336.278 211.354C336.946 212.844 336.226 214 334.581 214C331.446 214 328.31 214 325.174 214H325.097Z" fill="#0054AC"/>
<path d="M419.551 214C416.492 214 413.434 214 410.375 214C408.499 214 407.702 212.792 408.525 211.148C411.095 206.035 412.406 200.588 412.842 194.884C412.971 193.111 413.022 191.364 412.842 189.591C412.817 189.334 412.791 189.052 412.637 188.82C412.354 188.358 412.097 188.152 411.506 188.538C405.826 192.135 398.347 189.797 395.622 183.63C395.443 183.245 395.263 182.988 394.774 182.937C389.043 182.269 384.699 179.417 381.589 174.612C379.739 171.734 378.865 168.523 378.942 165.157C379.096 158.836 381.872 153.852 387.09 150.28C387.732 149.844 387.861 149.561 387.501 148.842C383.825 141.262 388.606 132.141 396.933 130.779C398.09 130.599 399.221 130.548 400.377 130.702C400.891 130.779 401.02 130.625 401.148 130.188C401.894 127.054 403.384 124.304 405.543 121.915C408.576 118.575 412.303 116.494 416.775 115.877C422.583 115.08 427.775 116.571 432.221 120.45C434.971 122.84 436.771 125.897 437.824 129.392C437.927 129.7 438.004 130.008 438.081 130.317C438.184 130.753 438.441 130.856 438.852 130.779C446.409 129.726 453.476 136.2 452.937 144.345C452.834 145.964 452.423 147.531 451.626 148.944C451.318 149.484 451.318 149.767 451.909 150.152C456.741 153.261 459.516 157.706 460.159 163.384C460.724 168.446 459.311 173.07 455.97 176.95C452.937 180.47 449.107 182.551 444.455 182.962C443.915 183.014 443.761 183.373 443.581 183.759C442.194 186.842 439.88 188.923 436.616 189.822C433.661 190.645 430.782 190.285 428.083 188.769C427.132 188.229 426.644 188.486 426.464 189.617C426.233 191.184 426.259 192.777 426.361 194.344C426.644 198.661 427.415 202.875 428.88 206.986C429.42 208.476 430.088 209.915 430.731 211.354C431.399 212.844 430.679 214 429.034 214C425.899 214 422.763 214 419.628 214H419.551Z" fill="#0054AC"/>
<path d="M515.316 214C512.258 214 509.199 214 506.141 214C504.264 214 503.468 212.792 504.29 211.148C506.86 206.035 508.171 200.588 508.608 194.884C508.737 193.111 508.788 191.364 508.608 189.591C508.582 189.334 508.557 189.052 508.402 188.82C508.12 188.358 507.863 188.152 507.272 188.538C501.592 192.135 494.112 189.797 491.388 183.63C491.208 183.245 491.028 182.988 490.54 182.937C484.809 182.269 480.465 179.417 477.355 174.612C475.505 171.734 474.631 168.523 474.708 165.157C474.862 158.836 477.638 153.852 482.855 150.28C483.498 149.844 483.626 149.561 483.266 148.842C479.591 141.262 484.372 132.141 492.699 130.779C493.855 130.599 494.986 130.548 496.143 130.702C496.657 130.779 496.785 130.625 496.914 130.188C497.659 127.054 499.15 124.304 501.309 121.915C504.342 118.575 508.068 116.494 512.54 115.877C518.349 115.08 523.541 116.571 527.987 120.45C530.737 122.84 532.536 125.897 533.59 129.392C533.693 129.7 533.77 130.008 533.847 130.317C533.95 130.753 534.207 130.856 534.618 130.779C542.174 129.726 549.242 136.2 548.702 144.345C548.6 145.964 548.188 147.531 547.392 148.944C547.083 149.484 547.083 149.767 547.674 150.152C552.506 153.261 555.282 157.706 555.924 163.384C556.49 168.446 555.076 173.07 551.735 176.95C548.702 180.47 544.873 182.551 540.221 182.962C539.681 183.014 539.527 183.373 539.347 183.759C537.959 186.842 535.646 188.923 532.382 189.822C529.426 190.645 526.548 190.285 523.849 188.769C522.898 188.229 522.41 188.486 522.23 189.617C521.999 191.184 522.024 192.777 522.127 194.344C522.41 198.661 523.181 202.875 524.646 206.986C525.186 208.476 525.854 209.915 526.496 211.354C527.165 212.844 526.445 214 524.8 214C521.664 214 518.529 214 515.393 214H515.316Z" fill="#0054AC"/>
</g>
<defs>
<clipPath id="clip0_358_3484">
<rect width="556" height="214" fill="white"/>
</clipPath>
</defs>
</svg>
