<svg width="158" height="151" viewBox="0 0 158 151" fill="none" xmlns="http://www.w3.org/2000/svg">
<g clip-path="url(#clip0_358_3439)">
<path d="M74.544 29.818C77.7415 28.0769 81.8019 28.0431 85.0164 29.7842C87.7741 31.1364 89.8043 33.6213 91.1746 36.3258C93.0864 40.2813 93.7293 44.7269 93.6447 49.0881C93.7124 53.483 93.5094 57.878 93.797 62.256C94.5075 62.256 95.2012 62.256 95.9118 62.256C95.9118 56.7792 95.9964 51.3025 95.9118 45.8426C95.6411 39.7911 93.5094 33.486 88.7892 29.463C85.1686 26.4034 79.924 25.2878 75.4237 26.8936C71.1772 28.2966 67.9966 31.8802 66.1017 35.8356C63.9869 40.1292 63.564 44.9974 63.6316 49.7135C63.6993 53.8887 63.5471 58.0808 63.8178 62.256C64.4945 62.2391 65.1881 62.2222 65.8818 62.2222C65.8818 57.8442 65.9325 53.4661 65.9156 49.0712C65.9156 44.6931 66.4401 40.1968 68.4703 36.2582C69.8745 33.6382 71.8539 31.1871 74.544 29.818Z" fill="#0054AC"/>
<path d="M116.161 90.0795C113.505 79.5824 110.916 69.0514 108.142 58.5712C107.786 57.6922 106.856 57.0836 105.908 57.1682C103.168 57.1682 100.41 57.1344 97.6692 57.202C97.6692 58.8078 97.6523 60.4137 97.703 62.0195C98.329 62.2054 99.3103 62.29 99.361 63.152C99.361 65.2819 99.5133 67.4287 99.2257 69.5416C98.9381 71.5869 97.2293 73.514 95.0638 73.4801C92.8305 73.6154 90.9357 71.6715 90.6988 69.5416C90.4789 67.192 90.5804 64.8086 90.6988 62.4421C91.1049 62.3069 91.5109 62.1716 91.917 62.0364C91.9339 60.4475 91.9339 58.8416 91.9508 57.2527C88.9393 57.0498 85.9279 57.2189 82.9164 57.1682C77.8409 57.2189 72.7654 57.1005 67.7069 57.2527C67.7069 58.8754 67.673 60.4982 67.7745 62.104C68.2821 62.2562 69.0942 62.104 69.2803 62.7802C69.3987 64.2677 69.2803 65.7721 69.348 67.2765C69.4156 69.0683 69.1788 71.0291 67.893 72.3814C66.5057 73.8013 64.0356 73.9365 62.496 72.6688C61.2779 71.6884 60.7027 70.0825 60.635 68.5612C60.5674 66.6511 60.4997 64.741 60.6689 62.8478C60.6689 62.1547 61.5317 62.2223 62.0054 62.0026C62.0054 60.4137 62.0054 58.8247 62.0731 57.2527C59.3323 57.1513 56.5916 57.2189 53.8508 57.202C52.988 57.1344 52.2266 57.7767 51.8883 58.5204C49.2321 68.8993 46.5082 79.2612 43.9197 89.64C42.9723 93.0038 43.3784 96.6888 44.9518 99.7991C46.8974 103.433 50.484 106.155 54.5275 106.966C56.2024 107.321 57.9281 107.152 59.6368 107.186C74.0005 107.186 88.3641 107.186 102.711 107.186C105.587 107.237 108.429 106.324 110.764 104.65C115.349 101.523 117.599 95.421 116.178 90.0795H116.161Z" fill="#0054AC"/>
<path d="M62.5149 63.9632C62.3965 65.7888 62.2611 67.6482 62.5826 69.4738C62.7856 70.7753 63.9868 72.0262 65.3741 71.7219C66.5753 71.5529 67.252 70.2851 67.3874 69.2033C67.5227 67.4622 67.3874 65.7043 67.3874 63.9463C65.7632 63.997 64.1221 63.9632 62.498 63.9801L62.5149 63.9632Z" fill="#0054AC"/>
<path d="M94.707 71.6712C96.1789 71.9079 97.2616 70.488 97.4308 69.1695C97.5831 67.4284 97.4646 65.6874 97.4816 63.9463C95.7897 63.9463 94.0979 63.9463 92.3892 63.9463C92.3892 65.5859 92.3046 67.2087 92.3892 68.8483C92.4738 70.1161 93.2858 71.5529 94.6731 71.6543L94.707 71.6712Z" fill="#0054AC"/>
<path d="M47.9448 15.5513C80.411 -2.70461 125.109 13.2862 139.693 47.2118C135.954 47.7865 132.215 48.3781 128.476 48.9528C135.734 55.3931 142.992 61.8503 150.25 68.2906C152.838 58.9429 155.427 49.5952 157.998 40.2475C154.361 41.8026 150.723 43.3577 147.103 44.9129C136.681 19.7265 111.169 1.9946 84.0654 0.253528C44.8657 -3.1441 6.27505 28.939 4.36328 68.5103C6.91794 68.6963 9.45569 68.8991 12.0104 69.0851C14.0405 46.6878 27.9305 25.8794 47.9448 15.5344V15.5513Z" fill="#0054AC"/>
<path d="M80.9033 150.932C117.921 151.017 151.588 118.9 153.398 81.9994C150.877 81.7796 148.357 81.5599 145.836 81.3232C143.298 118.342 106.433 148.87 69.4327 142.362C47.3374 139.184 27.5092 124.005 18.3902 103.704C22.0445 102.994 25.682 102.301 29.3363 101.591C22.0784 95.1335 14.8204 88.6763 7.56248 82.2191C5.04165 91.7021 2.52083 101.185 0 110.668C3.73894 109.248 7.46097 107.811 11.1999 106.391C22.5013 133.471 51.4486 152.285 80.9033 150.915V150.932Z" fill="#0054AC"/>
</g>
<defs>
<clipPath id="clip0_358_3439">
<rect width="158" height="151" fill="white"/>
</clipPath>
</defs>
</svg>
