<svg width="248" height="149" viewBox="0 0 248 149" fill="none" xmlns="http://www.w3.org/2000/svg">
<g clip-path="url(#clip0_358_3351)">
<path d="M116.781 24.1465C116.999 25.1496 116.654 24.8396 116.235 25.1131C112.612 27.4658 108.387 28.9247 104.473 30.8579C101.05 32.5358 98.155 35.1437 96.0976 38.3535C92.3287 44.2624 87.522 50.0072 84.2265 55.8432C77.5445 67.6793 90.1985 74.2448 100.795 71.1444C111.119 68.1353 113.922 56.7733 124.592 54.1289C134.078 51.7763 136.518 55.2414 143.527 60.3479C159.04 71.6733 173.97 83.8377 189.537 95.1085C199.624 103.498 189.5 117.121 178.03 109.644C170.783 104.92 163.792 98.2088 156.527 93.3394C153.869 91.9352 151.83 93.9413 153.25 96.6222L175.117 112.999C180.925 120.459 173.587 130.726 164.648 127.352C163.628 126.969 163.045 126.495 162.171 125.966C155.162 121.607 148.461 115.133 141.525 110.537C138.884 109.151 136.809 111.121 138.247 113.82L157.82 128.191C161.552 135.833 153.25 143.182 145.548 139.608C142.89 138.368 137.719 132.969 135.48 132.915C134.023 132.878 133.022 133.717 133.24 135.249C133.604 137.875 140.141 140.465 140.268 141.742C139.267 147.724 132.548 150.623 127.232 148.07C126.431 147.687 120.677 143.328 120.422 142.818C120.113 142.198 120.331 142.179 120.641 141.723C121.715 140.155 124.1 138.696 125.32 136.927C130.618 129.267 124.646 118.434 115.525 118.288C119.33 108.258 110.718 99.0113 100.504 101.09C102.07 91.9534 93.1481 84.4943 84.2812 87.2116C78.6369 88.9442 77.4171 92.6464 73.6846 95.9474C73.3022 96.2757 73.2112 96.5128 72.6104 96.3669C72.1006 85.1326 56.6609 81.8134 51.1259 91.2056H50.5068C46.6469 87.394 42.1315 84.549 37.4341 81.9228L68.3499 25.8791C73.721 27.6299 78.2 29.2165 84.008 28.87C92.8385 28.3594 103.581 21.5933 110.991 22.4505C113.03 22.6875 114.815 23.8183 116.836 24.1283L116.781 24.1465Z" fill="#0054AC"/>
<path d="M210.766 82.5794C204.485 84.5855 199.314 88.7072 194.343 92.8835L139.667 51.7399C133.586 47.3264 125.866 48.22 119.239 50.9009C111.701 53.9648 107.513 64.6884 99.1926 66.9499C93.8397 68.4089 84.0806 66.2933 87.5764 59.1807C90.18 53.8919 94.8046 48.2565 98.6646 42.7853C101.123 39.3019 104.363 36.4569 108.132 34.469C114.65 31.0403 121.387 26.7181 127.814 24.6755C135.589 22.1952 150.865 26.8457 159.549 27.94C166.468 28.8154 172.75 29.2531 179.177 25.8974L210.748 82.5976L210.766 82.5794Z" fill="#0054AC"/>
<path d="M39.8192 0.164148C41.0573 -0.0547014 41.6399 0.0364859 42.8234 0.401235C46.7379 1.64138 59.9928 9.37406 63.9437 11.9273C69.4423 15.4654 67.312 18.5475 64.9087 23.1433C54.1483 43.7334 41.6581 63.4846 30.8431 84.0564C29.696 85.7708 27.6204 86.7921 25.5812 86.482L2.16675 73.7888C0.673761 72.6945 -0.163769 70.5425 0.0183026 68.7005C11.3796 46.4873 24.5252 25.0765 36.1413 2.918C37.1245 1.62314 38.1623 0.43771 39.8192 0.145911V0.164148Z" fill="#0054AC"/>
<path d="M217.813 85.0595L180.779 18.3105C180.397 15.9214 180.925 14.1706 182.928 12.7845L205.887 0.0730038C207.835 -0.237033 209.638 0.38304 211.021 1.75085C221.891 22.5963 235 42.931 245.633 63.8311C247.436 67.3692 249.712 70.4878 245.961 73.7523C239.17 77.2904 232.688 81.6127 225.824 84.9866C222.82 86.4638 220.78 87.5581 217.794 85.0413L217.813 85.0595Z" fill="#0054AC"/>
<path d="M86.1743 91.333C94.1491 89.9651 99.3563 98.6279 94.0216 105.212C91.6001 108.203 79.1646 121.005 76.3971 122.811C70.9349 126.385 63.1241 121.571 63.561 115.151C63.907 110.099 68.477 107.655 71.4811 104.573C74.6856 101.272 82.0049 92.0442 86.1743 91.333Z" fill="#0054AC"/>
<path d="M102.07 105.522C109.025 104.41 114.268 111.559 110.864 117.759C110.008 119.31 94.9324 134.465 93.1481 135.705C85.9926 140.611 77.3078 132.459 81.0585 124.89C86.6845 119.857 92.4744 111.814 98.3007 107.346C99.3385 106.562 100.777 105.723 102.07 105.522Z" fill="#0054AC"/>
<path d="M113.231 123.139C116.344 122.501 118.82 123.194 120.859 125.62C125.648 131.31 120.768 135.267 116.999 139.389C115.142 141.431 109.48 147.578 107.095 147.96C99.5023 149.164 95.0234 141.596 99.8119 135.504C101.724 133.079 108.351 126.386 110.754 124.525C111.464 123.978 112.338 123.303 113.231 123.121V123.139Z" fill="#0054AC"/>
<path d="M59.5737 90.4762C66.2557 89.3455 70.7893 96.7681 66.984 102.203C66.2921 103.188 61.1577 108.367 60.2656 108.805C53.893 111.942 46.3553 104.446 50.4701 98.1359C51.3076 96.8411 56.351 91.7528 57.6801 91.1692C58.2628 90.8957 58.9364 90.5856 59.5737 90.4944V90.4762Z" fill="#0054AC"/>
</g>
<defs>
<clipPath id="clip0_358_3351">
<rect width="248" height="149" fill="white"/>
</clipPath>
</defs>
</svg>
