<svg width="433" height="256" viewBox="0 0 433 256" fill="none" xmlns="http://www.w3.org/2000/svg">
<g clip-path="url(#clip0_358_3117)">
<path d="M36.9938 7.31812C40.7992 5.25819 45.6103 5.23109 49.4429 7.26391C52.7319 8.86306 55.1238 11.8174 56.7547 15.0157C59.038 19.7048 59.799 24.9901 59.6903 30.1399C59.7719 35.344 59.5272 40.5751 59.8806 45.752C60.7232 45.752 61.5658 45.752 62.4084 45.752C62.4084 39.2741 62.5172 32.769 62.4084 26.2911C62.0823 19.1085 59.5544 11.6548 53.955 6.85734C49.6604 3.22537 43.4358 1.89726 38.0811 3.82166C33.0253 5.50213 29.2471 9.7304 27.0182 14.4194C24.5176 19.515 24.0011 25.2883 24.0827 30.8717C24.1642 35.8318 24.0011 40.7919 24.3001 45.752C25.1155 45.752 25.931 45.7249 26.7464 45.7249C26.7464 40.5209 26.8008 35.344 26.7736 30.1399C26.7736 24.963 27.3988 19.6235 29.7908 14.9615C31.476 11.8445 33.8136 8.97148 36.9938 7.31812Z" fill="#0054AC"/>
<path d="M86.4368 78.7651C83.2838 66.2971 80.2123 53.8291 76.8962 41.4153C76.4884 40.3854 75.374 39.6536 74.2324 39.762C70.9706 39.762 67.7088 39.7349 64.4471 39.8162C64.4471 41.7135 64.4471 43.6108 64.5014 45.5352C65.2353 45.752 66.4313 45.8605 66.4585 46.8633C66.4585 49.384 66.6488 51.9318 66.2954 54.4525C65.9692 56.8919 63.9306 59.1687 61.3484 59.1144C58.6846 59.2771 56.4557 56.9732 56.1839 54.4525C55.9121 51.6608 56.048 48.8419 56.1839 46.0502C56.646 45.8876 57.1353 45.7249 57.6245 45.5623C57.6245 43.665 57.6245 41.7677 57.6789 39.8975C54.091 39.6536 50.5302 39.8704 46.9422 39.7891C40.908 39.8433 34.9009 39.7078 28.8666 39.8704C28.8666 41.7948 28.8394 43.7192 28.9481 45.6436C29.5461 45.8333 30.4975 45.6436 30.7421 46.4296C30.878 48.1914 30.7421 49.9803 30.8237 51.7421C30.9052 53.8562 30.6062 56.1872 29.084 57.8134C27.4532 59.4939 24.4904 59.6565 22.6692 58.1658C21.2286 57.0003 20.5219 55.103 20.4675 53.287C20.386 51.0374 20.3045 48.7606 20.4947 46.511C20.4947 45.6978 21.5276 45.7791 22.0984 45.5081C22.0984 43.6379 22.0984 41.7406 22.18 39.8704C18.9182 39.762 15.6564 39.8162 12.4218 39.8162C11.3889 39.7349 10.492 40.4938 10.0842 41.3882C6.9312 53.6936 3.69661 65.9718 0.625106 78.2772C-0.489332 82.2615 -0.0272481 86.6524 1.84827 90.3386C4.15869 94.6482 8.42617 97.8736 13.2101 98.8493C15.1943 99.2559 17.2601 99.0662 19.2716 99.0933C36.3415 99.0933 53.3842 99.0933 70.4542 99.0933C73.879 99.1746 77.2495 98.0633 80.022 96.0847C85.4583 92.3714 88.1493 85.1617 86.464 78.7922L86.4368 78.7651Z" fill="#0054AC"/>
<path d="M22.7239 47.7849C22.588 49.9533 22.4249 52.1487 22.8054 54.3171C23.0501 55.862 24.4635 57.3527 26.1216 56.9733C27.5622 56.7564 28.3504 55.2657 28.5135 53.9647C28.6766 51.9048 28.5135 49.8177 28.5135 47.7307C26.5837 47.7849 24.6266 47.7307 22.6967 47.7578L22.7239 47.7849Z" fill="#0054AC"/>
<path d="M60.9406 56.9191C62.6802 57.1901 63.9849 55.5096 64.1752 53.9376C64.3655 51.8777 64.2024 49.8177 64.2296 47.7578C62.2181 47.7578 60.2067 47.7578 58.1953 47.7578C58.1953 49.6822 58.0866 51.6337 58.1953 53.5581C58.2768 55.076 59.2554 56.7564 60.9134 56.892L60.9406 56.9191Z" fill="#0054AC"/>
<path d="M148.574 0.0542086V5.80032H141.805C141.506 2.65622 142.077 1.08417 142.648 0L148.574 0.0542086Z" fill="#0054AC"/>
<path d="M148.845 7.91443V14.9344H140.8C140.066 12.7661 140.011 10.6249 140.636 8.45651C140.718 8.13126 141.017 7.91443 141.37 7.91443H148.845Z" fill="#0054AC"/>
<path d="M162.463 7.91443H150.938V14.9344H162.463V7.91443Z" fill="#0054AC"/>
<path d="M162.708 0.0812988H150.667V5.8003H162.708V0.0812988Z" fill="#0054AC"/>
<path d="M171.596 5.80032H164.828V0.0542086L170.754 0C171.324 1.08417 171.895 2.65622 171.596 5.80032Z" fill="#0054AC"/>
<path d="M172.602 14.9344H164.556V7.91443H172.602C173.39 10.2725 173.39 12.5764 172.602 14.9344Z" fill="#0054AC"/>
<path d="M138.19 17.0486C137.755 20.003 137.402 23.0657 137.103 26.3183C134.983 27.6735 133.026 29.2455 131.232 31.0344L134.521 20.1385C135.037 18.458 136.478 17.2654 138.19 17.0757V17.0486Z" fill="#0054AC"/>
<path d="M173.282 24.6107C172.466 24.2041 171.651 23.7976 170.781 23.4452C166.296 21.5479 161.566 20.5992 156.674 20.5992C151.781 20.5992 147.052 21.5479 142.567 23.4452C141.452 23.906 140.392 24.421 139.332 24.9901C139.604 22.2255 139.93 19.5693 140.311 17.0215H172.33C172.684 19.4609 172.983 21.9816 173.254 24.6107H173.282Z" fill="#0054AC"/>
<path d="M182.143 31.0344C180.131 29.0558 177.902 27.3211 175.51 25.8575C175.211 22.7676 174.885 19.8403 174.478 17.0215H174.641C176.571 17.0215 178.256 18.2683 178.827 20.1114L182.116 31.0344H182.143Z" fill="#0054AC"/>
<path d="M197.31 54.4796V58.9789C197.31 60.0631 196.44 60.9304 195.353 60.9304H192.662C192.662 60.9304 192.662 60.8762 192.662 60.8491C192.662 60.7949 192.662 60.7407 192.662 60.6865C192.662 60.5509 192.689 60.3883 192.716 60.2528C192.716 60.1986 192.716 60.1173 192.716 60.0631C192.716 59.9004 192.716 59.7378 192.744 59.6023C192.744 59.5481 192.744 59.4939 192.744 59.4668C192.744 59.2499 192.771 59.0602 192.771 58.8434C192.771 58.7892 192.771 58.7621 192.771 58.7078C192.771 58.5452 192.771 58.3826 192.771 58.22C192.771 58.1658 192.771 58.0844 192.771 58.0302C192.771 57.8947 192.771 57.7321 192.771 57.5966C192.771 57.5424 192.771 57.461 192.771 57.4068C192.771 57.19 192.771 57.0003 192.771 56.7834C192.771 56.5666 192.771 56.3769 192.771 56.16C192.771 56.1058 192.771 56.0245 192.771 55.9703C192.771 55.8348 192.771 55.6722 192.771 55.5366C192.771 55.4553 192.771 55.4011 192.771 55.3469C192.771 55.1843 192.771 55.0217 192.771 54.859C192.771 54.8048 192.771 54.7506 192.771 54.7235C192.771 54.5338 192.771 54.3169 192.744 54.1272C192.744 54.073 192.744 54.0188 192.744 53.9646C192.744 53.802 192.744 53.6664 192.716 53.5038C192.716 53.4225 192.716 53.3683 192.716 53.287C192.716 53.1515 192.689 52.9888 192.662 52.8533C192.662 52.7991 192.662 52.7178 192.662 52.6636C192.662 52.6636 192.662 52.6094 192.662 52.5823H195.353C196.413 52.5823 197.31 53.4496 197.31 54.5338V54.4796Z" fill="#0054AC"/>
<path d="M190.433 51.6608C190.025 48.869 189.237 46.1315 188.122 43.5024C186.41 39.4638 183.937 35.8048 180.811 32.6878C177.685 29.5708 174.042 27.1043 169.965 25.3967C165.752 23.6349 161.294 22.7134 156.674 22.7134C152.053 22.7134 147.595 23.6078 143.382 25.3967C139.332 27.1043 135.662 29.5708 132.536 32.6878C129.411 35.8048 126.937 39.4367 125.225 43.5024C123.458 47.7035 122.534 52.1486 122.534 56.7564C122.534 61.3641 123.431 65.8092 125.225 70.0104C126.937 74.0489 129.411 77.708 132.536 80.825C135.662 83.942 139.305 86.4084 143.382 88.116C147.595 89.8778 152.053 90.7993 156.674 90.7993C161.294 90.7993 165.752 89.9049 169.965 88.116C174.015 86.4084 177.685 83.942 180.811 80.825C183.937 77.708 186.41 74.076 188.122 70.0104C189.237 67.3812 189.998 64.6437 190.433 61.852C190.623 60.6323 190.732 59.3855 190.786 58.1116C190.786 57.8676 190.786 57.6508 190.786 57.4069C190.786 57.19 190.786 56.9732 190.786 56.7564C190.786 55.0488 190.65 53.3412 190.406 51.6879L190.433 51.6608ZM185.105 68.7094C183.556 72.3684 181.327 75.6481 178.5 78.4669C175.673 81.2857 172.384 83.5083 168.715 85.0532C164.91 86.6524 160.887 87.4655 156.728 87.4655C152.569 87.4655 148.519 86.6524 144.741 85.0532C141.071 83.5083 137.782 81.2857 134.956 78.4669C132.129 75.6481 129.9 72.3684 128.351 68.7094C126.747 64.9148 125.931 60.9033 125.931 56.7564C125.931 52.6094 126.747 48.5709 128.351 44.8034C129.9 41.1443 132.129 37.8647 134.956 35.0458C137.782 32.227 141.071 30.0044 144.741 28.4595C146.644 27.6464 148.601 27.0501 150.612 26.6435C152.624 26.2369 154.662 26.0472 156.755 26.0472C160.914 26.0472 164.964 26.8603 168.742 28.4595C172.412 30.0044 175.701 32.227 178.527 35.0458C181.354 37.8647 183.583 41.1443 185.132 44.8034C186.736 48.598 187.552 52.6094 187.552 56.7564C187.552 60.9033 186.736 64.9419 185.132 68.7094H185.105Z" fill="#0054AC"/>
<path d="M156.701 28.1072C140.854 28.1072 127.97 40.9546 127.97 56.7564C127.97 72.5582 140.854 85.4056 156.701 85.4056C172.548 85.4056 185.432 72.5582 185.432 56.7564C185.432 40.9546 172.548 28.1072 156.701 28.1072ZM171.297 47.0802L176.978 43.8006C177.495 43.5024 178.12 43.6921 178.419 44.18C178.718 44.695 178.528 45.3184 178.038 45.6165L172.357 48.8962C172.194 49.0046 172.004 49.0317 171.841 49.0317C171.488 49.0317 171.134 48.842 170.917 48.5167C170.618 48.0288 170.808 47.3783 171.297 47.0802ZM164.584 41.1172L167.873 35.4524C168.172 34.9375 168.797 34.7748 169.313 35.073C169.83 35.3711 169.993 35.9945 169.694 36.5095L166.405 42.1743C166.214 42.4996 165.861 42.6893 165.481 42.6893C165.29 42.6893 165.127 42.6351 164.964 42.5538C164.448 42.2556 164.285 41.6322 164.584 41.1172ZM155.804 32.742C155.804 32.1728 156.266 31.6849 156.864 31.6849C157.462 31.6849 157.924 32.1457 157.924 32.742V39.2741C157.924 39.8433 157.462 40.3312 156.864 40.3312C156.266 40.3312 155.804 39.8704 155.804 39.2741V32.742ZM131.83 56.5125C131.83 55.9433 132.292 55.4554 132.89 55.4554H139.441C140.012 55.4554 140.501 55.9162 140.501 56.5125C140.501 57.1088 140.039 57.5695 139.441 57.5695H132.89C132.319 57.5695 131.83 57.1088 131.83 56.5125ZM142.24 66.0803L136.56 69.3328C136.396 69.4412 136.206 69.4683 136.043 69.4683C135.69 69.4683 135.336 69.2786 135.119 68.9533C134.82 68.4384 135.01 67.815 135.499 67.5168L141.18 64.2643C141.67 63.9662 142.322 64.1559 142.621 64.6438C142.92 65.1587 142.73 65.7821 142.24 66.0803ZM142.703 48.4083C142.512 48.7335 142.159 48.9233 141.778 48.9233C141.588 48.9233 141.425 48.8691 141.262 48.7878L135.581 45.5352C135.092 45.2371 134.901 44.6137 135.2 44.0987C135.499 43.5837 136.125 43.4211 136.641 43.7192L142.322 46.9718C142.838 47.2699 143.002 47.8933 142.703 48.4083ZM148.954 72.0432L145.692 77.708C145.502 78.0333 145.149 78.223 144.768 78.223C144.578 78.223 144.415 78.1688 144.252 78.0875C143.735 77.7893 143.572 77.1659 143.871 76.651L147.133 70.9862C147.432 70.4712 148.057 70.3086 148.574 70.6067C149.09 70.9048 149.253 71.5282 148.954 72.0432ZM148.682 42.4725C148.519 42.5809 148.329 42.608 148.166 42.608C147.813 42.608 147.459 42.4182 147.242 42.093L143.953 36.4282C143.654 35.9132 143.844 35.2898 144.333 34.9917C144.823 34.6935 145.475 34.8833 145.774 35.3711L149.063 41.0359C149.362 41.5238 149.172 42.1743 148.682 42.4725ZM157.761 80.4185C157.761 80.9876 157.299 81.4755 156.701 81.4755C156.103 81.4755 155.641 81.0147 155.641 80.4185V73.8863C155.641 73.3171 156.103 72.8293 156.701 72.8293C157.299 72.8293 157.761 73.29 157.761 73.8863V80.4185ZM160.996 64.183C160.833 64.2643 160.642 64.3185 160.479 64.3185C160.126 64.3185 159.745 64.1288 159.555 63.7764L156.946 59.1958C156.946 59.1958 156.783 59.1958 156.701 59.1958C155.342 59.1958 154.227 58.0845 154.227 56.7293C154.227 55.7536 154.798 54.8862 155.641 54.5068V43.3398C155.641 42.7706 156.103 42.2827 156.701 42.2827C157.299 42.2827 157.761 42.7435 157.761 43.3398V54.5068C158.604 54.9133 159.174 55.7536 159.174 56.7293C159.174 57.2443 159.011 57.7322 158.74 58.1116L161.376 62.7465C161.675 63.2614 161.485 63.8848 160.996 64.183ZM169.177 78.1688C169.014 78.2772 168.824 78.3043 168.661 78.3043C168.307 78.3043 167.954 78.1146 167.737 77.7893L164.475 72.1245C164.176 71.6096 164.366 70.9862 164.855 70.688C165.372 70.3899 165.997 70.5796 166.296 71.0675L169.558 76.7323C169.857 77.2473 169.667 77.8707 169.177 78.1688ZM178.337 69.0889C178.147 69.4141 177.794 69.6038 177.413 69.6038C177.223 69.6038 177.06 69.5496 176.897 69.4683L171.216 66.1887C170.699 65.8906 170.536 65.2672 170.835 64.7522C171.134 64.2372 171.759 64.0746 172.276 64.3727L177.957 67.6523C178.473 67.9505 178.636 68.5739 178.337 69.0889ZM180.675 57.7051H177.767V59.4397C177.767 60.0089 177.304 60.4968 176.706 60.4968H167.519C166.948 60.4968 166.459 60.036 166.459 59.4397V53.8563C166.459 53.2871 166.921 52.7992 167.519 52.7992H176.706C177.277 52.7992 177.767 53.26 177.767 53.8563V55.5909H180.675C181.246 55.5909 181.735 56.0517 181.735 56.648C181.735 57.2443 181.273 57.7051 180.675 57.7051Z" fill="#0054AC"/>
<path d="M182.115 82.4784L178.854 93.293C178.337 94.9735 176.897 96.1661 175.184 96.3558C175.592 93.4014 175.945 90.3928 176.244 87.1674C178.337 85.8122 180.294 84.2673 182.115 82.4784Z" fill="#0054AC"/>
<path d="M174.015 88.4684C173.744 91.2059 173.417 93.8079 173.064 96.3557H141.044C140.691 93.9163 140.392 91.4499 140.12 88.8478C140.936 89.2544 141.751 89.661 142.594 90.0133C147.051 91.9106 151.808 92.8593 156.701 92.8593C161.593 92.8593 166.323 91.9106 170.808 90.0133C171.922 89.5526 172.982 89.0376 174.015 88.4684Z" fill="#0054AC"/>
<path d="M138.897 96.3558H138.734C136.804 96.3558 135.119 95.109 134.548 93.2659L131.286 82.4513C133.298 84.4299 135.499 86.1375 137.891 87.6011C138.19 90.6639 138.516 93.5641 138.924 96.3558H138.897Z" fill="#0054AC"/>
<path d="M174.64 104.948C174.559 105.273 174.26 105.49 173.907 105.49H166.432V98.4698H174.477C175.211 100.638 175.266 102.779 174.64 104.948Z" fill="#0054AC"/>
<path d="M164.339 98.4698H152.814V105.49H164.339V98.4698Z" fill="#0054AC"/>
<path d="M150.721 98.4698V105.49H142.675C141.887 103.132 141.887 100.828 142.675 98.4698H150.721Z" fill="#0054AC"/>
<path d="M150.449 107.604V113.35L144.523 113.404C143.953 112.32 143.382 110.748 143.681 107.604H150.449Z" fill="#0054AC"/>
<path d="M164.583 107.604H152.542V113.323H164.583V107.604Z" fill="#0054AC"/>
<path d="M172.629 113.404L166.704 113.35V107.604H173.472C173.771 110.748 173.2 112.32 172.629 113.404Z" fill="#0054AC"/>
<path d="M175.673 54.9133H168.579V58.4098H175.673V54.9133Z" fill="#0054AC"/>
<path d="M252.461 33.0672C252.461 32.3625 251.89 31.7933 251.211 31.7933H243.111C242.404 31.7933 241.833 32.3625 241.833 33.0672V41.6051H252.461V33.0672Z" fill="#0054AC"/>
<path d="M255.614 48.3269H232.945V84.8635C232.945 87.4926 235.092 89.6338 237.729 89.6338H259.365C253.358 83.8606 249.634 75.7564 249.634 66.812C249.634 59.9275 251.836 53.5309 255.614 48.3269Z" fill="#0054AC"/>
<path d="M317.098 35.7776H300.626L293.695 26.535C293.342 26.1014 292.798 25.8032 292.227 25.8032H270.672C270.102 25.8032 269.558 26.0743 269.232 26.535L262.301 35.7776H237.701C235.065 35.7776 232.917 37.9188 232.917 40.548V44.722H258.577C264.366 38.7591 272.494 35.0458 281.436 35.0458C290.379 35.0458 298.506 38.7591 304.296 44.722H321.855V40.548C321.855 37.9188 319.708 35.7776 317.071 35.7776H317.098Z" fill="#0054AC"/>
<path d="M313.32 66.812C313.32 75.7564 309.569 83.8606 303.562 89.6338H317.071C319.708 89.6338 321.855 87.4926 321.855 84.8635V48.3269H307.313C311.064 53.5309 313.293 59.9275 313.293 66.812H313.32Z" fill="#0054AC"/>
<path d="M281.491 50.929C272.711 50.929 265.562 58.0574 265.562 66.8121C265.562 75.5667 272.711 82.6952 281.491 82.6952C290.27 82.6952 297.419 75.5667 297.419 66.8121C297.419 58.0574 290.27 50.929 281.491 50.929ZM273.01 66.8121C269.884 61.9333 276.598 55.2385 281.491 58.3555C277.794 60.7678 275.429 63.1259 273.01 66.8121Z" fill="#0054AC"/>
<path d="M281.491 38.6508C265.916 38.6508 253.249 51.2814 253.249 66.8121C253.249 82.3429 265.916 94.9735 281.491 94.9735C297.065 94.9735 309.732 82.3429 309.732 66.8121C309.732 51.2814 297.065 38.6508 281.491 38.6508ZM281.491 86.273C270.727 86.273 261.947 77.5454 261.947 66.785C261.947 56.0246 270.699 47.297 281.491 47.297C292.282 47.297 301.034 56.0246 301.034 66.785C301.034 77.5454 292.282 86.273 281.491 86.273Z" fill="#0054AC"/>
<path d="M401.171 39.1115L394.674 45.8333C408.455 46.1586 419.518 57.4611 419.518 71.2571C419.518 85.0532 408.075 96.7352 393.967 96.7352C379.86 96.7352 368.417 85.3243 368.417 71.2571C368.417 57.19 379.48 46.1586 393.261 45.8333L386.982 39.3554L386.764 39.1115C371.951 42.3098 360.888 55.4553 360.888 71.23C360.888 89.4983 375.702 104.27 393.967 104.27C412.233 104.27 427.047 89.4983 427.047 71.23C427.047 55.5095 416.012 42.364 401.171 39.1115Z" fill="#0054AC"/>
<path d="M374.777 24.692L390.814 41.3341L390.162 39.8975L382.796 24.692H374.777Z" fill="#0054AC"/>
<path d="M413.239 24.692H405.166L397.121 41.3612L399.947 38.4339L413.239 24.692Z" fill="#0054AC"/>
<path d="M374.288 22.9574H382.986L391.874 13.9858H379.806L374.288 22.9574Z" fill="#0054AC"/>
<path d="M413.728 22.9574L408.156 13.9858H396.033L404.976 22.9574H413.728Z" fill="#0054AC"/>
<path d="M392.472 40.6564C392.472 40.6564 392.527 40.7107 392.554 40.7649L393.995 43.8547L396.278 39.1386L403.236 24.692H384.753L392.391 40.5751L392.472 40.6564Z" fill="#0054AC"/>
<path d="M385.433 22.9573H402.53L393.968 14.3381L385.433 22.9573Z" fill="#0054AC"/>
<path d="M39.2771 148.965C40.0382 149.155 40.7993 149.29 41.5876 149.453C39.848 156.31 38.1083 163.168 36.3416 169.998C37.157 170.893 37.8365 171.895 38.5976 172.817C40.2829 175.012 42.0768 177.099 43.7349 179.295C44.1698 177.262 44.5503 175.202 44.9581 173.142C46.3987 165.336 47.8665 157.53 49.2255 149.697C50.1497 149.914 51.1011 150.104 52.0252 150.266C52.2155 150.835 52.5417 151.432 53.1125 151.703C54.2541 152.435 55.9665 152.028 56.5645 150.781C57.2712 149.589 56.6733 147.881 55.3957 147.393C54.39 146.905 53.1397 147.285 52.4601 148.152C51.5088 147.935 50.5303 147.718 49.5517 147.529C49.7692 146.445 49.9051 145.333 50.0138 144.249C50.9108 144.439 51.7806 144.656 52.6776 144.791C52.8679 145.442 53.3028 146.065 53.9279 146.363C54.9608 146.878 56.3471 146.553 56.9994 145.577C57.7605 144.547 57.4615 142.948 56.4558 142.216C55.4229 141.43 53.8192 141.647 53.0309 142.677C52.1068 142.46 51.1826 142.216 50.2313 142.054C50.2313 141.755 50.2313 141.457 50.2313 141.159C50.639 140.726 50.938 140.238 51.3185 139.777C51.7806 139.641 52.3514 139.967 52.7863 139.614C53.493 139.018 53.8192 138.096 53.9823 137.229C54.0638 136.524 54.091 135.765 53.7377 135.115C53.4387 134.681 52.8407 134.79 52.433 134.6C52.0524 134.112 51.7534 133.543 51.7262 132.892C51.6719 132.242 51.5088 131.429 50.8021 131.212C49.9051 130.968 49.0081 130.832 48.1111 130.697C47.35 130.589 46.6977 131.212 46.3443 131.808C46.0181 132.405 45.5289 132.892 44.9581 133.272C44.4688 133.109 43.8164 132.947 43.4631 133.407C42.4846 134.519 42.2399 136.145 42.6205 137.554C42.7564 138.205 43.5174 138.232 44.0339 138.422C44.0339 138.991 44.0339 139.587 44.4144 140.048C44.197 140.59 43.9795 141.105 43.8164 141.674C42.9466 141.484 42.104 141.349 41.2342 141.159C40.9624 139.75 39.3315 138.855 37.9724 139.397C36.4775 139.885 35.8795 141.918 36.858 143.138C37.7006 144.412 39.7936 144.466 40.6906 143.219C41.506 143.355 42.2943 143.599 43.1369 143.707C42.8379 144.927 42.4574 146.119 42.1584 147.339C41.3429 147.149 40.5003 146.96 39.6849 146.797C39.3859 145.225 37.3201 144.52 36.0426 145.415C34.7379 146.173 34.5476 148.152 35.6348 149.182C36.6134 150.212 38.4617 150.077 39.3043 148.911L39.2771 148.965Z" fill="#0054AC"/>
<path d="M23.104 173.007C23.6748 172.6 24.3 172.275 24.9524 172.031C23.6476 170.242 22.207 168.562 20.8751 166.8C16.0912 160.783 11.2529 154.847 6.49617 148.803C8.01833 148.288 9.51331 147.637 11.0355 147.122C15.004 152.001 18.8637 156.934 22.8322 161.813C29.1927 169.781 35.4444 177.831 41.8592 185.746C45.4743 190.272 49.1166 194.826 52.7589 199.325C56.9449 204.61 61.158 209.869 65.4527 215.073C66.2137 214.422 67.002 213.826 67.8175 213.229C64.4741 209.137 61.2124 204.99 57.8962 200.843C53.8462 195.856 49.8777 190.787 45.8549 185.773C37.4014 175.283 29.1111 164.686 20.6849 154.196C17.7493 150.429 14.6778 146.77 11.715 143.029C11.3616 142.542 10.7908 142.189 10.1657 142.325C7.28443 142.758 4.4032 143.273 1.49479 143.707C1.14143 143.707 0.815252 143.951 0.706526 144.276C0.40753 144.764 0.923977 145.198 1.19579 145.577C3.77803 148.748 6.3059 151.974 8.86095 155.172C13.6449 161.108 18.4016 167.071 23.1584 173.007H23.104Z" fill="#0054AC"/>
<path d="M53.0582 222.77C52.3243 222.499 51.5361 222.662 50.775 222.418C49.0897 222.011 47.9209 220.575 47.2414 219.057C45.9367 216.211 46.0998 212.877 47.0511 209.95C47.5948 208.324 48.6005 206.643 50.3401 206.155C51.2099 205.857 52.0797 206.155 52.9495 206.237C53.6018 206.291 54.0911 205.667 54.1998 205.098C53.9552 204.61 53.5747 204.231 53.2213 203.797C51.8894 202.09 50.5303 200.382 49.1713 198.674C47.3773 196.506 45.692 194.256 43.8709 192.115C43.2729 195.314 42.6477 198.485 42.0497 201.683C41.8323 202.767 41.642 203.933 40.9081 204.8C40.1199 205.83 38.7336 206.237 37.4561 206.155C35.8252 206.074 34.2215 205.694 32.645 205.369C31.2044 205.017 29.655 204.746 28.3775 203.96C26.9912 203.12 26.4748 201.304 26.8553 199.786C27.698 196.072 28.6493 192.413 29.5191 188.7C30.3889 184.933 31.3131 181.192 32.2101 177.425C31.0141 176.015 29.9268 174.47 28.7037 173.088C25.3875 174.01 22.2617 175.853 20.1143 178.563C17.8855 181.328 16.7438 184.878 16.6895 188.402C16.6351 189.838 16.7982 191.275 16.6895 192.712C16.5808 193.904 16.1187 195.124 15.1673 195.883C14.6237 196.262 14.2432 197.021 14.6237 197.644C15.0586 198.376 16.0371 198.159 16.7438 198.458C18.4019 199 19.3261 200.734 19.4076 202.388C19.5163 204.475 19.0271 206.535 18.2388 208.459C17.2875 210.682 15.6294 212.769 13.319 213.717C12.0686 214.232 10.6552 214.124 9.43204 213.609C8.88841 213.338 8.10015 213.419 7.80115 213.988C7.42061 214.585 7.71961 215.262 7.90988 215.886C8.39915 217.431 7.71961 219.03 6.93135 220.358C5.73537 222.364 4.34911 224.288 3.42495 226.456C1.7397 230.197 1.08734 234.452 1.84842 238.491C2.28333 240.849 3.2075 243.098 4.62093 245.05C6.46927 247.652 9.02432 249.739 11.8512 251.23C14.6509 252.775 17.6952 253.75 20.7667 254.536C20.7123 254.021 20.7395 253.506 20.8754 252.991C21.3375 251.23 21.8539 249.468 22.1258 247.679C22.8053 243.478 22.0442 239.222 22.2889 234.994C22.3432 234.262 22.5878 233.449 23.2674 233.07C24.0285 232.609 24.9526 232.772 25.7953 232.907C27.4533 233.205 29.0842 233.531 30.7151 233.964C31.5034 234.154 32.346 234.642 32.5362 235.509C32.7537 236.404 32.2916 237.298 31.9654 238.111C30.6335 241.282 29.0027 244.372 27.9154 247.652C27.2631 249.712 26.9369 251.853 26.5835 253.994C26.502 254.509 26.3661 255.024 26.1214 255.512C29.0842 255.919 32.0742 256.19 35.0641 255.946C38.2443 255.729 41.4246 254.889 44.1971 253.263C46.3444 252.016 48.2199 250.281 49.6062 248.221C51.4273 245.565 52.4874 242.394 52.8136 239.195C53.1126 236.566 52.8136 233.883 52.3515 231.281C52.1069 229.655 51.7535 227.947 52.3515 226.348C52.5961 225.589 53.2213 225.074 53.6834 224.451C54.0639 223.909 53.8193 223.014 53.1941 222.797L53.0582 222.77ZM26.8553 211.332C26.3389 211.034 26.3661 210.411 26.2302 209.923C26.0127 209.381 25.2788 209.326 24.8439 209.625C23.9197 210.167 23.4848 211.224 23.1043 212.2C22.316 214.368 22.017 216.672 21.1472 218.786C20.5764 220.222 19.761 221.659 18.4291 222.526C17.3418 223.231 15.8469 223.421 14.6781 222.743C13.3733 222.038 12.8297 220.385 13.1287 219.003C13.2103 218.461 13.6995 218.027 14.2432 217.973C14.7324 217.891 15.1945 218.271 15.3848 218.705C15.6294 219.165 15.3848 219.68 15.4663 220.168C15.6566 220.71 16.3089 220.981 16.8254 220.737C17.8855 220.277 18.4291 219.165 18.864 218.162C19.761 215.831 20.1143 213.311 21.0657 211.007C21.718 209.354 22.8597 207.673 24.6808 207.185C25.5778 206.968 26.5563 207.131 27.2902 207.673C28.16 208.269 28.6221 209.354 28.6221 210.384C28.5678 211.197 27.5349 211.847 26.8281 211.305L26.8553 211.332ZM46.3716 226.782C45.6377 228.218 43.8165 229.085 42.2672 228.489C41.0712 228.083 40.2014 227.026 39.7665 225.86C39.1957 224.261 39.2501 222.526 39.4675 220.846C39.7121 218.677 40.3373 216.563 40.2286 214.368C40.1742 213.663 40.0111 212.877 39.4403 212.389C39.1413 212.064 38.5705 212.091 38.2443 212.389C37.9725 212.687 37.8094 213.094 37.4561 213.257C36.9396 213.528 36.2601 213.338 35.9611 212.85C35.6893 212.471 35.7165 211.956 35.9339 211.576C36.3688 210.709 37.2386 210.058 38.19 209.869C39.3588 209.597 40.5819 210.085 41.343 210.98C42.3759 212.118 42.6477 213.744 42.5934 215.235C42.5934 217.864 41.7236 220.412 41.6692 223.068C41.6692 224.153 41.8051 225.399 42.7021 226.131C43.1098 226.538 43.8709 226.456 44.1971 225.968C44.4145 225.535 44.4417 224.939 44.9582 224.695C45.5018 224.288 46.2629 224.559 46.5619 225.101C46.888 225.643 46.6434 226.294 46.3716 226.809V226.782Z" fill="#0054AC"/>
<path d="M46.9149 175.907C46.5072 177.858 46.1538 179.864 45.7461 181.816C47.3498 183.686 48.8176 185.664 50.3669 187.562C52.2696 190.001 54.2267 192.359 56.1566 194.799C56.673 192.955 56.972 191.031 56.7817 189.134C56.5371 186.044 55.2324 183.089 53.2753 180.731C51.5901 178.644 49.334 177.099 46.9421 175.934L46.9149 175.907Z" fill="#0054AC"/>
<path d="M34.0854 179.973C32.4545 186.722 30.8508 193.498 29.1928 200.247C28.9481 200.951 29.1928 201.819 29.8995 202.171C30.9052 202.659 32.0468 202.821 33.1341 203.092C34.629 203.391 36.124 203.743 37.6462 203.879C38.4344 203.987 39.2771 203.472 39.413 202.659C40.3371 198.349 41.0982 193.985 41.9408 189.649C39.6848 186.938 37.4559 184.147 35.2542 181.382C34.8465 180.921 34.5475 180.379 34.0854 179.973Z" fill="#0054AC"/>
<path d="M54.0909 208.459C53.1667 208.757 52.1882 208.54 51.2368 208.459C54.7976 212.85 58.304 217.295 61.9191 221.632C62.4356 221.144 62.9792 220.71 63.5772 220.304C60.397 216.374 57.2167 212.443 54.0637 208.459H54.0909Z" fill="#0054AC"/>
<path d="M66.3768 217.295C66.1594 217.431 66.4584 217.647 66.5399 217.783C67.8446 219.355 69.1765 220.927 70.5084 222.499C70.9433 223.041 71.5413 223.583 71.5413 224.342C71.5957 225.101 71.1064 225.887 70.3725 226.104C69.6386 226.402 68.796 226.104 68.3067 225.508C67.2738 224.315 66.404 222.96 65.3711 221.767C64.7188 222.364 64.0121 222.851 63.3325 223.394C65.3711 226.05 67.5728 228.57 69.6386 231.2C70.2094 231.877 70.7259 232.609 71.351 233.26C72.3839 234.262 74.0964 234.398 75.2923 233.666C76.2437 233.07 77.1407 232.365 78.0377 231.687C79.8588 233.829 81.5984 235.997 83.4468 238.111C84.5068 237.488 85.5126 236.756 86.3824 235.862C80.8102 228.842 75.0205 221.984 69.4212 214.964C68.3883 215.696 67.3826 216.482 66.3768 217.295Z" fill="#0054AC"/>
<path d="M197.093 213.067C197.093 197.021 187.362 183.225 173.472 177.235C170.645 176.015 170.101 172.248 172.521 170.35L178.582 165.634L180.077 162.273C180.593 161.135 179.751 159.834 178.473 159.834H137.348C136.07 159.834 135.228 161.135 135.744 162.273L137.239 165.634L143.301 170.35C145.747 172.248 145.203 176.015 142.349 177.235C128.459 183.225 118.729 196.994 118.729 213.067C118.729 226.565 125.605 238.491 136.07 245.484V245.727C136.07 247.815 137.783 249.522 139.876 249.522H175.429C177.522 249.522 179.234 247.815 179.234 245.727C189.917 238.762 196.984 226.727 196.984 213.067H197.093Z" fill="#0054AC"/>
<path d="M280.784 171.164L274.07 158.587H287.471L280.757 171.164H280.784ZM234.63 204.366C231.45 199.488 229.656 194.555 229.031 192.657L254.309 163.791L270.727 158.912L278.827 174.118L254.989 194.69V178.97C254.989 178.102 254.309 177.425 253.44 177.425C252.57 177.425 251.89 178.102 251.89 178.97V216.374C245.312 215.831 239.496 211.793 234.63 204.366ZM306.579 216.428H254.989V199.135H306.579V216.428ZM254.989 248.357V219.518H306.579V248.357H254.989ZM326.965 204.285C322.1 211.766 316.283 215.804 309.678 216.346V178.942C309.678 178.075 308.998 177.398 308.129 177.398C307.259 177.398 306.579 178.075 306.579 178.942V196.018H258.169L281.654 175.744C281.926 175.554 282.116 175.311 282.225 175.039L290.841 158.885L307.259 163.764L332.538 192.63C331.912 194.5 330.146 199.379 326.965 204.258V204.285Z" fill="#0054AC"/>
<path d="M433 163.276V158.072H427.727C427.727 159.78 426.341 161.162 424.628 161.162C422.916 161.162 421.502 159.78 421.502 158.072H416.827C416.827 159.78 415.441 161.162 413.701 161.162C411.962 161.162 410.602 159.78 410.602 158.072H405.927C405.927 159.78 404.541 161.162 402.801 161.162C401.062 161.162 399.703 159.78 399.703 158.072H395.028C395.028 159.78 393.641 161.162 391.929 161.162C390.216 161.162 388.83 159.78 388.83 158.072H384.155C384.155 159.78 382.769 161.162 381.056 161.162C379.344 161.162 377.958 159.78 377.958 158.072H373.282C373.282 159.78 371.896 161.162 370.184 161.162C368.471 161.162 367.058 159.78 367.058 158.072H361.785V163.276C363.606 163.331 365.046 164.794 365.046 166.61C365.046 168.426 363.579 169.89 361.785 169.944V175.012C363.606 175.067 365.046 176.53 365.046 178.346C365.046 180.162 363.579 181.626 361.785 181.68V186.749C363.606 186.803 365.046 188.266 365.046 190.082C365.046 191.898 363.579 193.362 361.785 193.416V198.485C363.606 198.539 365.046 200.003 365.046 201.819C365.046 203.635 363.579 205.098 361.785 205.152V210.221C363.606 210.275 365.046 211.739 365.046 213.555C365.046 215.371 363.579 216.834 361.785 216.889V221.957C363.606 222.011 365.046 223.475 365.046 225.291C365.046 227.107 363.579 228.571 361.785 228.625V233.693C363.606 233.747 365.046 235.211 365.046 237.027C365.046 238.843 363.579 240.307 361.785 240.361V245.565H367.058C367.058 243.857 368.444 242.475 370.184 242.475C371.923 242.475 373.282 243.857 373.282 245.565H377.958C377.958 243.857 379.344 242.475 381.056 242.475C382.769 242.475 384.155 243.857 384.155 245.565H388.83C388.83 243.857 390.216 242.475 391.929 242.475C393.641 242.475 395.028 243.857 395.028 245.565H399.703C399.703 243.857 401.089 242.475 402.801 242.475C404.514 242.475 405.927 243.857 405.927 245.565H410.602C410.602 243.857 411.989 242.475 413.701 242.475C415.414 242.475 416.827 243.857 416.827 245.565H421.502C421.502 243.857 422.888 242.475 424.628 242.475C426.368 242.475 427.727 243.857 427.727 245.565H433V240.361C431.179 240.307 429.738 238.843 429.738 237.027C429.738 235.211 431.206 233.747 433 233.693V228.625C431.179 228.571 429.738 227.107 429.738 225.291C429.738 223.475 431.206 222.011 433 221.957V216.889C431.179 216.834 429.738 215.371 429.738 213.555C429.738 211.739 431.206 210.275 433 210.221V205.152C431.179 205.098 429.738 203.635 429.738 201.819C429.738 200.003 431.206 198.539 433 198.485V193.416C431.179 193.362 429.738 191.898 429.738 190.082C429.738 188.266 431.206 186.803 433 186.749V181.68C431.179 181.626 429.738 180.162 429.738 178.346C429.738 176.53 431.206 175.067 433 175.012V169.944C431.179 169.89 429.738 168.426 429.738 166.61C429.738 164.794 431.206 163.331 433 163.276ZM424.764 236.675H369.912V166.935H424.764V236.675Z" fill="#0054AC"/>
<path d="M423.351 168.318H371.298V235.265H423.351V168.318Z" fill="#0054AC"/>
</g>
<defs>
<clipPath id="clip0_358_3117">
<rect width="433" height="256" fill="white"/>
</clipPath>
</defs>
</svg>
