<svg width="201" height="206" viewBox="0 0 201 206" fill="none" xmlns="http://www.w3.org/2000/svg">
<g clip-path="url(#clip0_358_3375)">
<path d="M-0.419095 91.1361C-0.319966 97.483 -0.584309 103.863 -0.386052 110.21C-0.336488 113.054 1.86087 115.767 4.70256 116.244C11.5094 117.576 18.3823 118.563 25.1726 120.026C27.0726 125.83 29.4352 131.454 31.9795 137.012C28.5595 142.421 24.8918 147.667 21.2901 152.961C19.5388 155.477 19.324 159.226 21.5875 161.479C25.6518 165.918 30.0795 170.012 34.2264 174.353C35.9281 176.047 37.7455 178.152 40.3393 178.152C43.561 178.563 46.0723 176.261 48.5174 174.584C52.7965 171.443 57.2903 168.582 61.7511 165.671C67.071 168.549 72.6883 170.851 78.4213 172.725C79.8917 179.105 81.3125 185.485 82.6673 191.881C83.1134 194.726 85.1455 197.719 88.235 197.965C95.1575 198.376 102.08 198.113 109.002 198.064C113.298 198.623 117.131 195.236 117.412 190.993C118.684 184.844 120.121 178.727 121.427 172.577C127.209 170.67 133.091 168.878 138.46 165.935C143.797 169.19 148.819 172.89 153.974 176.425C156.667 178.398 160.896 178.76 163.309 176.195C167.802 171.903 172.065 167.398 176.658 163.205C178.227 161.725 180.078 160.097 180.193 157.779C180.441 155.362 179.053 153.241 177.798 151.3C174.593 146.499 171.487 141.665 168.199 136.913C170.908 131.52 172.957 125.847 174.973 120.158C181.862 118.398 188.917 117.494 195.889 116.129C198.813 115.406 200.465 112.199 200.383 109.355C200.399 102.465 200.383 95.5921 200.449 88.719C200.68 85.8908 198.78 82.8982 195.856 82.4049C188.9 81.0237 181.862 80.07 174.923 78.5902C172.61 72.9174 170.776 67.0309 167.687 61.6869C170.677 56.9514 174.014 52.4296 177.17 47.8092C178.525 45.7867 180.408 43.7807 180.226 41.1663C180.309 38.3545 178.145 36.2499 176.261 34.474C171.801 30.4455 167.835 25.9073 163.342 21.8953C161.177 19.8235 157.592 19.5768 155.114 21.254C149.629 25.0194 144.276 29.0314 138.526 32.3693C132.843 29.9029 127.275 26.8939 121.278 25.0358C119.923 18.4587 118.486 11.8816 117.015 5.32087C116.454 2.34471 113.926 -0.236816 110.787 -0.335473C103.864 -0.697215 96.9088 -0.450573 89.9863 -0.417687C86.8803 -0.499901 83.7247 1.65411 83.0308 4.72892C81.3291 11.4869 80.156 18.36 78.4048 25.1016C72.7379 27.2885 67.2032 29.7714 61.8833 32.6818C56.2825 28.9657 50.7148 25.2003 45.1966 21.3526C42.5862 19.4124 38.4889 19.3466 36.2255 21.8624C31.4508 26.6801 26.6265 31.4485 21.8683 36.2663C19.5884 38.4039 19.258 42.0871 20.9927 44.6521C24.71 50.4729 29.2039 55.8004 32.6403 61.8185C29.7986 67.2282 27.7665 72.9996 25.4039 78.6231C18.6632 80.1687 11.8233 81.1059 5.01646 82.2569C0.539149 82.4049 -0.93126 87.3871 -0.435616 91.1032L-0.419095 91.1361ZM49.0792 75.8935C54.0026 65.1728 62.5772 56.195 72.8205 50.3249C84.402 43.6162 98.4618 41.6431 111.547 44.2246C125.276 46.8884 137.585 55.2578 145.829 66.3896C160.136 85.2166 160.368 113.646 145.68 132.325C136.246 144.773 121.509 153.487 105.731 154.49C92.5306 155.74 78.8343 152.402 67.9467 144.806C57.9347 137.932 50.2687 127.721 46.5679 116.195C42.1567 103.074 43.4288 88.423 49.0792 75.8771V75.8935Z" fill="#0054AC"/>
<mask id="mask0_358_3375" style="mask-type:luminance" maskUnits="userSpaceOnUse" x="43" y="43" width="114" height="112">
<path d="M49.079 75.8936C54.0024 65.1728 62.577 56.195 72.8203 50.3249C84.4019 43.6163 98.4616 41.6431 111.547 44.2246C125.276 46.8884 137.584 55.2578 145.829 66.3896C160.136 85.2167 160.368 113.646 145.68 132.325C136.246 144.773 121.509 153.487 105.731 154.49C92.5304 155.74 78.8341 152.402 67.9465 144.806C57.9345 137.932 50.2685 127.721 46.5677 116.195C42.1565 103.074 43.4287 88.423 49.079 75.8771V75.8936Z" fill="white"/>
</mask>
<g mask="url(#mask0_358_3375)">
<path fill-rule="evenodd" clip-rule="evenodd" d="M99.7518 93.5366C110.772 93.5366 119.726 84.6246 119.726 73.6572C119.726 62.6899 110.772 53.7778 99.7518 53.7778C88.732 53.7778 79.7773 62.6899 79.7773 73.6572C79.7773 84.6246 88.732 93.5366 99.7518 93.5366ZM84.0729 71.8814C93.7875 71.7005 101.982 66.9486 105.997 62.3117C107.401 65.3536 110.887 68.9217 115.067 69.8754C115.365 71.0921 115.546 72.3582 115.546 73.6572C115.546 82.3226 108.459 89.3766 99.7518 89.3766C91.045 89.3766 83.9573 82.3226 83.9573 73.6572C83.9573 73.0488 84.0068 72.4569 84.0729 71.865V71.8814Z" fill="#0054AC"/>
<path fill-rule="evenodd" clip-rule="evenodd" d="M118.106 94.0791H114.124C113.81 94.2929 113.48 94.4902 113.15 94.7039V101.347L104.03 127.343V110.44C104.03 109.486 103.253 108.713 102.295 108.713H97.322C96.3638 108.713 95.5873 109.486 95.5873 110.44V127.573L86.3848 101.347V94.7039C86.0544 94.5066 85.724 94.2929 85.4101 94.0791H81.4284C70.2764 94.0791 61.2227 103.073 61.2227 114.189L66.0304 163.451C66.4434 167.612 69.946 170.769 74.1424 170.769H77.3311L82.5023 242.394C82.8327 246.965 86.6492 250.5 91.2587 250.5H108.259C112.869 250.5 116.685 246.965 117.016 242.394L122.187 170.769H125.375C129.572 170.769 133.074 167.595 133.487 163.451L138.295 114.189C138.295 103.09 129.258 94.0791 118.089 94.0791H118.106Z" fill="#0054AC"/>
<path fill-rule="evenodd" clip-rule="evenodd" d="M94.2972 95.5098C92.8764 95.5098 91.8851 96.9074 92.3642 98.2393L95.1233 106.033C95.4207 106.855 96.1972 107.398 97.0563 107.398H102.558C103.434 107.398 104.21 106.855 104.491 106.033L107.25 98.2393C107.713 96.9074 106.721 95.5098 105.317 95.5098H94.2972Z" fill="#0054AC"/>
</g>
</g>
<defs>
<clipPath id="clip0_358_3375">
<rect width="201" height="206" fill="white"/>
</clipPath>
</defs>
</svg>
