<svg width="1049" height="374" viewBox="0 0 1049 374" fill="none" xmlns="http://www.w3.org/2000/svg">
<path d="M435.422 -151.07L430.472 -151.41L428.212 -147.04L427.052 -139.32L421.202 -131.6L410.292 -131.34L401.172 -140.2V-148.45L393.332 -149.72L392.022 -152.46L378.542 -152.39L376.692 -149.87L369.192 -154.15L370.312 -159.52L346.162 -160.16L344.702 -160.13L343.732 -139.01L343.832 -135.97L343.402 -128.7L337.902 -122.8L327.902 -118.84L313.702 -121.8L306.632 -125.16H299.192L293.502 -131.46L277.362 -131.34L260.472 -133.95H258.792L253.092 -129.92L247.722 -118.85L239.002 -109.12L234.972 -104.76L236.982 -89.3301L241.012 -83.9601H231.622L230.282 -81.6101H216.192L210.822 -78.2501L206.792 -75.2301L203.772 -72.8801L189.342 -73.5502L186.372 -69.1802H184.312L183.762 -61.6602L188.272 -58.2301L188.332 -54.0901L187.322 -51.0701L180.132 -44.5602L178.602 -38.6602L179.612 -32.6201L186.662 -29.6001L190.412 -23.4701L189.472 -16.3102L189.352 -12.8201L193.382 -10.1401V-4.44006H189.022L189.692 2.07983L191.702 3.2699L191.762 7.67993L188.682 12.9999L196.062 16.3599L209.482 17.6998L215.642 12.9299L222.232 8.30994L230.122 9.3999L243.702 1.92993L257.462 -6.12012L264.842 -7.13013L274.342 -17.1901H274.232L283.762 -18.5901L292.012 -19.8801L290.722 -24.3201L301.292 -18.6501L312.142 -16.9801L322.642 -14.8401L329.742 -4.02014L335.632 2.93982V9.6499L342.382 16.7799L352.232 20.1998L358.292 27.3599L363.342 35.8398L369.522 37.6499L375.352 33.1099L381.602 26.8398L386.962 25.7599L386.882 13.5999L390.392 18.7799L403.082 22.7499L416.582 23.0698H416.482L418.162 19.7098L422.192 19.0399L429.572 16.0199L438.292 10.6499L444.662 3.59985L447.012 2.25989L446.002 -12.5001L448.682 -20.8901L447.672 -44.0402L453.042 -48.7401L454.052 -66.5201L452.372 -75.2401V-104.43L449.692 -107.45L450.362 -130.26L443.992 -136.97L437.952 -142.34L435.432 -151.08L435.422 -151.07Z" fill="#7AA6D4"/>
<path d="M187.23 -50.99L180.27 -44.45L178.68 -38.58L179.77 -32.62L186.65 -29.6L190.34 -23.5601L189.33 -13.16L193.69 -10.14L194.03 -3.77002H189L190.01 2.27002L191.69 3.28003V7.64001L188.87 13L182.34 12.6899L179.28 10.3199L177.56 5.27002L171.23 -2.26001L166.28 -3.34998L164.85 3.43994L160.82 3.35999L154.78 5.12L149.08 5.29004L149.16 13.76L153.1 17.12L152.09 21.4L146.55 22.83L139.09 32.22L132.21 34.0699L130.36 33.65L126.5 39.02L122.39 44.14L115.01 44.3101L106.45 43.22L104.77 33.83L107.12 28.13L103.09 24.1L97.7203 21.75L94.3604 17.05L93.0204 3.96997L87.6504 -0.0600586H75.9104L74.2303 3.96997L67.8604 3.30005L62.8303 8L57.1304 13.03L51.0903 21.08L49.7504 28.46L44.3804 29.13L42.3704 26.45L30.9603 25.4399L28.6104 29.13H20.8904L18.4204 32.29L15.8503 35.84L10.8203 33.83L11.1604 20.74L5.79041 18.39L-8.29968 17.72L-10.9796 18.73L-11.6497 24.77L-16.6797 29.8L-20.7096 36.51L-24.3997 39.53H-31.1096L-33.4596 35.5L-36.4796 31.14L-36.1396 21.75L-38.8196 18.39L-38.4796 13.02L-44.1797 11.01L-43.1697 5.64001L-40.1497 2.95996L-34.4496 3.30005L-30.7596 -0.390015L-23.0397 -2.40002L-6.25964 -7.77002L2.46033 -15.49L10.5104 -17.5L17.8904 -24.88L20.2404 -27.23H42.0504L46.0803 -30.59L49.7704 -31.9301L62.5204 -43L63.1903 -47.36L71.5803 -54.0699L76.9503 -56.42L82.3203 -57.4301L93.3904 -64.48L92.7203 -71.1899L98.4204 -77.5601L105.13 -84.27L113.52 -92.99L116.88 -100.71L119.23 -112.45L122.25 -122.52L126.95 -132.92L137.02 -142.31L148.76 -150.7L158.49 -157.41L163.52 -160.09L171.24 -160.43L173.25 -163.11L182.98 -163.78L194.39 -173.51L204.79 -180.89L211.16 -188.61L214.51 -198.34L217.19 -209.41L218.87 -216.79L221.22 -220.15L219.88 -236.93L224.24 -243.64L230.61 -254.38L236.15 -263.52L239.25 -262.68L255.69 -254.54L261.31 -250.85L261.81 -237.51L270.2 -230.38L283.12 -228.53L288.74 -215.61L282.7 -207.14L273.89 -201.44L259.04 -199.76L257.53 -183.57L255.6 -173.84L249.81 -162.6L248.97 -144.15L259.98 -134.01L260.04 -134.09L258.78 -133.84L253.24 -129.81L247.79 -118.74L235.04 -104.65L237.22 -89.3L241.25 -83.9301L231.69 -83.85L230.26 -81.5H216.25L203.75 -72.78L189.16 -73.37L186.31 -69.1801H184.3L183.88 -61.63L188.49 -58.1899L188.41 -54L187.24 -50.98L187.23 -50.99Z" fill="#7AA6D4"/>
<path d="M-31.1089 39.4899L-24.4589 39.4498L-20.6289 36.4299L-16.7189 29.5999L-11.6089 24.7399L-10.9789 18.6998L-8.53894 17.6199L5.7511 18.3099L11.1411 20.7399L10.9211 33.7699L15.8311 35.7599L20.7811 28.9498L28.5011 29.1699L30.9911 25.3398L42.4811 26.4299L44.4312 29.0698L49.6812 28.4999L51.0011 21.0199L57.1611 13.0099L67.941 3.23987L74.2111 3.90991L75.951 -0.0601807L87.7411 -0.100098L93.1311 3.84985L94.5111 16.8298L97.8811 21.6299L103.071 23.9999L107.121 28.0999L104.731 33.8499L107.121 43.8699L108.131 45.8799L107.791 49.9099L100.071 51.9199L93.0211 54.2699H87.321L83.6311 57.2899L82.9611 60.9799L75.2411 62.6599L73.5612 67.0199L69.201 73.3899L67.9811 80.8799L65.9011 94.4698L71.5411 102.86L81.6111 104.87L91.6812 101.85L92.6711 99.5199L97.7711 101.55L99.9911 107.36L101.481 111.3L103.791 122.71L95.1311 126.11L97.441 138.17L94.7111 144.19L95.1111 151.84L101.131 156.26L99.1211 168.63L109.141 175.65L114.241 178.77L113.671 187.2L107.861 190.2L103.501 194.9L96.7311 194.84L91.0511 185.42L82.3511 185.44L79.3112 189.82L75.6211 189.84L69.2511 181.41L60.5311 180.4L55.9611 187.13L52.8112 191.83L47.7811 195.19L40.7611 195.17L38.9811 200.58L36.7411 207.6L39.071 214.98L34.3511 219.66L36.3411 226.33L40.7411 230.38L40.2611 233.4L34.3311 243.86L27.3311 247.49L26.6411 254.2L26.9811 259.53L27.5911 269.49L27.9911 276.07L18.6011 280.73L11.9312 284L1.45105 289.14L-9.23889 295.85L-14.2689 301.2L-20.9789 302.54L-22.6589 304.55L-28.3589 302.54L-36.0789 299.52L-41.1089 298.85L-41.7789 302.54L-55.1989 301.53L-59.559 298.17L-60.5688 291.12L-56.8789 284.07L-51.179 277.36L-50.5089 270.99L-48.4989 253.54L-55.549 250.52L-59.5789 248.51L-63.2689 240.46L-63.6089 228.72L-70.6589 218.99L-74.6888 213.29L-82.4089 207.59L-87.7789 206.58L-91.1289 203.22L-87.7789 196.85L-81.7389 189.47H-71.6689L-62.9489 178.06L-56.5789 170.68L-52.2189 164.31V159.95L-58.929 154.58L-61.2789 152.23L-58.2589 145.86L-54.8989 141.5L-54.2289 134.45L-47.8589 127.4L-45.8489 115.66L-52.8989 107.61L-54.9089 106.6L-46.1888 95.8599L-43.1689 90.1599L-38.4689 82.1099V75.0599L-32.0989 72.7098L-29.4189 65.9999V55.5999L-31.0989 39.4698L-31.1089 39.4899Z" fill="#7AA6D4"/>
<path d="M113.74 187.08L123.43 192.51L130.14 195.96L133.98 198.7L137.97 201.74L147.95 199.35L149.49 205.94L154.92 214.31L159.12 220.69L169.74 225.09L174.24 230.19L173.88 242.18L168.83 251.24L157.93 257.03L146.71 262.67L144.24 268.71L142.52 273.05L132.29 274.08L128.26 277.73L117.57 277.06L110.48 280.42L105.13 278.76L101.42 274.04L94.4204 273.75L89.3704 269.7L84.6903 276.05L83.0104 286.68L82.3203 297.35L82.9503 306.58L79.3403 309.94H70.2203L65.2504 304.28L61.1604 299.54V291.49L58.8104 287.13L45.7203 286.12L43.7103 282.09L40.0204 279.43L41.7003 272.7L44.7203 268.34L43.3804 263.98L41.3704 253.58L44.3904 251.23L46.0903 244.21L42.7103 241.55L40.1903 233.48L40.6903 230.44L36.3303 226.41L34.3203 219.7L39.0204 215L36.6704 207.62L40.7003 195.21H47.7504L52.7804 191.85L60.5004 180.44L69.2203 181.45L75.5903 189.84H79.2804L82.3004 185.48H91.0204L96.7203 194.87H103.43L107.79 190.17L113.73 187.09L113.74 187.08Z" fill="#0054AC"/>
<path d="M142.689 273.03L132.289 274.04L128.259 277.73L117.519 277.06L110.469 280.42L105.099 278.74L101.409 274.04L94.3594 273.7L89.3293 269.67L84.6294 276.04L82.9493 286.78L82.2794 297.52L82.9493 306.58L79.2594 309.94H70.1993L61.1394 299.54L61.1993 291.49L58.7894 287.13L45.7094 286.12L43.7594 282.09L40.0094 279.41L41.7094 272.68L44.7294 268.34L43.4294 264.02L41.3494 253.6L44.4094 251.23L46.1094 244.23L42.6893 241.5L40.1694 233.47L34.2994 243.85L27.2494 247.54L26.5793 254.25L27.9194 276.06L17.8494 281.09L1.40942 289.14L-9.33057 295.85L-14.3606 301.22L-21.0507 302.54L-22.7706 304.59L-22.7506 315.31L-27.4506 322.69L-35.1707 336.11L-44.2306 348.86L-52.9506 360.94L-60.0006 364.29L-61.3406 366.3H-69.3906L-68.7206 381.06L-68.3806 388.78L-57.6406 389.45V385.76L-62.3406 383.75L-58.3107 377.71L-54.9606 373.68L-49.5906 376.36L-50.9307 383.41V388.78C-50.9307 388.78 -45.5606 392.81 -44.2206 392.81C-42.8806 392.81 -25.4307 395.16 -25.4307 395.16L-9.66064 394.15L-4.29065 391.13L5.09937 394.82L22.2094 398.51L33.6194 404.88L38.9894 403.87L37.6494 399.17L36.9794 388.1L42.3494 380.38L51.4094 368.97L53.0894 358.23L58.1194 351.86L66.1694 350.18L78.2494 344.81L81.6094 338.77L84.2894 328.03L96.3694 318.64L110.799 317.63L125.229 319.31L133.949 324.34L135.629 334.74L125.229 336.42C125.229 336.42 118.859 339.1 118.859 342.46C118.859 345.82 118.519 350.85 118.519 350.85L121.199 356.22L116.499 383.06L114.489 389.43L120.189 395.13L125.889 402.18L132.259 402.52L143.999 398.16L151.379 396.15L152.049 385.08L163.459 371.99L165.809 363.27L172.179 359.24L174.859 350.85L177.539 348.17L169.819 340.79L168.809 321.67L169.799 318.2L161.069 314.59L153.869 306.18L152.699 297.08L155.409 292.11L154.919 278.53L153.029 274.66L142.649 273.02L142.689 273.03Z" fill="#7AA6D4"/>
<path d="M209.329 17.6399L196.119 16.3599L188.929 13.0299L182.299 12.6699L179.279 10.3099L177.569 5.28992L171.209 -2.26013L166.259 -3.3501L164.829 3.43982L160.779 3.33984L154.759 5.11987L149.059 5.28992L149.119 13.7399L153.059 17.1199L152.069 21.3999L146.529 22.8298L139.059 32.2198L132.159 34.0399L130.339 33.6399L126.569 38.8398L122.359 44.1199L114.979 44.2899L106.489 43.1799L107.619 49.4498L93.0494 54.2699L87.3894 54.2499L83.6394 57.2899L82.9493 60.9799L75.2494 62.6599L73.5294 67.1099L69.1893 73.3999L65.8594 94.5399L71.5594 102.93L81.6294 104.94L91.6993 101.92L92.7094 99.5698L97.7394 101.58L101.429 111.31L103.779 122.72L95.0594 126.08L97.4094 138.16L94.7294 144.2L95.0693 151.92L101.109 156.28L99.0994 168.69L109.169 175.74L118.249 168.18L125.209 168.95L132.419 164.09L136.619 156.31L145.419 156.29L153.409 152.62L160.499 151.24L164.879 140.54L168.549 131.44L174.589 125.74L192.139 130.79L207.989 133.91L225.449 138.51L240.059 135.31L246.409 137.58L253.109 137.48H257.299L252.929 132.48L247.909 129.34L223.919 125.06L219.309 124.3L214.029 114.64L209.659 106.09L213.109 98.8398L217.709 92.3298L218.549 82.0099L221.909 77.7299L226.049 72.4498L223.919 72.0199L211.339 71.5199L206.669 65.2499L201.439 59.3499L206.139 53.5599L207.729 38.4598L209.989 35.8599L209.319 32.2499L207.809 27.0499L209.359 17.5999L209.329 17.6399Z" fill="#0054AC"/>
<path d="M209.318 17.6899L207.818 27.1L210.008 35.92L207.438 38.51L206.198 53.72L201.398 59.3101L211.238 71.62L225.888 72.39L218.508 81.78L217.498 92.1801L212.798 98.89L209.448 106.27L219.178 124.39L247.698 129.42L252.728 132.44L256.918 137.59L262.238 138.97L265.098 136.22L272.888 136.2L276.188 130.14L278.888 125.05L291.778 113.34L303.048 111.86L314.118 110.28L326.688 104.38L335.298 94.87L337.088 81.76L335.018 62.13V56.23L340.958 52.84L339.558 40.4301L340.628 21.72L342.288 16.8L335.638 9.55005L335.738 2.81995L329.568 -4.30005L322.648 -14.91L312.028 -17.1L301.208 -18.77L290.478 -24.49L292.038 -19.99L283.318 -18.58L274.298 -17.28L264.838 -7.21997L257.488 -6.23999L243.238 2.05005L229.968 9.33997L222.168 8.17004L215.468 12.91L209.298 17.65L209.318 17.6899Z" fill="#0054AC"/>
<path d="M335.118 62.24L336.948 81.79L335.268 94.88L326.548 104.27L313.458 110.31L291.648 113.33L278.898 125.07L272.858 136.14H265.138L262.118 138.82L257.008 137.48L256.078 151.57L261.448 157.61L267.148 158.95H273.858L278.848 166.79L289.308 177.69L302.038 188.8V188.93L328.268 196.54L337.368 197.2L354.568 193.47L354.648 193.45L371.728 187.37L379.868 184.78L387.118 189.72L396.648 196.19L408.388 203.24L411.448 208.24L418.408 211.76L423.478 214.32L416.098 205.93L409.728 192.51L398.658 174.06L390.268 150.91L385.238 135.14L382.888 123.4L388.588 114.34L391.268 110.65L390.598 107.29L388.918 98.23L391.598 93.2L397.638 79.4399L404.348 56.96L412.068 39.1801L413.748 33.48L418.108 32.47L419.118 29.11L417.438 23.0699L403.008 22.73L390.258 18.7L386.768 13.47L386.908 25.75L381.528 26.83L375.278 33.09L369.398 37.61L363.358 35.83L358.128 27.17L352.248 20.23L342.278 16.76L340.598 21.73L339.588 40.52L340.928 52.9301L335.008 56.13L335.068 62.24H335.118Z" fill="#0054AC"/>
<path d="M270.36 158.89L273.85 158.91L278.86 166.74L289.3 177.65L302.25 188.97L328.23 196.53L337.29 197.2L354.61 193.47L372.06 187.28L379.89 184.77L396.15 195.85L404.32 200.78L408.45 203.23L411.55 208.28L424.02 214.65L427.21 217L427.88 220.02L423.18 223.38L410.09 222.71L395.66 224.39L379.56 237.48L369.83 248.55L364.8 257.61L360.44 265.66L360.1 281.76L361.44 290.48L358.08 296.18L359.42 306.58L353.72 311.28L343.65 316.98L334.59 319.66H322.18L318.83 322.34L310.44 330.73L302.39 338.11L295.01 340.12L294.67 350.19L288.3 353.88L279.58 355.56L273.21 352.21L265.16 346.51L266.17 342.15L271.2 341.14L276.57 339.8L278.58 336.11L274.22 333.76L274.89 308.6L276.23 305.92L281.26 303.57L281.6 299.88L278.58 296.19L275.22 290.49L274.88 283.78L277.56 280.42L284.61 278.41L286.29 275.39L286.96 267.67L296.35 264.99L302.05 259.62L306.75 255.59L309.77 247.54L313.13 244.86L311.79 238.82L307.43 232.78L299.04 230.1L291.66 229.43L288.31 228.42L287.3 220.7L286.63 215L283.27 209.3L283.61 203.26L285.62 195.88L283.27 191.52L279.24 184.47L274.88 177.42L271.86 176.08V169.37L270.18 166.35L270.36 158.91V158.89Z" fill="#0054AC"/>
<path d="M270.461 158.97L267.191 158.89L261.661 157.62L256.201 151.55L256.951 137.6L246.351 137.48L239.981 135.13L225.551 138.49L213.141 135.13L205.381 133.32L192.021 130.75L174.461 125.67L168.321 131.65L160.481 151.11L153.411 152.57L145.361 156.26H136.641L132.281 163.98L125.231 168.68L118.181 168.01L108.961 175.67L110.801 176.73L114.161 178.74L113.691 187.19L123.221 192.5L130.481 196.27L137.981 201.89L147.731 199.38L154.091 192.16L169.191 194.17L178.921 198.2L189.871 200.33L200.731 202.56L207.971 208.12L213.041 210.9L227.231 210.6L233.941 208.25H265.481L269.511 205.57L275.761 204.64L283.581 203.34L285.751 195.9L274.941 177.35L271.981 175.97L271.921 169.3L270.221 166.31L270.461 158.96V158.97Z" fill="#0054AC"/>
<path d="M286.641 214.89L283.301 209.25L283.711 203.43L269.651 205.52L265.461 208.2L233.881 208.26L227.271 210.59L213.021 210.89L207.771 207.93L200.741 202.54L178.871 198.14L169.121 194.02L154.081 192.18L147.801 199.26L149.381 205.91L158.991 220.77L169.511 225.03L174.271 230.16L179.601 233.1L188.641 238.11L201.471 238.15L205.081 240.48L210.781 241.49L216.701 247.01L223.171 252.87L225.891 250.52L226.541 242.13L226.861 237.75L231.601 234.12L236.431 236.88L244.961 237.87L251.671 245.9L261.101 249.51L267.811 248.17L269.151 241.8L272.171 235.76L280.221 233.41L286.591 234.75L290.621 232.4L291.431 229.32L288.271 228.26L286.611 214.86L286.641 214.89Z" fill="#0054AC"/>
<path d="M267.161 249.2L261.461 249.54L251.731 245.85L245.021 237.8L236.301 236.79L231.601 234.11L226.901 237.8L225.891 250.55L223.211 252.9L210.801 241.49L205.101 240.48L201.411 238.13H188.661L174.301 230.14L173.901 242.16L168.871 251.22L157.461 257.26L146.721 262.63L142.461 273.09L153.091 274.7L154.771 278.39L155.441 292.15L152.761 297.18L153.771 306.24L161.151 314.63L169.871 318.32L174.231 313.96L176.581 306.91L180.611 297.85L195.711 290.8L206.781 287.11L219.531 287.78L233.621 291.14L237.651 296.51L241.341 301.88L242.011 313.62L250.061 317.65L250.731 307.25L256.101 304.23L259.461 299.2L258.791 296.52L254.091 291.82C254.091 291.82 251.071 287.79 250.731 285.78C250.391 283.77 250.391 277.73 250.391 277.73L249.051 271.69L252.071 264.98L254.421 260.28H261.131L263.141 258.27L267.841 257.26L267.171 249.21L267.161 249.2Z" fill="#0054AC"/>
<path d="M528.161 -346.98L519.301 -342.37L518.581 -334.62L515.061 -327.58L511.961 -324.01L513.421 -313.68L509.961 -307.16L508.451 -305.97L504.761 -309.11L497.301 -312.15L488.521 -306.43L479.901 -304.61L472.501 -308.92L468.231 -315.56L471.971 -320.68L466.451 -326.82L448.101 -328.24L439.641 -330.59L429.871 -333.85L422.981 -338.44L416.691 -343.5L418.781 -347.83L422.211 -352.87L421.911 -360.66L418.711 -361.98L414.231 -372.04L417.171 -381.19L418.701 -387.47L409.481 -395.24L406.231 -401.41L404.611 -410.08L400.341 -418.72L403.831 -424.11L408.781 -428.93L411.171 -439.42L414.761 -447.64L422.341 -456.67L425.351 -471.4L420.911 -479.36L426.251 -485.51L422.161 -493.32L421.081 -500.81L429.421 -499.46L434.181 -505.91L429.541 -517.04L428.881 -540.62L434.851 -546.72L429.791 -557.9L441.591 -568.18L453.401 -560.37L471.351 -577.33L494.741 -587.05L505.301 -586.66L521.201 -593.56L528.901 -588.38L540.271 -598.34L555.371 -602.5L554.951 -603.35L552.751 -603.33L551.451 -604.63L539.121 -601.23L528.661 -592.28L521.531 -597.08L504.721 -589.79L494.191 -590.18L469.911 -580.09L453.071 -564.32L443.001 -570.98L445.631 -594.27L439.881 -605.77L425.181 -616.06L411.341 -604.82L393.341 -601.15L382.991 -604.59L366.601 -615.46L355.281 -611.35L341.971 -606.29L312.391 -607.63L295.061 -604.01V-602.44L294.931 -602.41L296.111 -601.06L312.641 -604.52L342.481 -603.17L356.371 -608.45L366.201 -612.02L381.461 -601.9L393.151 -597.95L412.701 -601.94L425.321 -612.19L437.461 -603.69L442.451 -593.72L439.861 -570.8L426.021 -558.75L431.161 -547.4L425.751 -541.88L426.451 -516.7L430.651 -506.37L428.061 -502.85L417.421 -504.58L419.151 -492.65L422.551 -485.98L417.171 -479.79L422.101 -470.94L419.481 -458.1L412.261 -449.5L408.261 -440.43L405.991 -430.55L401.571 -426.24L396.811 -418.95L401.641 -409.33L403.261 -400.65L406.911 -393.57L415.271 -386.38L414.221 -382.08L410.951 -371.91L416.421 -359.64L418.931 -358.61L419.111 -353.82L416.141 -349.43L412.861 -342.68L417.371 -339.06L412.011 -339.14L399.851 -327.71L384.481 -326.48L373.741 -332.38L370.151 -339.75L349.881 -351.6L338.051 -351.57L333.431 -358.7L326.641 -354.8L313.341 -367.75L304.571 -368L300.321 -364.18L286.991 -368.07L286.341 -366.6L286.401 -366.58L286.351 -365.03L301.101 -360.72L305.711 -364.87L312.041 -364.69L326.161 -350.95L332.431 -354.56L336.371 -348.47L349.041 -348.5L367.771 -337.56L371.391 -330.13L382.631 -323.95L382.591 -316.74L388.271 -314.34L391.891 -304.83L395.981 -302.1L391.731 -286.58L389.821 -280L380.761 -280.52L383.771 -265.65L383.121 -255.21L393.911 -250.51L391.461 -241.88L385.121 -234.54L379.931 -232.53L378.031 -222.43L371.701 -216.94L371.221 -201.42L363.401 -185.84L363.961 -180.24L356.241 -177.02L347.691 -176.95L342.721 -168.67L343.261 -160.22L342.271 -139.03L342.341 -136.17L341.961 -129.41L337.011 -124.11L327.861 -120.48L314.401 -123.27L307.451 -126.52L299.901 -126.67L294.341 -132.98L277.631 -132.82L260.531 -135.6L250.501 -144.76L251.391 -162.21L256.941 -173.31L259.001 -182.89L260.321 -198.68L274.601 -200.02L283.471 -205.93L290.551 -215.57L284.151 -229.97L270.921 -231.93L263.251 -238.33L262.771 -251.72L256.231 -256.06L239.441 -264.2L236.831 -265.07L236.111 -263.63L236.961 -263.35L236.201 -263.56L235.431 -262.29L238.271 -261.35L254.691 -253.39L259.731 -250.03L260.201 -236.84L269.611 -229L282.011 -227.16L287.001 -215.94L281.521 -208.35L273.541 -203.03L257.451 -201.52L255.951 -183.34L254.091 -174.52L248.491 -163.31L247.341 -143.46L257.031 -134.61L251.941 -131.01L246.491 -119.78L237.931 -110.23L233.411 -105.34L235.571 -88.7901L237.981 -85.57H230.781L229.441 -83.22H215.801L209.951 -79.5601L203.331 -74.5201L188.611 -75.21L185.621 -70.8001H182.931L182.221 -61.0101L186.801 -57.5301L186.851 -54.4101L186.051 -52.0201L178.821 -45.47L177.091 -38.8001L178.291 -31.6L185.661 -28.44L188.871 -23.2L187.981 -16.44L187.831 -12.09L191.891 -9.38007V-6.05011H187.361L188.291 2.9599L190.231 4.10992L190.281 7.22992L187.881 11.3599L182.961 11.0899L180.691 9.31989L179.131 4.73993L172.151 -3.71002L165.151 -5.25006L163.671 1.81L160.671 1.72992L154.611 3.52997L147.591 3.73993L147.671 14.41L151.431 17.64L150.871 20.0899L145.741 21.41L138.271 30.81L132.231 32.41L129.781 31.8699L125.461 37.8399L121.701 42.56L115.281 42.7199L108.321 41.81L106.451 33.9499L109.041 27.7199L104.271 22.8799L99.0006 20.3599L96.1006 16.2399L94.6906 2.96991L88.3406 -1.68011L75.0406 -1.63007L73.3506 2.21991L67.5106 1.5899L56.0306 12.03L49.6506 20.3499L48.4606 27.06L45.2406 27.41L43.4106 24.93L30.3007 23.6899L27.7806 27.5799L20.1206 27.3599L15.4006 33.8499L12.5906 32.7099L12.8007 19.7299L6.48059 16.8799L-8.73938 16.04L-12.3293 17.64L-12.9994 23.9999L-17.6993 28.4699L-21.7294 35.39L-24.8994 37.89L-30.0894 37.92L-34.7394 30.6099L-34.4794 21.15L-37.1194 17.8399L-36.7394 11.91L-42.2894 9.91998L-41.1594 3.93988L-43.0894 5.65997V5.67999L-44.6294 5.61993L-45.8293 11.9399L-39.9794 14.03L-40.2894 18.8299L-37.6094 22.1899L-37.8594 31.4699L-32.5294 39.8499L-30.8794 55.5999V65.6999L-33.1993 71.4899L-39.9393 73.9799V81.6899L-44.4594 89.43L-47.3094 94.8799L-55.5494 105.02L-58.3094 104.75L-64.7294 100.36L-73.6494 100.02L-81.7494 97.0099L-99.3694 93.9599L-116.299 95.02L-128.799 109.27L-134.499 119.61L-141.559 124.59L-142.719 120.82L-149.459 115.21L-160.769 114.09L-166.519 119.56L-168.609 117.46L-171.029 112.02L-170.379 99.8299L-170.699 92.16L-167.019 84.4699L-167.039 63.89L-165.069 51.3299L-162.029 40.8299L-159.719 30.2499L-157.739 24.31L-155.489 18.8399L-150.529 13.2099L-147.569 9.06989L-145.499 8.81989L-133.669 9.49994V8.00995L-133.529 7.94989L-133.469 6.42999L-145.579 5.74994L-149.289 6.15997L-152.949 11.3L-157.979 16.9999L-160.629 23.2399L-162.689 29.4399L-165.009 40.0799L-168.069 50.67L-170.099 63.66V83.78L-173.809 91.53L-173.459 99.8199L-174.149 112.61L-171.309 118.99L-167.969 122.45L-167.019 127.21L-166.219 132.64L-169.319 134.32L-171.909 138.72L-173.399 149.59L-178.439 155.54L-190.789 157.68L-196.459 154.72L-206.279 147.01H-214.009L-225.189 145.71L-232.619 142.48L-237.729 139.93L-237.039 131.27L-242.169 129.99L-250.139 126.01L-251.339 122.02L-252.439 123.79V123.84L-253.739 124.8L-252.729 128.18L-243.409 132.84L-240.339 133.65L-240.989 141.77L-233.939 145.29L-226.219 148.65L-214.189 150.12H-207.339L-198.129 157.32L-191.289 160.92L-179.289 158.84L-179.779 165.21L-182.849 167.6L-182.479 183H-177.389L-169.319 188.08L-168.449 194.5L-170.169 203.39H-179.489L-184.149 207.05L-195.809 206.38L-201.569 210.11L-215.019 210.43L-228.899 207.04L-239.209 208.96L-242.439 221.46L-246.919 228.57L-252.699 226.88L-253.089 223.77L-267.399 224.61V229.99L-264.979 231.37L-264.409 238.48L-265.909 241.23L-269.359 242.38L-274.309 246.79L-281.099 248.24L-283.429 253.97L-290.149 255.72H-290.889L-295.279 252.92L-300.289 258.3L-304.049 259.74L-302.339 264.73L-303.739 270.83L-305.689 271.48H-312.669L-323.979 280.17L-333.429 279.58L-334.079 278.61L-343.919 277.59L-345.889 275.29L-355.439 273.64L-360.109 265.23L-365.529 260.63L-364.019 247.38L-365.469 246.59V246.57L-366.929 245.57L-368.789 261.96L-362.669 267.01L-357.419 276.46L-347.509 278.17L-345.459 280.56L-335.839 281.55L-335.149 282.59L-324.209 283.27L-311.389 295.16L-314.439 300.63L-312.419 319.19L-315.079 325.8L-313.709 342.11L-308.739 348.68L-308.719 352.59L-306.879 359.16L-298.559 359.45L-295.789 363.4L-284.529 374.42L-284.599 380.33L-280.819 382.95L-280.889 385.83L-282.329 386.59L-285.129 386.12L-295.229 382.28L-299.339 381.08L-304.329 384.56L-316.079 384.54L-319.069 380.64L-325.039 379.98L-325.719 379.07L-325.299 370.44L-328.059 365.19L-333.379 362.13L-334.839 358.32L-341.469 349.89L-346.889 345.93L-352.779 346.32L-355.049 348.92L-357.309 348.7L-359.429 346L-365.099 342L-369.649 336.78L-381.149 331.04L-383.719 336.42L-384.389 342.74L-380.529 348.09L-374.389 348.33L-373.299 349.28L-372.949 351.08V359.1L-375.209 365.12L-371.509 373.51L-370.869 384.22L-376.619 388.16L-373.769 388.14L-373.929 390.07L-367.669 385.78L-368.429 373.04L-371.859 365.02L-369.849 359.66L-369.879 350.8L-370.449 347.66L-373.159 345.28L-378.889 345.05L-381.199 341.86L-380.799 337.49L-379.689 335.17L-371.759 339.04L-367.279 344.17L-361.739 348.04L-358.899 351.63L-353.739 352.13L-351.269 349.3L-347.769 349.07L-343.729 351.97L-337.619 359.64L-335.849 364.25L-330.349 367.42L-328.399 371.12L-328.749 378.23C-329.059 378.3 -329.419 378.37 -329.839 378.46L-334.239 381.2L-334.679 386.24L-337.829 387.49L-337.629 394.64L-338.609 401.02L-334.619 407.12L-337.599 409.94L-337.359 436.05L-340.179 440.94L-345.369 440.3L-350.229 443.04L-354.069 445.81L-359.489 445.61L-363.379 442.93L-366.759 443.27L-374.979 449.62L-386.179 449.39L-390.639 451.29L-396.999 451.01L-399.619 454.24L-406.199 454.92L-409.119 457.19L-416.019 456.55L-420.449 452.31L-420.659 454.35L-420.709 454.3L-422.609 453.59L-422.539 454.68L-421.719 455.49L-417.349 459.54L-408.179 460.39L-404.989 457.91L-398.019 457.19L-395.569 454.17L-390.069 454.4L-385.569 452.49L-373.939 452.73L-365.559 446.25L-364.189 446.11L-360.499 448.65L-353.109 448.93L-348.559 445.63L-344.729 443.48L-340.829 443.96L-340.629 448L-337.569 451.31L-335.299 456.3L-331.259 460.48L-330.499 463.7L-331.339 466.75L-335.239 467.62L-341.589 467.34L-343.529 472.59L-346.569 475.67L-350.919 482.21L-353.489 487.09L-353.249 493.25L-350.159 497.04L-346.959 502.19L-344.679 504.96L-342.339 507.12L-343.579 510.7L-346.229 510.99L-345.349 522.98L-338.459 527.36L-334.179 523.35L-329.509 522.94L-322.409 524.66L-318.429 523.17L-310.439 523.15L-310.289 523.18L-309.799 535.04L-304.119 541.73L-298.769 546.82C-296.309 548.7 -293.039 550.93 -291.429 550.93C-290.989 550.93 -289.349 550.98 -287.289 551.05L-287.149 550.62C-287.149 550.62 -292.299 549.44 -291.419 549.44C-289.999 549.44 -286.439 549.91 -286.439 549.91L-283.789 548.07C-287.089 547.95 -290.579 547.83 -291.329 547.83H-291.349C-292.019 547.71 -294.609 546.09 -296.759 544.46L-301.869 539.6L-306.749 533.83L-307.169 523.71L-305.469 524.02L-298.159 517.95L-288.729 509.55L-281.129 502.3L-274.339 502.21L-273.289 497.78L-268.679 496.74L-269.719 479.81L-268.149 472.76L-266.189 466.5L-267.689 458.78L-270.099 455.81L-268.519 450.36L-269.659 445.33L-273.029 442.9L-272.859 436.96L-269.629 434.37L-259.379 432.68L-258.479 430L-255.659 429.49L-254.479 420.63L-256.779 417.56L-261.649 417.82L-268.739 413.65L-272.829 412.29L-276.219 410.13L-277.349 406.7V403.4L-272.489 399.33L-273.749 392.55L-276.009 391.84L-277.779 386.58L-277.659 381.33L-281.459 378.69L-281.419 375.07L-275.709 374.26L-272.569 365.58L-273.139 359.24L-269.809 359.65L-265.679 363.08L-251.199 363.54L-239.829 360.63L-228.759 351.53L-222.809 340.54L-222.579 333.47L-220.339 322.89L-222.079 312.58L-222.819 312.79C-223.059 312.52 -223.329 312.22 -223.549 311.96L-222.079 303.48H-222.049L-221.299 299.51L-212.859 300.33L-206.369 306.8L-200.659 314.65L-191.179 316.79L-187.869 320.95L-181.159 326.43V334.87L-179.639 334.1L-179.609 330.37V334.14H-178.069V324.96L-185.559 318.9L-188.639 315.02L-186.549 305.76L-182.129 293.48L-180.599 286.45L-169.989 280.52L-163.039 278.92L-147.239 277.55L-143.359 275.16L-137.019 278.91L-129.269 288.3L-120.629 295.52L-112.529 299.94L-103.569 295.28L-92.7694 292.5L-84.4994 299.44L-75.1094 298.69L-64.2194 292.09L-61.8694 292.49L-60.9294 299.03L-55.6993 303.05L-40.4294 304.2L-39.7694 300.59L-36.3794 301.04L-28.7894 304.01L-24.1394 305.65L-24.1194 314.85L-28.6094 321.91L-36.2494 335.2L-53.7894 359.7L-60.8594 363.06L-61.9794 364.74H-70.8293L-69.6494 391.27L-68.1993 391.17V388.81L-68.2194 388.27L-68.1993 388.82L-66.6494 388.92L-67.5894 367.84H-60.3293L-58.7594 365.49L-51.7494 362.15L-33.6494 336.86L-25.9694 323.5L-21.0294 315.74L-21.0494 305.13L-20.0394 303.93L-13.3994 302.62L-8.16943 297.04L2.26062 290.51L18.7106 282.45L29.6906 276.96L28.2806 254.38L28.8706 248.5L35.5806 244.98L39.9207 237.31L41.5106 242.39L44.5306 244.8L43.1906 250.32L39.8007 252.94L42.1006 264.45L43.1807 268.05L40.5906 271.78L38.4006 280.04L42.6906 283.11L44.8506 287.58L57.9906 288.59L59.8007 291.86L59.7306 300.1L69.6406 311.47H80.0006L84.6906 307.21L83.9606 297.61L84.6206 287.02L86.2406 276.66L89.7606 271.89L93.9307 275.22L100.771 275.54L104.321 280.06L110.721 282.06L117.951 278.61L128.941 279.3L133.071 275.51L142.761 274.57L152.151 276.05L153.551 278.9L154.021 291.73L151.281 296.77L152.571 306.82L160.311 315.86L169.561 319.69L169.951 318.34L169.991 318.36L171.291 317.06L162.181 313.29L155.521 305.51L154.481 297.37L157.151 292.47L156.641 278.46L154.231 273.25L144.791 271.76L148.051 263.74L158.301 258.62L170.111 252.37L175.551 242.58L175.881 232.69L188.381 239.68L201.151 239.72L204.381 241.8L210.201 242.95L223.291 254.96L227.531 251.3L228.501 238.58L231.871 236L235.811 238.26L244.311 239.37L250.881 247.24L261.111 251.16L267.341 249.91L267.291 249.27L261.591 249.61L261.471 249.57L267.961 248.27L268.321 246.57L261.381 247.96L252.741 244.65L245.891 236.45L237.071 235.43L231.621 232.32L225.511 237L224.541 249.82L223.341 250.86L211.641 240.09L205.801 239.06L202.071 236.65L189.181 236.61L175.381 228.98L170.791 224.03L160.171 219.57L150.971 205.34L149.641 199.75L154.841 193.85L168.921 195.73L178.761 199.77L200.201 204.05L207.361 209.53L212.801 212.51L227.401 212.2L234.341 209.85H266.081L270.211 207.1L282.161 205.2L281.851 209.66L285.281 215.43L286.991 229.24L290.981 231.77L291.591 229.44L291.791 229.5L293.401 229.65L289.881 227.41L288.311 214.73L285.011 208.91L285.381 203.58H285.281L287.561 195.75L276.171 176.21L273.651 175.04L273.601 168.95L271.921 165.99L272.101 160.54H273.161L277.881 167.91L288.441 178.91L300.661 189.57V190.15L327.991 198.07L337.641 198.8L355.011 195.03L372.361 188.89L379.781 186.53L396.011 197.56L407.431 204.41L410.521 209.45L417.941 213.2L427.441 217.49L427.351 217.08L424.161 214.73L423.651 214.39L420.711 211.05L419.271 210.4L412.701 207.08L409.671 202.14L397.671 194.94L380.271 183.11L371.361 185.95L354.391 191.99L337.411 195.67L328.691 195.04L303.161 187.64L290.571 176.66L280.301 165.99L274.851 157.43H267.471L262.421 156.24L257.811 151.05L258.571 139.48L262.671 140.56L265.871 137.72H273.911L280.271 126.07L292.471 114.83L313.801 111.88L327.321 105.71L336.871 95.5999L338.631 81.8499L336.791 62.2599L336.741 57.0799L342.751 53.8299L341.301 40.6299L342.301 22.06L343.411 18.78L351.431 21.56L357.071 28.18L362.431 37.18L369.951 39.39L376.551 34.2399L382.471 28.3L388.621 27.0699L388.571 18.7299L389.531 20.14L402.741 24.27L418.041 24.6899L417.621 23.16L416.631 23.14L417.411 21.5799L416.661 21.56V21.5799L403.471 21.2499L391.501 17.5099L385.431 8.56L385.531 24.54L380.961 25.4599L374.521 31.93L369.321 35.9799L364.491 34.56L359.611 26.4L353.271 18.92L343.381 15.4899L337.311 9.0799V2.41998L331.161 -4.82001L323.711 -16.1801L312.511 -18.46L301.921 -20.09L288.331 -27.3701L290.161 -21.09L274.131 -18.6801L274.261 -17.34L273.341 -18.21L264.211 -8.55011L257.371 -7.62006L243.081 0.609924L229.951 7.8299L221.961 6.71991L214.821 11.7399L209.141 16.14L196.591 14.89L190.991 12.3499L193.431 8.13995L193.351 2.43988L191.261 1.19989L190.841 -2.84003H195.041V-10.9201L191.041 -13.59L191.121 -16.07L192.141 -23.7701L187.841 -30.7801L181.121 -33.6601L180.311 -38.5401L181.641 -43.6801L188.791 -50.1501L190.011 -53.8001L189.931 -58.95L185.491 -62.33L185.871 -67.58H187.311L190.261 -71.9101L204.391 -71.2501L211.761 -76.8801L216.751 -80.0001H231.291L232.631 -82.35H244.221L238.581 -89.8701L236.721 -104.18L248.991 -117.75L254.431 -128.82L259.631 -132.49L277.461 -129.62L293.031 -129.75L298.581 -123.45H306.521L313.331 -120.27L328.211 -117.15L338.551 -121.25L345.061 -128L345.501 -136.01L345.431 -138.88L346.341 -158.46L368.451 -157.88L367.571 -153.21L377.541 -147.57L379.551 -150.78H391.161L392.421 -148.25L399.621 -147V-139.61L409.611 -129.63L422.441 -130.01L428.821 -138.64L430.171 -147.1L431.541 -149.39L436.101 -149.09L435.661 -150.62H435.731V-152.22L429.851 -152.61L427.351 -148.44L425.871 -139.88L420.841 -133.07L410.851 -132.78L402.711 -140.91V-149.63L394.481 -151.06L393.061 -153.9H377.821L376.471 -151.74L371.011 -154.83L372.151 -160.89L346.311 -161.57L345.921 -167.81L349.501 -173.77L356.621 -173.83L367.321 -178.17L366.621 -185.16L374.191 -200.24L374.811 -215.39L380.931 -220.7L382.711 -230.17L387.011 -231.84L394.081 -240.02L397.671 -252.17L386.391 -257.08L386.931 -265.74L385.221 -274.82L384.721 -277.09L392.151 -276.66L394.761 -285.65L397.601 -296.29L399.631 -303.31L394.471 -306.75L390.741 -316.57L385.741 -318.68L385.771 -323.35L401.221 -324.58L413.281 -335.89L421.371 -335.77L428.411 -331.08L438.821 -327.56L447.651 -325.14L465.061 -323.76L468.071 -320.41L464.561 -315.6L470.391 -306.55L479.461 -301.26L489.531 -303.39L497.731 -308.62L503.031 -306.52L508.461 -301.9L512.231 -304.86L516.721 -313.05L515.321 -322.98L517.631 -325.63L521.581 -333.43L522.331 -340.34L528.261 -343.43L533.641 -340.64L544.101 -332.42L542.061 -335.82L540.281 -337.34L541.241 -336.58L541.701 -338.22L535.321 -343.22L528.271 -346.92L528.161 -346.98ZM270.191 -230.36L269.681 -230.79L270.201 -230.36H270.191ZM288.711 -215.64L288.551 -216.01L288.721 -215.64H288.711ZM273.881 -201.42L278.491 -204.41L274.001 -201.42L272.861 -201.31L273.881 -201.43V-201.42ZM249.811 -162.58L250.971 -164.84L249.801 -162.51V-162.58H249.811ZM188.991 -3.72003H189.061L189.171 -2.63007L188.991 -3.72003ZM-278.579 394.34L-276.599 394.96L-276.009 398.14L-280.579 401.97L-280.599 406.96L-278.959 412.17L-274.459 415.02L-270.309 416.41L-262.569 420.97L-258.419 420.75L-257.869 421.48L-258.589 426.85L-260.989 427.29L-261.889 429.94L-271.099 431.46L-276.089 435.44L-276.349 444.45L-272.599 447.16L-271.899 450.27L-273.699 456.51L-270.759 460.13L-269.559 466.33L-271.319 471.97L-273.019 479.57L-272.119 494.31L-276.049 495.2L-276.989 499.17L-282.579 499.25L-291.019 507.3L-300.369 515.63L-306.519 520.75L-306.629 520.73L-310.599 520.01V520.1H-318.899L-322.789 521.45L-329.449 519.84L-335.689 520.38L-338.999 523.49L-342.549 521.23L-343.099 513.77L-341.479 513.59L-338.929 506.25L-342.609 502.87L-344.629 500.42L-347.829 495.28L-350.379 492.14L-350.549 487.83L-348.449 483.83L-344.369 477.66L-341.289 474.57L-339.659 470.56L-335.159 470.75L-329.039 469.39L-327.509 463.78L-328.649 458.93L-332.799 454.79L-335.059 449.82L-337.799 446.74L-337.989 443.01L-334.449 436.87L-334.689 411.26L-330.809 407.59L-335.569 400.31L-334.749 394.84L-334.879 389.57L-331.959 388.41L-331.489 382.97L-329.109 381.42C-328.859 381.37 -328.489 381.28 -328.129 381.21L-326.879 382.89L-320.889 383.55L-317.779 387.61L-303.529 387.63L-298.949 384.44L-296.359 385.19L-286.279 389.04L-281.979 389.8L-280.439 388.98L-278.639 394.33L-278.579 394.34ZM155.361 292.36L152.771 297.22V297.14L155.361 292.36ZM390.331 18.77H390.301L388.811 16.53L390.331 18.77ZM386.951 25.81V24.28L386.971 25.81H386.951ZM352.211 20.2499L350.431 19.6299L352.201 20.2499H352.211ZM188.671 13.05L188.681 13.0699L185.621 12.91L188.671 13.06V13.05ZM146.551 22.8699L139.081 32.2599L146.541 22.8699H146.551ZM115.011 44.3399H115.001L114.361 44.2599L115.021 44.3399H115.011ZM-223.609 322.84L-225.759 333.11L-225.999 339.74L-231.109 349.37L-241.069 357.74L-251.669 360.45L-264.649 360.04L-268.659 356.71L-276.699 355.73L-275.839 365.2L-278.119 371.48L-282.549 372.11L-293.539 361.4L-296.999 356.4L-304.619 356.14L-305.719 352.35L-305.739 347.62L-310.789 340.94L-312.019 326.26L-309.349 319.62L-311.349 301.27L-307.599 294.53L-321.229 281.89L-311.729 274.58H-305.539L-301.209 273.22L-299.229 264.56L-300.259 261.56L-298.619 260.93L-294.879 256.92L-291.909 258.82H-290.059L-281.259 256.58L-278.959 250.93L-272.939 249.64L-268.179 245.22L-263.889 243.79L-261.359 239.16L-262.129 229.5L-264.409 228.2V227.54L-255.909 227.04L-255.629 229.3L-247.609 231.64L-245.359 237.14L-243.039 247.67L-232.919 248.62L-229.789 254.2L-227.539 262.52L-227.239 273.96L-230.579 278.63L-229.499 303.45L-225.499 304.45L-226.979 312.95L-226.479 313.51C-225.779 314.3 -225.269 314.88 -224.889 315.28L-223.609 322.87V322.84ZM-61.4794 289.44L-64.9694 288.85L-76.2194 295.67L-83.6094 296.26L-92.1194 289.11L-104.639 292.32L-112.629 296.43L-119.029 292.97L-127.209 286.13L-134.929 276.73L-143.519 271.55L-148.369 274.53L-163.649 275.87L-171.029 277.55L-183.459 284.42L-185.229 292.62L-189.639 304.88L-191.609 313.55L-198.969 311.89L-204.149 304.8L-211.589 297.36L-223.949 296.16L-224.919 301.36L-226.519 300.96L-227.449 279.52L-224.119 274.88L-224.449 262.22L-226.849 253.17L-231.019 245.65L-240.499 244.76L-242.409 236.19L-244.669 230.6L-239.799 222.88L-236.819 211.62L-229.099 210.18L-215.469 213.51L-200.739 213.16L-195.089 209.51L-183.269 210.18L-178.529 206.46H-167.719L-165.419 194.55L-166.559 186.2L-176.609 179.88H-179.569L-179.829 169.06L-176.909 166.79L-176.199 157.55L-170.549 150.87L-169.189 140L-167.199 136.62L-162.959 134.32L-164.099 126.67L-164.979 122.26L-159.779 117.32L-150.829 118.21L-145.529 122.62L-143.379 129.59L-132.249 121.74L-126.479 111.2L-114.939 98.06L-99.6594 97.0999L-82.6694 100.01L-74.6194 103.03L-65.8594 103.45L-59.5294 107.79L-55.2394 108.21L-53.8994 108.88L-47.5394 116.15L-49.3494 126.72L-55.7694 133.81L-56.4493 140.92L-59.5294 144.93L-63.1893 152.57L-59.9393 155.8L-53.8094 160.7V163.84L-57.7894 169.68L-64.2294 177.13L-72.4894 187.93H-82.5294L-89.0294 195.88L-93.0894 203.52L-88.5894 208.02L-83.0994 209.05L-75.8694 214.39L-65.2094 229.25L-64.8894 240.52L-60.8293 249.66L-56.2294 251.96L-50.2394 254.52L-52.1194 270.84L-52.7394 276.74L-58.1294 283.08L-61.4894 289.43L-61.4794 289.44ZM38.7506 232.86L33.1906 242.68L25.8107 246.54L25.0507 254.33L26.3306 275.12L0.620605 287.82L-10.1194 294.53L-15.1194 299.79L-21.8594 301.12L-23.2194 302.75L-27.8594 301.11L-35.5793 298.09L-42.4294 297.13L-43.1194 300.9L-54.6893 300.03L-58.1893 297.34L-59.0394 291.41L-55.6594 284.96L-49.7594 278.02L-46.8994 252.59L-54.9194 249.15L-58.4594 247.38L-61.7894 240.11L-62.1294 228.2L-73.4694 212.39L-81.8193 206.12L-87.0693 205.14L-89.2794 202.93L-86.5294 197.7L-81.0594 191.01H-70.9594L-61.8293 179.07L-55.3494 171.55L-50.7194 164.78V159.2L-57.8794 153.48L-59.4594 151.9L-56.9794 146.66L-53.4493 142.07L-52.7794 135.1L-46.4493 128.1L-44.2394 115.19L-51.7694 106.58L-52.5294 106.07L-44.8494 96.5799L-41.8594 90.93L-36.9493 82.52V76.14L-30.9393 73.93L-27.8894 66.31V55.4499L-29.3994 41.02L-23.9194 40.9899L-19.6794 37.65L-15.4994 30.5699L-10.1394 25.4799L-9.53943 19.77L-8.24939 19.1999L5.38062 19.8599L9.58057 21.7499L9.3606 34.8199L16.3806 37.67L21.5706 30.54L29.3406 30.7599L31.7906 26.9899L41.6506 27.92L43.7206 30.7299L51.0106 29.93L52.4706 21.68L58.2006 14.17L68.4606 4.86993L75.1707 5.5899L76.9606 1.50995L87.2306 1.47992L91.6606 4.71991L93.0106 17.42L96.8506 22.89L102.171 25.3199L105.301 28.4899L103.111 33.7499L105.621 44.2599L106.551 46.2199L106.341 48.7199L99.5806 50.4899L92.7706 52.7599H86.7606L82.2006 56.4899L81.6106 59.7199L74.0906 61.3599L72.1807 66.3299L67.9207 72.56L64.2906 94.8699L70.6206 104.29L81.6906 106.5L92.8206 103.16L93.5006 101.56L96.5607 102.78L99.9606 111.65L102.011 121.78L93.3606 125.18L95.8206 138.02L93.1406 143.93L93.6006 152.69L99.4506 156.99L97.4307 169.38L106.511 175.74L106.281 175.93L112.571 179.63L112.291 184.69L112.181 186.28L107.151 188.88L102.831 193.4L97.6006 193.35L91.9106 183.92L81.5206 183.95L78.4806 188.34H76.3706L70.0607 180.01L59.7506 178.82L51.6707 190.78L47.2906 193.7L39.6106 193.68L35.0806 207.66L37.2706 214.61L32.5607 219.27L34.9406 227.24L39.0406 231.01L38.7406 232.89L38.7506 232.86ZM100.431 51.89L93.0607 54.3299H93.0106H93.0406L100.091 51.9799L100.431 51.89ZM87.3706 54.3299L83.8007 57.2199L87.3406 54.3299H87.3806H87.3706ZM73.5607 67.1099L73.5406 67.16L71.7606 69.7499L73.5607 67.1099ZM68.5106 77.8199L67.5507 83.91L68.0006 80.93L68.5106 77.81V77.8199ZM144.221 268.83L144.251 268.76L144.351 268.51L144.221 268.83ZM168.861 251.27H168.851L171.101 247.24L168.861 251.27ZM174.291 230.24L173.901 242.04L174.251 230.25L173.371 229.26L174.291 230.25V230.24ZM157.981 222.04L168.631 226.36L172.721 230.78L172.361 241.74L167.731 250.07L156.761 255.87L145.501 261.5L141.401 271.59L131.631 272.54L127.711 276.13L117.231 275.48L110.371 278.75L106.041 277.4L102.211 272.52L94.9606 272.17L89.0607 267.45L83.1807 275.42L81.4307 286.68L80.7606 297.63L81.3806 305.94L78.6906 308.38H70.9406L62.7306 298.95L62.7906 291.08L59.7806 285.64L46.7506 284.64L45.0106 281.06L41.8007 278.76L43.1707 273.33L46.4606 268.6L44.9806 263.71L43.0906 254.23L45.8206 252.12L47.8806 243.63L44.0607 240.58L41.8206 233.43L42.3906 229.83L37.6906 225.51L36.0806 220.14L40.8107 215.45L38.3506 207.64L41.8706 196.75L48.2406 196.77L53.6707 193.15L61.2806 182.08L68.4207 182.91L74.8606 191.43L80.1306 191.4L83.1707 187.02L90.1906 187L95.8606 196.41L104.181 196.49L108.821 191.49L113.691 188.98L122.531 193.9L129.581 197.54L137.681 203.61L146.721 201.29L147.911 206.31L158.001 222.07L157.981 222.04ZM113.681 187.16L113.841 184.81L113.711 187.15H113.681V187.16ZM147.001 199.64L147.741 199.45L147.821 199.35L147.841 199.43L146.991 199.63L147.001 199.64ZM260.631 159L266.811 160.45H268.861L268.661 166.7L270.371 169.72L270.431 176.96L273.831 178.55L284.071 196.11L282.361 201.97L269.281 204.04L265.011 206.71H233.941L226.951 209.06L213.421 209.34L208.911 206.89L201.381 201.11L179.511 196.77L169.781 192.74L153.471 190.51L146.881 198L138.311 200.2L131.191 194.89L123.971 191.14L115.281 186.3L115.351 185.06L115.831 177.94L115.761 177.89L114.761 177.28L111.691 175.4L118.681 169.59L125.641 170.25L133.451 165.04L137.551 157.79H145.371L153.911 154.03L161.621 152.44L169.651 132.51L174.901 127.39L191.741 132.25L205.041 134.8L212.751 136.6L225.541 140.06L239.891 136.72L245.831 138.91L255.361 139.09L254.501 152.09L260.621 158.98L260.631 159ZM342.351 16.8199H342.321L342.301 16.8699L339.281 13.5899L342.341 16.8199H342.351ZM292.061 -19.9101H291.981L291.511 -21.5201L292.061 -19.9101ZM274.271 -17.1501H274.221H274.281H274.271ZM211.721 36.39L209.401 27.03L210.731 18.68L216.511 14.1999L222.601 9.92999L230.401 11.0099L244.471 3.27997L257.961 -4.62006L265.581 -5.6601L275.111 -15.7501L293.981 -18.61L293.231 -21.2L300.561 -17.2801L311.831 -15.46L321.701 -13.45L328.551 -3.01007L334.081 3.51996V10.28L340.581 17.14L339.201 21.2399L338.121 40.6899L339.351 52.0699L333.531 55.2099L333.601 62.3799L335.421 81.7599L333.831 94.18L325.651 102.99L313.051 108.8L290.991 111.85L277.881 123.92L271.971 134.58H264.581L261.741 137.1L257.681 136.03L253.951 131.45L248.511 128.08L220.201 122.98L211.191 106.2L214.091 99.77L219.021 92.7299L220.021 82.3799L228.971 70.9999L212.041 70.1099L203.431 59.3399L207.721 54.3399L208.961 39.1899L211.741 36.3799L211.721 36.39ZM191.681 7.68988V3.3299L191.741 7.73993L190.781 9.39996L191.681 7.68988ZM195.401 17.77L207.541 19.05L206.251 27.16L208.311 35.4399L205.961 37.81L204.711 53.0899L199.401 59.27L210.481 73.1299L222.841 73.78L217.021 81.18L216.011 91.6299L211.411 98.2499L207.741 106.33L218.181 125.78L247.161 130.9L251.711 133.63L253.651 136.01L246.651 135.93L240.091 133.51L225.591 136.88L213.501 133.61L205.681 131.78L192.461 129.25L174.031 123.92L167.251 130.53L159.371 149.75L153.121 151.04L145.041 154.7H135.751L131.121 162.88L124.841 167.06L117.701 166.38L108.971 173.63L100.791 167.9L102.801 155.55L96.6106 151L96.2706 144.46L99.0406 138.34L96.8806 127.06L105.551 123.66L102.921 110.74L98.9606 100.35L91.8306 97.4999L90.5406 100.55L81.5406 103.25L72.4806 101.44L67.5306 94.0799L70.6707 73.9599L74.8406 67.8699L76.3806 63.9699L84.2906 62.2499L85.0406 58.1099L87.8606 55.8H93.0106L100.441 53.4L109.221 51.1099L109.681 45.56L109.451 45.1099L114.991 45.8199L123.091 45.64L127.801 39.7399L130.981 35.3599L132.181 35.6199L139.941 33.5699L147.401 24.18L153.341 22.65L154.751 16.54L150.631 13.0099L150.581 6.77997L154.771 6.65997L160.951 4.87994L166.041 5.00995L167.411 -1.51007L170.321 -0.870056L176.151 6.06L177.921 11.2399L181.681 14.18L188.251 14.53L195.351 17.7599L195.401 17.77ZM152.091 21.4499L152.121 21.3399L152.101 21.4499H152.091ZM189.341 -13.1H189.331L189.351 -13.32V-13.1H189.341ZM186.651 -29.5501L190.401 -23.4201L190.131 -21.3901L190.331 -23.5001L186.641 -29.5401L186.651 -29.5501ZM187.631 -51.96L187.321 -51.0201L187.241 -50.95L187.631 -51.96ZM186.361 -69.1301H184.331L186.311 -69.1401L189.161 -73.33H189.211L186.361 -69.1201V-69.1301Z" fill="white"/>
<path d="M321.02 121.4C321.02 130.89 307.89 151.85 301.7 161.19C300.21 163.45 296.9 163.45 295.41 161.19C289.23 151.85 276.09 130.89 276.09 121.4C276.09 108.99 286.15 98.9399 298.55 98.9399C310.95 98.9399 321.01 109 321.01 121.4H321.02Z" fill="#99BBDE"/>
<path d="M298.561 133.75C305.194 133.75 310.571 128.373 310.571 121.74C310.571 115.107 305.194 109.73 298.561 109.73C291.928 109.73 286.551 115.107 286.551 121.74C286.551 128.373 291.928 133.75 298.561 133.75Z" fill="#0054AC"/>
<path d="M262.852 135.84C262.852 145.33 249.722 166.29 243.532 175.63C242.042 177.89 238.732 177.89 237.242 175.63C231.062 166.29 217.922 145.33 217.922 135.84C217.922 123.43 227.982 113.38 240.382 113.38C252.782 113.38 262.842 123.44 262.842 135.84H262.852Z" fill="#99BBDE"/>
<path d="M240.389 148.19C247.022 148.19 252.399 142.813 252.399 136.18C252.399 129.547 247.022 124.17 240.389 124.17C233.756 124.17 228.379 129.547 228.379 136.18C228.379 142.813 233.756 148.19 240.389 148.19Z" fill="#0054AC"/>
<path d="M220.301 183.86C220.301 193.35 207.171 214.31 200.981 223.65C199.491 225.91 196.181 225.91 194.691 223.65C188.511 214.31 175.371 193.35 175.371 183.86C175.371 171.45 185.431 161.4 197.831 161.4C210.231 161.4 220.291 171.46 220.291 183.86H220.301Z" fill="#99BBDE"/>
<path d="M197.838 196.21C204.471 196.21 209.848 190.833 209.848 184.2C209.848 177.567 204.471 172.19 197.838 172.19C191.205 172.19 185.828 177.567 185.828 184.2C185.828 190.833 191.205 196.21 197.838 196.21Z" fill="#0054AC"/>
<path d="M277.692 195.57C277.692 205.06 264.562 226.02 258.372 235.36C256.882 237.62 253.572 237.62 252.082 235.36C245.902 226.02 232.762 205.06 232.762 195.57C232.762 183.16 242.822 173.11 255.222 173.11C267.622 173.11 277.682 183.17 277.682 195.57H277.692Z" fill="#99BBDE"/>
<path d="M255.229 207.92C261.862 207.92 267.239 202.543 267.239 195.91C267.239 189.277 261.862 183.9 255.229 183.9C248.596 183.9 243.219 189.277 243.219 195.91C243.219 202.543 248.596 207.92 255.229 207.92Z" fill="#0054AC"/>
<path d="M241.77 239.69C241.77 249.18 228.64 270.14 222.45 279.48C220.96 281.74 217.65 281.74 216.16 279.48C209.98 270.14 196.84 249.18 196.84 239.69C196.84 227.28 206.9 217.23 219.3 217.23C231.7 217.23 241.76 227.29 241.76 239.69H241.77Z" fill="#99BBDE"/>
<path d="M219.311 252.04C225.944 252.04 231.321 246.663 231.321 240.03C231.321 233.397 225.944 228.02 219.311 228.02C212.678 228.02 207.301 233.397 207.301 240.03C207.301 246.663 212.678 252.04 219.311 252.04Z" fill="#0054AC"/>
<path d="M351.078 181.52C351.078 191.01 337.948 211.97 331.758 221.31C330.268 223.57 326.958 223.57 325.468 221.31C319.288 211.97 306.148 191.01 306.148 181.52C306.148 169.11 316.208 159.06 328.608 159.06C341.008 159.06 351.068 169.12 351.068 181.52H351.078Z" fill="#99BBDE"/>
<path d="M328.619 193.87C335.252 193.87 340.629 188.493 340.629 181.86C340.629 175.227 335.252 169.85 328.619 169.85C321.986 169.85 316.609 175.227 316.609 181.86C316.609 188.493 321.986 193.87 328.619 193.87Z" fill="#0054AC"/>
<path d="M354.989 251.79C354.989 261.28 341.859 282.24 335.669 291.58C334.179 293.84 330.869 293.84 329.379 291.58C323.199 282.24 310.059 261.28 310.059 251.79C310.059 239.38 320.119 229.33 332.519 229.33C344.919 229.33 354.979 239.39 354.979 251.79H354.989Z" fill="#99BBDE"/>
<path d="M332.522 264.14C339.155 264.14 344.532 258.763 344.532 252.13C344.532 245.497 339.155 240.12 332.522 240.12C325.889 240.12 320.512 245.497 320.512 252.13C320.512 258.763 325.889 264.14 332.522 264.14Z" fill="#0054AC"/>
</svg>
