<svg width="513" height="400" viewBox="0 0 513 400" fill="none" xmlns="http://www.w3.org/2000/svg">
<path d="M321.063 -103.074L317.436 -103.324L315.779 -100.12L314.929 -94.4595L310.643 -88.7994L302.648 -88.6088L295.965 -95.1047V-101.153L290.22 -102.085L289.26 -104.093L279.382 -104.042L278.026 -102.195L272.53 -105.333L273.351 -109.27L255.654 -109.739L254.584 -109.717L253.873 -94.2323L253.946 -92.0034L253.631 -86.6732L249.601 -82.3475L242.273 -79.4441L231.867 -81.6143L226.687 -84.0778H221.235L217.065 -88.6968L205.238 -88.6088L192.861 -90.5224H191.63L187.453 -87.5677L183.518 -79.4514L177.128 -72.3176L174.175 -69.121L175.648 -57.808L178.601 -53.8708H171.72L170.738 -52.1479H160.413L156.478 -49.6844L153.525 -47.4702L151.312 -45.7473L140.737 -46.2385L138.561 -43.0345H137.051L136.648 -37.521L139.953 -35.0062L139.997 -31.9708L139.257 -29.7566L133.988 -24.9837L132.867 -20.6579L133.607 -16.2295L138.774 -14.0153L141.522 -9.52092L140.833 -4.27143L140.745 -1.71256L143.698 0.252305V4.43147H140.503L140.994 9.21171L142.467 10.0842L142.511 13.3176L140.254 17.218L145.662 19.6815L155.496 20.6639L160.01 17.1668L164.839 13.7795L170.621 14.5786L180.572 9.10181L190.655 3.19969L196.063 2.45918L203.025 -4.91654H202.944L209.928 -5.94301L215.973 -6.88884L215.028 -10.1441L222.774 -5.98704L230.724 -4.76261L238.419 -3.19359L243.621 4.73935L247.938 9.84224V14.7619L252.884 19.9895L260.102 22.4969L264.543 27.7465L268.243 33.9638L272.772 35.2909L277.044 31.9622L281.624 27.3652L285.552 26.5734L285.493 17.6579L288.065 21.4558L297.364 24.3665L307.257 24.6011H307.184L308.415 22.1376L311.368 21.6465L316.776 19.4323L323.166 15.4951L327.834 10.3262L329.556 9.34372L328.816 -1.47798L330.78 -7.62935L330.04 -24.6024L333.975 -28.0483L334.715 -41.0843L333.484 -47.4775V-68.879L331.52 -71.0932L332.011 -87.817L327.343 -92.7366L322.917 -96.6737L321.07 -103.082L321.063 -103.074Z" fill="#7AA6D4"/>
<path d="M139.193 -29.698L134.092 -24.903L132.927 -20.5992L133.726 -16.2295L138.768 -14.0153L141.472 -9.58699L140.732 -1.96193L143.926 0.252281L144.176 4.92262H140.49L141.23 9.35104L142.461 10.0916V13.2882L140.394 17.218L135.609 16.9907L133.367 15.2531L132.107 11.5506L127.468 6.02972L123.841 5.23059L122.793 10.2088L119.84 10.1502L115.414 11.4406L111.237 11.5653L111.295 17.7752L114.182 20.2387L113.442 23.3767L109.383 24.4251L103.916 31.3097L98.8744 32.666L97.5188 32.3582L94.6902 36.2953L91.6785 40.0492L86.2704 40.1739L79.9977 39.3746L78.7667 32.4901L80.4887 28.311L77.5355 25.3563L73.6004 23.6333L71.1383 20.1874L70.1563 10.5974L66.2213 7.64268H57.6183L56.3872 10.5974L51.7193 10.1062L48.0333 13.5521L43.8564 17.24L39.4303 23.1421L38.4484 28.5529L34.5133 29.0442L33.0404 27.0792L24.6792 26.3387L22.9572 29.0442H17.3L15.4901 31.361L13.6067 33.9638L9.92076 32.4901L10.17 22.8928L6.23489 21.1699L-4.09022 20.6786L-6.05405 21.4191L-6.54506 25.8475L-10.231 29.5354L-13.1841 34.455L-15.8882 36.6692H-20.8052L-22.5272 33.7145L-24.7403 30.5179L-24.4911 23.6333L-26.455 21.1699L-26.2058 17.2327L-30.3828 15.759L-29.6427 11.8218L-27.4296 9.85689L-23.2527 10.1062L-20.5487 7.40076L-14.8916 5.92707L-2.5953 1.98991L3.79463 -3.6702L9.69365 -5.1439L15.1017 -10.5547L16.8237 -12.2777H32.8059L35.759 -14.7412L38.4631 -15.7237L47.8062 -23.8399L48.2971 -27.0366L54.4452 -31.9562L58.3803 -33.6792L62.3154 -34.4197L70.4275 -39.5886L69.9365 -44.5082L74.1134 -49.1786L79.0305 -54.0982L85.1786 -60.4915L87.6408 -66.1516L89.3628 -74.7591L91.5759 -82.1422L95.0199 -89.7673L102.399 -96.6518L111.002 -102.803L118.132 -107.723L121.818 -109.688L127.475 -109.937L128.948 -111.902L136.078 -112.393L144.44 -119.527L152.061 -124.938L156.728 -130.598L159.183 -137.732L161.147 -145.848L162.378 -151.259L164.1 -153.722L163.118 -166.025L166.313 -170.945L170.981 -178.819L175.041 -185.52L177.313 -184.904L189.36 -178.936L193.478 -176.231L193.844 -166.45L199.992 -161.223L209.46 -159.866L213.578 -150.394L209.152 -144.184L202.696 -140.005L191.815 -138.773L190.708 -126.903L189.294 -119.769L185.051 -111.528L184.435 -98.0009L192.503 -90.5664L192.547 -90.625L191.624 -90.4418L187.564 -87.4871L183.571 -79.3708L174.228 -69.0403L175.825 -57.7861L178.778 -53.8489L171.773 -53.7902L170.725 -52.0673H160.458L151.298 -45.674L140.607 -46.1065L138.519 -43.0346H137.046L136.738 -37.499L140.116 -34.9768L140.057 -31.9049L139.2 -29.6907L139.193 -29.698Z" fill="#7AA6D4"/>
<path d="M-20.8069 36.6401L-15.9338 36.6108L-13.1272 34.3966L-10.262 29.389L-6.5174 25.8258L-6.05574 21.3973L-4.26777 20.6055L6.20386 21.1115L10.1536 22.893L9.99243 32.4464L13.5904 33.9054L17.2178 28.9124L22.8749 29.0738L24.6995 26.2656L33.1193 27.0649L34.5483 29.0004L38.3955 28.5825L39.3627 23.0984L43.8767 17.2256L51.7762 10.0624L56.3708 10.5537L57.6458 7.64291L66.2855 7.61365L70.2353 10.5097L71.2465 20.0263L73.716 23.5456L77.5192 25.2832L80.487 28.2892L78.7356 32.505L80.487 39.8514L81.2271 41.3251L80.978 44.2799L75.3208 45.7536L70.1547 47.4765H65.9777L63.2737 49.6907L62.7827 52.3961L57.1256 53.6279L55.8946 56.8245L52.6995 61.4949L51.8055 66.9864L50.2813 76.9502L54.4143 83.1016L61.7935 84.5753L69.1727 82.3611L69.8982 80.6528L73.6354 82.1412L75.2622 86.4009L76.3541 89.2897L78.0468 97.6551L71.7008 100.148L73.3935 108.99L71.393 113.404L71.6862 119.013L76.0976 122.253L74.6247 131.323L81.9673 136.47L85.7045 138.757L85.2868 144.938L81.0293 147.137L77.8343 150.583L72.8733 150.539L68.7111 143.633L62.3357 143.647L60.1081 146.859L57.4041 146.873L52.7362 140.693L46.3462 139.952L42.9973 144.886L40.6891 148.332L37.0031 150.796L31.8589 150.781L30.5545 154.748L28.9131 159.895L30.6205 165.305L27.1617 168.737L28.62 173.627L31.8443 176.596L31.4925 178.811L27.147 186.48L22.0175 189.141L21.5119 194.061L21.761 197.969L22.208 205.271L22.5012 210.095L15.6202 213.512L10.7326 215.909L3.05282 219.678L-4.78069 224.598L-8.46666 228.52L-13.3837 229.503L-14.6148 230.976L-18.7917 229.503L-24.4488 227.288L-28.1348 226.797L-28.6258 229.503L-38.4598 228.762L-41.6548 226.299L-42.3949 221.13L-39.6909 215.961L-35.514 211.041L-35.023 206.371L-33.5501 193.577L-38.7163 191.363L-41.6694 189.889L-44.3735 183.987L-44.6226 175.379L-49.7888 168.246L-52.7419 164.066L-58.3991 159.887L-62.3342 159.147L-64.7891 156.683L-62.3342 152.013L-57.9081 146.602H-50.529L-44.1389 138.237L-39.4711 132.826L-36.2761 128.155V124.959L-41.1932 121.022L-42.9152 119.299L-40.7022 114.628L-38.24 111.432L-37.749 106.263L-33.0811 101.094L-31.6082 92.4863L-36.7744 86.5842L-38.2473 85.8437L-31.8573 77.9693L-29.6444 73.7903L-26.2002 67.8881V62.7193L-21.5323 60.9963L-19.5685 56.0767V48.4516L-20.7995 36.6254L-20.8069 36.6401Z" fill="#7AA6D4"/>
<path d="M85.339 144.85L92.4398 148.831L97.3568 151.361L100.171 153.37L103.095 155.599L110.408 153.846L111.536 158.678L115.515 164.815L118.593 169.492L126.375 172.718L129.673 176.458L129.409 185.248L125.709 191.891L117.721 196.136L109.499 200.271L107.689 204.7L106.429 207.882L98.9324 208.637L95.9792 211.313L88.1456 210.822L82.9501 213.285L79.0297 212.068L76.3111 208.607L71.1815 208.395L67.4809 205.425L64.0514 210.081L62.8203 217.875L62.3147 225.698L62.7763 232.465L60.1309 234.928H53.4479L49.8059 230.779L46.8088 227.303V221.401L45.0868 218.205L35.4945 217.464L34.0216 214.509L31.3176 212.559L32.5486 207.625L34.7617 204.428L33.7798 201.232L32.3068 193.607L34.5199 191.884L35.7656 186.737L33.2888 184.786L31.4421 178.87L31.8085 176.641L28.6135 173.686L27.1406 168.766L30.5848 165.321L28.8628 159.91L31.8158 150.811H36.9821L40.668 148.348L46.3252 139.982L52.7151 140.722L57.383 146.874H60.087L62.3001 143.677H68.69L72.8669 150.562H77.784L80.9789 147.116L85.3317 144.858L85.339 144.85Z" fill="#0054AC"/>
<path d="M106.551 207.867L98.9302 208.607L95.9771 211.313L88.1069 210.822L82.9407 213.285L79.0056 212.053L76.3016 208.607L71.1354 208.358L67.4494 205.404L64.0053 210.074L62.7742 217.948L62.2833 225.822L62.7742 232.465L60.0702 234.929H53.4311L46.792 227.304L46.836 221.401L45.07 218.205L35.485 217.464L34.0561 214.51L31.3081 212.545L32.5538 207.61L34.7669 204.428L33.8143 201.261L32.2901 193.621L34.5324 191.884L35.7782 186.751L33.272 184.75L31.4254 178.862L27.1239 186.473L21.9577 189.178L21.4667 194.098L22.4487 210.089L15.0694 213.776L3.02237 219.678L-4.84782 224.598L-8.53379 228.535L-13.4362 229.503L-14.6966 231.006L-14.6819 238.866L-18.126 244.277L-23.7832 254.116L-30.4223 263.464L-36.8122 272.321L-41.9784 274.777L-42.9604 276.25H-48.8594L-48.3684 287.072L-48.1192 292.732L-40.2491 293.223V290.518L-43.6932 289.044L-40.7401 284.616L-38.2851 281.661L-34.35 283.626L-35.3321 288.795V292.732C-35.3321 292.732 -31.3969 295.687 -30.415 295.687C-29.433 295.687 -16.6458 297.41 -16.6458 297.41L-5.0897 296.669L-1.15461 294.455L5.72633 297.161L18.2644 299.866L26.6256 304.536L30.5607 303.796L29.5788 300.35L29.0878 292.234L33.0228 286.574L39.662 278.208L40.893 270.334L44.579 265.663L50.478 264.432L59.3301 260.494L61.7923 256.066L63.7562 248.192L72.6083 241.307L83.1825 240.567L93.7567 241.798L100.147 245.486L101.378 253.111L93.7567 254.343C93.7567 254.343 89.0888 256.308 89.0888 258.771C89.0888 261.235 88.8397 264.923 88.8397 264.923L90.8035 268.86L87.3594 288.539L85.8865 293.209L90.0634 297.388L94.2404 302.557L98.9082 302.806L107.511 299.61L112.919 298.136L113.41 290.019L121.771 280.422L123.493 274.029L128.161 271.074L130.125 264.923L132.089 262.958L126.432 257.547L125.692 243.529L126.417 240.985L120.02 238.338L114.744 232.172L113.886 225.5L115.872 221.856L115.513 211.899L114.128 209.062L106.522 207.86L106.551 207.867Z" fill="#7AA6D4"/>
<path d="M155.384 20.619L145.704 19.6805L140.435 17.2391L135.576 16.9751L133.363 15.2448L132.11 11.5643L127.45 6.02875L123.822 5.22961L122.774 10.2078L119.807 10.1345L115.395 11.4396L111.218 11.5643L111.262 17.7596L114.15 20.2377L113.424 23.3758L109.364 24.4242L103.89 31.3087L98.8342 32.6431L97.5004 32.3498L94.7378 36.1623L91.6528 40.0335L86.2448 40.1582L80.0234 39.3444L80.8514 43.9413L70.1747 47.4753L66.027 47.4606L63.2791 49.6895L62.7734 52.3949L57.1309 53.6267L55.8705 56.8893L52.6902 61.501L50.25 77.0004L54.427 83.1518L61.8061 84.6254L69.1853 82.4112L69.9255 80.6882L73.6114 82.1619L76.3155 89.2958L78.0375 97.6613L71.6476 100.125L73.3696 108.982L71.4057 113.41L71.6548 119.07L76.0809 122.267L74.608 131.365L81.9873 136.534L88.641 130.992L93.7412 131.556L99.0247 127.993L102.102 122.289L108.551 122.274L114.406 119.583L119.601 118.572L122.811 110.727L125.5 104.055L129.926 99.8755L142.787 103.578L154.402 105.866L167.196 109.238L177.902 106.892L182.556 108.556L187.465 108.483H190.536L187.334 104.817L183.655 102.515L166.075 99.377L162.697 98.8198L158.828 91.7372L155.626 85.4685L158.154 80.153L161.524 75.38L162.14 67.8136L164.602 64.6756L167.636 60.8044L166.075 60.4892L156.857 60.1226L153.435 55.5256L149.602 51.1998L153.046 46.9548L154.211 35.8837L155.867 33.9775L155.376 31.3307L154.27 27.5182L155.406 20.5897L155.384 20.619Z" fill="#0054AC"/>
<path d="M155.382 20.6566L154.283 27.5558L155.887 34.0225L154.004 35.9214L153.095 47.073L149.578 51.1715L156.789 60.1969L167.524 60.7615L162.116 67.646L161.376 75.2711L157.932 80.1907L155.477 85.6015L162.607 98.8867L183.506 102.575L187.192 104.789L190.263 108.565L194.161 109.576L196.257 107.56L201.965 107.545L204.384 103.102L206.362 99.3706L215.808 90.785L224.066 89.7L232.178 88.5416L241.39 84.2158L247.699 77.2433L249.011 67.6313L247.494 53.239V48.9133L251.847 46.4278L250.821 37.3291L251.605 23.6113L252.821 20.0041L247.948 14.6886L248.021 9.75424L243.5 4.53402L238.429 -3.24499L230.647 -4.85061L222.718 -6.07504L214.855 -10.2688L215.998 -6.9695L209.608 -5.93569L202.999 -4.98262L196.066 2.39319L190.68 3.11169L180.238 9.18976L170.514 14.5346L164.798 13.6768L159.888 17.1521L155.367 20.6273L155.382 20.6566Z" fill="#0054AC"/>
<path d="M247.561 53.3191L248.902 67.6528L247.67 77.25L241.281 84.1346L231.688 88.563L215.706 90.7771L206.363 99.3846L201.937 107.501H196.28L194.067 109.466L190.322 108.483L189.641 118.814L193.576 123.242L197.753 124.225H202.67L206.326 129.973L213.991 137.964L223.32 146.11V146.205L242.541 151.785L249.209 152.269L261.813 149.534L261.872 149.519L274.388 145.062L280.353 143.163L285.666 146.785L292.649 151.528L301.252 156.697L303.495 160.363L308.595 162.944L312.31 164.821L306.902 158.669L302.234 148.83L294.122 135.303L287.974 118.33L284.288 106.768L282.566 98.1603L286.743 91.5176L288.707 88.8123L288.216 86.3488L286.985 79.7062L288.949 76.0183L293.375 65.9297L298.292 49.4479L303.949 36.4121L305.18 32.2329L308.375 31.4924L309.115 29.0289L307.884 24.6005L297.31 24.3512L287.967 21.3965L285.409 17.562L285.512 26.5655L281.569 27.3573L276.99 31.947L272.681 35.2609L268.255 33.9559L264.422 27.6066L260.113 22.5183L252.807 19.9742L251.576 23.6181L250.836 37.3945L251.818 46.4933L247.48 48.8394L247.524 53.3191H247.561Z" fill="#0054AC"/>
<path d="M200.107 124.182L202.665 124.197L206.336 129.937L213.986 137.936L223.476 146.236L242.514 151.779L249.153 152.27L261.845 149.535L274.632 144.997L280.37 143.157L292.285 151.28L298.272 154.895L301.299 156.691L303.57 160.394L312.708 165.064L315.046 166.787L315.537 169.001L312.093 171.465L302.5 170.973L291.926 172.205L280.128 181.802L272.998 189.919L269.312 196.561L266.117 202.463L265.868 214.268L266.85 220.661L264.388 224.84L265.37 232.465L261.193 235.911L253.814 240.09L247.175 242.055H238.081L235.626 244.02L229.478 250.171L223.579 255.582L218.171 257.056L217.922 264.439L213.254 267.144L206.864 268.376L202.196 265.92L196.297 261.741L197.037 258.544L200.723 257.804L204.658 256.821L206.131 254.116L202.936 252.393L203.427 233.946L204.409 231.981L208.095 230.258L208.344 227.553L206.131 224.847L203.669 220.668L203.42 215.749L205.384 213.285L210.55 211.811L211.781 209.597L212.272 203.937L219.153 201.972L223.33 198.035L226.774 195.08L228.987 189.178L231.449 187.213L230.467 182.785L227.272 178.357L221.124 176.392L215.716 175.9L213.261 175.16L212.521 169.5L212.03 165.321L209.568 161.142L209.817 156.713L211.29 151.302L209.568 148.106L206.615 142.937L203.42 137.768L201.207 136.785V131.866L199.976 129.651L200.107 124.197V124.182Z" fill="#0054AC"/>
<path d="M200.182 124.24L197.786 124.181L193.733 123.25L189.732 118.8L190.282 108.572L182.514 108.484L177.846 106.761L167.272 109.224L158.178 106.761L152.492 105.434L142.702 103.55L129.834 99.8251L125.334 104.209L119.589 118.477L114.409 119.547L108.51 122.253H102.12L98.9247 127.913L93.7585 131.359L88.5924 130.868L81.8359 136.484L83.1843 137.261L85.6465 138.735L85.302 144.93L92.2856 148.823L97.6056 151.587L103.102 155.708L110.246 153.868L114.907 148.574L125.972 150.048L133.102 153.002L141.126 154.564L149.084 156.199L154.39 160.276L158.105 162.314L168.503 162.094L173.42 160.371H196.533L199.486 158.406L204.066 157.724L209.796 156.771L211.386 151.316L203.465 137.716L201.296 136.704L201.252 131.814L200.006 129.621L200.182 124.232V124.24Z" fill="#0054AC"/>
<path d="M212.038 165.24L209.59 161.104L209.891 156.837L199.588 158.37L196.517 160.335L173.376 160.379L168.532 162.087L158.09 162.307L154.242 160.137L149.091 156.185L133.065 152.959L125.92 149.938L114.899 148.589L110.297 153.78L111.455 158.656L118.497 169.551L126.206 172.674L129.694 176.435L133.6 178.591L140.224 182.264L149.626 182.293L152.271 184.002L156.448 184.742L160.786 188.789L165.527 193.086L167.521 191.363L167.997 185.211L168.231 182L171.705 179.339L175.244 181.362L181.495 182.088L186.412 187.975L193.322 190.622L198.239 189.64L199.221 184.969L201.434 180.541L207.333 178.818L212.001 179.8L214.954 178.077L215.548 175.819L213.232 175.042L212.016 165.218L212.038 165.24Z" fill="#0054AC"/>
<path d="M197.762 190.394L193.585 190.643L186.455 187.938L181.538 182.036L175.148 181.295L171.704 179.33L168.26 182.036L167.52 191.384L165.556 193.107L156.462 184.741L152.285 184.001L149.581 182.278H140.238L129.715 176.42L129.422 185.233L125.736 191.875L117.375 196.304L109.505 200.241L106.383 207.91L114.172 209.09L115.404 211.796L115.894 221.884L113.931 225.572L114.671 232.215L120.079 238.366L126.469 241.071L129.664 237.875L131.386 232.706L134.339 226.063L145.404 220.894L153.516 218.189L162.859 218.68L173.184 221.144L176.137 225.081L178.841 229.018L179.332 237.625L185.231 240.58L185.722 232.955L189.657 230.741L192.12 227.053L191.629 225.088L188.184 221.642C188.184 221.642 185.971 218.687 185.722 217.214C185.473 215.74 185.473 211.312 185.473 211.312L184.491 206.883L186.704 201.964L188.426 198.518H193.343L194.816 197.044L198.26 196.304L197.769 190.401L197.762 190.394Z" fill="#0054AC"/>
<path d="M389.022 -246.711L382.529 -243.331L382.002 -237.649L379.422 -232.488L377.15 -229.87L378.22 -222.297L375.685 -217.516L374.578 -216.644L371.874 -218.946L366.408 -221.175L359.974 -216.981L353.657 -215.647L348.235 -218.807L345.105 -223.675L347.846 -227.429L343.801 -231.931L330.354 -232.972L324.155 -234.695L316.996 -237.085L311.947 -240.45L307.337 -244.16L308.869 -247.335L311.382 -251.03L311.163 -256.741L308.818 -257.709L305.535 -265.085L307.689 -271.793L308.81 -276.398L302.054 -282.095L299.672 -286.618L298.485 -292.975L295.356 -299.31L297.914 -303.261L301.541 -306.795L303.292 -314.486L305.923 -320.513L311.478 -327.134L313.683 -337.933L310.43 -343.769L314.343 -348.279L311.346 -354.005L310.554 -359.496L316.666 -358.506L320.154 -363.235L316.754 -371.396L316.27 -388.684L320.645 -393.156L316.937 -401.353L325.584 -408.89L334.238 -403.164L347.392 -415.599L364.532 -422.725L372.27 -422.439L383.921 -427.498L389.564 -423.701L397.896 -431.003L408.961 -434.053L408.653 -434.676L407.041 -434.662L406.088 -435.615L397.053 -433.122L389.388 -426.56L384.163 -430.079L371.845 -424.734L364.129 -425.02L346.337 -417.622L333.996 -406.06L326.617 -410.943L328.544 -428.019L324.331 -436.45L313.559 -443.995L303.417 -435.754L290.227 -433.063L282.642 -435.585L270.632 -443.555L262.337 -440.542L252.583 -436.832L230.907 -437.814L218.208 -435.16V-434.009L218.113 -433.987L218.977 -432.997L231.09 -435.534L252.957 -434.544L263.135 -438.415L270.339 -441.033L281.521 -433.613L290.087 -430.717L304.413 -433.642L313.661 -441.157L322.557 -434.925L326.214 -427.616L324.316 -410.811L314.174 -401.976L317.941 -393.655L313.976 -389.608L314.489 -371.146L317.567 -363.573L315.669 -360.992L307.872 -362.26L309.14 -353.513L311.632 -348.623L307.689 -344.085L311.302 -337.596L309.382 -328.182L304.091 -321.877L301.16 -315.227L299.496 -307.983L296.258 -304.823L292.769 -299.478L296.309 -292.425L297.496 -286.061L300.171 -280.87L306.297 -275.599L305.527 -272.446L303.131 -264.99L307.14 -255.993L308.979 -255.238L309.111 -251.726L306.934 -248.508L304.531 -243.559L307.836 -240.905L303.908 -240.963L294.997 -232.583L283.734 -231.681L275.864 -236.007L273.233 -241.411L258.38 -250.099L249.711 -250.077L246.325 -255.304L241.349 -252.445L231.603 -261.94L225.177 -262.123L222.062 -259.322L212.294 -262.174L211.818 -261.096L211.862 -261.082L211.825 -259.945L222.634 -256.785L226.012 -259.828L230.651 -259.696L240.998 -249.622L245.592 -252.269L248.479 -247.804L257.764 -247.826L271.489 -239.805L274.142 -234.357L282.378 -229.826L282.349 -224.54L286.511 -222.78L289.164 -215.808L292.161 -213.806L289.047 -202.427L287.647 -197.603L281.008 -197.984L283.214 -187.082L282.738 -179.428L290.644 -175.982L288.849 -169.654L284.203 -164.273L280.4 -162.799L279.008 -155.394L274.369 -151.369L274.017 -139.99L268.287 -128.567L268.697 -124.461L263.04 -122.101L256.775 -122.049L253.133 -115.979L253.528 -109.783L252.803 -94.2471L252.854 -92.1503L252.576 -87.194L248.948 -83.3081L242.243 -80.6466L232.38 -82.6922L227.287 -85.0751L221.755 -85.1851L217.68 -89.8114L205.435 -89.694L192.905 -91.7323L185.555 -98.4482L186.207 -111.242L190.274 -119.38L191.783 -126.404L192.751 -137.981L203.215 -138.964L209.715 -143.297L214.903 -150.364L210.213 -160.922L200.518 -162.359L194.898 -167.052L194.546 -176.869L189.753 -180.051L177.45 -186.019L175.537 -186.657L175.01 -185.601L175.633 -185.396L175.076 -185.55L174.511 -184.619L176.593 -183.929L188.625 -178.093L192.318 -175.63L192.663 -165.959L199.558 -160.211L208.645 -158.862L212.302 -150.636L208.286 -145.071L202.438 -141.171L190.647 -140.063L189.548 -126.734L188.185 -120.268L184.082 -112.049L183.239 -97.4951L190.34 -91.0065L186.61 -88.367L182.616 -80.1335L176.343 -73.1316L173.031 -69.5463L174.614 -57.4123L176.38 -55.0514H171.104L170.122 -53.3284H160.127L155.84 -50.6451L150.989 -46.9498L140.202 -47.4557L138.011 -44.2224H136.04L135.52 -37.0446L138.876 -34.4931L138.912 -32.2056L138.326 -30.4533L133.028 -25.651L131.76 -20.7607L132.64 -15.4818L138.04 -13.1649L140.393 -9.3231L139.74 -4.36681L139.63 -1.1775L142.606 0.809382V3.25083H139.286L139.968 9.85677L141.389 10.6999L141.426 12.9875L139.667 16.0155L136.062 15.8175L134.398 14.5198L133.255 11.1618L128.14 4.96653L123.011 3.83741L121.926 9.01369L119.728 8.95498L115.287 10.2747L110.143 10.4287L110.202 18.2517L112.957 20.6199L112.546 22.4161L108.787 23.384L103.313 30.2758L98.8872 31.4489L97.0919 31.053L93.9262 35.43L91.1709 38.8907L86.4664 39.0079L81.3661 38.3408L79.9958 32.5779L81.8938 28.0103L78.3984 24.4617L74.5365 22.6141L72.4114 19.5934L71.3782 9.86411L66.7249 6.45481L56.9789 6.49151L55.7404 9.31423L51.4609 8.85232L43.0485 16.5067L38.3733 22.6067L37.5012 27.5264L35.1416 27.783L33.8006 25.9648L24.1937 25.0555L22.3471 27.9076L16.7339 27.7463L13.2751 32.5046L11.2159 31.6688L11.3699 22.1522L6.73857 20.0626L-4.41451 19.4468L-7.04521 20.6199L-7.53621 25.2829L-10.9803 28.5601L-13.9335 33.6338L-16.2565 35.4667L-20.0596 35.4887L-23.4671 30.1292L-23.2766 23.1933L-25.2112 20.7665L-24.9327 16.4188L-28.9997 14.9597L-28.1717 10.5753L-29.5859 11.8364V11.8511L-30.7144 11.807L-31.5938 16.4407L-27.3069 17.9731L-27.5341 21.4923L-25.5702 23.9558L-25.7534 30.7597L-21.8477 36.9037L-20.6385 48.4513V55.8563L-22.3386 60.1015L-27.2776 61.9271V67.5798L-30.5898 73.2547L-32.6784 77.2505L-38.7166 84.6849L-40.7391 84.487L-45.4436 81.2683L-51.9801 81.019L-57.9157 78.8122L-70.8275 76.5759L-83.2337 77.3532L-92.3936 87.8009L-96.5705 95.382L-101.744 99.0332L-102.594 96.2691L-107.533 92.156L-115.821 91.3348L-120.035 95.3454L-121.566 93.8056L-123.339 89.8172L-122.863 80.8797L-123.098 75.2563L-120.401 69.6181L-120.416 54.5293L-118.972 45.3206L-116.744 37.6222L-115.051 29.8652L-113.601 25.5102L-111.952 21.4996L-108.317 17.3718L-106.148 14.3365L-104.631 14.1532L-95.9623 14.6518V13.5594L-95.8597 13.5153L-95.8157 12.401L-104.69 11.9024L-107.409 12.203L-110.09 15.9715L-113.776 20.1506L-115.718 24.7256L-117.228 29.2713L-118.928 37.0723L-121.17 44.8367L-122.658 54.3607V69.1122L-125.377 74.7944L-125.12 80.8724L-125.626 90.2497L-123.545 94.9274L-121.097 97.4642L-120.401 100.954L-119.815 104.935L-122.086 106.167L-123.984 109.393L-125.076 117.363L-128.769 121.725L-137.819 123.294L-141.974 121.124L-149.17 115.471H-154.835L-163.027 114.518L-168.472 112.15L-172.217 110.28L-171.711 103.931L-175.47 102.992L-181.311 100.074L-182.19 97.149L-182.996 98.4467V98.4833L-183.949 99.1872L-183.209 101.665L-176.379 105.082L-174.129 105.676L-174.606 111.629L-169.439 114.21L-163.782 116.673L-154.967 117.751H-149.947L-143.198 123.03L-138.186 125.67L-129.392 124.145L-129.751 128.815L-132.001 130.567L-131.73 141.858H-128L-122.086 145.583L-121.449 150.29L-122.709 156.808H-129.539L-132.954 159.491L-141.498 159L-145.719 161.735L-155.575 161.969L-165.746 159.484L-173.301 160.891L-175.668 170.056L-178.951 175.269L-183.187 174.03L-183.472 171.75L-193.959 172.366V176.31L-192.185 177.322L-191.768 182.535L-192.867 184.551L-195.395 185.394L-199.022 188.628L-203.998 189.691L-205.705 193.892L-210.63 195.175H-211.172L-214.389 193.122L-218.06 197.066L-220.815 198.122L-219.562 201.781L-220.588 206.253L-222.017 206.73H-227.132L-235.42 213.101L-242.345 212.668L-242.821 211.957L-250.032 211.209L-251.475 209.523L-258.474 208.313L-261.896 202.147L-265.868 198.775L-264.761 189.06L-265.824 188.481V188.466L-266.893 187.733L-268.256 199.75L-263.772 203.452L-259.925 210.381L-252.663 211.635L-251.16 213.387L-244.111 214.113L-243.605 214.875L-235.589 215.374L-226.194 224.091L-228.429 228.102L-226.949 241.71L-228.898 246.556L-227.894 258.514L-224.252 263.331L-224.238 266.198L-222.889 271.015L-216.792 271.227L-214.763 274.123L-206.511 282.203L-206.563 286.536L-203.793 288.457L-203.844 290.569L-204.899 291.126L-206.951 290.781L-214.352 287.966L-217.364 287.086L-221.021 289.637L-229.631 289.623L-231.822 286.763L-236.197 286.279L-236.695 285.612L-236.387 279.285L-238.41 275.436L-242.308 273.192L-243.378 270.399L-248.237 264.218L-252.208 261.315L-256.524 261.601L-258.188 263.507L-259.844 263.346L-261.397 261.366L-265.552 258.433L-268.887 254.606L-277.314 250.398L-279.197 254.342L-279.688 258.976L-276.859 262.898L-272.36 263.074L-271.561 263.771L-271.305 265.091V270.971L-272.961 275.384L-270.25 281.536L-269.781 289.388L-273.994 292.277L-271.906 292.262L-272.023 293.677L-267.436 290.532L-267.993 281.191L-270.506 275.311L-269.033 271.381L-269.055 264.885L-269.473 262.583L-271.459 260.838L-275.658 260.67L-277.35 258.331L-277.057 255.127L-276.244 253.426L-270.433 256.263L-267.15 260.024L-263.09 262.862L-261.009 265.494L-257.228 265.86L-255.418 263.786L-252.853 263.617L-249.893 265.743L-245.415 271.367L-244.118 274.747L-240.088 277.071L-238.659 279.784L-238.915 284.996C-239.143 285.048 -239.406 285.099 -239.714 285.165L-242.938 287.174L-243.261 290.869L-245.569 291.786L-245.423 297.028L-246.141 301.706L-243.217 306.178L-245.401 308.245L-245.225 327.389L-247.291 330.974L-251.094 330.505L-254.656 332.514L-257.47 334.545L-261.441 334.398L-264.292 332.433L-266.769 332.682L-272.792 337.338L-281 337.169L-284.268 338.562L-288.929 338.357L-290.848 340.725L-295.67 341.224L-297.81 342.888L-302.866 342.419L-306.113 339.31L-306.266 340.806L-306.303 340.769L-307.695 340.249L-307.644 341.048L-307.043 341.642L-303.841 344.611L-297.121 345.234L-294.784 343.416L-289.676 342.888L-287.881 340.674L-283.85 340.843L-280.553 339.442L-272.03 339.618L-265.89 334.867L-264.886 334.764L-262.182 336.627L-256.766 336.832L-253.432 334.413L-250.625 332.836L-247.768 333.188L-247.621 336.15L-245.379 338.577L-243.715 342.236L-240.755 345.3L-240.198 347.661L-240.813 349.897L-243.671 350.535L-248.324 350.33L-249.746 354.179L-251.974 356.437L-255.161 361.232L-257.045 364.81L-256.869 369.327L-254.604 372.105L-252.26 375.881L-250.589 377.912L-248.874 379.496L-249.783 382.12L-251.725 382.333L-251.08 391.124L-246.031 394.335L-242.894 391.395L-239.472 391.095L-234.27 392.356L-231.353 391.263L-225.498 391.248L-225.388 391.271L-225.029 399.966L-220.867 404.871L-216.946 408.603C-215.144 409.981 -212.747 411.616 -211.568 411.616C-211.245 411.616 -210.043 411.653 -208.534 411.704L-208.431 411.389C-208.431 411.389 -212.205 410.524 -211.56 410.524C-210.52 410.524 -207.911 410.868 -207.911 410.868L-205.969 409.519C-208.387 409.431 -210.945 409.343 -211.494 409.343H-211.509C-212 409.255 -213.898 408.068 -215.473 406.873L-219.218 403.309L-222.794 399.079L-223.102 391.659L-221.856 391.886L-216.499 387.436L-209.589 381.277L-204.02 375.962L-199.044 375.896L-198.275 372.648L-194.897 371.885L-195.659 359.473L-194.508 354.304L-193.072 349.714L-194.171 344.054L-195.937 341.876L-194.779 337.88L-195.615 334.193L-198.084 332.411L-197.96 328.056L-195.593 326.157L-188.082 324.918L-187.422 322.953L-185.356 322.579L-184.491 316.083L-186.176 313.832L-189.745 314.023L-194.941 310.966L-197.938 309.969L-200.422 308.385L-201.25 305.87V303.451L-197.689 300.466L-198.612 295.496L-200.268 294.975L-201.565 291.118L-201.477 287.269L-204.262 285.334L-204.232 282.68L-200.048 282.086L-197.747 275.722L-198.165 271.073L-195.725 271.374L-192.698 273.889L-182.087 274.226L-173.755 272.092L-165.644 265.421L-161.283 257.363L-161.115 252.179L-159.473 244.422L-160.748 236.863L-161.291 237.017C-161.467 236.819 -161.664 236.599 -161.826 236.409L-160.748 230.191H-160.727L-160.177 227.281L-153.992 227.882L-149.236 232.626L-145.052 238.381L-138.105 239.95L-135.68 243L-130.763 247.018V253.206L-129.649 252.641L-129.627 249.907V252.671H-128.498V245.94L-133.987 241.497L-136.244 238.652L-134.712 231.863L-131.473 222.86L-130.352 217.705L-122.577 213.358L-117.484 212.185L-105.906 211.18L-103.063 209.428L-98.4171 212.177L-92.738 219.062L-86.4067 224.355L-80.4711 227.596L-73.9052 224.179L-65.9911 222.141L-59.9309 227.229L-53.0499 226.679L-45.0698 221.84L-43.3478 222.134L-42.659 226.929L-38.8264 229.876L-27.6367 230.719L-27.1531 228.072L-24.6689 228.402L-19.107 230.58L-15.6995 231.782L-15.6849 238.528L-18.9751 243.704L-24.5736 253.448L-37.4268 271.411L-42.6076 273.874L-43.4284 275.106H-49.9136L-49.0489 294.557L-47.9863 294.484V292.753L-48.001 292.358L-47.9863 292.761L-46.8505 292.834L-47.5393 277.379H-42.2192L-41.0688 275.656L-35.9319 273.207L-22.6684 254.665L-17.0405 244.87L-13.4206 239.18L-13.4352 231.401L-12.6951 230.521L-7.82935 229.561L-3.99686 225.47L3.64621 220.682L15.7006 214.773L23.7467 210.747L22.7135 194.192L23.1458 189.881L28.0628 187.3L31.2432 181.677L32.4083 185.402L34.6214 187.169L33.6394 191.216L31.1553 193.137L32.8406 201.575L33.6321 204.215L31.7341 206.95L30.1293 213.006L33.273 215.257L34.8558 218.534L44.4847 219.274L45.8111 221.672L45.7598 227.713L53.0218 236.049H60.6135L64.0502 232.926L63.5153 225.888L63.999 218.123L65.1861 210.528L67.7655 207.03L70.8213 209.472L75.8336 209.706L78.435 213.02L83.1248 214.487L88.4229 211.957L96.4763 212.463L99.5027 209.684L106.604 208.995L113.484 210.08L114.51 212.17L114.855 221.577L112.847 225.272L113.792 232.64L119.464 239.268L126.242 242.076L126.528 241.086L126.557 241.101L127.51 240.148L120.834 237.384L115.954 231.68L115.192 225.712L117.148 222.119L116.775 211.847L115.009 208.027L108.091 206.935L110.48 201.055L117.991 197.301L126.645 192.719L130.632 185.541L130.874 178.29L140.034 183.415L149.391 183.444L151.758 184.969L156.023 185.812L165.615 194.618L168.722 191.934L169.433 182.608L171.903 180.717L174.79 182.374L181.019 183.187L185.833 188.957L193.33 191.832L197.895 190.915L197.858 190.446L193.681 190.695L193.593 190.666L198.349 189.713L198.613 188.466L193.527 189.485L187.196 187.059L182.176 181.046L175.713 180.299L171.719 178.018L167.242 181.45L166.531 190.849L165.652 191.612L157.078 183.715L152.799 182.96L150.065 181.193L140.62 181.164L130.507 175.57L127.144 171.94L119.361 168.67L112.62 158.237L111.645 154.139L115.456 149.813L125.773 151.191L132.984 154.154L148.695 157.292L153.942 161.309L157.928 163.494L168.627 163.267L173.713 161.544H196.971L199.998 159.528L208.755 158.135L208.528 161.405L211.041 165.635L212.294 175.76L215.218 177.615L215.665 175.907L215.812 175.951L216.991 176.061L214.412 174.419L213.262 165.122L210.843 160.855L211.114 156.947H211.041L212.712 151.206L204.365 136.88L202.519 136.022L202.482 131.557L201.251 129.387L201.383 125.391H202.16L205.618 130.794L213.357 138.859L222.311 146.675V147.1L242.339 152.907L249.41 153.442L262.139 150.678L274.853 146.177L280.29 144.446L292.183 152.533L300.552 157.555L302.816 161.251L308.253 164L315.215 167.145L315.149 166.845L312.811 165.122L312.438 164.873L310.283 162.424L309.228 161.947L304.413 159.513L302.193 155.891L293.4 150.612L280.649 141.939L274.12 144.021L261.684 148.449L249.242 151.148L242.852 150.686L224.143 145.26L214.918 137.21L207.392 129.387L203.398 123.111H197.99L194.29 122.238L190.911 118.433L191.468 109.95L194.473 110.742L196.818 108.66H202.709L207.37 100.118L216.31 91.8774L231.94 89.7145L241.848 85.1908L248.846 77.7784L250.136 67.6972L248.787 53.3342L248.751 49.5363L253.155 47.1535L252.092 37.4756L252.825 23.8605L253.638 21.4557L259.515 23.4939L263.648 28.3476L267.576 34.9462L273.087 36.5665L277.923 32.7906L282.261 28.4356L286.768 27.5337L286.731 21.419L287.435 22.4528L297.115 25.4808L308.327 25.7887L308.019 24.667L307.293 24.6523L307.865 23.5085L307.315 23.4939V23.5085L297.65 23.2666L288.878 20.5245L284.43 13.9626L284.504 25.6788L281.155 26.3533L276.436 31.097L272.625 34.0663L269.086 33.0253L265.51 27.0425L260.864 21.5583L253.616 19.0435L249.168 14.3438V9.46091L244.662 4.15272L239.202 -4.17626L230.995 -5.84784L223.235 -7.04292L213.276 -12.3805L214.617 -7.7761L202.87 -6.00921L202.966 -5.02668L202.292 -5.66455L195.601 1.41789L190.589 2.09978L180.117 8.13382L170.496 13.4273L164.641 12.6135L159.409 16.2941L155.246 19.5201L146.05 18.6036L141.946 16.7413L143.734 13.6547L143.675 9.4755L142.144 8.56637L141.836 5.60439H144.914V-0.319741L141.983 -2.27727L142.041 -4.09553L142.789 -9.74106L139.638 -14.8806L134.713 -16.9922L134.12 -20.5701L135.095 -24.3386L140.334 -29.0823L141.228 -31.7584L141.169 -35.5342L137.916 -38.0123L138.194 -41.8615H139.249L141.411 -45.0362L151.766 -44.5523L157.166 -48.6801L160.823 -50.9676H171.478L172.46 -52.6906H180.953L176.82 -58.2041L175.457 -68.6959L184.448 -78.6451L188.435 -86.7613L192.245 -89.4521L205.311 -87.3479L216.72 -87.4432L220.787 -82.8242H226.606L231.596 -80.4927L242.5 -78.2052L250.077 -81.2112L254.847 -86.1602L255.17 -92.0329L255.119 -94.1371L255.785 -108.493L271.987 -108.068L271.343 -104.644L278.649 -100.508L280.121 -102.862H288.629L289.553 -101.007L294.829 -100.091V-94.6723L302.149 -87.3552L311.551 -87.6339L316.226 -93.9612L317.215 -100.164L318.219 -101.843L321.561 -101.623L321.238 -102.745H321.29V-103.918L316.981 -104.204L315.149 -101.146L314.064 -94.8703L310.378 -89.8773L303.058 -89.6648L297.093 -95.6255V-102.019L291.062 -103.067L290.022 -105.149H278.854L277.864 -103.566L273.863 -105.831L274.699 -110.274L255.763 -110.773L255.478 -115.348L258.101 -119.718L263.319 -119.762L271.159 -122.944L270.646 -128.069L276.194 -139.125L276.648 -150.233L281.133 -154.126L282.437 -161.069L285.588 -162.293L290.769 -168.291L293.4 -177.199L285.134 -180.799L285.53 -187.148L284.276 -193.805L283.91 -195.47L289.355 -195.154L291.267 -201.746L293.348 -209.547L294.836 -214.694L291.055 -217.216L288.321 -224.415L284.657 -225.963L284.679 -229.386L296.001 -230.288L304.839 -238.58L310.767 -238.493L315.926 -235.054L323.554 -232.473L330.025 -230.699L342.783 -229.687L344.988 -227.231L342.416 -223.704L346.688 -217.069L353.335 -213.191L360.714 -214.752L366.723 -218.587L370.607 -217.047L374.586 -213.66L377.348 -215.83L380.639 -221.835L379.613 -229.115L381.305 -231.058L384.2 -236.777L384.75 -241.843L389.095 -244.109L393.037 -242.063L400.702 -236.036L399.208 -238.529L397.903 -239.644L398.607 -239.086L398.944 -240.289L394.268 -243.955L389.102 -246.667L389.022 -246.711ZM199.983 -161.208L199.61 -161.524L199.991 -161.208H199.983ZM213.555 -150.416L213.437 -150.687L213.562 -150.416H213.555ZM202.687 -139.99L206.065 -142.182L202.775 -139.99L201.94 -139.909L202.687 -139.997V-139.99ZM185.049 -111.513L185.899 -113.17L185.042 -111.462V-111.513H185.049ZM140.481 4.95919H140.532L140.612 5.75833L140.481 4.95919ZM-202.151 296.808L-200.7 297.262L-200.268 299.594L-203.617 302.402L-203.631 306.061L-202.43 309.88L-199.132 311.97L-196.091 312.989L-190.419 316.332L-187.378 316.171L-186.975 316.706L-187.503 320.643L-189.261 320.966L-189.921 322.909L-196.67 324.023L-200.327 326.942L-200.517 333.547L-197.769 335.534L-197.256 337.815L-198.575 342.39L-196.421 345.044L-195.541 349.589L-196.831 353.725L-198.077 359.297L-197.417 370.104L-200.297 370.756L-200.986 373.667L-205.082 373.726L-211.267 379.628L-218.119 385.735L-222.625 389.489L-222.706 389.474L-225.615 388.946V389.012H-231.697L-234.548 390.002L-239.428 388.822L-244.001 389.218L-246.427 391.498L-249.028 389.841L-249.431 384.371L-248.244 384.239L-246.375 378.858L-249.072 376.38L-250.552 374.583L-252.897 370.815L-254.766 368.513L-254.89 365.353L-253.351 362.42L-250.362 357.896L-248.105 355.631L-246.91 352.691L-243.613 352.83L-239.128 351.833L-238.007 347.72L-238.842 344.164L-241.883 341.129L-243.539 337.485L-245.547 335.226L-245.686 332.492L-243.092 327.99L-243.268 309.213L-240.425 306.522L-243.913 301.185L-243.312 297.174L-243.407 293.311L-241.268 292.46L-240.923 288.472L-239.179 287.335C-238.996 287.299 -238.725 287.233 -238.461 287.181L-237.545 288.413L-233.156 288.897L-230.877 291.874L-220.434 291.888L-217.078 289.549L-215.18 290.099L-207.794 292.922L-204.643 293.479L-203.514 292.878L-202.195 296.801L-202.151 296.808ZM115.837 222.038L113.939 225.602V225.543L115.837 222.038ZM288.021 21.4484H287.999L286.907 19.806L288.021 21.4484ZM285.544 26.61V25.4882L285.559 26.61H285.544ZM260.087 22.5334L258.783 22.0789L260.08 22.5334H260.087ZM140.246 17.2546L140.253 17.2692L138.011 17.1519L140.246 17.2619V17.2546ZM109.381 24.4544L103.907 31.3389L109.374 24.4544H109.381ZM86.2686 40.1957H86.2612L85.7922 40.137L86.2759 40.1957H86.2686ZM-161.87 244.386L-163.445 251.915L-163.621 256.776L-167.366 263.837L-174.664 269.974L-182.432 271.96L-191.943 271.66L-194.882 269.218L-200.774 268.5L-200.143 275.443L-201.814 280.047L-205.06 280.509L-213.114 272.657L-215.649 268.991L-221.233 268.801L-222.039 266.022L-222.054 262.554L-225.754 257.656L-226.656 246.893L-224.699 242.025L-226.165 228.571L-223.417 223.629L-233.405 214.362L-226.443 209.002H-221.907L-218.734 208.005L-217.283 201.656L-218.038 199.457L-216.836 198.995L-214.096 196.055L-211.919 197.448H-210.564L-204.115 195.805L-202.43 191.663L-198.018 190.717L-194.53 187.476L-191.387 186.428L-189.533 183.033L-190.097 175.951L-191.768 174.998V174.514L-185.539 174.147L-185.334 175.804L-179.457 177.52L-177.808 181.552L-176.108 189.273L-168.692 189.969L-166.398 194.06L-164.75 200.16L-164.53 208.548L-166.977 211.972L-166.186 230.169L-163.255 230.903L-164.339 237.135L-163.973 237.545C-163.46 238.124 -163.086 238.55 -162.808 238.843L-161.87 244.408V244.386ZM-43.062 219.898L-45.6194 219.465L-53.8633 224.465L-59.2787 224.898L-65.5147 219.656L-74.6893 222.009L-80.5443 225.023L-85.2342 222.486L-91.2284 217.471L-96.8856 210.579L-103.18 206.781L-106.734 208.966L-117.931 209.948L-123.339 211.18L-132.448 216.217L-133.745 222.229L-136.977 231.218L-138.42 237.575L-143.814 236.357L-147.61 231.159L-153.061 225.704L-162.119 224.825L-162.83 228.637L-164.002 228.344L-164.684 212.624L-162.243 209.222L-162.485 199.94L-164.244 193.305L-167.3 187.792L-174.246 187.139L-175.646 180.856L-177.302 176.757L-173.734 171.097L-171.55 162.842L-165.893 161.786L-155.905 164.227L-145.111 163.971L-140.97 161.295L-132.309 161.786L-128.835 159.058H-120.914L-119.228 150.326L-120.064 144.204L-127.428 139.571H-129.597L-129.788 131.638L-127.648 129.973L-127.128 123.199L-122.988 118.301L-121.991 110.331L-120.533 107.853L-117.426 106.167L-118.261 100.558L-118.906 97.3249L-115.096 93.703L-108.537 94.3555L-104.653 97.5888L-103.078 102.699L-94.9217 96.9436L-90.6935 89.2159L-82.237 79.582L-71.04 78.8781L-58.5899 81.0117L-52.6909 83.2259L-46.2716 83.5338L-41.6331 86.7158L-38.4894 87.0237L-37.5074 87.515L-32.8469 92.8452L-34.1732 100.595L-38.8778 105.793L-39.376 111.006L-41.6331 113.946L-44.315 119.547L-41.9334 121.916L-37.4415 125.508V127.81L-40.358 132.092L-45.0772 137.554L-51.13 145.473H-58.4873L-63.2504 151.301L-66.2255 156.903L-62.928 160.202L-58.9049 160.957L-53.6069 164.873L-45.7953 175.768L-45.5608 184.031L-42.5856 190.732L-39.2148 192.418L-34.8254 194.295L-36.203 206.26L-36.6574 210.586L-40.6071 215.235L-43.0693 219.89L-43.062 219.898ZM30.3858 178.414L26.3114 185.614L20.9035 188.444L20.3466 194.156L21.2845 209.398L2.44442 218.71L-5.42577 223.629L-9.08973 227.486L-14.0287 228.461L-15.0253 229.656L-18.4255 228.454L-24.0826 226.24L-29.1023 225.536L-29.6079 228.3L-38.0863 227.662L-40.6511 225.69L-41.274 221.342L-38.7972 216.613L-34.4737 211.525L-32.3779 192.88L-38.2549 190.358L-40.8489 189.06L-43.2892 183.73L-43.5383 174.998L-51.8482 163.406L-57.9669 158.809L-61.8141 158.091L-63.4336 156.47L-61.4185 152.636L-57.4101 147.731H-50.0088L-43.3184 138.977L-38.57 133.463L-35.1771 128.5V124.408L-40.4239 120.215L-41.5817 119.056L-39.7644 115.214L-37.1776 111.849L-36.6867 106.739L-32.0481 101.607L-30.4286 92.1413L-35.9466 85.8286L-36.5035 85.4547L-30.8756 78.4969L-28.6846 74.3545L-25.0866 68.1884V63.5108L-20.6825 61.8905L-18.4475 56.3036V48.3413L-19.554 37.7616L-15.5383 37.7395L-12.4313 35.2908L-9.36819 30.0998L-5.44044 26.3679L-5.00078 22.1815L-4.05545 21.7636L5.93252 22.2475L9.01021 23.6332L8.84902 33.2158L13.9932 35.3054L17.7964 30.0779L23.4902 30.2391L25.2856 27.4751L32.5109 28.1569L34.0278 30.2171L39.3698 29.6306L40.4397 23.5819L44.6386 18.0758L52.157 11.2572L57.0741 11.785L58.3858 8.7937L65.9116 8.77168L69.1579 11.1472L70.1471 20.4586L72.961 24.469L76.8595 26.2506L79.1532 28.5748L77.5483 32.4313L79.3876 40.137L80.0692 41.574L79.9152 43.407L74.9615 44.7047L69.9713 46.3691H65.5672L62.2256 49.1038L61.7933 51.4719L56.2827 52.6744L54.8831 56.3182L51.7614 60.886L49.1013 77.2432L53.7399 84.1497L61.8519 85.77L70.0078 83.3212L70.5062 82.1482L72.7486 83.0426L75.24 89.5459L76.7423 96.973L70.4036 99.4658L72.2062 108.88L70.2424 113.213L70.5794 119.635L74.8663 122.788L73.3861 131.872L80.0398 136.535L79.8713 136.675L84.4805 139.387L84.2754 143.097L84.1948 144.263L80.5088 146.169L77.3431 149.483L73.5106 149.446L69.3411 142.533L61.7273 142.555L59.4996 145.773H57.9534L53.3296 139.666L45.7744 138.793L39.8535 147.562L36.6439 149.703L31.016 149.688L27.6964 159.938L29.3013 165.034L25.8499 168.45L27.5938 174.294L30.5983 177.058L30.3785 178.436L30.3858 178.414ZM75.5845 45.7312L70.1838 47.5201H70.1471H70.1691L75.3353 45.7972L75.5845 45.7312ZM66.0142 47.5201L63.3981 49.639L65.9922 47.5201H66.0215H66.0142ZM55.8943 56.8901L55.8797 56.9268L54.5753 58.8257L55.8943 56.8901ZM52.1937 64.7424L51.4903 69.2076L51.82 67.0227L52.1937 64.7352V64.7424ZM107.673 204.787L107.695 204.735L107.769 204.552L107.673 204.787ZM125.729 191.912H125.722L127.371 188.957L125.729 191.912ZM129.709 176.493L129.423 185.145L129.679 176.501L129.034 175.775L129.709 176.501V176.493ZM117.757 170.481L125.561 173.649L128.558 176.889L128.294 184.925L124.901 191.032L116.863 195.285L108.611 199.413L105.607 206.81L98.4476 207.507L95.575 210.139L87.8953 209.662L82.8684 212.06L79.6954 211.07L76.8888 207.492L71.576 207.236L67.2526 203.775L62.9438 209.618L61.6614 217.874L61.1704 225.902L61.6247 231.995L59.6535 233.784H53.9743L47.9581 226.87L48.0022 221.1L45.7964 217.111L36.2481 216.378L34.9731 213.754L32.6208 212.067L33.6248 208.086L36.0356 204.618L34.9511 201.033L33.5661 194.082L35.5666 192.535L37.0762 186.311L34.277 184.074L32.6354 178.832L33.0532 176.193L29.609 173.026L28.4292 169.088L31.8954 165.65L30.0927 159.924L32.6721 151.939L37.34 151.954L41.3191 149.3L46.8956 141.184L52.1278 141.792L56.8469 148.039L60.7088 148.017L62.9365 144.806L68.0806 144.791L72.2356 151.69L78.3324 151.749L81.7325 148.083L85.3012 146.243L91.7792 149.85L96.9453 152.519L102.881 156.969L109.505 155.268L110.377 158.949L117.771 170.503L117.757 170.481ZM85.294 144.908L85.4112 143.185L85.3159 144.901H85.294V144.908ZM109.711 154.058L110.253 153.919L110.311 153.846L110.326 153.904L109.703 154.051L109.711 154.058ZM192.978 124.262L197.506 125.325H199.009L198.862 129.907L200.115 132.121L200.159 137.43L202.651 138.596L210.154 151.47L208.901 155.766L199.316 157.284L196.187 159.242H173.42L168.297 160.965L158.383 161.17L155.078 159.374L149.56 155.136L133.534 151.954L126.404 148.999L114.452 147.364L109.623 152.856L103.343 154.469L98.1251 150.576L92.8343 147.826L86.4664 144.278L86.5177 143.369L86.8694 138.148L86.8181 138.112L86.0854 137.664L83.8356 136.286L88.9579 132.026L94.0581 132.51L99.7812 128.69L102.786 123.375H108.516L114.774 120.618L120.424 119.452L126.308 104.84L130.156 101.086L142.496 104.649L152.242 106.519L157.892 107.839L167.264 110.376L177.78 107.927L182.132 109.532L189.116 109.664L188.486 119.196L192.97 124.247L192.978 124.262ZM252.862 20.0186H252.84L252.825 20.0553L250.612 17.6505L252.854 20.0186H252.862ZM216.009 -6.911H215.951L215.606 -8.09141L216.009 -6.911ZM202.973 -4.88742H202.936H202.98H202.973ZM157.137 34.3669L155.437 27.5044L156.411 21.3824L160.647 18.0977L165.11 14.9671L170.825 15.7589L181.136 10.0914L191.021 4.29931L196.605 3.53678L203.589 -3.86096L217.416 -5.95783L216.867 -7.85674L222.238 -4.98274L230.497 -3.64831L237.729 -2.17461L242.749 5.47972L246.801 10.2674V15.2237L251.565 20.2533L250.553 23.2593L249.762 37.5196L250.663 45.8631L246.398 48.1653L246.45 53.4222L247.783 67.6312L246.618 76.7373L240.624 83.1966L231.391 87.4564L215.225 89.6925L205.618 98.542L201.288 106.358H195.872L193.791 108.205L190.816 107.421L188.083 104.063L184.096 101.592L163.351 97.8528L156.748 85.55L158.874 80.8357L162.486 75.6741L163.219 68.0858L169.778 59.7422L157.371 59.0897L151.062 51.1933L154.206 47.5274L155.114 36.4198L157.152 34.3596L157.137 34.3669ZM142.452 13.3247V10.128L142.496 13.3614L141.792 14.5785L142.452 13.3247ZM145.178 20.7152L154.074 21.6537L153.129 27.5997L154.638 33.6704L152.916 35.4081L152 46.611L148.109 51.1421L156.228 61.3039L165.286 61.7805L161.021 67.206L160.281 74.8677L156.91 79.7213L154.22 85.6453L161.871 99.9057L183.107 103.66L186.441 105.661L187.863 107.406L182.733 107.347L177.926 105.573L167.301 108.044L158.441 105.646L152.711 104.305L143.023 102.45L129.518 98.542L124.55 103.388L118.775 117.48L114.195 118.426L108.274 121.109H101.467L98.0738 127.107L93.4719 130.171L88.2397 129.673L81.8425 134.988L75.8483 130.787L77.3212 121.732L72.7852 118.396L72.536 113.601L74.5659 109.114L72.983 100.844L79.3364 98.3514L77.4091 88.8787L74.5072 81.261L69.2824 79.1714L68.3371 81.4076L61.742 83.3872L55.1029 82.0601L51.4756 76.6639L53.7766 61.9124L56.8322 57.4474L57.9608 54.5879L63.7572 53.3269L64.3068 50.2915L66.3732 48.5979H70.1471L75.5917 46.8383L82.0257 45.1593L82.3628 41.0902L82.1942 40.7602L86.2539 41.2808L92.1895 41.1488L95.641 36.8231L97.9712 33.6117L98.8506 33.8024L104.537 32.2993L110.004 25.4149L114.356 24.2931L115.39 19.8134L112.371 17.2252L112.334 12.6576L115.404 12.5696L119.933 11.2645L123.663 11.3598L124.667 6.57949L126.799 7.04873L131.071 12.1297L132.369 15.9275L135.124 18.0831L139.938 18.3397L145.141 20.7078L145.178 20.7152ZM113.44 23.4132L113.462 23.3326L113.448 23.4132H113.44ZM140.737 -1.91802H140.73L140.744 -2.0793V-1.91802H140.737ZM138.766 -13.9788L141.514 -9.48446L141.316 -7.99609L141.462 -9.54308L138.758 -13.9715L138.766 -13.9788ZM139.484 -30.4093L139.257 -29.7201L139.198 -29.6688L139.484 -30.4093ZM138.553 -42.998H137.066L138.517 -43.0053L140.605 -46.0773H140.642L138.553 -42.9906V-42.998Z" fill="white"/>
<path d="M237.229 96.695C237.229 103.653 227.607 119.02 223.071 125.868C221.98 127.525 219.554 127.525 218.462 125.868C213.934 119.02 204.305 103.653 204.305 96.695C204.305 87.5963 211.677 80.2278 220.763 80.2278C229.85 80.2278 237.222 87.6036 237.222 96.695H237.229Z" fill="#99BBDE"/>
<path d="M220.77 105.75C225.63 105.75 229.57 101.807 229.57 96.9441C229.57 92.081 225.63 88.1387 220.77 88.1387C215.909 88.1387 211.969 92.081 211.969 96.9441C211.969 101.807 215.909 105.75 220.77 105.75Z" fill="#0054AC"/>
<path d="M194.604 107.282C194.604 114.24 184.982 129.607 180.446 136.455C179.355 138.112 176.929 138.112 175.837 136.455C171.309 129.607 161.68 114.24 161.68 107.282C161.68 98.1832 169.052 90.8148 178.138 90.8148C187.225 90.8148 194.597 98.1906 194.597 107.282H194.604Z" fill="#99BBDE"/>
<path d="M178.145 116.337C183.005 116.337 186.945 112.394 186.945 107.531C186.945 102.668 183.005 98.7257 178.145 98.7257C173.284 98.7257 169.344 102.668 169.344 107.531C169.344 112.394 173.284 116.337 178.145 116.337Z" fill="#0054AC"/>
<path d="M163.424 142.489C163.424 149.446 153.803 164.814 149.267 171.662C148.175 173.319 145.749 173.319 144.658 171.662C140.129 164.814 130.5 149.446 130.5 142.489C130.5 133.39 137.872 126.021 146.958 126.021C156.045 126.021 163.417 133.397 163.417 142.489H163.424Z" fill="#99BBDE"/>
<path d="M146.957 151.543C151.818 151.543 155.758 147.601 155.758 142.738C155.758 137.875 151.818 133.932 146.957 133.932C142.097 133.932 138.156 137.875 138.156 142.738C138.156 147.601 142.097 151.543 146.957 151.543Z" fill="#0054AC"/>
<path d="M205.479 151.075C205.479 158.033 195.857 173.4 191.321 180.248C190.23 181.905 187.804 181.905 186.712 180.248C182.184 173.4 172.555 158.033 172.555 151.075C172.555 141.976 179.927 134.608 189.013 134.608C198.1 134.608 205.472 141.984 205.472 151.075H205.479Z" fill="#99BBDE"/>
<path d="M189.012 160.129C193.872 160.129 197.813 156.186 197.813 151.323C197.813 146.46 193.872 142.518 189.012 142.518C184.151 142.518 180.211 146.46 180.211 151.323C180.211 156.186 184.151 160.129 189.012 160.129Z" fill="#0054AC"/>
<path d="M179.159 183.422C179.159 190.38 169.537 205.748 165.001 212.596C163.909 214.252 161.484 214.252 160.392 212.596C155.863 205.748 146.234 190.38 146.234 183.422C146.234 174.324 153.606 166.955 162.693 166.955C171.78 166.955 179.151 174.331 179.151 183.422H179.159Z" fill="#99BBDE"/>
<path d="M162.699 192.478C167.56 192.478 171.5 188.536 171.5 183.673C171.5 178.81 167.56 174.867 162.699 174.867C157.839 174.867 153.898 178.81 153.898 183.673C153.898 188.536 157.839 192.478 162.699 192.478Z" fill="#0054AC"/>
<path d="M259.26 140.773C259.26 147.731 249.639 163.098 245.103 169.946C244.011 171.603 241.585 171.603 240.493 169.946C235.965 163.098 226.336 147.731 226.336 140.773C226.336 131.674 233.708 124.306 242.794 124.306C251.881 124.306 259.253 131.681 259.253 140.773H259.26Z" fill="#99BBDE"/>
<path d="M242.793 149.828C247.654 149.828 251.594 145.886 251.594 141.023C251.594 136.16 247.654 132.218 242.793 132.218C237.932 132.218 233.992 136.16 233.992 141.023C233.992 145.886 237.932 149.828 242.793 149.828Z" fill="#0054AC"/>
<path d="M262.12 192.295C262.12 199.252 252.498 214.62 247.962 221.468C246.87 223.125 244.445 223.125 243.353 221.468C238.824 214.62 229.195 199.252 229.195 192.295C229.195 183.196 236.567 175.827 245.654 175.827C254.74 175.827 262.112 183.203 262.112 192.295H262.12Z" fill="#99BBDE"/>
<path d="M245.66 201.348C250.521 201.348 254.461 197.406 254.461 192.543C254.461 187.68 250.521 183.737 245.66 183.737C240.8 183.737 236.859 187.68 236.859 192.543C236.859 197.406 240.8 201.348 245.66 201.348Z" fill="#0054AC"/>
</svg>
