<svg width="289" height="173" viewBox="0 0 289 173" fill="none" xmlns="http://www.w3.org/2000/svg">
<g clip-path="url(#clip0_358_2942)">
<path d="M109.379 27.7036C109.533 25.9096 109.032 24.1029 107.891 22.5908C107.544 22.1424 107.07 20.6688 106.877 19.1311C106.877 18.9773 106.877 18.8108 106.877 18.657C106.877 8.35464 98.4884 -0.0128174 88.188 -0.0128174C79.9785 -0.0128174 73.0005 5.29212 70.4863 12.6473L69.4473 18.5417C69.3318 20.0024 68.8059 21.9373 68.3698 22.514C67.1897 24.0644 66.7022 25.9353 66.8946 27.7805C61.6226 31.1249 58.1079 36.9808 58.1079 43.6697V43.9772L61.0967 74.692C61.5328 79.1512 64.4446 82.7648 68.4083 84.264L71.2175 123.257C71.6536 129.394 76.8358 134.212 82.9929 134.212H93.4472C99.6044 134.212 104.787 129.407 105.223 123.257L108.032 84.264C111.996 82.7776 114.907 79.1512 115.344 74.692L118.332 43.9772V43.6697C118.332 36.9296 114.753 31.0224 109.404 27.7036H109.379Z" fill="white"/>
<path d="M89.3748 30.401C95.9595 29.7502 100.769 23.8904 100.118 17.3127C99.4664 10.7349 93.6004 5.93019 87.0158 6.58094C80.4312 7.23168 75.6214 13.0915 76.2728 19.6692C76.9242 26.2469 82.7902 31.0517 89.3748 30.401Z" fill="black"/>
<path d="M89.2655 28.293H101.516C102.683 28.293 103.388 27.2807 102.786 26.4862C100.746 23.8081 100.412 19.1183 100.412 19.1183L75.8353 19.0414C75.8353 19.0414 75.5018 23.7313 73.4623 26.4094C72.8594 27.2038 73.5649 28.2161 74.7322 28.2161H86.9823L89.2655 28.293Z" fill="#0054AC"/>
<path d="M88.1879 29.6513C94.2591 29.6513 99.1809 24.7347 99.1809 18.6698C99.1809 12.6049 94.2591 7.68829 88.1879 7.68829C82.1166 7.68829 77.1948 12.6049 77.1948 18.6698C77.1948 24.7347 82.1166 29.6513 88.1879 29.6513Z" fill="white"/>
<path d="M88.1879 30.9455C81.415 30.9455 75.9121 25.4483 75.9121 18.6826C75.9121 11.9169 81.415 6.41974 88.1879 6.41974C94.9607 6.41974 100.464 11.9169 100.464 18.6826C100.464 25.4483 94.9607 30.9455 88.1879 30.9455ZM88.1879 8.9697C82.826 8.9697 78.4776 13.3264 78.4776 18.6698C78.4776 24.0132 82.8389 28.3699 88.1879 28.3699C93.5369 28.3699 97.8982 24.0132 97.8982 18.6698C97.8982 13.3264 93.5369 8.9697 88.1879 8.9697Z" fill="#0054AC"/>
<path d="M93.0497 8.80311C91.9337 8.18805 90.3303 7.71393 87.7777 7.82926C81.9028 8.08553 77.1182 12.1603 76.9771 17.5422C83.6216 17.965 89.3426 14.7744 92.0107 11.6606C93.0497 13.903 95.8974 16.6324 99.1427 16.4786C98.6553 13.0701 96.2822 10.1998 93.0241 8.7903L93.0497 8.80311Z" fill="#0054AC"/>
<path d="M99.4761 31.2786H97.0261L96.4232 31.8809C96.4232 31.8809 94.4221 40.338 88.0983 40.338C81.7744 40.338 79.9786 31.663 79.9786 31.663L79.5937 31.2786H76.9257C70.063 31.2786 64.5088 36.8398 64.5088 43.6824L67.4719 74.0898C67.7156 76.6525 69.8834 78.613 72.4489 78.613H74.4115L77.5927 122.821C77.7979 125.64 80.1453 127.831 82.9802 127.831H93.4344C96.2693 127.831 98.6167 125.653 98.8219 122.821L102.003 78.613H103.966C106.544 78.613 108.699 76.6525 108.943 74.0898L111.906 43.6824C111.906 36.827 106.339 31.2786 99.4889 31.2786H99.4761Z" fill="#0054AC"/>
<path d="M166.37 27.7036C166.524 25.9096 166.024 24.1029 164.883 22.5908C164.536 22.1424 164.062 20.6688 163.869 19.1311C163.869 18.9773 163.869 18.8108 163.869 18.657C163.869 8.35464 155.48 -0.0128174 145.18 -0.0128174C136.97 -0.0128174 129.992 5.29212 127.478 12.6473L126.439 18.5417C126.324 20.0024 125.798 21.9373 125.361 22.514C124.181 24.0644 123.694 25.9353 123.886 27.7805C118.614 31.1249 115.1 36.9808 115.1 43.6697V43.9772L118.088 74.692C118.525 79.1512 121.436 82.7648 125.4 84.264L128.209 123.257C128.645 129.394 133.828 134.212 139.985 134.212H150.439C156.596 134.212 161.778 129.407 162.214 123.257L165.024 84.264C168.987 82.7776 171.899 79.1512 172.335 74.692L175.324 43.9772V43.6697C175.324 36.9296 171.745 31.0224 166.396 27.7036H166.37Z" fill="white"/>
<path d="M146.372 30.3956C152.957 29.7448 157.766 23.885 157.115 17.3073C156.463 10.7296 150.598 5.92482 144.013 6.57556C137.428 7.22631 132.618 13.0861 133.27 19.6639C133.921 26.2416 139.787 31.0463 146.372 30.3956Z" fill="black"/>
<path d="M146.257 28.293H158.507C159.675 28.293 160.38 27.2807 159.777 26.4862C157.738 23.8081 157.404 19.1183 157.404 19.1183L132.827 19.0414C132.827 19.0414 132.494 23.7313 130.454 26.4094C129.851 27.2038 130.557 28.2161 131.724 28.2161H143.974L146.257 28.293Z" fill="#0054AC"/>
<path d="M145.18 29.6513C151.251 29.6513 156.173 24.7347 156.173 18.6698C156.173 12.6049 151.251 7.68829 145.18 7.68829C139.109 7.68829 134.187 12.6049 134.187 18.6698C134.187 24.7347 139.109 29.6513 145.18 29.6513Z" fill="white"/>
<path d="M145.18 30.9455C138.407 30.9455 132.904 25.4483 132.904 18.6826C132.904 11.9169 138.407 6.41974 145.18 6.41974C151.953 6.41974 157.456 11.9169 157.456 18.6826C157.456 25.4483 151.953 30.9455 145.18 30.9455ZM145.18 8.9697C139.818 8.9697 135.47 13.3264 135.47 18.6698C135.47 24.0132 139.831 28.3699 145.18 28.3699C150.529 28.3699 154.89 24.0132 154.89 18.6698C154.89 13.3264 150.529 8.9697 145.18 8.9697Z" fill="#0054AC"/>
<path d="M150.041 8.80311C148.925 8.18805 147.322 7.71393 144.769 7.82926C138.894 8.08553 134.11 12.1603 133.969 17.5422C140.613 17.965 146.334 14.7744 149.002 11.6606C150.041 13.903 152.889 16.6324 156.134 16.4786C155.647 13.0701 153.274 10.1998 150.016 8.7903L150.041 8.80311Z" fill="#0054AC"/>
<path d="M156.468 31.2786H154.018L153.415 31.8809C153.415 31.8809 151.414 40.338 145.09 40.338C138.766 40.338 136.97 31.663 136.97 31.663L136.585 31.2786H133.917C127.055 31.2786 121.5 36.8398 121.5 43.6824L124.464 74.0898C124.707 76.6525 126.875 78.613 129.441 78.613H131.403L134.584 122.821C134.79 125.64 137.137 127.831 139.972 127.831H150.426C153.261 127.831 155.608 125.653 155.814 122.821L158.995 78.613H160.957C163.536 78.613 165.691 76.6525 165.934 74.0898L168.898 43.6824C168.898 36.827 163.33 31.2786 156.481 31.2786H156.468Z" fill="#0054AC"/>
<path fill-rule="evenodd" clip-rule="evenodd" d="M47.3456 25.8456C48.2692 23.6288 48.7822 21.2069 48.7822 18.6698C48.7822 8.36745 40.3932 0 30.0928 0C19.7925 0 11.4034 8.38027 11.4034 18.6698C11.4034 21.2198 11.9165 23.6416 12.8529 25.8584C5.40018 28.3699 0.0126953 35.4047 0.0126953 43.6825V43.99L3.00147 74.7048C3.4376 79.1641 6.3494 82.7776 10.3131 84.2768L13.1222 123.269C13.5584 129.407 18.7406 134.225 24.8977 134.225H35.352C41.5091 134.225 46.6914 129.42 47.1275 123.269L49.9367 84.2768C53.9004 82.7904 56.8122 79.1641 57.2483 74.7048L60.2371 43.99V43.6825C60.2371 35.3919 54.8368 28.3571 47.3712 25.8456H47.3456Z" fill="white"/>
<path d="M30.0931 29.6513C36.1644 29.6513 41.0862 24.7347 41.0862 18.6698C41.0862 12.6049 36.1644 7.68829 30.0931 7.68829C24.0218 7.68829 19.1001 12.6049 19.1001 18.6698C19.1001 24.7347 24.0218 29.6513 30.0931 29.6513Z" fill="white"/>
<path d="M30.0931 30.9455C23.3203 30.9455 17.8174 25.4483 17.8174 18.6826C17.8174 11.9169 23.3203 6.41974 30.0931 6.41974C36.866 6.41974 42.3689 11.9169 42.3689 18.6826C42.3689 25.4483 36.866 30.9455 30.0931 30.9455ZM30.0931 8.9697C24.7313 8.9697 20.3829 13.3264 20.3829 18.6698C20.3829 24.0132 24.7441 28.3699 30.0931 28.3699C35.4421 28.3699 39.8034 24.0132 39.8034 18.6698C39.8034 13.3264 35.4421 8.9697 30.0931 8.9697Z" fill="#0054AC"/>
<path d="M34.9418 8.80311C33.8258 8.18805 32.2224 7.71393 29.6698 7.82926C23.7948 8.08553 19.0102 12.1603 18.8691 17.5422C25.5137 17.965 31.2347 14.7744 33.9028 11.6606C34.9418 13.903 37.7895 16.6324 41.0348 16.4786C40.5473 13.0701 38.1743 10.1998 34.9161 8.7903L34.9418 8.80311Z" fill="#0054AC"/>
<path d="M41.3809 31.2786H38.9309C38.7385 31.4196 38.5332 31.5349 38.328 31.663V35.7635L30.1057 59.3025L21.8833 35.7635V31.663C21.6781 31.5349 21.4729 31.4196 21.2805 31.2786H18.8304C11.9678 31.2786 6.41357 36.8398 6.41357 43.6824L9.37669 74.0898C9.62041 76.6525 11.7882 78.613 14.3537 78.613H16.3163L19.4975 122.821C19.7027 125.64 22.0501 127.831 24.8849 127.831H35.3392C38.1741 127.831 40.5215 125.653 40.7267 122.821L43.9079 78.613H45.8705C48.4488 78.613 50.6038 76.6525 50.8475 74.0898L53.8106 43.6824C53.8106 36.827 48.2435 31.2786 41.3937 31.2786H41.3809Z" fill="#0054AC"/>
<path fill-rule="evenodd" clip-rule="evenodd" d="M25.5394 33.8414L27.2327 38.6594C27.4122 39.1592 27.8869 39.5051 28.4256 39.5051H31.812C32.3508 39.5051 32.8254 39.172 33.005 38.6594L34.6982 33.8414C34.9932 33.0213 34.3775 32.1628 33.5052 32.1628H26.7324C25.8601 32.1628 25.2572 33.0213 25.5394 33.8414Z" fill="#0054AC"/>
<path d="M31.1578 40.3124H29.1055C28.2412 40.3124 27.5405 41.0124 27.5405 41.8757V58.3159C27.5405 59.1793 28.2412 59.8792 29.1055 59.8792H31.1578C32.0221 59.8792 32.7228 59.1793 32.7228 58.3159V41.8757C32.7228 41.0124 32.0221 40.3124 31.1578 40.3124Z" fill="#0054AC"/>
<path fill-rule="evenodd" clip-rule="evenodd" d="M220.374 25.8456C221.297 23.6288 221.811 21.2069 221.811 18.6698C221.811 8.36745 213.421 0 203.121 0C192.821 0 184.432 8.38027 184.432 18.6698C184.432 21.2198 184.945 23.6416 185.881 25.8584C178.429 28.3699 173.041 35.4047 173.041 43.6825V43.99L176.03 74.7048C176.466 79.1641 179.378 82.7776 183.341 84.2768L186.151 123.269C186.587 129.407 191.769 134.225 197.926 134.225H208.38C214.537 134.225 219.72 129.42 220.156 123.269L222.965 84.2768C226.929 82.7904 229.84 79.1641 230.277 74.7048L233.265 43.99V43.6825C233.265 35.3919 227.865 28.3571 220.4 25.8456H220.374Z" fill="white"/>
<path d="M203.121 29.6513C209.192 29.6513 214.114 24.7347 214.114 18.6698C214.114 12.6049 209.192 7.68829 203.121 7.68829C197.05 7.68829 192.128 12.6049 192.128 18.6698C192.128 24.7347 197.05 29.6513 203.121 29.6513Z" fill="white"/>
<path d="M203.121 30.9455C196.348 30.9455 190.845 25.4483 190.845 18.6826C190.845 11.9169 196.348 6.41974 203.121 6.41974C209.894 6.41974 215.397 11.9169 215.397 18.6826C215.397 25.4483 209.894 30.9455 203.121 30.9455ZM203.121 8.9697C197.759 8.9697 193.411 13.3264 193.411 18.6698C193.411 24.0132 197.772 28.3699 203.121 28.3699C208.47 28.3699 212.831 24.0132 212.831 18.6698C212.831 13.3264 208.47 8.9697 203.121 8.9697Z" fill="#0054AC"/>
<path d="M207.982 8.80311C206.866 8.18805 205.263 7.71393 202.71 7.82926C196.835 8.08553 192.051 12.1603 191.91 17.5422C198.554 17.965 204.275 14.7744 206.943 11.6606C207.982 13.903 210.83 16.6324 214.075 16.4786C213.588 13.0701 211.215 10.1998 207.957 8.7903L207.982 8.80311Z" fill="#0054AC"/>
<path d="M214.409 31.2786H211.959C211.767 31.4196 211.562 31.5349 211.356 31.663V35.7635L203.134 59.3025L194.912 35.7635V31.663C194.706 31.5349 194.501 31.4196 194.309 31.2786H191.859C184.996 31.2786 179.442 36.8398 179.442 43.6824L182.405 74.0898C182.649 76.6525 184.817 78.613 187.382 78.613H189.345L192.526 122.821C192.731 125.64 195.078 127.831 197.913 127.831H208.368C211.202 127.831 213.55 125.653 213.755 122.821L216.936 78.613H218.899C221.477 78.613 223.632 76.6525 223.876 74.0898L226.839 43.6824C226.839 36.827 221.272 31.2786 214.422 31.2786H214.409Z" fill="#0054AC"/>
<path fill-rule="evenodd" clip-rule="evenodd" d="M198.58 33.8414L200.273 38.6594C200.453 39.1592 200.927 39.5051 201.466 39.5051H204.853C205.391 39.5051 205.866 39.172 206.045 38.6594L207.739 33.8414C208.034 33.0213 207.418 32.1628 206.546 32.1628H199.773C198.901 32.1628 198.298 33.0213 198.58 33.8414Z" fill="#0054AC"/>
<path d="M204.186 40.3124H202.133C201.269 40.3124 200.568 41.0124 200.568 41.8757V58.3159C200.568 59.1793 201.269 59.8792 202.133 59.8792H204.186C205.05 59.8792 205.751 59.1793 205.751 58.3159V41.8757C205.751 41.0124 205.05 40.3124 204.186 40.3124Z" fill="#0054AC"/>
<path fill-rule="evenodd" clip-rule="evenodd" d="M276.134 25.8456C277.058 23.6288 277.571 21.2069 277.571 18.6698C277.571 8.36745 269.182 0 258.881 0C248.581 0 240.192 8.38027 240.192 18.6698C240.192 21.2198 240.705 23.6416 241.641 25.8584C234.189 28.3699 228.801 35.4047 228.801 43.6825V43.99L231.79 74.7048C232.226 79.1641 235.138 82.7776 239.102 84.2768L241.911 123.269C242.347 129.407 247.529 134.225 253.686 134.225H264.141C270.298 134.225 275.48 129.42 275.916 123.269L278.725 84.2768C282.689 82.7904 285.601 79.1641 286.037 74.7048L289.026 43.99V43.6825C289.026 35.3919 283.625 28.3571 276.16 25.8456H276.134Z" fill="white"/>
<path d="M258.869 29.6513C264.94 29.6513 269.862 24.7347 269.862 18.6698C269.862 12.6049 264.94 7.68829 258.869 7.68829C252.797 7.68829 247.875 12.6049 247.875 18.6698C247.875 24.7347 252.797 29.6513 258.869 29.6513Z" fill="white"/>
<path d="M258.869 30.9455C252.096 30.9455 246.593 25.4483 246.593 18.6826C246.593 11.9169 252.096 6.41974 258.869 6.41974C265.641 6.41974 271.144 11.9169 271.144 18.6826C271.144 25.4483 265.641 30.9455 258.869 30.9455ZM258.869 8.9697C253.507 8.9697 249.158 13.3264 249.158 18.6698C249.158 24.0132 253.52 28.3699 258.869 28.3699C264.218 28.3699 268.579 24.0132 268.579 18.6698C268.579 13.3264 264.218 8.9697 258.869 8.9697Z" fill="#0054AC"/>
<path d="M263.73 8.80311C262.614 8.18805 261.011 7.71393 258.458 7.82926C252.583 8.08553 247.799 12.1603 247.658 17.5422C254.302 17.965 260.023 14.7744 262.691 11.6606C263.73 13.903 266.578 16.6324 269.823 16.4786C269.336 13.0701 266.963 10.1998 263.705 8.7903L263.73 8.80311Z" fill="#0054AC"/>
<path d="M270.169 31.2786H267.719C267.527 31.4196 267.322 31.5349 267.117 31.663V35.7635L258.894 59.3025L250.672 35.7635V31.663C250.467 31.5349 250.261 31.4196 250.069 31.2786H247.619C240.756 31.2786 235.202 36.8398 235.202 43.6824L238.165 74.0898C238.409 76.6525 240.577 78.613 243.142 78.613H245.105L248.286 122.821C248.491 125.64 250.839 127.831 253.674 127.831H264.128C266.963 127.831 269.31 125.653 269.515 122.821L272.696 78.613H274.659C277.237 78.613 279.392 76.6525 279.636 74.0898L282.599 43.6824C282.599 36.827 277.032 31.2786 270.182 31.2786H270.169Z" fill="#0054AC"/>
<path fill-rule="evenodd" clip-rule="evenodd" d="M254.328 33.8414L256.021 38.6594C256.2 39.1592 256.675 39.5051 257.214 39.5051H260.6C261.139 39.5051 261.613 39.172 261.793 38.6594L263.486 33.8414C263.781 33.0213 263.166 32.1628 262.293 32.1628H255.52C254.648 32.1628 254.045 33.0213 254.328 33.8414Z" fill="#0054AC"/>
<path d="M259.946 40.3124H257.894C257.029 40.3124 256.329 41.0124 256.329 41.8757V58.3159C256.329 59.1793 257.029 59.8792 257.894 59.8792H259.946C260.81 59.8792 261.511 59.1793 261.511 58.3159V41.8757C261.511 41.0124 260.81 40.3124 259.946 40.3124Z" fill="#0054AC"/>
<path d="M136.637 66.4912C136.791 64.6972 136.29 62.8905 135.149 61.3784C134.802 60.93 134.328 59.4564 134.135 57.9187C134.135 57.7649 134.135 57.5984 134.135 57.4446C134.135 47.1422 125.746 38.7748 115.446 38.7748C107.236 38.7748 100.258 44.0797 97.7441 51.4349L96.7051 57.3293C96.5896 58.79 96.0637 60.7249 95.6276 61.3016C94.4475 62.852 93.96 64.7229 94.1524 66.5681C88.8804 69.9125 85.3657 75.7684 85.3657 82.4572V82.7648L88.3545 113.48C88.7906 117.939 91.7024 121.552 95.6661 123.052L98.4753 162.044C98.9114 168.182 104.094 173 110.251 173H120.705C126.862 173 132.044 168.195 132.481 162.044L135.29 123.052C139.253 121.565 142.165 117.939 142.601 113.48L145.59 82.7648V82.4572C145.59 75.7172 142.011 69.81 136.662 66.4912H136.637Z" fill="white"/>
<path d="M116.629 69.1896C123.213 68.5389 128.023 62.6791 127.372 56.1014C126.72 49.5236 120.854 44.7189 114.27 45.3696C107.685 46.0204 102.875 51.8802 103.527 58.4579C104.178 65.0356 110.044 69.8404 116.629 69.1896Z" fill="black"/>
<path d="M116.523 67.0678H128.773C129.941 67.0678 130.646 66.0555 130.043 65.261C128.004 62.5829 127.67 57.893 127.67 57.893L103.093 57.8162C103.093 57.8162 102.76 62.506 100.72 65.1841C100.117 65.9786 100.823 66.9909 101.99 66.9909H114.24L116.523 67.0678Z" fill="#0054AC"/>
<path d="M115.446 68.4389C121.517 68.4389 126.439 63.5223 126.439 57.4574C126.439 51.3925 121.517 46.4759 115.446 46.4759C109.375 46.4759 104.453 51.3925 104.453 57.4574C104.453 63.5223 109.375 68.4389 115.446 68.4389Z" fill="white"/>
<path d="M115.446 69.7203C108.673 69.7203 103.17 64.2231 103.17 57.4574C103.17 50.6917 108.673 45.1945 115.446 45.1945C122.219 45.1945 127.722 50.6917 127.722 57.4574C127.722 64.2231 122.219 69.7203 115.446 69.7203ZM115.446 47.7445C110.084 47.7445 105.736 52.1012 105.736 57.4446C105.736 62.788 110.097 67.1447 115.446 67.1447C120.795 67.1447 125.156 62.788 125.156 57.4446C125.156 52.1012 120.795 47.7445 115.446 47.7445Z" fill="#0054AC"/>
<path d="M120.295 47.5779C119.179 46.9628 117.575 46.4887 115.023 46.604C109.148 46.8603 104.363 50.9351 104.222 56.317C110.867 56.7398 116.588 53.5492 119.256 50.4354C120.295 52.6778 123.142 55.4072 126.388 55.2534C125.9 51.8449 123.527 48.9746 120.269 47.5651L120.295 47.5779Z" fill="#0054AC"/>
<path d="M126.734 70.0534H124.284L123.681 70.6557C123.681 70.6557 121.68 79.1128 115.356 79.1128C109.032 79.1128 107.236 70.4378 107.236 70.4378L106.852 70.0534H104.183C97.3208 70.0534 91.7666 75.6146 91.7666 82.4572L94.7297 112.865C94.9734 115.427 97.1413 117.388 99.7067 117.388H101.669L104.85 161.596C105.056 164.415 107.403 166.606 110.238 166.606H120.692C123.527 166.606 125.875 164.428 126.08 161.596L129.261 117.388H131.224C133.802 117.388 135.957 115.427 136.201 112.865L139.164 82.4572C139.164 75.6018 133.597 70.0534 126.747 70.0534H126.734Z" fill="#0054AC"/>
<path d="M193.629 66.4912C193.783 64.6972 193.282 62.8905 192.141 61.3784C191.794 60.93 191.32 59.4564 191.127 57.9187C191.127 57.7649 191.127 57.5984 191.127 57.4446C191.127 47.1422 182.738 38.7748 172.438 38.7748C164.229 38.7748 157.25 44.0797 154.736 51.4349L153.697 57.3293C153.582 58.79 153.056 60.7249 152.62 61.3016C151.44 62.852 150.952 64.7229 151.145 66.5681C145.873 69.9125 142.358 75.7684 142.358 82.4572V82.7648L145.347 113.48C145.783 117.939 148.695 121.552 152.658 123.052L155.467 162.044C155.904 168.182 161.086 173 167.243 173H177.697C183.854 173 189.037 168.195 189.473 162.044L192.282 123.052C196.246 121.565 199.157 117.939 199.594 113.48L202.582 82.7648V82.4572C202.582 75.7172 199.003 69.81 193.654 66.4912H193.629Z" fill="white"/>
<path d="M173.626 69.1843C180.21 68.5335 185.02 62.6737 184.369 56.096C183.717 49.5183 177.851 44.7135 171.267 45.3643C164.682 46.015 159.872 51.8748 160.524 58.4526C161.175 65.0303 167.041 69.835 173.626 69.1843Z" fill="black"/>
<path d="M173.516 67.0678H185.766C186.933 67.0678 187.638 66.0555 187.036 65.261C184.996 62.5829 184.663 57.893 184.663 57.893L160.085 57.8162C160.085 57.8162 159.752 62.506 157.712 65.1841C157.109 65.9786 157.815 66.9909 158.982 66.9909H171.232L173.516 67.0678Z" fill="#0054AC"/>
<path d="M172.425 68.4389C178.496 68.4389 183.418 63.5223 183.418 57.4574C183.418 51.3925 178.496 46.4759 172.425 46.4759C166.354 46.4759 161.432 51.3925 161.432 57.4574C161.432 63.5223 166.354 68.4389 172.425 68.4389Z" fill="white"/>
<path d="M172.438 69.7203C165.665 69.7203 160.162 64.2231 160.162 57.4574C160.162 50.6917 165.665 45.1945 172.438 45.1945C179.211 45.1945 184.714 50.6917 184.714 57.4574C184.714 64.2231 179.211 69.7203 172.438 69.7203ZM172.438 47.7445C167.076 47.7445 162.728 52.1012 162.728 57.4446C162.728 62.788 167.089 67.1447 172.438 67.1447C177.787 67.1447 182.148 62.788 182.148 57.4446C182.148 52.1012 177.787 47.7445 172.438 47.7445Z" fill="#0054AC"/>
<path d="M177.287 47.5779C176.171 46.9628 174.567 46.4887 172.014 46.604C166.14 46.8603 161.355 50.9351 161.214 56.317C167.858 56.7398 173.579 53.5492 176.248 50.4354C177.287 52.6778 180.134 55.4072 183.38 55.2534C182.892 51.8449 180.519 48.9746 177.261 47.5651L177.287 47.5779Z" fill="#0054AC"/>
<path d="M183.726 70.0534H181.276L180.673 70.6557C180.673 70.6557 178.672 79.1128 172.348 79.1128C166.024 79.1128 164.229 70.4378 164.229 70.4378L163.844 70.0534H161.176C154.313 70.0534 148.759 75.6146 148.759 82.4572L151.722 112.865C151.966 115.427 154.133 117.388 156.699 117.388H158.661L161.843 161.596C162.048 164.415 164.395 166.606 167.23 166.606H177.684C180.519 166.606 182.867 164.428 183.072 161.596L186.253 117.388H188.216C190.794 117.388 192.949 115.427 193.193 112.865L196.156 82.4572C196.156 75.6018 190.589 70.0534 183.739 70.0534H183.726Z" fill="#0054AC"/>
<path fill-rule="evenodd" clip-rule="evenodd" d="M74.5912 64.6332C75.5148 62.4164 76.0278 59.9945 76.0278 57.4574C76.0278 47.1551 67.6388 38.7876 57.3384 38.7876C47.0381 38.7876 38.649 47.1679 38.649 57.4574C38.649 60.0074 39.1621 62.4292 40.0985 64.646C32.6458 67.1575 27.2583 74.1923 27.2583 82.4701V82.7776L30.2471 113.492C30.6832 117.952 33.595 121.565 37.5587 123.064L40.3678 162.057C40.804 168.195 45.9862 173.013 52.1433 173.013H62.5976C68.7547 173.013 73.937 168.208 74.3731 162.057L77.1823 123.064C81.146 121.578 84.0578 117.952 84.4939 113.492L87.4827 82.7776V82.4701C87.4827 74.1795 82.0824 67.1447 74.6168 64.6332H74.5912Z" fill="white"/>
<path d="M57.3382 68.4389C63.4095 68.4389 68.3313 63.5223 68.3313 57.4574C68.3313 51.3925 63.4095 46.4759 57.3382 46.4759C51.267 46.4759 46.3452 51.3925 46.3452 57.4574C46.3452 63.5223 51.267 68.4389 57.3382 68.4389Z" fill="white"/>
<path d="M57.3383 69.7203C50.5654 69.7203 45.0625 64.2231 45.0625 57.4574C45.0625 50.6917 50.5654 45.1945 57.3383 45.1945C64.1111 45.1945 69.614 50.6917 69.614 57.4574C69.614 64.2231 64.1111 69.7203 57.3383 69.7203ZM57.3383 47.7445C51.9764 47.7445 47.628 52.1012 47.628 57.4446C47.628 62.788 51.9893 67.1447 57.3383 67.1447C62.6873 67.1447 67.0486 62.788 67.0486 57.4446C67.0486 52.1012 62.6873 47.7445 57.3383 47.7445Z" fill="#0054AC"/>
<path d="M62.1996 47.5779C61.0836 46.9628 59.4802 46.4887 56.9276 46.604C51.0527 46.8603 46.2681 50.9351 46.127 56.317C52.7715 56.7398 58.4925 53.5492 61.1606 50.4354C62.1996 52.6778 65.0473 55.4072 68.2926 55.2534C67.8052 51.8449 65.4321 48.9746 62.174 47.5651L62.1996 47.5779Z" fill="#0054AC"/>
<path d="M68.6265 70.0534H66.1765C65.9841 70.1944 65.7788 70.3097 65.5736 70.4378V74.5383L57.3513 98.0773L49.129 74.5383V70.4378C48.9237 70.3097 48.7185 70.1944 48.5261 70.0534H46.076C39.2134 70.0534 33.6592 75.6146 33.6592 82.4572L36.6223 112.865C36.866 115.427 39.0338 117.388 41.5993 117.388H43.5619L46.7431 161.596C46.9483 164.415 49.2957 166.606 52.1306 166.606H62.5848C65.4197 166.606 67.7671 164.428 67.9723 161.596L71.1535 117.388H73.1161C75.6944 117.388 77.8494 115.427 78.0931 112.865L81.0562 82.4572C81.0562 75.6018 75.4891 70.0534 68.6393 70.0534H68.6265Z" fill="#0054AC"/>
<path fill-rule="evenodd" clip-rule="evenodd" d="M52.7973 72.6162L54.4905 77.4342C54.6701 77.9339 55.1447 78.2799 55.6834 78.2799H59.0698C59.6086 78.2799 60.0832 77.9467 60.2628 77.4342L61.956 72.6162C62.251 71.7961 61.6353 70.9376 60.763 70.9376H53.9902C53.1179 70.9376 52.5151 71.7961 52.7973 72.6162Z" fill="#0054AC"/>
<path d="M58.4156 79.0872H56.3633C55.499 79.0872 54.7983 79.7871 54.7983 80.6504V97.0906C54.7983 97.954 55.499 98.6539 56.3633 98.6539H58.4156C59.2799 98.6539 59.9806 97.954 59.9806 97.0906V80.6504C59.9806 79.7871 59.2799 79.0872 58.4156 79.0872Z" fill="#0054AC"/>
<path fill-rule="evenodd" clip-rule="evenodd" d="M247.632 64.6332C248.555 62.4164 249.068 59.9945 249.068 57.4574C249.068 47.1551 240.679 38.7876 230.379 38.7876C220.079 38.7876 211.69 47.1679 211.69 57.4574C211.69 60.0074 212.203 62.4292 213.139 64.646C205.686 67.1575 200.299 74.1923 200.299 82.4701V82.7776L203.288 113.492C203.724 117.952 206.636 121.565 210.599 123.064L213.408 162.057C213.845 168.195 219.027 173.013 225.184 173.013H235.638C241.795 173.013 246.978 168.208 247.414 162.057L250.223 123.064C254.187 121.578 257.098 117.952 257.534 113.492L260.523 82.7776V82.4701C260.523 74.1795 255.123 67.1447 247.657 64.6332H247.632Z" fill="white"/>
<path d="M230.379 68.4389C236.451 68.4389 241.372 63.5223 241.372 57.4574C241.372 51.3925 236.451 46.4759 230.379 46.4759C224.308 46.4759 219.386 51.3925 219.386 57.4574C219.386 63.5223 224.308 68.4389 230.379 68.4389Z" fill="white"/>
<path d="M230.379 69.7203C223.606 69.7203 218.104 64.2231 218.104 57.4574C218.104 50.6917 223.606 45.1945 230.379 45.1945C237.152 45.1945 242.655 50.6917 242.655 57.4574C242.655 64.2231 237.152 69.7203 230.379 69.7203ZM230.379 47.7445C225.017 47.7445 220.669 52.1012 220.669 57.4446C220.669 62.788 225.03 67.1447 230.379 67.1447C235.728 67.1447 240.09 62.788 240.09 57.4446C240.09 52.1012 235.728 47.7445 230.379 47.7445Z" fill="#0054AC"/>
<path d="M235.241 47.5779C234.125 46.9628 232.521 46.4887 229.969 46.604C224.094 46.8603 219.309 50.9351 219.168 56.317C225.813 56.7398 231.534 53.5492 234.202 50.4354C235.241 52.6778 238.088 55.4072 241.334 55.2534C240.846 51.8449 238.473 48.9746 235.215 47.5651L235.241 47.5779Z" fill="#0054AC"/>
<path d="M241.667 70.0534H239.217C239.025 70.1944 238.819 70.3097 238.614 70.4378V74.5383L230.392 98.0773L222.169 74.5383V70.4378C221.964 70.3097 221.759 70.1944 221.567 70.0534H219.117C212.254 70.0534 206.7 75.6146 206.7 82.4572L209.663 112.865C209.907 115.427 212.074 117.388 214.64 117.388H216.602L219.784 161.596C219.989 164.415 222.336 166.606 225.171 166.606H235.625C238.46 166.606 240.808 164.428 241.013 161.596L244.194 117.388H246.157C248.735 117.388 250.89 115.427 251.134 112.865L254.097 82.4572C254.097 75.6018 248.53 70.0534 241.68 70.0534H241.667Z" fill="#0054AC"/>
<path fill-rule="evenodd" clip-rule="evenodd" d="M225.838 72.6162L227.531 77.4342C227.711 77.9339 228.186 78.2799 228.724 78.2799H232.111C232.65 78.2799 233.124 77.9467 233.304 77.4342L234.997 72.6162C235.292 71.7961 234.676 70.9376 233.804 70.9376H227.031C226.159 70.9376 225.556 71.7961 225.838 72.6162Z" fill="#0054AC"/>
<path d="M231.443 79.0872H229.391C228.527 79.0872 227.826 79.7871 227.826 80.6504V97.0906C227.826 97.954 228.527 98.6539 229.391 98.6539H231.443C232.308 98.6539 233.008 97.954 233.008 97.0906V80.6504C233.008 79.7871 232.308 79.0872 231.443 79.0872Z" fill="#0054AC"/>
</g>
<defs>
<clipPath id="clip0_358_2942">
<rect width="289" height="173" fill="white"/>
</clipPath>
</defs>
</svg>
