<svg width="432" height="195" viewBox="0 0 432 195" fill="none" xmlns="http://www.w3.org/2000/svg">
<path d="M110.488 2.49229C116.184 1.43174 121.402 0.936817 127.186 0.883789V88.3262L110.488 2.49229Z" fill="white"/>
<path d="M126.303 1.78526V79.1525L111.533 3.19933C116.538 2.31554 121.226 1.85596 126.303 1.78526ZM128.072 0C121.597 0 115.796 0.565627 109.445 1.78526L128.072 97.5V0Z" fill="#0054AC"/>
<path d="M128.071 97.5V0C181.969 0 225.642 43.6594 225.642 97.5C225.642 151.341 181.951 195 128.071 195C74.1912 195 30.5 151.358 30.5 97.5C30.5 50.111 62.9058 10.8353 109.463 1.78526L128.089 97.5H128.071Z" fill="#0054AC"/>
<path d="M320.24 50.5704C323.584 48.7498 327.829 48.7145 331.19 50.5351C334.073 51.9492 336.196 54.5475 337.628 57.3756C339.627 61.5118 340.299 66.1605 340.211 70.7209C340.282 75.3166 340.069 79.9124 340.37 84.4904C341.113 84.4904 341.838 84.4904 342.581 84.4904C342.581 78.7634 342.67 73.0365 342.581 67.3272C342.298 60.9992 340.069 54.4061 335.134 50.1993C331.349 46.9999 325.865 45.8333 321.16 47.5125C316.72 48.9796 313.395 52.7269 311.414 56.863C309.203 61.3527 308.76 66.4434 308.831 71.3749C308.902 75.7409 308.743 80.1245 309.026 84.4904C309.733 84.4727 310.459 84.455 311.184 84.455C311.184 79.877 311.237 75.299 311.219 70.7032C311.219 66.1252 311.768 61.4234 313.89 57.3049C315.358 54.5652 317.428 52.0022 320.24 50.5704Z" fill="#0054AC"/>
<path d="M363.755 113.585C360.978 102.609 358.271 91.5966 355.37 80.6376C354.999 79.7184 354.026 79.0821 353.036 79.1705C350.17 79.1705 347.287 79.1351 344.421 79.2058C344.421 80.885 344.403 82.5642 344.457 84.2434C345.111 84.4379 346.137 84.5262 346.19 85.4277C346.19 87.6549 346.349 89.8997 346.048 92.1092C345.748 94.248 343.961 96.263 341.697 96.2277C339.362 96.3691 337.381 94.3363 337.133 92.1092C336.903 89.6522 337.01 87.1599 337.133 84.6853C337.558 84.5439 337.982 84.4025 338.407 84.2611C338.425 82.5996 338.425 80.9204 338.442 79.2588C335.294 79.0467 332.145 79.2235 328.997 79.1705C323.69 79.2235 318.383 79.0998 313.094 79.2588C313.094 80.9557 313.059 82.6526 313.165 84.3318C313.696 84.4909 314.545 84.3318 314.739 85.0388C314.863 86.5943 314.739 88.1675 314.81 89.7406C314.881 91.6143 314.633 93.6647 313.289 95.0787C311.838 96.5635 309.256 96.7049 307.646 95.3792C306.373 94.354 305.771 92.6748 305.7 91.084C305.63 89.0866 305.559 87.0892 305.736 85.1095C305.736 84.3848 306.638 84.4555 307.133 84.2258C307.133 82.5642 307.133 80.9027 307.204 79.2588C304.338 79.1528 301.473 79.2235 298.607 79.2058C297.705 79.1351 296.909 79.8068 296.555 80.5845C293.778 91.4375 290.93 102.273 288.224 113.126C287.233 116.643 287.658 120.497 289.303 123.749C291.337 127.549 295.087 130.395 299.315 131.244C301.066 131.615 302.87 131.438 304.657 131.473C319.675 131.473 334.692 131.473 349.692 131.473C352.699 131.526 355.671 130.572 358.112 128.822C362.906 125.552 365.258 119.171 363.773 113.585H363.755Z" fill="#0054AC"/>
<path d="M307.665 86.2755C307.542 88.1845 307.4 90.1288 307.736 92.0378C307.948 93.3989 309.204 94.7069 310.655 94.3887C311.911 94.2119 312.618 92.8863 312.76 91.755C312.901 89.9344 312.76 88.0961 312.76 86.2578C311.062 86.3108 309.346 86.2755 307.648 86.2932L307.665 86.2755Z" fill="#0054AC"/>
<path d="M341.31 94.3357C342.849 94.5831 343.981 93.0984 344.158 91.7197C344.317 89.899 344.194 88.0784 344.211 86.2578C342.442 86.2578 340.674 86.2578 338.887 86.2578C338.887 87.9724 338.799 89.6693 338.887 91.3838C338.975 92.7095 339.824 94.2119 341.275 94.318L341.31 94.3357Z" fill="#0054AC"/>
<path d="M292.435 35.6521C326.38 16.5622 373.114 33.2835 388.361 68.759C384.452 69.3599 380.543 69.9786 376.634 70.5796C384.222 77.3141 391.811 84.0663 399.399 90.8008C402.105 81.026 404.812 71.2513 407.5 61.4765C403.697 63.1027 399.894 64.7289 396.109 66.355C385.213 40.0357 358.538 21.4761 330.201 19.6554C289.216 16.1026 248.886 49.6514 246.887 91.0482C249.558 91.2426 252.211 91.4548 254.882 91.6492C257.005 68.2287 271.527 46.4697 292.453 35.6521H292.435Z" fill="#0054AC"/>
<path d="M326.892 177.218C365.595 177.306 400.796 143.722 402.688 105.136C400.053 104.906 397.417 104.676 394.782 104.429C392.128 143.139 353.585 175.061 314.899 168.256C291.798 164.933 271.067 149.06 261.532 127.832C265.353 127.089 269.156 126.364 272.977 125.622C265.388 118.87 257.8 112.118 250.212 105.366C247.576 115.282 244.94 125.198 242.305 135.114C246.214 133.629 250.105 132.127 254.015 130.642C265.831 158.959 296.096 178.632 326.892 177.2V177.218Z" fill="#0054AC"/>
</svg>
