<svg width="182" height="170" viewBox="0 0 182 170" fill="none" xmlns="http://www.w3.org/2000/svg">
<g clip-path="url(#clip0_358_3399)">
<path d="M138.415 0H43.5848C42.6982 0 41.9712 0.725739 41.9712 1.61079V15.984C41.9712 16.869 42.6982 17.5948 43.5848 17.5948H46.7056V136.386C46.7056 137.182 47.3439 137.82 48.1419 137.82H71.9558C72.7537 137.82 73.3921 137.182 73.3921 136.386V94.4523C73.3921 93.6558 74.0304 93.0185 74.8284 93.0185H107.154C107.952 93.0185 108.59 93.6558 108.59 94.4523V136.386C108.59 137.182 109.228 137.82 110.026 137.82H133.84C134.638 137.82 135.276 137.182 135.276 136.386V17.5948H138.397C139.284 17.5948 140.011 16.869 140.011 15.984V1.61079C140.011 0.725739 139.284 0 138.397 0H138.415Z" fill="#0054AC"/>
<path d="M72.8425 24.1616H67.6825C66.6346 24.1616 65.7852 25.0096 65.7852 26.0556V42.8715C65.7852 43.9176 66.6346 44.7655 67.6825 44.7655H72.8425C73.8903 44.7655 74.7398 43.9176 74.7398 42.8715V26.0556C74.7398 25.0096 73.8903 24.1616 72.8425 24.1616Z" fill="white"/>
<path d="M93.589 24.1616H88.429C87.3812 24.1616 86.5317 25.0096 86.5317 26.0556V42.8715C86.5317 43.9176 87.3812 44.7655 88.429 44.7655H93.589C94.6369 44.7655 95.4863 43.9176 95.4863 42.8715V26.0556C95.4863 25.0096 94.6369 24.1616 93.589 24.1616Z" fill="white"/>
<path d="M114.318 24.1616H109.158C108.11 24.1616 107.26 25.0096 107.26 26.0556V42.8715C107.26 43.9176 108.11 44.7655 109.158 44.7655H114.318C115.365 44.7655 116.215 43.9176 116.215 42.8715V26.0556C116.215 25.0096 115.365 24.1616 114.318 24.1616Z" fill="white"/>
<path d="M72.8425 55.5278H67.6825C66.6346 55.5278 65.7852 56.3758 65.7852 57.4218V74.2377C65.7852 75.2838 66.6346 76.1317 67.6825 76.1317H72.8425C73.8903 76.1317 74.7398 75.2838 74.7398 74.2377V57.4218C74.7398 56.3758 73.8903 55.5278 72.8425 55.5278Z" fill="white"/>
<path d="M93.589 55.5278H88.429C87.3812 55.5278 86.5317 56.3758 86.5317 57.4218V74.2377C86.5317 75.2838 87.3812 76.1317 88.429 76.1317H93.589C94.6369 76.1317 95.4863 75.2838 95.4863 74.2377V57.4218C95.4863 56.3758 94.6369 55.5278 93.589 55.5278Z" fill="white"/>
<path d="M114.318 55.5278H109.158C108.11 55.5278 107.26 56.3758 107.26 57.4218V74.2377C107.26 75.2838 108.11 76.1317 109.158 76.1317H114.318C115.365 76.1317 116.215 75.2838 116.215 74.2377V57.4218C116.215 56.3758 115.365 55.5278 114.318 55.5278Z" fill="white"/>
<path d="M172.052 54.5898C172.443 52.6958 172.017 50.6956 170.776 49.0848C170.191 48.3236 169.605 46.4119 169.375 44.5179C169.375 44.3232 169.375 44.1285 169.375 43.9338C169.375 33.3132 160.722 24.6929 150.1 24.6929C141.359 24.6929 133.947 30.5342 131.588 38.5173L130.755 43.9338C130.666 45.1729 130.099 47.9342 129.301 48.9963C128.042 50.6602 127.616 52.7135 128.077 54.6606C122.226 58.0061 118.254 64.2899 118.254 71.5119V71.7951L121.552 105.586C122.013 110.277 125.24 114.012 129.549 115.286L132.705 159.167C133.149 165.238 138.273 170 144.373 170H155.899C161.998 170 167.123 165.238 167.566 159.167L170.723 115.286C175.031 114.03 178.259 110.277 178.72 105.586L182.018 71.7951V71.5119C182.018 64.2545 177.993 57.9176 172.07 54.5898H172.052Z" fill="white"/>
<path d="M135.259 54.4481H141.607C143.93 56.3244 146.891 57.4572 150.1 57.4572C153.31 57.4572 156.182 56.3598 158.488 54.5366H164.818C166.095 54.5366 166.892 53.4214 166.219 52.5364C164.25 49.952 163.718 45.6684 163.63 44.6417C163.63 44.4116 163.665 44.1638 163.665 43.9337C163.665 36.4816 157.583 30.4102 150.118 30.4102C142.653 30.4102 136.571 36.4816 136.571 43.9337C136.571 44.0753 136.571 44.1992 136.589 44.3408H136.5C136.5 44.3408 136.128 49.5095 133.893 52.4655C133.22 53.3506 134 54.4658 135.294 54.4658L135.259 54.4481ZM139.461 42.73C146.057 42.6061 151.625 39.3668 154.338 36.2161C155.296 38.2871 157.654 40.7121 160.491 41.367C160.704 42.199 160.81 43.0486 160.81 43.9337C160.81 49.8281 156.005 54.6251 150.1 54.6251C144.196 54.6251 139.39 49.8281 139.39 43.9337C139.39 43.5266 139.426 43.1194 139.461 42.7123V42.73Z" fill="#0054AC"/>
<path d="M162.566 57.8291H159.871C159.605 58.0946 159.463 58.2362 159.197 58.5017C159.197 58.5017 156.998 67.8301 150.012 67.8301C143.025 67.8301 141.057 58.2716 141.057 58.2716L140.632 57.8468H137.688C130.117 57.8468 123.981 63.9713 123.981 71.5296L127.244 105.055C127.528 107.887 129.904 110.029 132.741 110.029H134.904L138.415 158.76C138.646 161.875 141.235 164.283 144.355 164.283H155.881C159.002 164.283 161.591 161.875 161.821 158.76L165.332 110.029H167.495C170.333 110.029 172.726 107.87 172.992 105.055L176.255 71.5296C176.255 63.9713 170.12 57.8468 162.548 57.8468L162.566 57.8291Z" fill="#0054AC"/>
<path fill-rule="evenodd" clip-rule="evenodd" d="M49.0109 52.395C50.3585 49.7576 51.1387 46.7838 51.1387 43.633C51.1387 33.0125 42.4856 24.3921 31.8465 24.3921C21.2073 24.3921 12.5719 33.0302 12.5719 43.633C12.5719 46.8015 13.3521 49.7753 14.7175 52.4127C6.27708 54.5368 0 62.1482 0 71.2111V71.4943L3.29813 105.285C3.75916 109.976 6.98636 113.711 11.2952 114.986L14.4515 158.866C14.8948 164.938 20.0193 169.699 26.1191 169.699H37.6448C43.7445 169.699 48.8691 164.938 49.3124 158.866L52.4686 114.986C56.7775 113.729 60.0047 109.976 60.4657 105.285L63.7638 71.4943V71.2111C63.7638 62.1305 57.469 54.5014 49.0286 52.395H49.0109Z" fill="white"/>
<path fill-rule="evenodd" clip-rule="evenodd" d="M31.8465 57.1564C39.3116 57.1564 45.3936 51.085 45.3936 43.6329C45.3936 36.1808 39.3116 30.1094 31.8465 30.1094C24.3813 30.1094 18.2993 36.1808 18.2993 43.6329C18.2993 51.085 24.3813 57.1564 31.8465 57.1564ZM21.2073 42.4115C27.8036 42.2876 33.3714 39.0484 36.0844 35.8976C37.0419 37.9686 39.4003 40.3936 42.2374 41.0486C42.4501 41.8805 42.5565 42.7302 42.5565 43.6152C42.5565 49.5096 37.7512 54.3066 31.8465 54.3066C25.9418 54.3066 21.1364 49.5096 21.1364 43.6152C21.1364 43.2081 21.1719 42.801 21.2073 42.3938V42.4115Z" fill="#0054AC"/>
<path fill-rule="evenodd" clip-rule="evenodd" d="M44.3121 57.5103H41.6169C41.4041 57.6519 41.1736 57.7935 40.943 57.9351V62.4488L34.7546 80.1321V68.6265C34.7546 67.9715 34.2227 67.4582 33.5843 67.4582H30.2153C29.5592 67.4582 29.045 67.9892 29.045 68.6265V80.2914L22.8033 62.4488V57.9351C22.5728 57.7935 22.36 57.6519 22.1295 57.5103H19.4343C11.8628 57.5103 5.72754 63.6348 5.72754 71.1931L8.9902 104.719C9.27391 107.551 11.65 109.693 14.4871 109.693H16.6504L20.1613 158.423C20.3918 161.539 22.9807 163.946 26.1015 163.946H37.6272C40.748 163.946 43.3369 161.539 43.5674 158.423L47.0783 109.693H49.2416C52.0787 109.693 54.4725 107.533 54.7385 104.719L58.0011 71.1931C58.0011 63.6348 51.8659 57.5103 44.2944 57.5103H44.3121Z" fill="#0054AC"/>
<path fill-rule="evenodd" clip-rule="evenodd" d="M28.1584 58.4839C27.2009 58.4839 26.5271 59.4397 26.8463 60.3425L28.7259 65.6528C28.9209 66.2015 29.4529 66.5909 30.038 66.5909H33.7795C34.3646 66.5909 34.8966 66.2192 35.0916 65.6528L36.9712 60.3425C37.2904 59.4397 36.6166 58.4839 35.659 58.4839H28.1762H28.1584Z" fill="#0054AC"/>
</g>
<defs>
<clipPath id="clip0_358_3399">
<rect width="182" height="170" fill="white"/>
</clipPath>
</defs>
</svg>
