<svg width="475" height="228" viewBox="0 0 475 228" fill="none" xmlns="http://www.w3.org/2000/svg">
<path d="M208.488 2.91416C215.132 1.67413 221.219 1.09545 227.966 1.03345V103.274L208.488 2.91416Z" fill="white"/>
<path d="M226.937 2.08738V92.5475L209.708 3.74075C215.547 2.7074 221.015 2.17005 226.937 2.08738ZM229 0C221.449 0 214.681 0.661349 207.273 2.08738L229 114V0Z" fill="#0054AC"/>
<path d="M228.997 114V0C291.867 0 342.811 51.0479 342.811 114C342.811 176.952 291.847 228 228.997 228C166.148 228 115.184 176.973 115.184 114C115.184 58.5914 152.984 12.669 207.291 2.08738L229.018 114H228.997Z" fill="#0054AC"/>
<path d="M321.81 63.1381C321.975 62.8281 321.975 62.4354 321.81 62.1254C321.624 61.8154 321.294 61.6294 320.923 61.6294H301.012V7.13013H450.955V61.6087H350.883C350.697 61.6087 350.511 61.6501 350.367 61.7534L309.554 85.748L321.872 63.1381H321.81Z" fill="white"/>
<path d="M449.9 8.16339V60.5753H350.86C350.488 60.5753 350.137 60.6786 349.807 60.8646L312.193 82.9785L322.716 63.634C323.066 62.9933 323.046 62.208 322.674 61.588C322.303 60.968 321.622 60.5753 320.9 60.5753H302.02V8.16339H449.9ZM451.963 6.09668H299.957V62.642H320.9L306.807 88.5379L350.839 62.642H451.943V6.09668H451.963Z" fill="#0054AC"/>
<path d="M326.201 46.1083L329.152 36.9321C329.296 36.4981 329.152 36.0434 328.78 35.7748L321.043 30.1533C320.238 29.5746 320.651 28.2933 321.641 28.2933H331.195C331.648 28.2933 332.04 28.0039 332.185 27.5906L335.156 18.4557C335.466 17.505 336.807 17.505 337.116 18.4557L340.067 27.5906C340.211 28.0246 340.603 28.3139 341.057 28.3139H350.652C351.642 28.3139 352.076 29.5953 351.25 30.174L343.492 35.8161C343.141 36.0848 342.976 36.5394 343.121 36.9735L346.071 46.1083C346.381 47.059 345.287 47.8444 344.482 47.2657L336.745 41.6236C336.374 41.3549 335.899 41.3549 335.528 41.6236L327.769 47.2657C326.965 47.8444 325.871 47.059 326.181 46.1083H326.201Z" fill="#0054AC"/>
<path d="M366.002 46.1083L368.953 36.9321C369.097 36.4981 368.953 36.0434 368.581 35.7748L360.844 30.1533C360.039 29.5746 360.452 28.2933 361.442 28.2933H370.995C371.449 28.2933 371.841 28.0039 371.986 27.5906L374.957 18.4557C375.266 17.505 376.608 17.505 376.917 18.4557L379.868 27.5906C380.012 28.0246 380.404 28.3139 380.858 28.3139H390.453C391.443 28.3139 391.876 29.5953 391.051 30.174L383.293 35.8161C382.942 36.0848 382.777 36.5394 382.921 36.9735L385.872 46.1083C386.181 47.059 385.088 47.8444 384.283 47.2657L376.546 41.6236C376.174 41.3549 375.7 41.3549 375.328 41.6236L367.57 47.2657C366.765 47.8444 365.672 47.059 365.981 46.1083H366.002Z" fill="#0054AC"/>
<path d="M405.807 46.1083L408.757 36.9321C408.902 36.4981 408.757 36.0434 408.386 35.7748L400.648 30.1533C399.844 29.5746 400.256 28.2933 401.247 28.2933H410.8C411.254 28.2933 411.646 28.0039 411.79 27.5906L414.762 18.4557C415.071 17.505 416.412 17.505 416.722 18.4557L419.672 27.5906C419.817 28.0246 420.209 28.3139 420.663 28.3139H430.257C431.248 28.3139 431.681 29.5953 430.856 30.174L423.097 35.8161C422.747 36.0848 422.582 36.5394 422.726 36.9735L425.677 46.1083C425.986 47.059 424.893 47.8444 424.088 47.2657L416.35 41.6236C415.979 41.3549 415.504 41.3549 415.133 41.6236L407.375 47.2657C406.57 47.8444 405.477 47.059 405.786 46.1083H405.807Z" fill="#0054AC"/>
</svg>
