<svg width="142" height="128" viewBox="0 0 142 128" fill="none" xmlns="http://www.w3.org/2000/svg">
<g clip-path="url(#clip0_358_3260)">
<path d="M15.8042 0.185547H39.6454L33.55 29.5178H1.62109L15.8042 0.185547Z" fill="#0054AC"/>
<path d="M33.7012 29.7031H1.31641L15.6853 0H39.881L33.7012 29.7031ZM1.92425 29.3154H33.3804L39.4082 0.387726H15.9385L1.92425 29.3154Z" fill="#0054AC"/>
<path d="M42.7705 0.185547H69.0093V29.5178H36.9453L42.7705 0.185547Z" fill="#0054AC"/>
<path d="M69.2087 29.7031H36.7227L42.5985 0H69.1919V29.7031H69.2087ZM37.1785 29.3154H68.8204V0.387726H42.9193L37.1785 29.3154Z" fill="#0054AC"/>
<path d="M73.2132 0.185547H99.2325L105.193 29.5178H72.5547L73.2132 0.185547Z" fill="#0054AC"/>
<path d="M105.427 29.7031H72.3672V29.5009L73.0257 0H99.3995L99.4333 0.151719L105.444 29.7031H105.427ZM72.7555 29.3154H104.955L99.0787 0.387726H73.3972L72.7555 29.3154Z" fill="#0054AC"/>
<path d="M102.488 0.185547H126.042L140.935 29.5178H108.871L102.488 0.185547Z" fill="#0054AC"/>
<path d="M141.257 29.7031H108.721L108.687 29.5514L102.254 0H126.163L126.213 0.101146L141.257 29.7031ZM109.042 29.3154H140.633L125.926 0.387726H102.727L109.025 29.3154H109.042Z" fill="#0054AC"/>
<path d="M0.203125 33.1926H32.8412L32.2671 46.5102C30.1903 52.9161 24.6352 57.4845 18.2191 58.1251C10.7729 58.8668 3.49563 54.1467 0.912281 46.645C0.675896 42.1609 0.43951 37.6768 0.203125 33.1926Z" fill="#0054AC"/>
<path d="M16.6833 58.3949C15.3494 58.3949 13.9986 58.2263 12.6816 57.8892C10.8919 57.434 9.2034 56.6754 7.63313 55.6471C6.06285 54.6188 4.67831 53.3376 3.49638 51.8373C2.29757 50.3033 1.35203 48.5838 0.710415 46.7294V46.6957V46.662L-0.015625 33.0073H33.0277L32.4536 46.544C31.4236 49.747 29.5325 52.5285 26.9998 54.6357C24.4671 56.726 21.4279 58.0072 18.2536 58.3275C17.7302 58.3781 17.2236 58.4118 16.7002 58.4118L16.6833 58.3949ZM1.09876 46.6114C3.63146 53.8939 10.8074 58.6646 18.2029 57.9229C24.5684 57.2992 30.0053 52.7982 32.0821 46.4597L32.6393 33.3782H0.406492L1.09876 46.6114Z" fill="#0054AC"/>
<path d="M36.9453 33.1926H69.0093V45.937C67.0169 52.7643 61.2086 57.6531 54.5391 58.2262C46.6709 58.9005 39.0221 53.4049 36.9453 45.0941V33.1926Z" fill="#0054AC"/>
<path d="M53.2372 58.4792C49.7928 58.4792 46.3483 57.3329 43.4441 55.192C40.1347 52.7476 37.754 49.1738 36.7578 45.1448V33.0073H69.2101V46.0046C68.2139 49.3761 66.306 52.343 63.6551 54.5851C61.0211 56.8103 57.8805 58.1421 54.5542 58.4286C54.1152 58.4623 53.6762 58.4792 53.2372 58.4792ZM37.1462 45.0774C39.1723 53.1522 46.6353 58.7152 54.5205 58.0409C61.1224 57.4846 66.8632 52.6128 68.8218 45.9203V33.395H37.1462V45.0774Z" fill="#0054AC"/>
<path d="M72.5547 33.1926H105.193V46.5102C102.981 53.4218 96.6322 58.1419 89.5913 58.2262C81.9426 58.3274 75.0536 52.9329 73.2132 45.229C72.9937 41.2169 72.7742 37.2047 72.5716 33.1926H72.5547Z" fill="#0054AC"/>
<path d="M89.3869 58.4286C87.5465 58.4286 85.7398 58.1252 84.0007 57.5015C82.2278 56.8777 80.59 55.9843 79.1042 54.8042C77.6183 53.6242 76.3351 52.225 75.3051 50.6236C74.2414 48.9884 73.4816 47.1846 73.0257 45.2797V45.246L72.3672 33.0073H105.394V46.5777C104.836 48.2972 104.026 49.8987 102.979 51.3653C101.949 52.7813 100.733 54.0456 99.332 55.0908C97.9306 56.136 96.3941 56.962 94.7731 57.5183C93.1016 58.0915 91.3624 58.4118 89.6064 58.4286C89.5389 58.4286 89.4714 58.4286 89.4038 58.4286H89.3869ZM73.3972 45.2122C75.2038 52.7476 81.9914 58.1421 89.5727 58.0409C96.5967 57.9566 102.776 53.3039 104.988 46.4934V33.395H72.7555L73.3972 45.2122Z" fill="#0054AC"/>
<path d="M109.16 33.1926H141.798C141.612 37.8622 141.427 42.5486 141.224 47.2182C140.988 47.7913 137.324 56.5573 128.594 58.1251C120.811 59.5242 112.385 54.5681 109.16 45.937V33.1926Z" fill="#0054AC"/>
<path d="M125.942 58.5464C122.902 58.5464 119.829 57.6529 117.06 55.9503C115.271 54.8546 113.667 53.4554 112.299 51.8034C110.881 50.0839 109.766 48.1284 108.973 46.0043V45.9706V32.9902H141.999L141.425 47.2518V47.2855C141.307 47.5384 140.327 49.9153 138.251 52.4102C137.069 53.8431 135.752 55.04 134.333 55.984C132.577 57.1641 130.669 57.9395 128.643 58.2935C127.765 58.4453 126.854 58.5295 125.959 58.5295L125.942 58.5464ZM109.361 45.9032C112.468 54.1803 120.707 59.3387 128.576 57.9227C137.103 56.3886 140.766 47.8418 141.037 47.1675L141.594 33.378H109.361V45.9032Z" fill="#0054AC"/>
<path d="M116.675 59.6761C110.985 56.7765 108.486 51.9384 107.743 50.3201C103.707 57.4677 96.0248 61.7327 88.0215 61.227C76.8607 60.5358 71.3225 50.9944 70.9342 50.3201C67.6079 57.198 60.6177 61.6147 52.9689 61.6484C45.2526 61.6821 38.178 57.2654 34.801 50.3201C34.0581 51.7193 30.8669 57.4003 23.7416 60.0975C16.6162 62.7947 10.4702 60.6538 8.98438 60.0975V127.798H26.2912L26.8652 75.8088L57.646 75.6739L57.5109 127.798H132.698V60.5189C131.466 60.9741 124.205 63.5027 116.675 59.6761ZM116.675 105.714H78.0933V75.9605H116.675V105.714Z" fill="#0054AC"/>
<path d="M132.898 128H57.3221L57.4572 75.8763L27.0479 76.0111L26.4739 128H8.8125V59.8278L9.08266 59.929C11.2777 60.755 17.1029 62.4239 23.7048 59.929C30.3067 57.434 33.5654 52.3262 34.6629 50.2527L34.8486 49.9155L35.0175 50.2527C38.3269 57.1137 45.3847 61.5136 52.9997 61.4799C60.5302 61.4461 67.5036 57.0463 70.7961 50.2527L70.9649 49.9155L71.1507 50.2358C71.3026 50.5224 72.7716 53.0679 75.6082 55.6303C79.2722 58.9344 83.4596 60.755 88.0691 61.0416C95.9711 61.5304 103.637 57.2823 107.605 50.2358L107.79 49.9155L107.942 50.2527C109.023 52.579 111.606 56.8609 116.79 59.5075C123.848 63.1151 130.72 61.0584 132.661 60.3504L132.915 60.2493V128H132.898ZM57.7105 127.629H132.51V60.8224C130.23 61.6147 123.493 63.4016 116.587 59.8784C111.539 57.2992 108.905 53.2028 107.723 50.7753C105.73 54.1637 102.894 56.962 99.4662 58.8501C96.3088 60.5864 92.8306 61.4967 89.2848 61.4967C88.8627 61.4967 88.4237 61.4967 88.0016 61.463C85.4182 61.2944 82.9362 60.6538 80.6061 59.5412C78.7319 58.6478 76.9421 57.434 75.3043 55.9506C72.8898 53.7759 71.4546 51.5844 70.9481 50.7753C69.2934 54.0456 66.7775 56.8103 63.6708 58.7658C60.4627 60.7887 56.7481 61.8676 52.9659 61.9013C52.9321 61.9013 52.8984 61.9013 52.8646 61.9013C49.0824 61.9013 45.3678 60.8393 42.1428 58.8332C39.0023 56.8609 36.4527 54.0962 34.798 50.809C33.5316 53.1016 30.2054 57.9229 23.8061 60.3504C17.3393 62.7948 11.5985 61.3113 9.18396 60.4515V127.68H26.1024L26.6765 75.6908L57.8456 75.5391L57.7105 127.663V127.629ZM116.874 105.917H77.9045V75.792H116.874V105.917ZM78.276 105.529H116.486V76.1629H78.276V105.529Z" fill="#0054AC"/>
</g>
<defs>
<clipPath id="clip0_358_3260">
<rect width="142" height="128" fill="white"/>
</clipPath>
</defs>
</svg>
