<svg width="376" height="229" viewBox="0 0 376 229" fill="none" xmlns="http://www.w3.org/2000/svg">
<path d="M374.95 92.407H312.6C312.01 92.407 311.531 92.8861 311.531 93.4757V102.947C311.531 103.536 312.01 104.015 312.6 104.015H314.644V182.29C314.644 182.806 315.068 183.229 315.584 183.229H331.24C331.756 183.229 332.18 182.806 332.18 182.29V154.669C332.18 154.153 332.603 153.729 333.119 153.729H354.375C354.891 153.729 355.315 154.153 355.315 154.669V182.29C355.315 182.806 355.738 183.229 356.254 183.229H371.911C372.427 183.229 372.85 182.806 372.85 182.29V104.015H374.895C375.484 104.015 375.963 103.536 375.963 102.947V93.4757C375.963 92.8861 375.484 92.407 374.895 92.407H374.95Z" fill="#0054AC"/>
<path d="M331.111 108.327H329.158C328.07 108.327 327.188 109.21 327.188 110.299V119.936C327.188 121.024 328.07 121.907 329.158 121.907H331.111C332.199 121.907 333.082 121.024 333.082 119.936V110.299C333.082 109.21 332.199 108.327 331.111 108.327Z" fill="white"/>
<path d="M344.744 108.327H342.791C341.703 108.327 340.82 109.21 340.82 110.299V119.936C340.82 121.024 341.703 121.907 342.791 121.907H344.744C345.832 121.907 346.715 121.024 346.715 119.936V110.299C346.715 109.21 345.832 108.327 344.744 108.327Z" fill="white"/>
<path d="M358.392 108.327H356.44C355.351 108.327 354.469 109.21 354.469 110.299V119.936C354.469 121.024 355.351 121.907 356.44 121.907H358.392C359.481 121.907 360.363 121.024 360.363 119.936V110.299C360.363 109.21 359.481 108.327 358.392 108.327Z" fill="white"/>
<path d="M331.111 128.983H329.158C328.07 128.983 327.188 129.866 327.188 130.955V140.591C327.188 141.68 328.07 142.563 329.158 142.563H331.111C332.199 142.563 333.082 141.68 333.082 140.591V130.955C333.082 129.866 332.199 128.983 331.111 128.983Z" fill="white"/>
<path d="M344.744 128.983H342.791C341.703 128.983 340.82 129.866 340.82 130.955V140.591C340.82 141.68 341.703 142.563 342.791 142.563H344.744C345.832 142.563 346.715 141.68 346.715 140.591V130.955C346.715 129.866 345.832 128.983 344.744 128.983Z" fill="white"/>
<path d="M358.392 128.983H356.44C355.351 128.983 354.469 129.866 354.469 130.955V140.591C354.469 141.68 355.351 142.563 356.44 142.563H358.392C359.481 142.563 360.363 141.68 360.363 140.591V130.955C360.363 129.866 359.481 128.983 358.392 128.983Z" fill="white"/>
<path d="M112.213 133.497L70.8423 96.5162C69.9213 95.687 68.5215 95.687 67.6005 96.5162L26.23 133.497C24.5722 134.99 25.6221 137.735 27.8509 137.735H35.0898C36.4344 137.735 37.5212 138.823 37.5212 140.168V179.931C37.5212 181.276 38.608 182.364 39.9526 182.364H52.7174C54.062 182.364 55.1488 181.276 55.1488 179.931V155.001C55.1488 153.656 56.2356 152.568 57.5802 152.568H80.9179C82.2625 152.568 83.3493 153.656 83.3493 155.001V179.931C83.3493 181.276 84.436 182.364 85.7806 182.364H98.5455C99.8901 182.364 100.977 181.276 100.977 179.931V140.168C100.977 138.823 102.064 137.735 103.408 137.735H110.647C112.876 137.735 113.926 134.99 112.268 133.497H112.213Z" fill="#0054AC"/>
<path d="M58.4806 55.8865C51.0943 40.8508 32.8957 34.6596 17.8653 42.0485C2.83487 49.4374 -3.35413 67.6424 4.05057 82.6781C10.7553 96.3134 26.3015 102.634 40.3557 98.1929L49.105 105.545L48.6261 94.1207C60.7094 85.7 65.1853 69.5034 58.499 55.8865H58.4806Z" fill="white" stroke="#0054AC" stroke-linecap="round" stroke-linejoin="round"/>
<path d="M80.4937 55.8865C87.88 40.8508 106.079 34.6596 121.109 42.0485C136.139 49.4374 142.328 67.6424 134.942 82.6781C128.237 96.3134 112.691 102.634 98.637 98.1929L89.8877 105.545L90.3666 94.1207C78.2833 85.7 73.8074 69.5034 80.4937 55.8865Z" fill="white" stroke="#0054AC" stroke-linecap="round" stroke-linejoin="round"/>
<path d="M28.4569 83.3414C26.1913 81.3882 24.3494 79.0849 22.6179 76.6895C20.9602 74.2573 19.4129 71.7145 18.363 68.9321C13.7581 56.6972 19.3208 53.6937 20.6654 53.0304C22.4337 52.1644 24.7546 52.0538 25.4361 53.878L27.9596 60.4745C28.5122 61.8012 28.6596 64.1598 27.1123 65.2469C26.8176 65.468 26.5413 65.6523 26.2834 65.8734C25.1046 66.8131 25.5098 68.6189 26.1729 70.093C26.1729 70.093 26.5781 71.088 27.9044 73.0043C29.249 74.9206 30.041 75.6392 30.041 75.6392C31.2015 76.7632 32.7671 77.7583 34.0381 76.9844C34.3328 76.8001 34.6091 76.6343 34.9038 76.4132C36.4511 75.326 38.6246 76.2842 39.6745 77.2608L44.9978 81.8857C46.4898 83.1387 45.5872 85.2945 44.1505 86.6581C43.0637 87.6899 38.3483 91.9095 28.4201 83.3967L28.4569 83.3414Z" fill="#0054AC"/>
<path d="M105.215 69.7612C106.891 71.438 109.617 71.438 111.293 69.7612L122.621 58.4291C122.124 58.1159 121.535 57.9316 120.89 57.9316H95.6182C94.9919 57.9316 94.4025 58.1159 93.8867 58.4291L105.215 69.7612Z" fill="#0054AC"/>
<path d="M124.166 61.2484C124.166 60.6219 123.982 60.0323 123.669 59.5164L114.367 68.8216L123.669 78.1268C123.982 77.6293 124.166 77.0396 124.166 76.3947V61.23V61.2484Z" fill="#0054AC"/>
<path d="M113.318 69.8904L112.378 70.8301C111.255 71.9541 109.763 72.5253 108.271 72.5253C106.779 72.5253 105.287 71.9541 104.163 70.8301L103.224 69.8904L93.9219 79.1956C94.4192 79.5088 95.0086 79.6931 95.6533 79.6931H120.925C121.551 79.6931 122.141 79.5088 122.656 79.1956L113.355 69.8904H113.318Z" fill="#0054AC"/>
<path d="M92.8333 59.5164C92.5201 60.0139 92.3359 60.6035 92.3359 61.2484V76.4131C92.3359 77.0396 92.5201 77.6293 92.8333 78.1452L102.135 68.84L92.8333 59.5348V59.5164Z" fill="#0054AC"/>
<path d="M143.379 45.7782C163.825 31.8297 188.525 23.6853 215.123 23.6853C239.861 23.6853 262.959 30.7425 282.502 42.9406" stroke="#0054AC" stroke-width="4" stroke-linecap="round" stroke-linejoin="round"/>
<path d="M275.336 48.9475L292.927 50.182L285.19 34.3171L275.336 48.9475Z" fill="#0054AC"/>
<path d="M288.635 183.222C268.189 197.171 243.489 205.315 216.891 205.315C192.153 205.315 169.055 198.258 149.512 186.06" stroke="#0054AC" stroke-width="4" stroke-linecap="round" stroke-linejoin="round"/>
<path d="M156.677 180.053L139.086 178.836L146.822 194.683L156.677 180.053Z" fill="#0054AC"/>
</svg>
