<svg width="344" height="234" viewBox="0 0 344 234" fill="none" xmlns="http://www.w3.org/2000/svg">
<g clip-path="url(#clip0_358_3292)">
<path d="M171.989 46.1659C184.751 46.1659 195.096 35.8313 195.096 23.083C195.096 10.3346 184.751 0 171.989 0C159.228 0 148.883 10.3346 148.883 23.083C148.883 35.8313 159.228 46.1659 171.989 46.1659Z" fill="#0054AC"/>
<path d="M126.296 71.694C126.296 58.4741 137.019 47.7615 150.252 47.7615H154.961C159.794 51.0975 165.664 53.066 171.99 53.066C178.316 53.066 184.165 51.0975 189.019 47.7615H193.727C206.96 47.7615 217.684 58.4741 217.684 71.694L211.98 130.355C211.503 135.307 207.333 139.078 202.376 139.078H198.601L192.462 224.344C192.068 229.794 187.546 234 182.07 234H161.909C156.454 234 151.912 229.794 151.518 224.344L145.378 139.078H141.603C136.625 139.078 132.477 135.307 132 130.355L126.296 71.694Z" fill="#0054AC"/>
<path d="M332.564 82.8981C335.725 78.5161 334.732 72.4036 330.345 69.2455C325.959 66.0874 319.84 67.0796 316.679 71.4616C313.518 75.8437 314.511 81.9561 318.897 85.1142C323.284 88.2723 329.403 87.2801 332.564 82.8981Z" fill="#0054AC"/>
<path d="M232.265 60.0489C242.529 60.0489 250.849 51.7367 250.849 41.4831C250.849 31.2294 242.529 22.9172 232.265 22.9172C222.001 22.9172 213.68 31.2294 213.68 41.4831C213.68 51.7367 222.001 60.0489 232.265 60.0489Z" fill="#0054AC"/>
<path d="M289.242 73.0602C296.386 70.1041 299.778 61.9224 296.819 54.7859C293.86 47.6493 285.67 44.2604 278.527 47.2164C271.383 50.1725 267.991 58.3542 270.95 65.4907C273.909 72.6273 282.099 76.0162 289.242 73.0602Z" fill="#0054AC"/>
<path d="M275.926 80.9147V80.5831C275.926 80.1894 275.926 79.8165 275.905 79.4228C278.373 80.4381 281.07 81.0183 283.911 81.0183C289.532 81.0183 294.656 78.7804 298.41 75.1543C305.794 75.8381 311.581 82.0336 311.581 89.576L308.117 125.091C307.826 128.075 305.317 130.375 302.288 130.375H300.007L296.294 182.011C296.066 185.306 293.307 187.855 290.009 187.855H277.793C274.495 187.855 271.736 185.306 271.508 182.011L268.21 136.115C269.911 133.981 271.031 131.328 271.3 128.407L275.926 80.9147Z" fill="#0054AC"/>
<path d="M218.866 131.018L224.611 72.0254V71.6939C224.611 69.6011 224.404 67.5497 223.989 65.5605C226.582 66.4515 229.382 66.9488 232.286 66.9488C238.321 66.9488 243.859 64.8353 248.236 61.3335H249.771C260.411 61.3335 269.04 69.9533 269.04 80.5831L264.456 127.744C264.062 131.722 260.722 134.747 256.719 134.747H253.67L248.734 203.312C248.423 207.685 244.772 211.083 240.396 211.083H224.196C219.799 211.083 216.169 207.705 215.858 203.312L211.544 143.264C215.589 140.611 218.389 136.218 218.907 131.038L218.866 131.018Z" fill="#0054AC"/>
<path d="M318.197 92.5806C320.168 93.4094 322.346 93.8652 324.627 93.8652C329.605 93.8652 334.085 91.6688 337.155 88.1877C341.137 89.5553 344 93.3265 344 97.7815L341.573 122.646C341.366 124.739 339.603 126.335 337.508 126.335H335.911L333.318 162.472C333.152 164.772 331.223 166.554 328.921 166.554H320.375C318.052 166.554 316.144 164.772 315.978 162.472L313.655 130.313C314.36 128.925 314.837 127.371 314.982 125.734L318.218 92.5598L318.197 92.5806Z" fill="#0054AC"/>
<path d="M29.0266 78.75C29.8929 73.4183 26.2687 68.3945 20.9317 67.5291C15.5946 66.6636 10.5658 70.2842 9.69948 75.6159C8.83315 80.9476 12.4574 85.9714 17.7944 86.8368C23.1315 87.7023 28.1603 84.0817 29.0266 78.75Z" fill="#0054AC"/>
<path d="M129.795 45.7665C132.153 35.7871 125.966 25.7878 115.977 23.4324C105.987 21.0771 95.9778 27.2576 93.6201 37.237C91.2624 47.2165 97.4491 57.2158 107.439 59.5712C117.428 61.9265 127.437 55.746 129.795 45.7665Z" fill="#0054AC"/>
<path d="M73.9257 62.3815C75.1646 54.7567 69.9816 47.5723 62.3492 46.3346C54.7168 45.097 47.5251 50.2747 46.2862 57.8995C45.0473 65.5242 50.2303 72.7087 57.8627 73.9463C65.4951 75.184 72.6867 70.0062 73.9257 62.3815Z" fill="#0054AC"/>
<path d="M45.6109 75.1335C49.3651 78.7597 54.4883 80.9975 60.1093 80.9975C62.9509 80.9975 65.6473 80.4381 68.1156 79.402C68.1156 79.7957 68.0948 80.1687 68.0948 80.5624V80.8939L72.7202 128.386C73.0106 131.308 74.1099 133.939 75.8107 136.094L72.5128 181.991C72.2846 185.285 69.526 187.834 66.2281 187.834H54.0112C50.7133 187.834 47.9547 185.285 47.7265 181.991L44.0138 130.354H41.7322C38.7247 130.354 36.1942 128.075 35.9038 125.071L32.4399 89.5552C32.4399 82.0129 38.2269 75.7966 45.6109 75.1335Z" fill="#0054AC"/>
<path d="M94.25 61.3335H95.7848C100.161 64.8353 105.699 66.9488 111.735 66.9488C114.639 66.9488 117.418 66.4515 120.032 65.5605C119.638 67.5497 119.41 69.6011 119.41 71.6939V72.0254L125.155 131.018C125.653 136.177 128.474 140.591 132.518 143.243L128.204 203.292C127.893 207.664 124.242 211.062 119.866 211.062H103.667C99.2694 211.062 95.6396 207.684 95.3285 203.292L90.392 134.727H87.343C83.3399 134.727 80.0005 131.701 79.6064 127.723L75.0225 80.5624C75.0225 69.9326 83.651 61.3127 94.2914 61.3127L94.25 61.3335Z" fill="#0054AC"/>
<path d="M6.8445 88.2085C9.91427 91.6896 14.3945 93.886 19.3725 93.886C21.654 93.886 23.8112 93.4301 25.8024 92.6013L29.0381 125.775C29.204 127.412 29.6603 128.966 30.3655 130.355L28.0425 162.513C27.8765 164.813 25.9475 166.595 23.6452 166.595H15.0997C12.7766 166.595 10.8684 164.813 10.7024 162.513L8.10974 126.376H6.51264C4.39699 126.376 2.63395 124.781 2.44728 122.688L0.0205078 97.8229C0.0205078 93.368 2.88285 89.5968 6.86525 88.2292L6.8445 88.2085Z" fill="#0054AC"/>
</g>
<defs>
<clipPath id="clip0_358_3292">
<rect width="344" height="234" fill="white"/>
</clipPath>
</defs>
</svg>
